<?xml version="1.0" encoding="UTF-8" standalone="no"?>
<!DOCTYPE svg PUBLIC "-//W3C//DTD SVG 20010904//EN"
              "http://www.w3.org/TR/2001/REC-SVG-20010904/DTD/svg10.dtd">

<svg xmlns="http://www.w3.org/2000/svg"
     width="48.0556in" height="97.1111in"
     viewBox="0 0 3460 6992">
  <path id="Slumbering Weald_2"
        fill="none" stroke="black" stroke-width="1"
        d="M 554.31,4686.02
           C 550.53,4690.08 551.99,4699.54 552.00,4705.00
             552.01,4707.91 551.55,4712.14 554.31,4713.98
             556.78,4715.62 568.48,4715.01 572.00,4715.00
             574.54,4715.00 578.48,4715.32 580.40,4713.40
             582.04,4711.77 581.96,4709.14 582.00,4707.00
             582.06,4703.38 582.59,4689.74 580.98,4687.31
             579.40,4684.95 576.52,4685.05 574.00,4685.00
             568.69,4684.91 558.99,4684.24 554.31,4686.02 Z" />
  <path id="Slumbering Weald_1"
        fill="none" stroke="black" stroke-width="1"
        d="M 646.31,4794.02
           C 642.53,4798.08 643.99,4807.54 644.00,4813.00
             644.01,4815.91 643.55,4820.14 646.31,4821.98
             648.78,4823.62 660.48,4823.01 664.00,4823.00
             666.54,4823.00 670.48,4823.32 672.40,4821.40
             674.04,4819.77 673.96,4817.14 674.00,4815.00
             674.06,4811.38 674.59,4797.74 672.98,4795.31
             671.40,4792.95 668.52,4793.05 666.00,4793.00
             660.69,4792.91 650.99,4792.24 646.31,4794.02 Z" />
  <path id="Glimwood Tangle"
        fill="none" stroke="black" stroke-width="1"
        d="M 439.31,1789.02
           C 435.53,1793.08 436.99,1802.54 437.00,1808.00
             437.01,1810.91 436.55,1815.14 439.31,1816.98
             441.78,1818.62 453.48,1818.01 457.00,1818.00
             459.54,1817.99 463.48,1818.32 465.40,1816.40
             467.04,1814.77 466.96,1812.14 467.00,1810.00
             467.06,1806.38 467.59,1792.74 465.98,1790.31
             464.40,1787.95 461.52,1788.05 459.00,1788.00
             453.69,1787.91 443.99,1787.24 439.31,1789.02 Z" />
  <path id="Route 9 Tunnel"
        fill="none" stroke="black" stroke-width="1"
        d="M 1392.31,2412.02
           C 1388.53,2416.08 1389.99,2425.54 1390.00,2431.00
             1390.01,2433.91 1389.55,2438.14 1392.31,2439.98
             1394.78,2441.62 1406.48,2441.01 1410.00,2441.00
             1412.54,2440.99 1416.48,2441.32 1418.40,2439.40
             1420.04,2437.77 1419.96,2435.14 1420.00,2433.00
             1420.06,2429.38 1420.59,2415.74 1418.98,2413.31
             1417.40,2410.95 1414.52,2411.05 1412.00,2411.00
             1406.69,2410.91 1396.99,2410.24 1392.31,2412.02 Z" />
  <path id="Galar Mine No. 2"
        fill="none" stroke="black" stroke-width="1"
        d="M 1381.31,3042.02
           C 1377.53,3046.08 1378.99,3055.54 1379.00,3061.00
             1379.01,3063.91 1378.55,3068.14 1381.31,3069.98
             1383.78,3071.62 1395.48,3071.01 1399.00,3071.00
             1401.54,3070.99 1405.48,3071.32 1407.40,3069.40
             1409.04,3067.77 1408.96,3065.14 1409.00,3063.00
             1409.06,3059.38 1409.59,3045.74 1407.98,3043.31
             1406.40,3040.95 1403.52,3041.05 1401.00,3041.00
             1395.69,3040.91 1385.99,3040.24 1381.31,3042.02 Z" />
  <path id="Galar Mine"
        fill="none" stroke="black" stroke-width="1"
        d="M 310.31,3068.02
           C 306.53,3072.08 307.99,3081.54 308.00,3087.00
             308.01,3089.91 307.55,3094.14 310.31,3095.98
             312.78,3097.62 324.48,3097.01 328.00,3097.00
             330.54,3096.99 334.48,3097.32 336.40,3095.40
             338.04,3093.77 337.96,3091.14 338.00,3089.00
             338.06,3085.38 338.59,3071.74 336.98,3069.31
             335.40,3066.95 332.52,3067.05 330.00,3067.00
             324.69,3066.91 314.99,3066.24 310.31,3068.02 Z" />
  <path id="Postwick"
        fill="none" stroke="black" stroke-width="1"
        d="M 975.00,4754.08
           C 971.50,4756.32 960.63,4765.82 960.63,4770.00
             960.63,4771.97 961.95,4773.57 963.15,4775.00
             966.06,4778.48 974.06,4787.96 979.00,4785.92
             982.31,4784.55 993.37,4773.61 993.37,4770.00
             993.37,4767.34 990.69,4764.79 988.98,4763.00
             985.17,4759.02 980.94,4752.97 975.00,4754.08 Z" />
  <path id="Wedgehurst"
        fill="none" stroke="black" stroke-width="1"
        d="M 975.00,4425.08
           C 971.50,4427.32 960.63,4436.82 960.63,4441.00
             960.63,4442.97 961.95,4444.57 963.15,4446.00
             966.06,4449.48 974.06,4458.96 979.00,4456.92
             982.31,4455.55 993.37,4444.61 993.37,4441.00
             993.37,4438.34 990.69,4435.79 988.98,4434.00
             985.17,4430.02 980.94,4423.97 975.00,4425.08 Z" />
  <path id="Motostoke"
        fill="none" stroke="black" stroke-width="1"
        d="M 909.00,3203.08
           C 905.50,3205.32 894.63,3214.82 894.63,3219.00
             894.63,3220.97 895.95,3222.57 897.15,3224.00
             900.06,3227.48 908.06,3236.96 913.00,3234.92
             916.31,3233.55 927.37,3222.61 927.37,3219.00
             927.37,3216.34 924.69,3213.79 922.98,3212.00
             919.17,3208.02 914.94,3201.97 909.00,3203.08 Z" />
  <path id="Turffield"
        fill="none" stroke="black" stroke-width="1"
        d="M 438.00,2823.08
           C 434.50,2825.32 423.63,2834.82 423.63,2839.00
             423.63,2840.97 424.95,2842.57 426.15,2844.00
             429.06,2847.48 437.06,2856.96 442.00,2854.92
             445.31,2853.55 456.37,2842.61 456.37,2839.00
             456.37,2836.34 453.69,2833.79 451.98,2832.00
             448.17,2828.02 443.94,2821.97 438.00,2823.08 Z" />
  <path id="Hulbury"
        fill="none" stroke="black" stroke-width="1"
        d="M 1364.00,2820.08
           C 1360.50,2822.32 1349.63,2831.82 1349.63,2836.00
             1349.63,2837.97 1350.95,2839.57 1352.15,2841.00
             1355.06,2844.48 1363.06,2853.96 1368.00,2851.92
             1371.31,2850.55 1382.37,2839.61 1382.37,2836.00
             1382.37,2833.34 1379.69,2830.79 1377.98,2829.00
             1374.17,2825.02 1369.94,2818.97 1364.00,2820.08 Z" />
  <path id="Hammerlocke"
        fill="none" stroke="black" stroke-width="1"
        d="M 934.00,2410.08
           C 930.50,2412.32 919.63,2421.82 919.63,2426.00
             919.63,2427.97 920.95,2429.57 922.15,2431.00
             925.06,2434.48 933.06,2443.96 938.00,2441.92
             941.31,2440.55 952.37,2429.61 952.37,2426.00
             952.37,2423.34 949.69,2420.79 947.98,2419.00
             944.17,2415.02 939.94,2408.97 934.00,2410.08 Z" />
  <path id="Stow-on-Side"
        fill="none" stroke="black" stroke-width="1"
        d="M 449.00,2187.08
           C 445.50,2189.32 434.63,2198.82 434.63,2203.00
             434.63,2204.97 435.95,2206.57 437.15,2208.00
             440.06,2211.48 448.06,2220.96 453.00,2218.92
             456.31,2217.55 467.37,2206.61 467.37,2203.00
             467.37,2200.34 464.69,2197.79 462.98,2196.00
             459.17,2192.02 454.94,2185.97 449.00,2187.08 Z" />
  <path id="Ballonlea"
        fill="none" stroke="black" stroke-width="1"
        d="M 363.00,1686.08
           C 359.50,1688.32 348.63,1697.82 348.63,1702.00
             348.63,1703.97 349.95,1705.57 351.15,1707.00
             354.06,1710.48 362.06,1719.96 367.00,1717.92
             370.31,1716.55 381.37,1705.61 381.37,1702.00
             381.37,1699.34 378.69,1696.79 376.98,1695.00
             373.17,1691.02 368.94,1684.97 363.00,1686.08 Z" />
  <path id="Spikemuth"
        fill="none" stroke="black" stroke-width="1"
        d="M 1678.00,2410.08
           C 1674.50,2412.32 1663.63,2421.82 1663.63,2426.00
             1663.63,2427.97 1664.95,2429.57 1666.15,2431.00
             1669.06,2434.48 1677.06,2443.96 1682.00,2441.92
             1685.31,2440.55 1696.37,2429.61 1696.37,2426.00
             1696.37,2423.34 1693.69,2420.79 1691.98,2419.00
             1688.17,2415.02 1683.94,2408.97 1678.00,2410.08 Z" />
  <path id="Wyndon"
        fill="none" stroke="black" stroke-width="1"
        d="M 931.00,1082.08
           C 927.50,1084.32 916.63,1093.82 916.63,1098.00
             916.63,1099.97 917.95,1101.57 919.15,1103.00
             922.06,1106.48 930.06,1115.96 935.00,1113.92
             938.31,1112.55 949.37,1101.61 949.37,1098.00
             949.37,1095.34 946.69,1092.79 944.98,1091.00
             941.17,1087.02 936.94,1080.97 931.00,1082.08 Z" />
  <path id="Battle Tower"
        fill="none" stroke="black" stroke-width="1"
        d="M 932.00,646.08
           C 928.50,648.32 917.63,657.82 917.63,662.00
             917.63,663.97 918.95,665.57 920.15,667.00
             923.06,670.48 931.06,679.96 936.00,677.92
             939.31,676.55 950.37,665.61 950.37,662.00
             950.37,659.34 947.69,656.79 945.98,655.00
             942.17,651.02 937.94,644.97 932.00,646.08 Z" />
  <path id="Circhester"
        fill="none" stroke="black" stroke-width="1"
        d="M 1540.00,1840.08
           C 1536.50,1842.32 1525.63,1851.82 1525.63,1856.00
             1525.63,1857.97 1526.95,1859.57 1528.15,1861.00
             1531.06,1864.48 1539.06,1873.96 1544.00,1871.92
             1547.31,1870.55 1558.37,1859.61 1558.37,1856.00
             1558.37,1853.34 1555.69,1850.79 1553.98,1849.00
             1550.17,1845.02 1545.94,1838.97 1540.00,1840.08 Z" />
  <path id="Meetup Spot"
        fill="none" stroke="black" stroke-width="1"
        d="M 860.31,4058.02
           C 859.53,4058.86 859.37,4058.36 858.60,4060.15
             857.21,4063.34 857.25,4075.93 860.31,4077.98
             862.39,4079.36 868.38,4079.02 871.00,4079.00
             873.35,4078.98 876.61,4079.19 878.40,4077.40
             880.75,4075.05 880.75,4060.95 878.40,4058.60
             875.76,4055.96 863.66,4056.75 860.31,4058.02 Z" />
  <path id="Rolling Fields"
        fill="none" stroke="black" stroke-width="1"
        d="M 761.31,3882.02
           C 760.53,3882.86 760.37,3882.36 759.60,3884.15
             758.21,3887.34 758.25,3899.93 761.31,3901.98
             763.39,3903.36 769.38,3903.02 772.00,3903.00
             774.35,3902.98 777.61,3903.19 779.40,3901.40
             781.75,3899.05 781.75,3884.95 779.40,3882.60
             776.76,3879.96 764.66,3880.75 761.31,3882.02 Z" />
  <path id="Dappled Grove"
        fill="none" stroke="black" stroke-width="1"
        d="M 631.31,3912.02
           C 630.53,3912.86 630.37,3912.36 629.60,3914.15
             628.21,3917.34 628.25,3929.93 631.31,3931.98
             633.39,3933.36 639.38,3933.02 642.00,3933.00
             644.35,3932.98 647.61,3933.19 649.40,3931.40
             651.75,3929.05 651.75,3914.95 649.40,3912.60
             646.76,3909.96 634.66,3910.75 631.31,3912.02 Z" />
  <path id="West Lake Axewell"
        fill="none" stroke="black" stroke-width="1"
        d="M 652.31,3686.02
           C 651.53,3686.86 651.37,3686.36 650.60,3688.15
             649.21,3691.34 649.25,3703.93 652.31,3705.98
             654.39,3707.36 660.38,3707.02 663.00,3707.00
             665.35,3706.98 668.61,3707.19 670.40,3705.40
             672.75,3703.05 672.75,3688.95 670.40,3686.60
             667.76,3683.96 655.66,3684.75 652.31,3686.02 Z" />
  <path id="Axew&apos;s Eye"
        fill="none" stroke="black" stroke-width="1"
        d="M 816.31,3702.02
           C 815.53,3702.86 815.37,3702.36 814.60,3704.15
             813.21,3707.34 813.25,3719.93 816.31,3721.98
             818.39,3723.36 824.38,3723.02 827.00,3723.00
             829.35,3722.98 832.61,3723.19 834.40,3721.40
             836.75,3719.05 836.75,3704.95 834.40,3702.60
             831.76,3699.96 819.66,3700.75 816.31,3702.02 Z" />
  <path id="Watchtower Ruins"
        fill="none" stroke="black" stroke-width="1"
        d="M 691.31,3525.02
           C 690.53,3525.86 690.37,3525.36 689.60,3527.15
             688.21,3530.34 688.25,3542.93 691.31,3544.98
             693.39,3546.36 699.38,3546.02 702.00,3546.00
             704.35,3545.98 707.61,3546.19 709.40,3544.40
             711.75,3542.05 711.75,3527.95 709.40,3525.60
             706.76,3522.96 694.66,3523.75 691.31,3525.02 Z" />
  <path id="East Lake Axewell"
        fill="none" stroke="black" stroke-width="1"
        d="M 901.31,3522.02
           C 900.53,3522.86 900.37,3522.36 899.60,3524.15
             898.21,3527.34 898.25,3539.93 901.31,3541.98
             903.39,3543.36 909.38,3543.02 912.00,3543.00
             914.35,3542.98 917.61,3543.19 919.40,3541.40
             921.75,3539.05 921.75,3524.95 919.40,3522.60
             916.76,3519.96 904.66,3520.75 901.31,3522.02 Z" />
  <path id="North Lake Miloch"
        fill="none" stroke="black" stroke-width="1"
        d="M 1121.31,3492.02
           C 1120.53,3492.86 1120.37,3492.36 1119.60,3494.15
             1118.21,3497.34 1118.25,3509.93 1121.31,3511.98
             1123.39,3513.36 1129.38,3513.02 1132.00,3513.00
             1134.35,3512.98 1137.61,3513.19 1139.40,3511.40
             1141.75,3509.05 1141.75,3494.95 1139.40,3492.60
             1136.76,3489.96 1124.66,3490.75 1121.31,3492.02 Z" />
  <path id="South Lake Miloch"
        fill="none" stroke="black" stroke-width="1"
        d="M 1056.31,3762.02
           C 1055.53,3762.86 1055.37,3762.36 1054.60,3764.15
             1053.21,3767.34 1053.25,3779.93 1056.31,3781.98
             1058.39,3783.36 1064.38,3783.02 1067.00,3783.00
             1069.35,3782.98 1072.61,3783.19 1074.40,3781.40
             1076.75,3779.05 1076.75,3764.95 1074.40,3762.60
             1071.76,3759.96 1059.66,3760.75 1056.31,3762.02 Z" />
  <path id="Giant&apos;s Seat"
        fill="none" stroke="black" stroke-width="1"
        d="M 1161.31,3802.02
           C 1160.53,3802.86 1160.37,3802.36 1159.60,3804.15
             1158.21,3807.34 1158.25,3819.93 1161.31,3821.98
             1163.39,3823.36 1169.38,3823.02 1172.00,3823.00
             1174.35,3822.98 1177.61,3823.19 1179.40,3821.40
             1181.75,3819.05 1181.75,3804.95 1179.40,3802.60
             1176.76,3799.96 1164.66,3800.75 1161.31,3802.02 Z" />
  <path id="Motostoke Riverbank"
        fill="none" stroke="black" stroke-width="1"
        d="M 1107.31,3296.02
           C 1106.53,3296.86 1106.37,3296.36 1105.60,3298.15
             1104.21,3301.34 1104.25,3313.93 1107.31,3315.98
             1109.39,3317.36 1115.38,3317.02 1118.00,3317.00
             1120.35,3316.98 1123.61,3317.19 1125.40,3315.40
             1127.75,3313.05 1127.75,3298.95 1125.40,3296.60
             1122.76,3293.96 1110.66,3294.75 1107.31,3296.02 Z" />
  <path id="Bridge Field"
        fill="none" stroke="black" stroke-width="1"
        d="M 1061.31,3037.02
           C 1060.53,3037.86 1060.37,3037.36 1059.60,3039.15
             1058.21,3042.34 1058.25,3054.93 1061.31,3056.98
             1063.39,3058.36 1069.38,3058.02 1072.00,3058.00
             1074.35,3057.98 1077.61,3058.19 1079.40,3056.40
             1081.75,3054.05 1081.75,3039.95 1079.40,3037.60
             1076.76,3034.96 1064.66,3035.75 1061.31,3037.02 Z" />
  <path id="Stony Wilderness"
        fill="none" stroke="black" stroke-width="1"
        d="M 1031.31,2792.02
           C 1030.53,2792.86 1030.37,2792.36 1029.60,2794.15
             1028.21,2797.34 1028.25,2809.93 1031.31,2811.98
             1033.39,2813.36 1039.38,2813.02 1042.00,2813.00
             1044.35,2812.98 1047.61,2813.19 1049.40,2811.40
             1051.75,2809.05 1051.75,2794.95 1049.40,2792.60
             1046.76,2789.96 1034.66,2790.75 1031.31,2792.02 Z" />
  <path id="Giant&apos;s Mirror"
        fill="none" stroke="black" stroke-width="1"
        d="M 1043.31,2692.02
           C 1042.53,2692.86 1042.37,2692.36 1041.60,2694.15
             1040.21,2697.34 1040.25,2709.93 1043.31,2711.98
             1045.39,2713.36 1051.38,2713.02 1054.00,2713.00
             1056.35,2712.98 1059.61,2713.19 1061.40,2711.40
             1063.75,2709.05 1063.75,2694.95 1061.40,2692.60
             1058.76,2689.96 1046.66,2690.75 1043.31,2692.02 Z" />
  <path id="Dusty Bowl"
        fill="none" stroke="black" stroke-width="1"
        d="M 951.31,2692.02
           C 950.53,2692.86 950.37,2692.36 949.60,2694.15
             948.21,2697.34 948.25,2709.93 951.31,2711.98
             953.39,2713.36 959.38,2713.02 962.00,2713.00
             964.35,2712.98 967.61,2713.19 969.40,2711.40
             971.75,2709.05 971.75,2694.95 969.40,2692.60
             966.76,2689.96 954.66,2690.75 951.31,2692.02 Z" />
  <path id="Giant&apos;s Cap"
        fill="none" stroke="black" stroke-width="1"
        d="M 825.31,2692.02
           C 824.53,2692.86 824.37,2692.36 823.60,2694.15
             822.21,2697.34 822.25,2709.93 825.31,2711.98
             827.39,2713.36 833.38,2713.02 836.00,2713.00
             838.35,2712.98 841.61,2713.19 843.40,2711.40
             845.75,2709.05 845.75,2694.95 843.40,2692.60
             840.76,2689.96 828.66,2690.75 825.31,2692.02 Z" />
  <path id="Lake of Outrage"
        fill="none" stroke="black" stroke-width="1"
        d="M 751.31,2582.02
           C 750.53,2582.86 750.37,2582.36 749.60,2584.15
             748.21,2587.34 748.25,2599.93 751.31,2601.98
             753.39,2603.36 759.38,2603.02 762.00,2603.00
             764.35,2602.98 767.61,2603.19 769.40,2601.40
             771.75,2599.05 771.75,2584.95 769.40,2582.60
             766.76,2579.96 754.66,2580.75 751.31,2582.02 Z" />
  <path id="Hammerlocke Hills"
        fill="none" stroke="black" stroke-width="1"
        d="M 1011.31,2552.02
           C 1010.53,2552.86 1010.37,2552.36 1009.60,2554.15
             1008.21,2557.34 1008.25,2569.93 1011.31,2571.98
             1013.39,2573.36 1019.38,2573.02 1022.00,2573.00
             1024.35,2572.98 1027.61,2573.19 1029.40,2571.40
             1031.75,2569.05 1031.75,2554.95 1029.40,2552.60
             1026.76,2549.96 1014.66,2550.75 1011.31,2552.02 Z" />
  <path id="Motostoke Outskirts"
        fill="none" stroke="black" stroke-width="1"
        d="M 940.00,3204.00
           C 945.24,3211.32 951.15,3213.24 949.00,3223.00
             949.00,3223.00 1166.00,3223.00 1166.00,3223.00
             1167.95,3223.00 1171.13,3222.88 1172.90,3223.60
             1175.75,3224.75 1176.83,3227.42 1179.21,3229.67
             1182.76,3233.05 1188.09,3235.56 1193.00,3235.90
             1198.60,3236.30 1204.46,3234.57 1208.96,3231.21
             1216.77,3225.38 1212.34,3223.02 1224.00,3223.00
             1224.00,3223.00 1286.00,3223.00 1286.00,3223.00
             1290.20,3222.99 1295.37,3223.16 1298.87,3220.44
             1304.04,3216.42 1303.76,3208.43 1297.90,3205.17
             1295.40,3203.79 1291.80,3204.00 1289.00,3204.00
             1289.00,3204.00 1224.00,3204.00 1224.00,3204.00
             1211.73,3203.98 1216.75,3200.84 1208.00,3194.65
             1203.88,3191.73 1199.92,3191.01 1195.00,3191.01
             1190.08,3191.01 1186.12,3191.73 1182.00,3194.65
             1173.25,3200.84 1178.27,3203.98 1166.00,3204.00
             1166.00,3204.00 940.00,3204.00 940.00,3204.00 Z" />
  <path id="Stepping-Stone Sea"
        fill="none" stroke="black" stroke-width="1"
        d="M 2187.31,2559.02
           C 2186.53,2559.86 2186.37,2559.36 2185.60,2561.15
             2184.21,2564.34 2184.25,2576.93 2187.31,2578.98
             2189.39,2580.36 2195.38,2580.02 2198.00,2580.00
             2200.35,2579.98 2203.61,2580.19 2205.40,2578.40
             2207.75,2576.05 2207.75,2561.95 2205.40,2559.60
             2202.76,2556.96 2190.66,2557.75 2187.31,2559.02 Z" />
  <path id="Challenge Beach"
        fill="none" stroke="black" stroke-width="1"
        d="M 2453.31,2489.02
           C 2452.53,2489.86 2452.37,2489.36 2451.60,2491.15
             2450.21,2494.34 2450.25,2506.93 2453.31,2508.98
             2455.39,2510.36 2461.38,2510.02 2464.00,2510.00
             2466.35,2509.98 2469.61,2510.19 2471.40,2508.40
             2473.75,2506.05 2473.75,2491.95 2471.40,2489.60
             2468.76,2486.96 2456.66,2487.75 2453.31,2489.02 Z" />
  <path id="Forest of Focus"
        fill="none" stroke="black" stroke-width="1"
        d="M 2571.31,2427.02
           C 2570.53,2427.86 2570.37,2427.36 2569.60,2429.15
             2568.21,2432.34 2568.25,2444.93 2571.31,2446.98
             2573.39,2448.36 2579.38,2448.02 2582.00,2448.00
             2584.35,2447.98 2587.61,2448.19 2589.40,2446.40
             2591.75,2444.05 2591.75,2429.95 2589.40,2427.60
             2586.76,2424.96 2574.66,2425.75 2571.31,2427.02 Z" />
  <path id="Training Lowlands"
        fill="none" stroke="black" stroke-width="1"
        d="M 2731.31,2297.02
           C 2730.53,2297.86 2730.37,2297.36 2729.60,2299.15
             2728.21,2302.34 2728.25,2314.93 2731.31,2316.98
             2733.39,2318.36 2739.38,2318.02 2742.00,2318.00
             2744.35,2317.98 2747.61,2318.19 2749.40,2316.40
             2751.75,2314.05 2751.75,2299.95 2749.40,2297.60
             2746.76,2294.96 2734.66,2295.75 2731.31,2297.02 Z" />
  <path id="Warm-Up Tunnel"
        fill="none" stroke="black" stroke-width="1"
        d="M 2731.31,2187.02
           C 2730.53,2187.86 2730.37,2187.36 2729.60,2189.15
             2728.21,2192.34 2728.25,2204.93 2731.31,2206.98
             2733.39,2208.36 2739.38,2208.02 2742.00,2208.00
             2744.35,2207.98 2747.61,2208.19 2749.40,2206.40
             2751.75,2204.05 2751.75,2189.95 2749.40,2187.60
             2746.76,2184.96 2734.66,2185.75 2731.31,2187.02 Z" />
  <path id="Honeycalm Sea"
        fill="none" stroke="black" stroke-width="1"
        d="M 2599.31,2031.02
           C 2598.53,2031.86 2598.37,2031.36 2597.60,2033.15
             2596.21,2036.34 2596.25,2048.93 2599.31,2050.98
             2601.39,2052.36 2607.38,2052.02 2610.00,2052.00
             2612.35,2051.98 2615.61,2052.19 2617.40,2050.40
             2619.75,2048.05 2619.75,2033.95 2617.40,2031.60
             2614.76,2028.96 2602.66,2029.75 2599.31,2031.02 Z" />
  <path id="Potbottom Desert"
        fill="none" stroke="black" stroke-width="1"
        d="M 2799.31,2129.02
           C 2798.53,2129.86 2798.37,2129.36 2797.60,2131.15
             2796.21,2134.34 2796.25,2146.93 2799.31,2148.98
             2801.39,2150.36 2807.38,2150.02 2810.00,2150.00
             2812.35,2149.98 2815.61,2150.19 2817.40,2148.40
             2819.75,2146.05 2819.75,2131.95 2817.40,2129.60
             2814.76,2126.96 2802.66,2127.75 2799.31,2129.02 Z" />
  <path id="Soothing Wetlands"
        fill="none" stroke="black" stroke-width="1"
        d="M 2701.31,2559.02
           C 2700.53,2559.86 2700.37,2559.36 2699.60,2561.15
             2698.21,2564.34 2698.25,2576.93 2701.31,2578.98
             2703.39,2580.36 2709.38,2580.02 2712.00,2580.00
             2714.35,2579.98 2717.61,2580.19 2719.40,2578.40
             2721.75,2576.05 2721.75,2561.95 2719.40,2559.60
             2716.76,2556.96 2704.66,2557.75 2701.31,2559.02 Z" />
  <path id="Courageous Cavern"
        fill="none" stroke="black" stroke-width="1"
        d="M 2571.31,2607.02
           C 2570.53,2607.86 2570.37,2607.36 2569.60,2609.15
             2568.21,2612.34 2568.25,2624.93 2571.31,2626.98
             2573.39,2628.36 2579.38,2628.02 2582.00,2628.00
             2584.35,2627.98 2587.61,2628.19 2589.40,2626.40
             2591.75,2624.05 2591.75,2609.95 2589.40,2607.60
             2586.76,2604.96 2574.66,2605.75 2571.31,2607.02 Z" />
  <path id="Fields of Honor"
        fill="none" stroke="black" stroke-width="1"
        d="M 2701.31,2743.02
           C 2700.53,2743.86 2700.37,2743.36 2699.60,2745.15
             2698.21,2748.34 2698.25,2760.93 2701.31,2762.98
             2703.39,2764.36 2709.38,2764.02 2712.00,2764.00
             2714.35,2763.98 2717.61,2764.19 2719.40,2762.40
             2721.75,2760.05 2721.75,2745.95 2719.40,2743.60
             2716.76,2740.96 2704.66,2741.75 2701.31,2743.02 Z" />
  <path id="Loop Lagoon"
        fill="none" stroke="black" stroke-width="1"
        d="M 2425.31,2705.02
           C 2424.53,2705.86 2424.37,2705.36 2423.60,2707.15
             2422.21,2710.34 2422.25,2722.93 2425.31,2724.98
             2427.39,2726.36 2433.38,2726.02 2436.00,2726.00
             2438.35,2725.98 2441.61,2726.19 2443.40,2724.40
             2445.75,2722.05 2445.75,2707.95 2443.40,2705.60
             2440.76,2702.96 2428.66,2703.75 2425.31,2705.02 Z" />
  <path id="Workout Sea"
        fill="none" stroke="black" stroke-width="1"
        d="M 2887.31,2843.02
           C 2886.53,2843.86 2886.37,2843.36 2885.60,2845.15
             2884.21,2848.34 2884.25,2860.93 2887.31,2862.98
             2889.39,2864.36 2895.38,2864.02 2898.00,2864.00
             2900.35,2863.98 2903.61,2864.19 2905.40,2862.40
             2907.75,2860.05 2907.75,2845.95 2905.40,2843.60
             2902.76,2840.96 2890.66,2841.75 2887.31,2843.02 Z" />
  <path id="Insular Sea"
        fill="none" stroke="black" stroke-width="1"
        d="M 2251.31,2171.02
           C 2250.53,2171.86 2250.37,2171.36 2249.60,2173.15
             2248.21,2176.34 2248.25,2188.93 2251.31,2190.98
             2253.39,2192.36 2259.38,2192.02 2262.00,2192.00
             2264.35,2191.98 2267.61,2192.19 2269.40,2190.40
             2271.75,2188.05 2271.75,2173.95 2269.40,2171.60
             2266.76,2168.96 2254.66,2169.75 2251.31,2171.02 Z" />
  <path id="Honeycalm Island"
        fill="none" stroke="black" stroke-width="1"
        d="M 2453.31,2129.02
           C 2452.53,2129.86 2452.37,2129.36 2451.60,2131.15
             2450.21,2134.34 2450.25,2146.93 2453.31,2148.98
             2455.39,2150.36 2461.38,2150.02 2464.00,2150.00
             2466.35,2149.98 2469.61,2150.19 2471.40,2148.40
             2473.75,2146.05 2473.75,2131.95 2471.40,2129.60
             2468.76,2126.96 2456.66,2127.75 2453.31,2129.02 Z" />
  <path id="Challenge Road"
        fill="none" stroke="black" stroke-width="1"
        d="M 2913.31,2297.02
           C 2912.53,2297.86 2912.37,2297.36 2911.60,2299.15
             2910.21,2302.34 2910.25,2314.93 2913.31,2316.98
             2915.39,2318.36 2921.38,2318.02 2924.00,2318.00
             2926.35,2317.98 2929.61,2318.19 2931.40,2316.40
             2933.75,2314.05 2933.75,2299.95 2931.40,2297.60
             2928.76,2294.96 2916.66,2295.75 2913.31,2297.02 Z" />
  <path id="Brawlers&apos; Cave"
        fill="none" stroke="black" stroke-width="1"
        d="M 2887.31,2439.02
           C 2886.53,2439.86 2886.37,2439.36 2885.60,2441.15
             2884.21,2444.34 2884.25,2456.93 2887.31,2458.98
             2889.39,2460.36 2895.38,2460.02 2898.00,2460.00
             2900.35,2459.98 2903.61,2460.19 2905.40,2458.40
             2907.75,2456.05 2907.75,2441.95 2905.40,2439.60
             2902.76,2436.96 2890.66,2437.75 2887.31,2439.02 Z" />
  <path id="Crown Shrine"
        fill="none" stroke="black" stroke-width="1"
        d="M 973.31,5190.02
           C 972.53,5190.86 972.37,5190.36 971.60,5192.15
             970.21,5195.34 970.25,5207.93 973.31,5209.98
             975.39,5211.36 981.38,5211.02 984.00,5211.00
             986.35,5210.98 989.61,5211.19 991.40,5209.40
             993.75,5207.05 993.75,5192.95 991.40,5190.60
             988.76,5187.96 976.66,5188.75 973.31,5190.02 Z" />
  <path id="Path to the Peak"
        fill="none" stroke="black" stroke-width="1"
        d="M 1039.31,5278.02
           C 1038.53,5278.86 1038.37,5278.36 1037.60,5280.15
             1036.21,5283.34 1036.25,5295.93 1039.31,5297.98
             1041.39,5299.36 1047.38,5299.02 1050.00,5299.00
             1052.35,5298.98 1055.61,5299.19 1057.40,5297.40
             1059.75,5295.05 1059.75,5280.95 1057.40,5278.60
             1054.76,5275.96 1042.66,5276.75 1039.31,5278.02 Z" />
  <path id="Tunnel to the Top"
        fill="none" stroke="black" stroke-width="1"
        d="M 1105.31,5418.02
           C 1104.53,5418.86 1104.37,5418.36 1103.60,5420.15
             1102.21,5423.34 1102.25,5435.93 1105.31,5437.98
             1107.39,5439.36 1113.38,5439.02 1116.00,5439.00
             1118.35,5438.98 1121.61,5439.19 1123.40,5437.40
             1125.75,5435.05 1125.75,5420.95 1123.40,5418.60
             1120.76,5415.96 1108.66,5416.75 1105.31,5418.02 Z" />
  <path id="Snowslide Slope"
        fill="none" stroke="black" stroke-width="1"
        d="M 1003.31,5666.02
           C 1002.53,5666.86 1002.37,5666.36 1001.60,5668.15
             1000.21,5671.34 1000.25,5683.93 1003.31,5685.98
             1005.39,5687.36 1011.38,5687.02 1014.00,5687.00
             1016.35,5686.98 1019.61,5687.19 1021.40,5685.40
             1023.75,5683.05 1023.75,5668.95 1021.40,5666.60
             1018.76,5663.96 1006.66,5664.75 1003.31,5666.02 Z" />
  <path id="Roaring-Sea Caves"
        fill="none" stroke="black" stroke-width="1"
        d="M 1321.31,5822.02
           C 1320.53,5822.86 1320.37,5822.36 1319.60,5824.15
             1318.21,5827.34 1318.25,5839.93 1321.31,5841.98
             1323.39,5843.36 1329.38,5843.02 1332.00,5843.00
             1334.35,5842.98 1337.61,5843.19 1339.40,5841.40
             1341.75,5839.05 1341.75,5824.95 1339.40,5822.60
             1336.76,5819.96 1324.66,5820.75 1321.31,5822.02 Z" />
  <path id="Three-Point Pass"
        fill="none" stroke="black" stroke-width="1"
        d="M 1587.31,5968.02
           C 1586.53,5968.86 1586.37,5968.36 1585.60,5970.15
             1584.21,5973.34 1584.25,5985.93 1587.31,5987.98
             1589.39,5989.36 1595.38,5989.02 1598.00,5989.00
             1600.35,5988.98 1603.61,5989.19 1605.40,5987.40
             1607.75,5985.05 1607.75,5970.95 1605.40,5968.60
             1602.76,5965.96 1590.66,5966.75 1587.31,5968.02 Z" />
  <path id="Giant&apos;s Foot"
        fill="none" stroke="black" stroke-width="1"
        d="M 1276.31,6094.02
           C 1275.53,6094.86 1275.37,6094.36 1274.60,6096.15
             1273.21,6099.34 1273.25,6111.93 1276.31,6113.98
             1278.39,6115.36 1284.38,6115.02 1287.00,6115.00
             1289.35,6114.98 1292.61,6115.19 1294.40,6113.40
             1296.75,6111.05 1296.75,6096.95 1294.40,6094.60
             1291.76,6091.96 1279.66,6092.75 1276.31,6094.02 Z" />
  <path id="Giant&apos;s Bed"
        fill="none" stroke="black" stroke-width="1"
        d="M 905.31,6058.02
           C 904.53,6058.86 904.37,6058.36 903.60,6060.15
             902.21,6063.34 902.25,6075.93 905.31,6077.98
             907.39,6079.36 913.38,6079.02 916.00,6079.00
             918.35,6078.98 921.61,6079.19 923.40,6077.40
             925.75,6075.05 925.75,6060.95 923.40,6058.60
             920.76,6055.96 908.66,6056.75 905.31,6058.02 Z" />
  <path id="Old Cemetery"
        fill="none" stroke="black" stroke-width="1"
        d="M 905.31,6174.02
           C 904.53,6174.86 904.37,6174.36 903.60,6176.15
             902.21,6179.34 902.25,6191.93 905.31,6193.98
             907.39,6195.36 913.38,6195.02 916.00,6195.00
             918.35,6194.98 921.61,6195.19 923.40,6193.40
             925.75,6191.05 925.75,6176.95 923.40,6174.60
             920.76,6171.96 908.66,6172.75 905.31,6174.02 Z" />
  <path id="Ballimere Lake"
        fill="none" stroke="black" stroke-width="1"
        d="M 803.31,6634.02
           C 802.53,6634.86 802.37,6634.36 801.60,6636.15
             800.21,6639.34 800.25,6651.93 803.31,6653.98
             805.39,6655.36 811.38,6655.02 814.00,6655.00
             816.35,6654.98 819.61,6655.19 821.40,6653.40
             823.75,6651.05 823.75,6636.95 821.40,6634.60
             818.76,6631.96 806.66,6632.75 803.31,6634.02 Z" />
  <path id="Dyna Tree Hill"
        fill="none" stroke="black" stroke-width="1"
        d="M 981.31,6634.02
           C 980.53,6634.86 980.37,6634.36 979.60,6636.15
             978.21,6639.34 978.25,6651.93 981.31,6653.98
             983.39,6655.36 989.38,6655.02 992.00,6655.00
             994.35,6654.98 997.61,6655.19 999.40,6653.40
             1001.75,6651.05 1001.75,6636.95 999.40,6634.60
             996.76,6631.96 984.66,6632.75 981.31,6634.02 Z" />
  <path id="Lakeside Cave"
        fill="none" stroke="black" stroke-width="1"
        d="M 1251.31,6402.02
           C 1250.53,6402.86 1250.37,6402.36 1249.60,6404.15
             1248.21,6407.34 1248.25,6419.93 1251.31,6421.98
             1253.39,6423.36 1259.38,6423.02 1262.00,6423.00
             1264.35,6422.98 1267.61,6423.19 1269.40,6421.40
             1271.75,6419.05 1271.75,6404.95 1269.40,6402.60
             1266.76,6399.96 1254.66,6400.75 1251.31,6402.02 Z" />
  <path id="Frigid Sea"
        fill="none" stroke="black" stroke-width="1"
        d="M 1727.31,5770.02
           C 1726.53,5770.86 1726.37,5770.36 1725.60,5772.15
             1724.21,5775.34 1724.25,5787.93 1727.31,5789.98
             1729.39,5791.36 1735.38,5791.02 1738.00,5791.00
             1740.35,5790.98 1743.61,5791.19 1745.40,5789.40
             1747.75,5787.05 1747.75,5772.95 1745.40,5770.60
             1742.76,5767.96 1730.66,5768.75 1727.31,5770.02 Z" />
  <path id="Frostpoint Field"
        fill="none" stroke="black" stroke-width="1"
        d="M 633.31,5954.02
           C 632.53,5954.86 632.37,5954.36 631.60,5956.15
             630.21,5959.34 630.25,5971.93 633.31,5973.98
             635.39,5975.36 641.38,5975.02 644.00,5975.00
             646.35,5974.98 649.61,5975.19 651.40,5973.40
             653.75,5971.05 653.75,5956.95 651.40,5954.60
             648.76,5951.96 636.66,5952.75 633.31,5954.02 Z" />
  <path id="Freezington"
        fill="none" stroke="black" stroke-width="1"
        d="M 555.31,5856.02
           C 554.53,5856.86 554.37,5856.36 553.60,5858.15
             552.21,5861.34 552.25,5873.93 555.31,5875.98
             557.39,5877.36 563.38,5877.02 566.00,5877.00
             568.35,5876.98 571.61,5877.19 573.40,5875.40
             575.75,5873.05 575.75,5858.95 573.40,5856.60
             570.76,5853.96 558.66,5854.75 555.31,5856.02 Z" />
  <path id="Route 10"
        fill="none" stroke="black" stroke-width="1"
        d="M 942.00,1132.00
           C 934.50,1138.45 932.14,1137.69 924.00,1133.00
             924.00,1133.00 924.00,1380.00 924.00,1380.00
             909.99,1383.47 906.55,1401.80 913.48,1412.99
             917.62,1419.68 921.76,1419.39 923.40,1423.21
             923.40,1423.21 924.90,1434.00 924.90,1434.00
             927.00,1442.79 931.25,1450.71 938.01,1456.82
             952.33,1469.73 963.43,1468.00 981.00,1468.00
             981.00,1468.00 1020.00,1468.00 1020.00,1468.00
             1024.82,1468.01 1031.48,1468.45 1036.00,1470.13
             1045.95,1473.83 1052.87,1483.48 1053.00,1494.00
             1053.04,1497.40 1053.35,1510.54 1052.40,1512.91
             1051.02,1516.36 1047.67,1517.30 1044.53,1521.09
             1040.37,1526.12 1039.86,1530.75 1040.01,1537.00
             1040.15,1542.51 1041.48,1546.77 1045.21,1550.96
             1047.35,1553.36 1051.36,1555.77 1052.40,1558.21
             1053.13,1559.90 1053.00,1563.11 1053.00,1565.00
             1053.00,1565.00 1053.00,1575.00 1053.00,1575.00
             1052.80,1591.19 1040.56,1600.93 1025.00,1601.00
             1025.00,1601.00 982.00,1601.00 982.00,1601.00
             979.69,1601.00 976.27,1601.21 974.27,1599.98
             972.33,1598.79 971.03,1595.86 969.59,1594.00
             967.15,1590.85 963.45,1587.36 960.00,1585.36
             941.07,1574.38 915.94,1586.61 915.04,1609.00
             914.35,1626.00 925.47,1640.25 943.00,1640.96
             951.36,1641.30 959.76,1638.60 965.82,1632.70
             970.69,1627.96 971.37,1622.95 974.39,1621.02
             976.34,1619.78 979.73,1620.00 982.00,1619.85
             982.00,1619.85 1013.00,1619.85 1013.00,1619.85
             1013.00,1619.85 1035.00,1619.85 1035.00,1619.85
             1051.40,1616.98 1065.04,1605.90 1070.25,1590.00
             1071.84,1585.15 1072.94,1578.11 1073.00,1573.00
             1073.04,1569.23 1072.43,1560.07 1074.02,1557.09
             1075.23,1554.82 1078.54,1552.40 1080.47,1549.96
             1083.57,1546.04 1084.76,1541.93 1084.96,1537.00
             1085.19,1531.24 1084.24,1526.64 1080.61,1522.00
             1078.61,1519.44 1074.65,1516.41 1073.60,1513.83
             1072.60,1511.37 1073.04,1500.38 1073.00,1497.00
             1072.94,1492.40 1071.89,1484.34 1070.48,1480.00
             1069.07,1475.67 1067.22,1471.66 1064.49,1468.00
             1048.46,1446.59 1028.67,1449.00 1005.00,1449.00
             1005.00,1449.00 971.00,1449.00 971.00,1449.00
             959.30,1448.98 949.77,1444.40 945.09,1433.00
             943.96,1430.24 942.57,1425.97 943.61,1423.04
             944.66,1420.12 948.36,1417.61 950.47,1414.96
             953.77,1410.81 954.86,1407.21 954.99,1402.00
             955.11,1396.79 954.85,1392.57 952.01,1388.00
             946.47,1379.10 943.02,1383.50 943.00,1371.00
             943.00,1371.00 943.00,1220.00 943.00,1220.00
             943.00,1220.00 943.00,1160.00 943.00,1160.00
             943.00,1153.86 943.90,1136.78 942.00,1132.00 Z" />
  <path id="Route 9"
        fill="none" stroke="black" stroke-width="1"
        d="M 1572.00,1842.00
           C 1577.94,1850.31 1581.86,1850.05 1580.00,1861.00
             1580.00,1861.00 1664.00,1861.00 1664.00,1861.00
             1673.46,1861.11 1682.41,1864.11 1688.21,1872.01
             1689.80,1874.17 1691.60,1877.43 1692.37,1880.00
             1694.87,1888.37 1694.00,1912.98 1694.00,1923.00
             1679.57,1925.75 1671.69,1941.24 1673.17,1955.00
             1673.91,1961.89 1677.04,1968.11 1682.04,1972.90
             1690.21,1980.70 1693.97,1976.04 1694.00,1989.00
             1694.00,1989.00 1694.00,2068.00 1694.00,2068.00
             1693.99,2073.34 1693.68,2077.88 1691.90,2083.00
             1689.87,2088.84 1684.85,2095.78 1681.33,2101.00
             1681.33,2101.00 1661.34,2130.00 1661.34,2130.00
             1661.34,2130.00 1633.00,2172.00 1633.00,2172.00
             1633.00,2172.00 1617.48,2194.94 1617.48,2194.94
             1613.08,2200.05 1611.13,2198.24 1606.00,2199.80
             1601.54,2201.15 1597.53,2204.13 1594.97,2208.01
             1591.98,2212.54 1590.70,2217.61 1591.09,2223.00
             1591.32,2226.04 1592.62,2229.06 1591.73,2232.00
             1591.19,2233.81 1589.41,2236.39 1588.33,2238.00
             1588.33,2238.00 1565.33,2272.00 1565.33,2272.00
             1556.97,2284.54 1551.02,2291.17 1551.00,2307.00
             1551.00,2307.00 1551.00,2371.00 1551.00,2371.00
             1551.00,2374.71 1551.38,2389.22 1550.45,2391.73
             1549.89,2393.23 1549.05,2393.90 1548.00,2395.00
             1548.00,2395.00 1551.00,2396.00 1551.00,2396.00
             1551.00,2396.00 1550.40,2405.82 1550.40,2405.82
             1550.40,2405.82 1538.91,2416.40 1538.91,2416.40
             1538.91,2416.40 1532.00,2417.00 1532.00,2417.00
             1532.00,2417.00 1425.00,2417.00 1425.00,2417.00
             1425.00,2417.00 1425.00,2436.00 1425.00,2436.00
             1425.00,2436.00 1530.00,2436.00 1530.00,2436.00
             1542.21,2436.02 1537.35,2438.99 1545.09,2445.47
             1549.34,2449.03 1554.47,2450.96 1560.00,2450.97
             1565.75,2450.98 1570.57,2449.49 1574.96,2445.67
             1582.81,2438.84 1577.84,2436.02 1590.00,2436.00
             1590.00,2436.00 1646.00,2436.00 1646.00,2436.00
             1640.29,2427.14 1639.61,2426.36 1645.00,2417.00
             1645.00,2417.00 1588.00,2417.00 1588.00,2417.00
             1586.04,2417.00 1582.95,2417.13 1581.17,2416.40
             1578.18,2415.19 1571.12,2408.15 1570.11,2404.99
             1570.11,2404.99 1570.11,2397.00 1570.11,2397.00
             1570.11,2397.00 1569.00,2375.00 1569.00,2375.00
             1569.00,2375.00 1570.00,2360.00 1570.00,2360.00
             1570.00,2360.00 1570.00,2337.00 1570.00,2337.00
             1570.00,2330.41 1568.44,2313.84 1572.00,2309.00
             1567.90,2301.48 1574.22,2294.17 1578.33,2288.00
             1578.33,2288.00 1608.00,2243.00 1608.00,2243.00
             1619.02,2246.12 1632.13,2239.19 1635.36,2228.00
             1636.06,2225.58 1636.05,2222.52 1635.99,2220.00
             1635.80,2212.25 1633.07,2210.24 1633.45,2207.42
             1633.72,2205.45 1638.00,2199.97 1639.33,2198.00
             1639.33,2198.00 1653.33,2177.00 1653.33,2177.00
             1653.33,2177.00 1692.33,2119.00 1692.33,2119.00
             1704.18,2101.22 1712.96,2092.62 1713.00,2070.00
             1713.00,2070.00 1713.00,1988.00 1713.00,1988.00
             1713.03,1975.27 1716.57,1980.56 1724.82,1971.91
             1729.63,1966.85 1732.29,1959.92 1732.82,1953.00
             1733.38,1945.54 1729.95,1936.45 1724.90,1931.02
             1716.11,1921.57 1713.03,1926.77 1713.00,1914.00
             1712.95,1890.26 1716.60,1865.79 1694.00,1850.22
             1690.43,1847.76 1686.11,1845.71 1682.00,1844.36
             1676.13,1842.42 1672.11,1842.01 1666.00,1842.00
             1666.00,1842.00 1572.00,1842.00 1572.00,1842.00 Z" />
  <path id="Route 8"
        fill="none" stroke="black" stroke-width="1"
        d="M 1248.00,2399.00
           C 1248.00,2399.00 1266.00,2399.00 1266.00,2399.00
             1266.00,2399.00 1266.00,2278.00 1266.00,2278.00
             1266.02,2262.87 1272.37,2255.36 1279.94,2243.00
             1279.94,2243.00 1301.58,2207.00 1301.58,2207.00
             1304.44,2202.37 1313.43,2186.07 1316.38,2183.31
             1320.69,2179.27 1323.71,2182.62 1333.00,2179.30
             1347.31,2174.19 1352.17,2163.24 1352.00,2149.00
             1351.95,2145.44 1351.85,2143.39 1350.52,2140.00
             1349.38,2137.08 1347.00,2134.21 1347.69,2131.00
             1348.24,2128.43 1355.57,2117.02 1357.40,2114.00
             1357.40,2114.00 1375.40,2083.98 1375.40,2083.98
             1375.40,2083.98 1379.15,2078.58 1379.15,2078.58
             1383.43,2071.71 1385.99,2062.02 1386.00,2054.00
             1386.00,2054.00 1386.00,1984.00 1386.00,1984.00
             1386.00,1981.98 1385.88,1978.90 1386.60,1977.04
             1387.77,1973.98 1391.28,1971.71 1393.47,1968.96
             1397.06,1964.45 1397.99,1960.63 1397.99,1955.00
             1397.99,1949.46 1397.06,1945.63 1393.78,1941.04
             1389.08,1934.47 1386.16,1936.49 1386.00,1928.00
             1386.00,1928.00 1386.00,1890.00 1386.00,1890.00
             1386.23,1870.84 1398.59,1861.03 1417.00,1861.00
             1417.00,1861.00 1504.00,1861.00 1504.00,1861.00
             1501.97,1849.06 1506.61,1851.30 1511.00,1842.00
             1511.00,1842.00 1414.00,1842.00 1414.00,1842.00
             1407.59,1842.01 1403.12,1842.53 1397.00,1844.70
             1392.86,1846.17 1389.59,1847.91 1386.00,1850.44
             1367.73,1863.33 1367.00,1879.90 1367.00,1900.00
             1367.00,1900.00 1367.00,1925.00 1367.00,1925.00
             1367.00,1926.88 1367.13,1930.10 1366.40,1931.79
             1365.26,1934.45 1361.54,1936.28 1359.33,1938.47
             1355.33,1942.41 1353.17,1947.43 1353.02,1953.00
             1352.85,1958.94 1353.25,1962.98 1356.80,1968.00
             1363.43,1977.36 1366.97,1972.14 1367.00,1985.00
             1367.00,1985.00 1367.00,2050.00 1367.00,2050.00
             1366.98,2062.26 1363.30,2065.83 1357.20,2076.00
             1357.20,2076.00 1341.00,2103.00 1341.00,2103.00
             1338.98,2106.36 1332.18,2118.60 1329.67,2120.31
             1326.63,2122.39 1324.76,2120.17 1317.00,2121.82
             1306.24,2124.10 1299.20,2129.83 1294.88,2140.00
             1292.40,2145.84 1292.29,2154.96 1294.22,2161.00
             1296.21,2167.21 1299.96,2169.08 1298.16,2174.00
             1298.16,2174.00 1284.08,2198.00 1284.08,2198.00
             1284.08,2198.00 1264.17,2231.00 1264.17,2231.00
             1256.07,2243.46 1248.02,2254.69 1248.00,2270.00
             1248.00,2270.00 1248.00,2399.00 1248.00,2399.00 Z" />
  <path id="Route 7"
        fill="none" stroke="black" stroke-width="1"
        d="M 971.00,2417.00
           C 976.84,2427.13 974.94,2426.17 971.00,2436.00
             971.00,2436.00 1219.00,2436.00 1219.00,2436.00
             1221.30,2436.00 1224.74,2435.79 1226.73,2437.02
             1230.12,2439.12 1229.11,2442.67 1235.18,2449.00
             1241.12,2455.19 1247.49,2457.91 1256.00,2458.00
             1264.93,2458.09 1271.37,2456.32 1277.96,2449.91
             1287.24,2440.88 1282.05,2436.08 1294.00,2436.00
             1294.00,2436.00 1385.00,2436.00 1385.00,2436.00
             1385.00,2436.00 1385.00,2417.00 1385.00,2417.00
             1385.00,2417.00 1294.00,2417.00 1294.00,2417.00
             1281.77,2416.98 1285.34,2413.71 1277.70,2406.47
             1272.73,2401.75 1266.83,2399.09 1260.00,2399.00
             1251.72,2398.89 1247.15,2398.51 1240.00,2403.63
             1232.87,2408.75 1231.21,2414.33 1228.61,2415.98
             1226.65,2417.22 1223.29,2417.00 1221.00,2417.00
             1221.00,2417.00 971.00,2417.00 971.00,2417.00 Z" />
  <path id="Route 6"
        fill="none" stroke="black" stroke-width="1"
        d="M 488.00,2196.00
           C 491.17,2205.80 489.55,2205.89 484.00,2214.00
             493.81,2214.00 511.59,2212.78 520.00,2217.00
             531.82,2222.93 535.85,2234.58 536.00,2247.00
             536.00,2247.00 536.00,2302.00 536.00,2302.00
             536.00,2304.28 536.22,2307.65 534.98,2309.61
             533.18,2312.45 528.66,2313.18 523.10,2319.04
             518.27,2324.13 515.50,2331.01 515.09,2338.00
             514.60,2346.41 518.03,2355.05 524.04,2360.91
             531.94,2368.60 535.82,2365.56 536.00,2375.00
             536.13,2382.48 535.30,2396.44 536.90,2403.00
             541.97,2423.88 561.37,2435.97 582.00,2436.00
             582.00,2436.00 902.00,2436.00 902.00,2436.00
             896.29,2427.14 895.61,2426.36 901.00,2417.00
             901.00,2417.00 586.00,2417.00 586.00,2417.00
             581.61,2416.99 578.30,2416.93 574.00,2415.70
             555.05,2410.29 553.97,2394.32 554.00,2378.00
             554.02,2365.62 556.91,2370.08 565.96,2360.96
             571.25,2355.62 574.66,2348.56 574.96,2341.00
             575.29,2332.86 572.54,2324.99 566.90,2319.04
             558.30,2309.98 554.03,2314.25 554.00,2301.00
             554.00,2301.00 554.00,2239.00 554.00,2239.00
             553.96,2215.73 535.56,2196.04 512.00,2196.00
             512.00,2196.00 488.00,2196.00 488.00,2196.00 Z" />
  <path id="Route 5"
        fill="none" stroke="black" stroke-width="1"
        d="M 472.00,2827.00
           C 478.15,2835.73 479.41,2834.06 478.00,2845.00
             478.00,2845.00 665.00,2845.00 665.00,2845.00
             678.08,2845.03 674.07,2849.17 682.09,2856.82
             687.88,2862.33 695.08,2864.99 703.00,2864.99
             710.92,2864.99 718.12,2862.33 723.91,2856.82
             732.56,2848.56 727.27,2845.03 740.00,2845.00
             740.00,2845.00 1331.00,2845.00 1331.00,2845.00
             1326.11,2836.52 1326.11,2835.48 1331.00,2827.00
             1331.00,2827.00 731.00,2827.00 731.00,2827.00
             729.10,2810.12 708.92,2801.97 694.00,2806.57
             689.26,2808.04 683.64,2811.34 680.38,2815.09
             673.22,2823.32 677.71,2826.97 665.00,2827.00
             665.00,2827.00 472.00,2827.00 472.00,2827.00 Z" />
  <path id="Route 4"
        fill="none" stroke="black" stroke-width="1"
        d="M 407.00,2850.00
           C 407.00,2850.00 378.04,2879.00 378.04,2879.00
             378.04,2879.00 365.00,2893.00 365.00,2893.00
             362.11,2895.89 350.81,2907.89 348.00,2908.91
             345.25,2909.90 342.48,2907.91 340.00,2906.88
             336.04,2905.23 334.22,2905.05 330.00,2905.00
             324.32,2904.94 321.31,2904.86 316.00,2907.32
             297.50,2915.90 292.64,2941.27 307.18,2955.82
             313.80,2962.43 321.05,2964.10 330.00,2964.00
             342.62,2963.85 354.41,2955.62 357.32,2943.00
             358.98,2935.81 356.37,2931.26 360.31,2926.00
             360.31,2926.00 373.83,2912.00 373.83,2912.00
             373.83,2912.00 421.00,2864.00 421.00,2864.00
             421.00,2864.00 407.00,2850.00 407.00,2850.00 Z" />
  <path id="Route 3"
        fill="none" stroke="black" stroke-width="1"
        d="M 339.00,3211.00
           C 339.00,3211.00 342.00,3212.00 342.00,3212.00
             342.23,3215.91 342.53,3218.75 346.11,3221.15
             349.01,3223.09 352.66,3222.98 356.00,3223.00
             356.00,3223.00 380.00,3223.00 380.00,3223.00
             380.00,3223.00 506.00,3223.00 506.00,3223.00
             507.14,3228.61 509.64,3231.97 514.01,3235.67
             524.67,3244.70 539.46,3245.52 550.99,3237.64
             562.39,3229.84 557.52,3223.22 569.00,3223.00
             569.00,3223.00 670.00,3223.00 670.00,3223.00
             670.00,3223.00 873.00,3223.00 873.00,3223.00
             870.85,3213.24 876.76,3211.32 882.00,3204.00
             882.00,3204.00 571.00,3204.00 571.00,3204.00
             558.43,3203.97 563.98,3201.07 554.96,3192.04
             549.49,3186.58 541.80,3183.08 534.00,3183.08
             526.64,3183.08 518.43,3186.09 513.09,3191.18
             507.76,3196.27 507.21,3200.96 503.79,3202.98
             501.70,3204.21 498.38,3204.00 496.00,3204.00
             496.00,3204.00 395.00,3204.00 395.00,3204.00
             395.00,3204.00 364.00,3204.00 364.00,3204.00
             360.70,3204.00 350.58,3203.71 348.04,3204.51
             344.11,3205.75 343.57,3208.50 339.00,3211.00 Z" />
  <path id="Route 2"
        fill="none" stroke="black" stroke-width="1"
        d="M 968.00,4405.00
           C 978.46,4401.52 977.25,4400.72 987.00,4407.00
             987.00,4394.63 984.90,4380.13 993.33,4370.00
             1003.41,4357.89 1014.99,4360.00 1029.00,4360.00
             1029.00,4360.00 1108.00,4360.00 1108.00,4360.00
             1120.86,4360.03 1116.50,4364.03 1125.09,4371.67
             1130.19,4376.21 1138.19,4378.92 1145.00,4378.92
             1152.19,4378.92 1159.46,4376.14 1164.91,4371.48
             1173.23,4364.37 1168.88,4360.03 1182.00,4360.00
             1182.00,4360.00 1291.00,4360.00 1291.00,4360.00
             1296.96,4359.99 1301.28,4359.57 1307.00,4357.64
             1310.65,4356.41 1313.77,4354.65 1317.00,4352.56
             1330.17,4344.04 1336.93,4329.41 1337.00,4314.00
             1337.00,4314.00 1337.00,4301.00 1337.00,4301.00
             1337.00,4301.00 1337.00,4273.00 1337.00,4273.00
             1337.00,4254.47 1339.48,4236.35 1326.68,4221.00
             1311.92,4203.31 1296.56,4205.00 1276.00,4205.00
             1276.00,4205.00 1201.00,4205.00 1201.00,4205.00
             1199.08,4205.00 1195.92,4205.12 1194.18,4204.40
             1191.67,4203.35 1190.03,4200.45 1187.82,4198.53
             1183.79,4195.04 1179.30,4193.16 1174.00,4193.02
             1168.43,4192.86 1163.71,4193.28 1159.01,4196.65
             1141.87,4208.94 1150.00,4236.05 1171.00,4237.81
             1176.75,4238.30 1183.71,4235.69 1187.90,4231.79
             1191.02,4228.88 1191.98,4225.87 1195.10,4224.60
             1196.87,4223.88 1200.05,4224.00 1202.00,4224.00
             1202.00,4224.00 1289.00,4224.00 1289.00,4224.00
             1307.57,4224.03 1317.97,4235.82 1318.00,4254.00
             1318.00,4254.00 1318.00,4311.00 1318.00,4311.00
             1317.99,4315.52 1318.02,4318.63 1316.45,4323.00
             1311.83,4335.93 1300.85,4340.98 1288.00,4340.74
             1288.00,4340.74 1217.00,4340.74 1217.00,4340.74
             1217.00,4340.74 1189.00,4340.74 1189.00,4340.74
             1185.57,4340.57 1179.22,4341.70 1176.13,4340.74
             1172.30,4338.79 1172.38,4334.47 1167.67,4329.04
             1162.78,4323.40 1155.38,4319.95 1148.00,4319.17
             1139.65,4318.29 1130.18,4321.38 1124.09,4327.18
             1118.19,4332.81 1117.96,4337.98 1114.73,4339.98
             1112.74,4341.21 1109.30,4341.00 1107.00,4341.00
             1107.00,4341.00 1032.00,4341.00 1032.00,4341.00
             1011.77,4341.00 992.91,4339.10 978.67,4357.00
             976.25,4360.04 973.96,4363.47 972.32,4367.00
             966.92,4378.63 968.00,4392.50 968.00,4405.00 Z" />
  <path id="Route 1"
        fill="none" stroke="black" stroke-width="1"
        d="M 986.00,4476.00
           C 978.30,4481.43 976.19,4480.45 968.00,4477.00
             968.00,4477.00 968.00,4584.00 968.00,4584.00
             968.00,4586.38 968.21,4589.71 966.98,4591.79
             964.96,4595.21 960.27,4595.76 955.18,4601.09
             950.37,4606.15 947.71,4613.08 947.18,4620.00
             946.57,4628.08 950.38,4637.30 956.04,4642.96
             965.07,4651.98 967.97,4646.43 968.00,4659.00
             968.00,4659.00 968.00,4734.00 968.00,4734.00
             977.59,4729.96 977.82,4730.18 987.00,4735.00
             987.00,4735.00 987.00,4659.00 987.00,4659.00
             987.03,4646.45 990.82,4650.95 998.70,4642.82
             1004.12,4637.23 1006.99,4629.73 1006.99,4622.00
             1007.00,4614.00 1004.51,4606.87 998.91,4601.04
             991.36,4593.20 987.18,4595.67 987.00,4586.00
             987.00,4586.00 987.00,4510.00 987.00,4510.00
             987.00,4510.00 987.00,4488.00 987.00,4488.00
             987.00,4484.00 987.49,4479.76 986.00,4476.00 Z" />
  <path id="Slippery Slope"
        fill="none" stroke="black" stroke-width="1"
        d="M 555.31,5708.02
           C 554.53,5708.86 554.37,5708.36 553.60,5710.15
             552.21,5713.34 552.25,5725.93 555.31,5727.98
             557.39,5729.36 563.38,5729.02 566.00,5729.00
             568.35,5728.98 571.61,5729.19 573.40,5727.40
             575.75,5725.05 575.75,5710.95 573.40,5708.60
             570.76,5705.96 558.66,5706.75 555.31,5708.02 Z" />
</svg>
