<?xml version="1.0" encoding="UTF-8" standalone="no"?>
<!DOCTYPE svg PUBLIC "-//W3C//DTD SVG 20010904//EN"
              "http://www.w3.org/TR/2001/REC-SVG-20010904/DTD/svg10.dtd">

<svg xmlns="http://www.w3.org/2000/svg"
     width="100.265mm" height="71.4286mm"
     viewBox="0 0 379 270">
  <path id="Petalburg Woods"
        fill="none" stroke="black" stroke-width="1"
        d="M 32.00,136.00
           C 32.00,136.00 41.00,136.00 41.00,136.00
             41.00,136.00 41.00,145.00 41.00,145.00
             41.00,145.00 32.00,145.00 32.00,145.00
             32.00,145.00 32.00,136.00 32.00,136.00 Z" />
  <path id="Meteor Falls"
        fill="none" stroke="black" stroke-width="1"
        d="M 40.00,72.00
           C 40.00,72.00 49.00,72.00 49.00,72.00
             49.00,72.00 49.00,81.00 49.00,81.00
             49.00,81.00 40.00,81.00 40.00,81.00
             40.00,81.00 40.00,72.00 40.00,72.00 Z" />
  <path id="Mt. Chimney"
        fill="none" stroke="black" stroke-width="1"
        d="M 96.00,71.00
           C 96.00,71.00 105.00,71.00 105.00,71.00
             105.00,71.00 105.00,80.00 105.00,80.00
             105.00,80.00 96.00,80.00 96.00,80.00
             96.00,80.00 96.00,71.00 96.00,71.00 Z" />
  <path id="Jagged Pass"
        fill="none" stroke="black" stroke-width="1"
        d="M 96.00,82.00
           C 96.00,82.00 105.00,82.00 105.00,82.00
             105.00,82.00 105.00,91.00 105.00,91.00
             105.00,91.00 96.00,91.00 96.00,91.00
             96.00,91.00 96.00,82.00 96.00,82.00 Z" />
  <path id="Fiery Path"
        fill="none" stroke="black" stroke-width="1"
        d="M 107.00,82.00
           C 107.00,82.00 116.00,82.00 116.00,82.00
             116.00,82.00 116.00,91.00 116.00,91.00
             116.00,91.00 107.00,91.00 107.00,91.00
             107.00,91.00 107.00,82.00 107.00,82.00 Z" />
  <path id="Rustuft Tunnel"
        fill="none" stroke="black" stroke-width="1"
        d="M 79.00,104.00
           C 79.00,104.00 88.00,104.00 88.00,104.00
             88.00,104.00 88.00,113.00 88.00,113.00
             88.00,113.00 79.00,113.00 79.00,113.00
             79.00,113.00 79.00,104.00 79.00,104.00 Z" />
  <path id="Victory Road"
        fill="none" stroke="black" stroke-width="1"
        d="M 332.00,147.00
           C 332.00,147.00 341.00,147.00 341.00,147.00
             341.00,147.00 341.00,156.00 341.00,156.00
             341.00,156.00 332.00,156.00 332.00,156.00
             332.00,156.00 332.00,147.00 332.00,147.00 Z" />
  <path id="Safari Zone"
        fill="none" stroke="black" stroke-width="1"
        d="M 206.00,72.00
           C 206.00,72.00 215.00,72.00 215.00,72.00
             215.00,72.00 215.00,81.00 215.00,81.00
             215.00,81.00 206.00,81.00 206.00,81.00
             206.00,81.00 206.00,72.00 206.00,72.00 Z" />
  <path id="New Mauville"
        fill="none" stroke="black" stroke-width="1"
        d="M 134.00,128.00
           C 134.00,128.00 143.00,128.00 143.00,128.00
             143.00,128.00 143.00,137.00 143.00,137.00
             143.00,137.00 134.00,137.00 134.00,137.00
             134.00,137.00 134.00,128.00 134.00,128.00 Z" />
  <path id="Granite Cave"
        fill="none" stroke="black" stroke-width="1"
        d="M 45.00,215.00
           C 45.00,215.00 54.00,215.00 54.00,215.00
             54.00,215.00 54.00,224.00 54.00,224.00
             54.00,224.00 45.00,224.00 45.00,224.00
             45.00,224.00 45.00,215.00 45.00,215.00 Z" />
  <path id="Sea Mauville"
        fill="none" stroke="black" stroke-width="1"
        d="M 106.00,203.00
           C 106.00,203.00 115.00,203.00 115.00,203.00
             115.00,203.00 115.00,212.00 115.00,212.00
             115.00,212.00 106.00,212.00 106.00,212.00
             106.00,212.00 106.00,203.00 106.00,203.00 Z" />
  <path id="Secret Meadow"
        fill="none" stroke="black" stroke-width="1"
        d="M 276.00,159.00
           C 276.00,159.00 285.00,159.00 285.00,159.00
             285.00,159.00 285.00,168.00 285.00,168.00
             285.00,168.00 276.00,168.00 276.00,168.00
             276.00,168.00 276.00,159.00 276.00,159.00 Z" />
  <path id="Seafloor Cavern"
        fill="none" stroke="black" stroke-width="1"
        d="M 301.00,159.00
           C 301.00,159.00 310.00,159.00 310.00,159.00
             310.00,159.00 310.00,168.00 310.00,168.00
             310.00,168.00 301.00,168.00 301.00,168.00
             301.00,168.00 301.00,159.00 301.00,159.00 Z" />
  <path id="Secret Islet"
        fill="none" stroke="black" stroke-width="1"
        d="M 255.00,142.00
           C 255.00,142.00 264.00,142.00 264.00,142.00
             264.00,142.00 264.00,151.00 264.00,151.00
             264.00,151.00 255.00,151.00 255.00,151.00
             255.00,151.00 255.00,142.00 255.00,142.00 Z" />
  <path id="Cave of Origin"
        fill="none" stroke="black" stroke-width="1"
        d="M 255.00,126.00
           C 255.00,126.00 264.00,126.00 264.00,126.00
             264.00,126.00 264.00,135.00 264.00,135.00
             264.00,135.00 255.00,135.00 255.00,135.00
             255.00,135.00 255.00,126.00 255.00,126.00 Z" />
  <path id="Shoal Cave"
        fill="none" stroke="black" stroke-width="1"
        d="M 318.00,85.00
           C 318.00,85.00 327.00,85.00 327.00,85.00
             327.00,85.00 327.00,94.00 327.00,94.00
             327.00,94.00 318.00,94.00 318.00,94.00
             318.00,94.00 318.00,85.00 318.00,85.00 Z" />
  <path id="Secret Shore"
        fill="none" stroke="black" stroke-width="1"
        d="M 320.00,182.00
           C 320.00,182.00 329.00,182.00 329.00,182.00
             329.00,182.00 329.00,191.00 329.00,191.00
             329.00,191.00 320.00,191.00 320.00,191.00
             320.00,191.00 320.00,182.00 320.00,182.00 Z" />
  <path id="Southern Island"
        fill="none" stroke="black" stroke-width="1"
        d="M 174.00,210.00
           C 174.00,210.00 183.00,210.00 183.00,210.00
             183.00,210.00 183.00,219.00 183.00,219.00
             183.00,219.00 174.00,219.00 174.00,219.00
             174.00,219.00 174.00,210.00 174.00,210.00 Z" />
  <path id="Mt. Pyre"
        fill="none" stroke="black" stroke-width="1"
        d="M 219.00,102.00
           C 219.00,102.00 228.00,102.00 228.00,102.00
             228.00,102.00 228.00,111.00 228.00,111.00
             228.00,111.00 219.00,111.00 219.00,111.00
             219.00,111.00 219.00,102.00 219.00,102.00 Z" />
  <path id="Sky Pillar"
        fill="none" stroke="black" stroke-width="1"
        d="M 258.00,159.00
           C 258.00,159.00 267.00,159.00 267.00,159.00
             267.00,159.00 267.00,168.00 267.00,168.00
             267.00,168.00 258.00,168.00 258.00,168.00
             258.00,168.00 258.00,159.00 258.00,159.00 Z" />
  <path id="Battle Resort"
        fill="none" stroke="black" stroke-width="1"
        d="M 282.00,194.00
           C 282.00,194.00 291.00,194.00 291.00,194.00
             291.00,194.00 291.00,203.00 291.00,203.00
             291.00,203.00 282.00,203.00 282.00,203.00
             282.00,203.00 282.00,194.00 282.00,194.00 Z" />
  <path id="Sootopolis City"
        fill="none" stroke="black" stroke-width="1"
        d="M 271.00,141.00
           C 271.00,141.00 281.00,141.00 281.00,141.00
             281.00,141.00 281.00,152.00 281.00,152.00
             281.00,152.00 271.00,152.00 271.00,152.00
             271.00,152.00 271.00,141.00 271.00,141.00 Z" />
  <path id="Lilycove City"
        fill="none" stroke="black" stroke-width="1"
        d="M 243.00,82.00
           C 243.00,82.00 265.00,82.00 265.00,82.00
             265.00,82.00 265.00,93.00 265.00,93.00
             265.00,93.00 243.00,93.00 243.00,93.00
             243.00,93.00 243.00,82.00 243.00,82.00 Z" />
  <path id="Mauville City"
        fill="none" stroke="black" stroke-width="1"
        d="M 122.00,115.00
           C 122.00,115.00 144.00,115.00 144.00,115.00
             144.00,115.00 144.00,126.00 144.00,126.00
             144.00,126.00 122.00,126.00 122.00,126.00
             122.00,126.00 122.00,115.00 122.00,115.00 Z" />
  <path id="Verdanturf Town"
        fill="none" stroke="black" stroke-width="1"
        d="M 78.00,115.00
           C 78.00,115.00 88.00,115.00 88.00,115.00
             88.00,115.00 88.00,126.00 88.00,126.00
             88.00,126.00 78.00,126.00 78.00,126.00
             78.00,126.00 78.00,115.00 78.00,115.00 Z" />
  <path id="Rustboro City"
        fill="none" stroke="black" stroke-width="1"
        d="M 34.00,104.00
           C 34.00,104.00 45.00,104.00 45.00,104.00
             45.00,104.00 45.00,126.00 45.00,126.00
             45.00,126.00 34.00,126.00 34.00,126.00
             34.00,126.00 34.00,104.00 34.00,104.00 Z" />
  <path id="Fallarbor Town"
        fill="none" stroke="black" stroke-width="1"
        d="M 67.00,49.00
           C 67.00,49.00 77.00,49.00 77.00,49.00
             77.00,49.00 77.00,60.00 77.00,60.00
             77.00,60.00 67.00,60.00 67.00,60.00
             67.00,60.00 67.00,49.00 67.00,49.00 Z" />
  <path id="Lavaridge Town"
        fill="none" stroke="black" stroke-width="1"
        d="M 90.00,93.00
           C 90.00,93.00 100.00,93.00 100.00,93.00
             100.00,93.00 100.00,104.00 100.00,104.00
             100.00,104.00 90.00,104.00 90.00,104.00
             90.00,104.00 90.00,93.00 90.00,93.00 Z" />
  <path id="Fortree City"
        fill="none" stroke="black" stroke-width="1"
        d="M 166.00,49.00
           C 166.00,49.00 176.00,49.00 176.00,49.00
             176.00,49.00 176.00,60.00 176.00,60.00
             176.00,60.00 166.00,60.00 166.00,60.00
             166.00,60.00 166.00,49.00 166.00,49.00 Z" />
  <path id="Mossdeep City"
        fill="none" stroke="black" stroke-width="1"
        d="M 298.00,99.00
           C 298.00,99.00 320.00,99.00 320.00,99.00
             320.00,99.00 320.00,110.00 320.00,110.00
             320.00,110.00 298.00,110.00 298.00,110.00
             298.00,110.00 298.00,99.00 298.00,99.00 Z" />
  <path id="Pokémon League"
        fill="none" stroke="black" stroke-width="1"
        d="M 331.00,135.00
           C 331.00,135.00 341.00,135.00 341.00,135.00
             341.00,135.00 341.00,146.00 341.00,146.00
             341.00,146.00 331.00,146.00 331.00,146.00
             331.00,146.00 331.00,135.00 331.00,135.00 Z" />
  <path id="Ever Grande City"
        fill="none" stroke="black" stroke-width="1"
        d="M 331.00,159.00
           C 331.00,159.00 341.00,159.00 341.00,159.00
             341.00,159.00 341.00,170.00 341.00,170.00
             341.00,170.00 331.00,170.00 331.00,170.00
             331.00,170.00 331.00,159.00 331.00,159.00 Z" />
  <path id="Pacifidlog Town"
        fill="none" stroke="black" stroke-width="1"
        d="M 232.00,170.00
           C 232.00,170.00 242.00,170.00 242.00,170.00
             242.00,170.00 242.00,181.00 242.00,181.00
             242.00,181.00 232.00,181.00 232.00,181.00
             232.00,181.00 232.00,170.00 232.00,170.00 Z" />
  <path id="Slateport City"
        fill="none" stroke="black" stroke-width="1"
        d="M 122.00,170.00
           C 122.00,170.00 133.00,170.00 133.00,170.00
             133.00,170.00 133.00,192.00 133.00,192.00
             133.00,192.00 122.00,192.00 122.00,192.00
             122.00,192.00 122.00,170.00 122.00,170.00 Z" />
  <path id="Dewford Town"
        fill="none" stroke="black" stroke-width="1"
        d="M 56.00,214.00
           C 56.00,214.00 66.00,214.00 66.00,214.00
             66.00,214.00 66.00,225.00 66.00,225.00
             66.00,225.00 56.00,225.00 56.00,225.00
             56.00,225.00 56.00,214.00 56.00,214.00 Z" />
  <path id="Petalburg City"
        fill="none" stroke="black" stroke-width="1"
        d="M 45.00,159.00
           C 45.00,159.00 55.00,159.00 55.00,159.00
             55.00,159.00 55.00,170.00 55.00,170.00
             55.00,170.00 45.00,170.00 45.00,170.00
             45.00,170.00 45.00,159.00 45.00,159.00 Z" />
  <path id="Oldale Town"
        fill="none" stroke="black" stroke-width="1"
        d="M 78.00,159.00
           C 78.00,159.00 88.00,159.00 88.00,159.00
             88.00,159.00 88.00,170.00 88.00,170.00
             88.00,170.00 78.00,170.00 78.00,170.00
             78.00,170.00 78.00,159.00 78.00,159.00 Z" />
  <path id="Littleroot Town"
        fill="none" stroke="black" stroke-width="1"
        d="M 78.00,181.00
           C 78.00,181.00 88.00,181.00 88.00,181.00
             88.00,181.00 88.00,192.00 88.00,192.00
             88.00,192.00 78.00,192.00 78.00,192.00
             78.00,192.00 78.00,181.00 78.00,181.00 Z" />
  <path id="Route 134"
        fill="none" stroke="black" stroke-width="1"
        d="M 134.00,170.00
           C 134.00,170.00 165.00,170.00 165.00,170.00
             165.00,170.00 165.00,181.00 165.00,181.00
             165.00,181.00 134.00,181.00 134.00,181.00
             134.00,181.00 134.00,170.00 134.00,170.00 Z" />
  <path id="Route 133"
        fill="none" stroke="black" stroke-width="1"
        d="M 166.00,170.00
           C 166.00,170.00 199.00,170.00 199.00,170.00
             199.00,170.00 199.00,181.00 199.00,181.00
             199.00,181.00 166.00,181.00 166.00,181.00
             166.00,181.00 166.00,170.00 166.00,170.00 Z" />
  <path id="Route 132"
        fill="none" stroke="black" stroke-width="1"
        d="M 200.00,170.00
           C 200.00,170.00 231.00,170.00 231.00,170.00
             231.00,170.00 231.00,181.00 231.00,181.00
             231.00,181.00 200.00,181.00 200.00,181.00
             200.00,181.00 200.00,170.00 200.00,170.00 Z" />
  <path id="Route 131"
        fill="none" stroke="black" stroke-width="1"
        d="M 243.00,170.00
           C 243.00,170.00 276.00,170.00 276.00,170.00
             276.00,170.00 276.00,181.00 276.00,181.00
             276.00,181.00 243.00,181.00 243.00,181.00
             243.00,181.00 243.00,170.00 243.00,170.00 Z" />
  <path id="Route 130"
        fill="none" stroke="black" stroke-width="1"
        d="M 277.00,170.00
           C 277.00,170.00 308.00,170.00 308.00,170.00
             308.00,170.00 308.00,181.00 308.00,181.00
             308.00,181.00 277.00,181.00 277.00,181.00
             277.00,181.00 277.00,170.00 277.00,170.00 Z" />
  <path id="Route 129"
        fill="none" stroke="black" stroke-width="1"
        d="M 309.00,170.00
           C 309.00,170.00 324.00,170.00 324.00,170.00
             324.00,170.00 329.98,171.60 329.98,171.60
             329.98,171.60 331.00,181.00 331.00,181.00
             331.00,181.00 309.00,181.00 309.00,181.00
             309.00,181.00 309.00,170.00 309.00,170.00 Z" />
  <path id="Route 128"
        fill="none" stroke="black" stroke-width="1"
        d="M 298.00,160.00
           C 298.00,160.00 300.00,160.00 300.00,160.00
             300.00,160.00 300.00,169.00 300.00,169.00
             300.00,169.00 311.00,169.00 311.00,169.00
             311.00,169.00 311.00,160.00 311.00,160.00
             311.00,160.00 330.00,160.00 330.00,160.00
             330.00,160.00 330.00,169.04 330.00,169.04
             330.00,169.04 316.00,169.04 316.00,169.04
             316.00,169.04 307.00,169.99 307.00,169.99
             307.00,169.99 299.02,168.40 299.02,168.40
             299.02,168.40 298.00,160.00 298.00,160.00 Z" />
  <path id="Route 127"
        fill="none" stroke="black" stroke-width="1"
        d="M 298.00,115.00
           C 298.00,115.00 330.96,115.00 330.96,115.00
             330.96,115.00 330.96,131.00 330.96,131.00
             330.96,131.00 330.22,142.00 330.22,142.00
             330.18,145.61 331.91,153.60 330.22,156.69
             329.19,159.15 326.35,158.95 324.00,159.00
             314.80,159.17 307.05,157.38 298.00,159.00
             298.00,159.00 298.00,115.00 298.00,115.00 Z" />
  <path id="Route 126"
        fill="none" stroke="black" stroke-width="1"
        d="M 265.00,115.00
           C 265.00,115.00 297.00,115.00 297.00,115.00
             297.00,115.00 297.00,159.00 297.00,159.00
             297.00,159.00 279.00,158.05 279.00,158.05
             279.00,158.05 265.00,158.05 265.00,158.05
             265.00,158.05 265.00,115.00 265.00,115.00 Z
           M 282.00,140.00
           C 282.00,140.00 270.00,140.00 270.00,140.00
             270.00,140.00 270.00,153.00 270.00,153.00
             270.00,153.00 282.00,153.00 282.00,153.00
             282.00,153.00 282.00,140.00 282.00,140.00 Z" />
  <path id="Route 125"
        fill="none" stroke="black" stroke-width="1"
        d="M 298.00,71.00
           C 298.00,71.00 331.00,71.00 331.00,71.00
             331.00,71.00 331.00,114.00 331.00,114.00
             331.00,114.00 298.00,114.00 298.00,114.00
             298.00,114.00 298.00,111.00 298.00,111.00
             298.00,111.00 321.00,111.00 321.00,111.00
             321.00,111.00 321.00,98.00 321.00,98.00
             321.00,98.00 298.00,98.00 298.00,98.00
             298.00,98.00 298.00,71.00 298.00,71.00 Z
           M 328.00,84.00
           C 328.00,84.00 317.00,84.00 317.00,84.00
             317.00,84.00 317.00,95.00 317.00,95.00
             317.00,95.00 328.00,95.00 328.00,95.00
             328.00,95.00 328.00,84.00 328.00,84.00 Z" />
  <path id="Route 124"
        fill="none" stroke="black" stroke-width="1"
        d="M 265.00,71.00
           C 265.00,71.00 297.00,71.00 297.00,71.00
             297.00,71.00 297.00,114.00 297.00,114.00
             297.00,114.00 265.04,114.00 265.04,114.00
             265.04,114.00 265.04,97.00 265.04,97.00
             265.04,97.00 265.96,86.00 265.96,86.00
             265.96,86.00 265.00,71.00 265.00,71.00 Z" />
  <path id="Route 122"
        fill="none" stroke="black" stroke-width="1"
        d="M 207.00,93.00
           C 207.00,93.00 229.00,93.00 229.00,93.00
             229.00,93.00 229.00,101.00 229.00,101.00
             229.00,101.00 218.00,101.00 218.00,101.00
             218.00,101.00 218.00,112.00 218.00,112.00
             218.00,112.00 229.00,112.00 229.00,112.00
             229.00,112.00 229.00,115.00 229.00,115.00
             229.00,115.00 207.00,115.00 207.00,115.00
             207.00,115.00 207.00,93.00 207.00,93.00 Z" />
  <path id="Route 109"
        fill="none" stroke="black" stroke-width="1"
        d="M 122.00,193.00
           C 122.00,193.00 133.00,193.00 133.00,193.00
             133.00,193.00 133.00,225.00 133.00,225.00
             133.00,225.00 122.00,225.00 122.00,225.00
             122.00,225.00 122.00,193.00 122.00,193.00 Z" />
  <path id="Route 108"
        fill="none" stroke="black" stroke-width="1"
        d="M 101.00,214.00
           C 101.00,214.00 121.00,214.00 121.00,214.00
             121.00,214.00 121.00,225.00 121.00,225.00
             121.00,225.00 101.00,225.00 101.00,225.00
             101.00,225.00 101.00,214.00 101.00,214.00 Z" />
  <path id="Route 107"
        fill="none" stroke="black" stroke-width="1"
        d="M 67.00,214.00
           C 67.00,214.00 100.00,214.00 100.00,214.00
             100.00,214.00 100.00,225.00 100.00,225.00
             100.00,225.00 67.00,225.00 67.00,225.00
             67.00,225.00 67.00,214.00 67.00,214.00 Z" />
  <path id="Route 106"
        fill="none" stroke="black" stroke-width="1"
        d="M 34.00,203.00
           C 34.00,203.00 67.00,203.00 67.00,203.00
             67.00,203.00 67.00,213.00 67.00,213.00
             67.00,213.00 49.00,214.00 49.00,214.00
             49.00,214.00 34.00,214.00 34.00,214.00
             34.00,214.00 34.00,203.00 34.00,203.00 Z" />
  <path id="Route 105"
        fill="none" stroke="black" stroke-width="1"
        d="M 34.00,171.00
           C 34.00,171.00 45.00,171.00 45.00,171.00
             45.00,171.00 45.00,202.00 45.00,202.00
             45.00,202.00 34.00,202.00 34.00,202.00
             34.00,202.00 34.00,171.00 34.00,171.00 Z" />
  <path id="Route 121"
        fill="none" stroke="black" stroke-width="1"
        d="M 189.00,82.00
           C 189.00,82.00 242.00,82.00 242.00,82.00
             242.00,82.00 242.00,93.00 242.00,93.00
             242.00,93.00 189.00,93.00 189.00,93.00
             189.00,93.00 189.00,82.00 189.00,82.00 Z" />
  <path id="Route 123"
        fill="none" stroke="black" stroke-width="1"
        d="M 167.00,115.00
           C 167.00,115.00 232.00,115.00 232.00,115.00
             232.00,115.00 232.00,126.00 232.00,126.00
             232.00,126.00 167.00,126.00 167.00,126.00
             167.00,126.00 167.00,115.00 167.00,115.00 Z" />
  <path id="Route 120"
        fill="none" stroke="black" stroke-width="1"
        d="M 177.00,49.00
           C 177.00,49.00 188.00,49.00 188.00,49.00
             188.00,49.00 188.00,93.00 188.00,93.00
             188.00,93.00 177.00,93.00 177.00,93.00
             177.00,93.00 177.00,49.00 177.00,49.00 Z" />
  <path id="Route 119"
        fill="none" stroke="black" stroke-width="1"
        d="M 155.00,49.00
           C 155.00,49.00 165.00,49.00 165.00,49.00
             165.00,49.00 166.00,69.00 166.00,69.00
             166.00,69.00 166.00,114.00 166.00,114.00
             166.00,114.00 155.00,114.00 155.00,114.00
             155.00,114.00 155.00,49.00 155.00,49.00 Z" />
  <path id="Route 118"
        fill="none" stroke="black" stroke-width="1"
        d="M 145.00,115.00
           C 145.00,115.00 166.00,115.00 166.00,115.00
             166.00,115.00 166.00,126.00 166.00,126.00
             166.00,126.00 145.00,126.00 145.00,126.00
             145.00,126.00 145.00,115.00 145.00,115.00 Z" />
  <path id="Route 112"
        fill="none" stroke="black" stroke-width="1"
        d="M 117.00,83.00
           C 117.00,83.00 121.00,83.00 121.00,83.00
             121.00,83.00 121.00,105.00 121.00,105.00
             121.00,105.00 101.00,105.00 101.00,105.00
             101.00,105.00 101.00,92.00 101.00,92.00
             101.00,92.00 117.00,92.00 117.00,92.00
             117.00,92.00 117.00,83.00 117.00,83.00 Z" />
  <path id="Route 111"
        fill="none" stroke="black" stroke-width="1"
        d="M 122.00,49.00
           C 122.00,49.00 133.00,49.00 133.00,49.00
             133.00,49.00 133.00,114.00 133.00,114.00
             133.00,114.00 122.00,114.00 122.00,114.00
             122.00,114.00 122.00,49.00 122.00,49.00 Z" />
  <path id="Route 113"
        fill="none" stroke="black" stroke-width="1"
        d="M 78.00,49.00
           C 78.00,49.00 121.00,49.00 121.00,49.00
             121.00,49.00 121.00,60.00 121.00,60.00
             121.00,60.00 78.00,60.00 78.00,60.00
             78.00,60.00 78.00,49.00 78.00,49.00 Z" />
  <path id="Route 114"
        fill="none" stroke="black" stroke-width="1"
        d="M 51.00,49.00
           C 51.00,49.00 66.00,49.00 66.00,49.00
             66.00,49.00 66.00,60.00 66.00,60.00
             66.00,60.00 62.00,60.00 62.00,60.00
             62.00,60.00 62.00,82.00 62.00,82.00
             62.00,82.00 51.00,82.00 51.00,82.00
             51.00,82.00 51.00,49.00 51.00,49.00 Z" />
  <path id="Route 115"
        fill="none" stroke="black" stroke-width="1"
        d="M 34.00,71.00
           C 34.00,71.00 39.00,71.00 39.00,71.00
             39.00,71.00 39.00,82.00 39.00,82.00
             39.00,82.00 45.00,82.00 45.00,82.00
             45.00,82.00 45.00,103.00 45.00,103.00
             45.00,103.00 34.00,103.00 34.00,103.00
             34.00,103.00 34.00,71.00 34.00,71.00 Z" />
  <path id="Route 116"
        fill="none" stroke="black" stroke-width="1"
        d="M 46.00,104.00
           C 46.00,104.00 78.00,104.00 78.00,104.00
             78.00,104.00 76.98,113.40 76.98,113.40
             76.98,113.40 69.00,115.00 69.00,115.00
             69.00,115.00 46.00,115.00 46.00,115.00
             46.00,115.00 46.00,104.00 46.00,104.00 Z" />
  <path id="Route 117"
        fill="none" stroke="black" stroke-width="1"
        d="M 89.00,115.00
           C 89.00,115.00 121.00,115.00 121.00,115.00
             121.00,115.00 121.00,126.00 121.00,126.00
             121.00,126.00 89.00,126.00 89.00,126.00
             89.00,126.00 89.00,115.00 89.00,115.00 Z" />
  <path id="Route 110"
        fill="none" stroke="black" stroke-width="1"
        d="M 122.00,127.00
           C 122.00,127.00 133.00,127.00 133.00,127.00
             133.00,127.00 133.00,169.00 133.00,169.00
             133.00,169.00 122.00,169.00 122.00,169.00
             122.00,169.00 122.00,127.00 122.00,127.00 Z" />
  <path id="Route 101"
        fill="none" stroke="black" stroke-width="1"
        d="M 78.00,171.00
           C 78.00,171.00 89.00,171.00 89.00,171.00
             89.00,171.00 89.00,180.00 89.00,180.00
             89.00,180.00 78.00,180.00 78.00,180.00
             78.00,180.00 78.00,171.00 78.00,171.00 Z" />
  <path id="Route 102"
        fill="none" stroke="black" stroke-width="1"
        d="M 56.00,159.00
           C 56.00,159.00 77.00,159.00 77.00,159.00
             77.00,159.00 77.00,170.00 77.00,170.00
             77.00,170.00 56.00,170.00 56.00,170.00
             56.00,170.00 56.00,159.00 56.00,159.00 Z" />
  <path id="Route 104"
        fill="none" stroke="black" stroke-width="1"
        d="M 34.00,127.00
           C 34.00,127.00 45.00,127.00 45.00,127.00
             45.00,127.00 45.00,150.00 45.00,150.00
             45.00,150.00 44.00,170.00 44.00,170.00
             44.00,170.00 34.00,170.00 34.00,170.00
             34.00,170.00 34.00,146.00 34.00,146.00
             34.00,146.00 42.00,146.00 42.00,146.00
             42.00,146.00 42.00,135.00 42.00,135.00
             42.00,135.00 34.00,135.00 34.00,135.00
             34.00,135.00 34.00,127.00 34.00,127.00 Z" />
  <path id="Route 103"
        fill="none" stroke="black" stroke-width="1"
        d="M 78.00,148.00
           C 78.00,148.00 121.00,148.00 121.00,148.00
             121.00,148.00 121.00,159.00 121.00,159.00
             121.00,159.00 97.00,159.00 97.00,159.00
             97.00,159.00 78.00,158.00 78.00,158.00
             78.00,158.00 78.00,148.00 78.00,148.00 Z" />
</svg>
