<?xml version="1.0" encoding="UTF-8" standalone="no"?>
<!DOCTYPE svg PUBLIC "-//W3C//DTD SVG 20010904//EN"
              "http://www.w3.org/TR/2001/REC-SVG-20010904/DTD/svg10.dtd">

<svg xmlns="http://www.w3.org/2000/svg"
     width="381.053mm" height="228.632mm"
     viewBox="0 0 1440 864">
  <path id="Mauville City"
        fill="none" stroke="black" stroke-width="1"
        d="M 444.00,390.00
           C 444.00,390.00 516.00,390.00 516.00,390.00
             516.00,390.00 516.00,396.00 516.00,396.00
             516.00,396.00 522.00,396.00 522.00,396.00
             522.00,396.00 522.00,420.00 522.00,420.00
             522.00,420.00 516.00,420.00 516.00,420.00
             516.00,420.00 516.00,426.00 516.00,426.00
             516.00,426.00 444.00,426.00 444.00,426.00
             444.00,426.00 444.00,420.00 444.00,420.00
             444.00,420.00 438.00,420.00 438.00,420.00
             438.00,420.00 438.00,396.00 438.00,396.00
             438.00,396.00 444.00,396.00 444.00,396.00
             444.00,396.00 444.00,390.00 444.00,390.00 Z" />
  <path id="Fortree City"
        fill="none" stroke="black" stroke-width="1"
        d="M 636.00,102.00
           C 636.00,102.00 660.00,102.00 660.00,102.00
             660.00,102.00 660.00,108.00 660.00,108.00
             660.00,108.00 666.00,108.00 666.00,108.00
             666.00,108.00 666.00,132.00 666.00,132.00
             666.00,132.00 660.00,132.00 660.00,132.00
             660.00,132.00 660.00,138.00 660.00,138.00
             660.00,138.00 636.00,138.00 636.00,138.00
             636.00,138.00 636.00,132.00 636.00,132.00
             636.00,132.00 630.00,132.00 630.00,132.00
             630.00,132.00 630.00,108.00 630.00,108.00
             630.00,108.00 636.00,108.00 636.00,108.00
             636.00,108.00 636.00,102.00 636.00,102.00 Z" />
  <path id="Sootopolis City"
        fill="none" stroke="black" stroke-width="1"
        d="M 1068.00,438.00
           C 1068.00,438.00 1092.00,438.00 1092.00,438.00
             1092.00,438.00 1092.00,444.00 1092.00,444.00
             1092.00,444.00 1098.00,444.00 1098.00,444.00
             1098.00,444.00 1098.00,468.00 1098.00,468.00
             1098.00,468.00 1092.00,468.00 1092.00,468.00
             1092.00,468.00 1092.00,474.00 1092.00,474.00
             1092.00,474.00 1068.00,474.00 1068.00,474.00
             1068.00,474.00 1068.00,468.00 1068.00,468.00
             1068.00,468.00 1062.00,468.00 1062.00,468.00
             1062.00,468.00 1062.00,444.00 1062.00,444.00
             1062.00,444.00 1068.00,444.00 1068.00,444.00
             1068.00,444.00 1068.00,438.00 1068.00,438.00 Z" />
  <path id="Lilycove City"
        fill="none" stroke="black" stroke-width="1"
        d="M 924.00,246.00
           C 924.00,246.00 996.00,246.00 996.00,246.00
             996.00,246.00 996.00,252.00 996.00,252.00
             996.00,252.00 1002.00,252.00 1002.00,252.00
             1002.00,252.00 1002.00,276.00 1002.00,276.00
             1002.00,276.00 996.00,276.00 996.00,276.00
             996.00,276.00 996.00,282.00 996.00,282.00
             996.00,282.00 924.00,282.00 924.00,282.00
             924.00,282.00 924.00,276.00 924.00,276.00
             924.00,276.00 918.00,276.00 918.00,276.00
             918.00,276.00 918.00,252.00 918.00,252.00
             918.00,252.00 924.00,252.00 924.00,252.00
             924.00,252.00 924.00,246.00 924.00,246.00 Z" />
  <path id="Mossdeep City"
        fill="none" stroke="black" stroke-width="1"
        d="M 1212.00,342.00
           C 1212.00,342.00 1284.00,342.00 1284.00,342.00
             1284.00,342.00 1284.00,348.00 1284.00,348.00
             1284.00,348.00 1290.00,348.00 1290.00,348.00
             1290.00,348.00 1290.00,372.00 1290.00,372.00
             1290.00,372.00 1284.00,372.00 1284.00,372.00
             1284.00,372.00 1284.00,378.00 1284.00,378.00
             1284.00,378.00 1212.00,378.00 1212.00,378.00
             1212.00,378.00 1212.00,372.00 1212.00,372.00
             1212.00,372.00 1206.00,372.00 1206.00,372.00
             1206.00,372.00 1206.00,348.00 1206.00,348.00
             1206.00,348.00 1212.00,348.00 1212.00,348.00
             1212.00,348.00 1212.00,342.00 1212.00,342.00 Z" />
  <path id="Ever Grande City"
        fill="none" stroke="black" stroke-width="1"
        d="M 1356.00,486.00
           C 1356.00,486.00 1380.00,486.00 1380.00,486.00
             1380.00,486.00 1380.00,492.00 1380.00,492.00
             1380.00,492.00 1386.00,492.00 1386.00,492.00
             1386.00,492.00 1386.00,564.00 1386.00,564.00
             1386.00,564.00 1380.00,564.00 1380.00,564.00
             1380.00,564.00 1380.00,570.00 1380.00,570.00
             1380.00,570.00 1356.00,570.00 1356.00,570.00
             1356.00,570.00 1356.00,564.00 1356.00,564.00
             1356.00,564.00 1350.00,564.00 1350.00,564.00
             1350.00,564.00 1350.00,492.00 1350.00,492.00
             1350.00,492.00 1356.00,492.00 1356.00,492.00
             1356.00,492.00 1356.00,486.00 1356.00,486.00 Z" />
  <path id="Pacifidlog Town"
        fill="none" stroke="black" stroke-width="1"
        d="M 876.00,582.00
           C 876.00,582.00 900.00,582.00 900.00,582.00
             900.00,582.00 900.00,588.00 900.00,588.00
             900.00,588.00 906.00,588.00 906.00,588.00
             906.00,588.00 906.00,612.00 906.00,612.00
             906.00,612.00 900.00,612.00 900.00,612.00
             900.00,612.00 900.00,618.00 900.00,618.00
             900.00,618.00 876.00,618.00 876.00,618.00
             876.00,618.00 876.00,612.00 876.00,612.00
             876.00,612.00 870.00,612.00 870.00,612.00
             870.00,612.00 870.00,588.00 870.00,588.00
             870.00,588.00 876.00,588.00 876.00,588.00
             876.00,588.00 876.00,582.00 876.00,582.00 Z" />
  <path id="Verdanturf Town"
        fill="none" stroke="black" stroke-width="1"
        d="M 252.00,390.00
           C 252.00,390.00 276.00,390.00 276.00,390.00
             276.00,390.00 276.00,396.00 276.00,396.00
             276.00,396.00 282.00,396.00 282.00,396.00
             282.00,396.00 282.00,420.00 282.00,420.00
             282.00,420.00 276.00,420.00 276.00,420.00
             276.00,420.00 276.00,426.00 276.00,426.00
             276.00,426.00 252.00,426.00 252.00,426.00
             252.00,426.00 252.00,420.00 252.00,420.00
             252.00,420.00 246.00,420.00 246.00,420.00
             246.00,420.00 246.00,396.00 246.00,396.00
             246.00,396.00 252.00,396.00 252.00,396.00
             252.00,396.00 252.00,390.00 252.00,390.00 Z" />
  <path id="Slateport City"
        fill="none" stroke="black" stroke-width="1"
        d="M 444.00,582.00
           C 444.00,582.00 468.00,582.00 468.00,582.00
             468.00,582.00 468.00,588.00 468.00,588.00
             468.00,588.00 474.00,588.00 474.00,588.00
             474.00,588.00 474.00,660.00 474.00,660.00
             474.00,660.00 468.00,660.00 468.00,660.00
             468.00,660.00 468.00,666.00 468.00,666.00
             468.00,666.00 444.00,666.00 444.00,666.00
             444.00,666.00 444.00,660.00 444.00,660.00
             444.00,660.00 438.00,660.00 438.00,660.00
             438.00,660.00 438.00,588.00 438.00,588.00
             438.00,588.00 444.00,588.00 444.00,588.00
             444.00,588.00 444.00,582.00 444.00,582.00 Z" />
  <path id="Littleroot Town"
        fill="none" stroke="black" stroke-width="1"
        d="M 252.00,630.00
           C 252.00,630.00 276.00,630.00 276.00,630.00
             276.00,630.00 276.00,636.00 276.00,636.00
             276.00,636.00 282.00,636.00 282.00,636.00
             282.00,636.00 282.00,660.00 282.00,660.00
             282.00,660.00 276.00,660.00 276.00,660.00
             276.00,660.00 276.00,666.00 276.00,666.00
             276.00,666.00 252.00,666.00 252.00,666.00
             252.00,666.00 252.00,660.00 252.00,660.00
             252.00,660.00 246.00,660.00 246.00,660.00
             246.00,660.00 246.00,636.00 246.00,636.00
             246.00,636.00 252.00,636.00 252.00,636.00
             252.00,636.00 252.00,630.00 252.00,630.00 Z" />
  <path id="Oldale Town"
        fill="none" stroke="black" stroke-width="1"
        d="M 252.00,534.00
           C 252.00,534.00 276.00,534.00 276.00,534.00
             276.00,534.00 276.00,540.00 276.00,540.00
             276.00,540.00 282.00,540.00 282.00,540.00
             282.00,540.00 282.00,564.00 282.00,564.00
             282.00,564.00 276.00,564.00 276.00,564.00
             276.00,564.00 276.00,570.00 276.00,570.00
             276.00,570.00 252.00,570.00 252.00,570.00
             252.00,570.00 252.00,564.00 252.00,564.00
             252.00,564.00 246.00,564.00 246.00,564.00
             246.00,564.00 246.00,540.00 246.00,540.00
             246.00,540.00 252.00,540.00 252.00,540.00
             252.00,540.00 252.00,534.00 252.00,534.00 Z" />
  <path id="Petalburg City"
        fill="none" stroke="black" stroke-width="1"
        d="M 108.00,534.00
           C 108.00,534.00 132.00,534.00 132.00,534.00
             132.00,534.00 132.00,540.00 132.00,540.00
             132.00,540.00 138.00,540.00 138.00,540.00
             138.00,540.00 138.00,564.00 138.00,564.00
             138.00,564.00 132.00,564.00 132.00,564.00
             132.00,564.00 132.00,570.00 132.00,570.00
             132.00,570.00 108.00,570.00 108.00,570.00
             108.00,570.00 108.00,564.00 108.00,564.00
             108.00,564.00 102.00,564.00 102.00,564.00
             102.00,564.00 102.00,540.00 102.00,540.00
             102.00,540.00 108.00,540.00 108.00,540.00
             108.00,540.00 108.00,534.00 108.00,534.00 Z" />
  <path id="Rustboro City"
        fill="none" stroke="black" stroke-width="1"
        d="M 60.00,342.00
           C 60.00,342.00 84.00,342.00 84.00,342.00
             84.00,342.00 84.00,348.00 84.00,348.00
             84.00,348.00 90.00,348.00 90.00,348.00
             90.00,348.00 90.00,420.00 90.00,420.00
             90.00,420.00 84.00,420.00 84.00,420.00
             84.00,420.00 84.00,426.00 84.00,426.00
             84.00,426.00 60.00,426.00 60.00,426.00
             60.00,426.00 60.00,420.00 60.00,420.00
             60.00,420.00 54.00,420.00 54.00,420.00
             54.00,420.00 54.00,348.00 54.00,348.00
             54.00,348.00 60.00,348.00 60.00,348.00
             60.00,348.00 60.00,342.00 60.00,342.00 Z" />
  <path id="Fallarbor Town"
        fill="none" stroke="black" stroke-width="1"
        d="M 204.00,102.00
           C 204.00,102.00 228.00,102.00 228.00,102.00
             228.00,102.00 228.00,108.00 228.00,108.00
             228.00,108.00 234.00,108.00 234.00,108.00
             234.00,108.00 234.00,132.00 234.00,132.00
             234.00,132.00 228.00,132.00 228.00,132.00
             228.00,132.00 228.00,138.00 228.00,138.00
             228.00,138.00 204.00,138.00 204.00,138.00
             204.00,138.00 204.00,132.00 204.00,132.00
             204.00,132.00 198.00,132.00 198.00,132.00
             198.00,132.00 198.00,108.00 198.00,108.00
             198.00,108.00 204.00,108.00 204.00,108.00
             204.00,108.00 204.00,102.00 204.00,102.00 Z" />
  <path id="Lavaridge Town"
        fill="none" stroke="black" stroke-width="1"
        d="M 300.00,246.00
           C 300.00,246.00 324.00,246.00 324.00,246.00
             324.00,246.00 324.00,252.00 324.00,252.00
             324.00,252.00 330.00,252.00 330.00,252.00
             330.00,252.00 330.00,276.00 330.00,276.00
             330.00,276.00 324.00,276.00 324.00,276.00
             324.00,276.00 324.00,282.00 324.00,282.00
             324.00,282.00 300.00,282.00 300.00,282.00
             300.00,282.00 300.00,276.00 300.00,276.00
             300.00,276.00 294.00,276.00 294.00,276.00
             294.00,276.00 294.00,252.00 294.00,252.00
             294.00,252.00 300.00,252.00 300.00,252.00
             300.00,252.00 300.00,246.00 300.00,246.00 Z" />
  <path id="Dewford Town"
        fill="none" stroke="black" stroke-width="1"
        d="M 156.00,774.00
           C 156.00,774.00 180.00,774.00 180.00,774.00
             180.00,774.00 180.00,780.00 180.00,780.00
             180.00,780.00 186.00,780.00 186.00,780.00
             186.00,780.00 186.00,804.00 186.00,804.00
             186.00,804.00 180.00,804.00 180.00,804.00
             180.00,804.00 180.00,810.00 180.00,810.00
             180.00,810.00 156.00,810.00 156.00,810.00
             156.00,810.00 156.00,804.00 156.00,804.00
             156.00,804.00 150.00,804.00 150.00,804.00
             150.00,804.00 150.00,780.00 150.00,780.00
             150.00,780.00 156.00,780.00 156.00,780.00
             156.00,780.00 156.00,774.00 156.00,774.00 Z" />
  <path id="Route 134"
        fill="none" stroke="black" stroke-width="1"
        d="M 480.00,576.00
           C 480.00,576.00 636.00,576.00 636.00,576.00
             636.00,576.00 636.00,624.00 636.00,624.00
             636.00,624.00 480.00,624.00 480.00,624.00
             480.00,624.00 480.00,576.00 480.00,576.00 Z" />
  <path id="Route 133"
        fill="none" stroke="black" stroke-width="1"
        d="M 636.00,576.00
           C 636.00,576.00 780.00,576.00 780.00,576.00
             780.00,576.00 780.00,624.00 780.00,624.00
             780.00,624.00 636.00,624.00 636.00,624.00
             636.00,624.00 636.00,576.00 636.00,576.00 Z" />
  <path id="Route 132"
        fill="none" stroke="black" stroke-width="1"
        d="M 780.00,576.00
           C 780.00,576.00 864.00,576.00 864.00,576.00
             864.00,576.00 864.00,624.00 864.00,624.00
             864.00,624.00 780.00,624.00 780.00,624.00
             780.00,624.00 780.00,576.00 780.00,576.00 Z" />
  <path id="Route 131"
        fill="none" stroke="black" stroke-width="1"
        d="M 912.00,576.00
           C 912.00,576.00 1056.00,576.00 1056.00,576.00
             1056.00,576.00 1056.00,624.00 1056.00,624.00
             1056.00,624.00 912.00,624.00 912.00,624.00
             912.00,624.00 912.00,576.00 912.00,576.00 Z" />
  <path id="Route 130"
        fill="none" stroke="black" stroke-width="1"
        d="M 1056.00,576.00
           C 1056.00,576.00 1200.00,576.00 1200.00,576.00
             1200.00,576.00 1200.00,624.00 1200.00,624.00
             1200.00,624.00 1056.00,624.00 1056.00,624.00
             1056.00,624.00 1056.00,576.00 1056.00,576.00 Z" />
  <path id="Route 129"
        fill="none" stroke="black" stroke-width="1"
        d="M 1200.00,576.00
           C 1200.00,576.00 1296.00,576.00 1296.00,576.00
             1296.00,576.00 1296.00,624.00 1296.00,624.00
             1296.00,624.00 1200.00,624.00 1200.00,624.00
             1200.00,624.00 1200.00,576.00 1200.00,576.00 Z" />
  <path id="Route 128"
        fill="none" stroke="black" stroke-width="1"
        d="M 1152.00,528.00
           C 1152.00,528.00 1344.00,528.00 1344.00,528.00
             1344.00,528.00 1344.00,576.00 1344.00,576.00
             1344.00,576.00 1152.00,576.00 1152.00,576.00
             1152.00,576.00 1152.00,528.00 1152.00,528.00 Z" />
  <path id="Route 127"
        fill="none" stroke="black" stroke-width="1"
        d="M 1152.00,384.00
           C 1152.00,384.00 1296.00,384.00 1296.00,384.00
             1296.00,384.00 1296.00,528.00 1296.00,528.00
             1296.00,528.00 1152.00,528.00 1152.00,528.00
             1152.00,528.00 1152.00,384.00 1152.00,384.00 Z" />
  <path id="Route 126"
        fill="none" stroke="black" stroke-width="1"
        d="M 1008.00,384.00
           C 1008.00,384.00 1152.00,384.00 1152.00,384.00
             1152.00,384.00 1152.00,528.00 1152.00,528.00
             1152.00,528.00 1008.00,528.00 1008.00,528.00
             1008.00,528.00 1008.00,384.00 1008.00,384.00 Z
           M 1098.00,432.00
           C 1098.00,432.00 1062.00,432.00 1062.00,432.00
             1062.00,432.00 1062.00,438.00 1062.00,438.00
             1062.00,438.00 1056.00,438.00 1056.00,438.00
             1056.00,438.00 1056.00,474.00 1056.00,474.00
             1056.00,474.00 1062.00,474.00 1062.00,474.00
             1062.00,474.00 1062.00,480.00 1062.00,480.00
             1062.00,480.00 1098.00,480.00 1098.00,480.00
             1098.00,480.00 1098.00,474.00 1098.00,474.00
             1098.00,474.00 1104.00,474.00 1104.00,474.00
             1104.00,474.00 1104.00,438.00 1104.00,438.00
             1104.00,438.00 1098.00,438.00 1098.00,438.00
             1098.00,438.00 1098.00,432.00 1098.00,432.00 Z" />
  <path id="Route 125"
        fill="none" stroke="black" stroke-width="1"
        d="M 1200.00,240.00
           C 1200.00,240.00 1296.00,240.00 1296.00,240.00
             1296.00,240.00 1296.00,336.00 1296.00,336.00
             1296.00,336.00 1200.00,336.00 1200.00,336.00
             1200.00,336.00 1200.00,240.00 1200.00,240.00 Z" />
  <path id="Route 124"
        fill="none" stroke="black" stroke-width="1"
        d="M 1008.00,240.00
           C 1008.00,240.00 1200.00,240.00 1200.00,240.00
             1200.00,240.00 1200.00,384.00 1200.00,384.00
             1200.00,384.00 1008.00,384.00 1008.00,384.00
             1008.00,384.00 1008.00,240.00 1008.00,240.00 Z" />
  <path id="Route 122"
        fill="none" stroke="black" stroke-width="1"
        d="M 816.00,288.00
           C 816.00,288.00 864.00,288.00 864.00,288.00
             864.00,288.00 864.00,384.00 864.00,384.00
             864.00,384.00 816.00,384.00 816.00,384.00
             816.00,384.00 816.00,288.00 816.00,288.00 Z" />
  <path id="Route 109"
        fill="none" stroke="black" stroke-width="1"
        d="M 432.00,672.00
           C 432.00,672.00 480.00,672.00 480.00,672.00
             480.00,672.00 480.00,816.00 480.00,816.00
             480.00,816.00 432.00,816.00 432.00,816.00
             432.00,816.00 432.00,672.00 432.00,672.00 Z" />
  <path id="Route 108"
        fill="none" stroke="black" stroke-width="1"
        d="M 318.00,768.00
           C 318.00,768.00 432.00,768.00 432.00,768.00
             432.00,768.00 432.00,816.00 432.00,816.00
             432.00,816.00 318.00,816.00 318.00,816.00
             318.00,816.00 318.00,768.00 318.00,768.00 Z" />
  <path id="Route 107"
        fill="none" stroke="black" stroke-width="1"
        d="M 192.00,768.00
           C 192.00,768.00 318.00,768.00 318.00,768.00
             318.00,768.00 318.00,816.00 318.00,816.00
             318.00,816.00 192.00,816.00 192.00,816.00
             192.00,816.00 192.00,768.00 192.00,768.00 Z" />
  <path id="Route 106"
        fill="none" stroke="black" stroke-width="1"
        d="M 48.00,720.00
           C 48.00,720.00 192.00,720.00 192.00,720.00
             192.00,720.00 192.00,768.00 192.00,768.00
             192.00,768.00 48.00,768.00 48.00,768.00
             48.00,768.00 48.00,720.00 48.00,720.00 Z" />
  <path id="Route 105"
        fill="none" stroke="black" stroke-width="1"
        d="M 48.00,576.00
           C 48.00,576.00 96.00,576.00 96.00,576.00
             96.00,576.00 96.00,720.00 96.00,720.00
             96.00,720.00 48.00,720.00 48.00,720.00
             48.00,720.00 48.00,576.00 48.00,576.00 Z" />
  <path id="Route 123"
        fill="none" stroke="black" stroke-width="1"
        d="M 624.00,384.00
           C 624.00,384.00 864.00,384.00 864.00,384.00
             864.00,384.00 864.00,432.00 864.00,432.00
             864.00,432.00 624.00,432.00 624.00,432.00
             624.00,432.00 624.00,384.00 624.00,384.00 Z" />
  <path id="Route 121"
        fill="none" stroke="black" stroke-width="1"
        d="M 720.00,240.00
           C 720.00,240.00 912.00,240.00 912.00,240.00
             912.00,240.00 912.00,288.00 912.00,288.00
             912.00,288.00 720.00,288.00 720.00,288.00
             720.00,288.00 720.00,240.00 720.00,240.00 Z" />
  <path id="Route 120"
        fill="none" stroke="black" stroke-width="1"
        d="M 672.00,96.00
           C 672.00,96.00 720.00,96.00 720.00,96.00
             720.00,96.00 720.00,288.00 720.00,288.00
             720.00,288.00 672.00,288.00 672.00,288.00
             672.00,288.00 672.00,96.00 672.00,96.00 Z" />
  <path id="Route 119"
        fill="none" stroke="black" stroke-width="1"
        d="M 576.00,96.00
           C 576.00,96.00 624.00,96.00 624.00,96.00
             624.00,96.00 624.00,384.00 624.00,384.00
             624.00,384.00 576.00,384.00 576.00,384.00
             576.00,384.00 576.00,96.00 576.00,96.00 Z" />
  <path id="Route 118"
        fill="none" stroke="black" stroke-width="1"
        d="M 528.00,384.00
           C 528.00,384.00 624.00,384.00 624.00,384.00
             624.00,384.00 624.00,432.00 624.00,432.00
             624.00,432.00 528.00,432.00 528.00,432.00
             528.00,432.00 528.00,384.00 528.00,384.00 Z" />
  <path id="Route 117"
        fill="none" stroke="black" stroke-width="1"
        d="M 288.00,384.00
           C 288.00,384.00 432.00,384.00 432.00,384.00
             432.00,384.00 432.00,432.00 432.00,432.00
             432.00,432.00 288.00,432.00 288.00,432.00
             288.00,432.00 288.00,384.00 288.00,384.00 Z" />
  <path id="Route 116"
        fill="none" stroke="black" stroke-width="1"
        d="M 96.00,336.00
           C 96.00,336.00 288.00,336.00 288.00,336.00
             288.00,336.00 288.00,384.00 288.00,384.00
             288.00,384.00 96.00,384.00 96.00,384.00
             96.00,384.00 96.00,336.00 96.00,336.00 Z" />
  <path id="Route 115"
        fill="none" stroke="black" stroke-width="1"
        d="M 47.00,192.00
           C 47.00,192.00 96.00,192.00 96.00,192.00
             96.00,192.00 96.00,336.00 96.00,336.00
             96.00,336.00 47.00,336.00 47.00,336.00
             47.00,336.00 47.00,192.00 47.00,192.00 Z" />
  <path id="Route 114"
        fill="none" stroke="black" stroke-width="1"
        d="M 96.00,96.00
           C 96.00,96.00 192.00,96.00 192.00,96.00
             192.00,96.00 192.00,144.00 192.00,144.00
             192.00,144.00 144.00,144.00 144.00,144.00
             144.00,144.00 144.00,240.00 144.00,240.00
             144.00,240.00 96.00,240.00 96.00,240.00
             96.00,240.00 96.00,96.00 96.00,96.00 Z" />
  <path id="Route 113"
        fill="none" stroke="black" stroke-width="1"
        d="M 240.00,96.00
           C 240.00,96.00 432.00,96.00 432.00,96.00
             432.00,96.00 432.00,144.00 432.00,144.00
             432.00,144.00 240.00,144.00 240.00,144.00
             240.00,144.00 240.00,96.00 240.00,96.00 Z" />
  <path id="Route 112"
        fill="none" stroke="black" stroke-width="1"
        d="M 336.00,240.00
           C 336.00,240.00 432.00,240.00 432.00,240.00
             432.00,240.00 432.00,288.00 432.00,288.00
             432.00,288.00 336.00,288.00 336.00,288.00
             336.00,288.00 336.00,240.00 336.00,240.00 Z" />
  <path id="Route 111"
        fill="none" stroke="black" stroke-width="1"
        d="M 432.00,96.00
           C 432.00,96.00 480.00,96.00 480.00,96.00
             480.00,96.00 480.00,384.00 480.00,384.00
             480.00,384.00 432.00,384.00 432.00,384.00
             432.00,384.00 432.00,96.00 432.00,96.00 Z" />
  <path id="Route 110"
        fill="none" stroke="black" stroke-width="1"
        d="M 432.00,432.00
           C 432.00,432.00 480.00,432.00 480.00,432.00
             480.00,432.00 480.00,576.00 480.00,576.00
             480.00,576.00 432.00,576.00 432.00,576.00
             432.00,576.00 432.00,432.00 432.00,432.00 Z" />
  <path id="Route 104"
        fill="none" stroke="black" stroke-width="1"
        d="M 48.00,432.00
           C 48.00,432.00 96.00,432.00 96.00,432.00
             96.00,432.00 96.00,576.00 96.00,576.00
             96.00,576.00 48.00,576.00 48.00,576.00
             48.00,576.00 48.00,432.00 48.00,432.00 Z" />
  <path id="Route 103"
        fill="none" stroke="black" stroke-width="1"
        d="M 240.00,480.00
           C 240.00,480.00 432.00,480.00 432.00,480.00
             432.00,480.00 432.00,528.00 432.00,528.00
             432.00,528.00 240.00,528.00 240.00,528.00
             240.00,528.00 240.00,480.00 240.00,480.00 Z" />
  <path id="Route 102"
        fill="none" stroke="black" stroke-width="1"
        d="M 144.00,528.00
           C 144.00,528.00 240.00,528.00 240.00,528.00
             240.00,528.00 240.00,576.00 240.00,576.00
             240.00,576.00 144.00,576.00 144.00,576.00
             144.00,576.00 144.00,528.00 144.00,528.00 Z" />
  <path id="Route 101"
        fill="none" stroke="black" stroke-width="1"
        d="M 240.00,576.00
           C 240.00,576.00 288.00,576.00 288.00,576.00
             288.00,576.00 288.00,624.00 288.00,624.00
             288.00,624.00 240.00,624.00 240.00,624.00
             240.00,624.00 240.00,576.00 240.00,576.00 Z" />
</svg>
