<?xml version="1.0" encoding="UTF-8" standalone="no"?>
<!DOCTYPE svg PUBLIC "-//W3C//DTD SVG 20010904//EN"
              "http://www.w3.org/TR/2001/REC-SVG-20010904/DTD/svg10.dtd">

<svg xmlns="http://www.w3.org/2000/svg"
     width="457.264mm" height="177.825mm"
     viewBox="0 0 1728 672">
  <path id="Ruins of Alph"
        fill="none" stroke="black" stroke-width="1"
        d="M 402.00,294.00
           C 402.00,294.00 402.00,300.00 402.00,300.00
             402.00,300.00 396.00,300.00 396.00,300.00
             396.00,300.00 396.00,306.00 396.00,306.00
             396.00,306.00 390.00,306.00 390.00,306.00
             390.00,306.00 390.00,318.00 390.00,318.00
             390.00,318.00 396.00,318.00 396.00,318.00
             396.00,318.00 396.00,324.00 396.00,324.00
             396.00,324.00 402.00,324.00 402.00,324.00
             402.00,324.00 402.00,330.00 402.00,330.00
             402.00,330.00 414.00,330.00 414.00,330.00
             414.00,330.00 414.00,324.00 414.00,324.00
             414.00,324.00 420.00,324.00 420.00,324.00
             420.00,324.00 420.00,318.00 420.00,318.00
             420.00,318.00 426.00,318.00 426.00,318.00
             426.00,318.00 426.00,306.00 426.00,306.00
             426.00,306.00 420.00,306.00 420.00,306.00
             420.00,306.00 420.00,300.00 420.00,300.00
             420.00,300.00 414.00,300.00 414.00,300.00
             414.00,300.00 414.00,294.00 414.00,294.00
             414.00,294.00 402.00,294.00 402.00,294.00 Z" />
  <path id="Union Cave"
        fill="none" stroke="black" stroke-width="1"
        d="M 450.00,582.00
           C 450.00,582.00 450.00,588.00 450.00,588.00
             450.00,588.00 444.00,588.00 444.00,588.00
             444.00,588.00 444.00,594.00 444.00,594.00
             444.00,594.00 438.00,594.00 438.00,594.00
             438.00,594.00 438.00,606.00 438.00,606.00
             438.00,606.00 444.00,606.00 444.00,606.00
             444.00,606.00 444.00,612.00 444.00,612.00
             444.00,612.00 450.00,612.00 450.00,612.00
             450.00,612.00 450.00,618.00 450.00,618.00
             450.00,618.00 462.00,618.00 462.00,618.00
             462.00,618.00 462.00,612.00 462.00,612.00
             462.00,612.00 468.00,612.00 468.00,612.00
             468.00,612.00 468.00,606.00 468.00,606.00
             468.00,606.00 474.00,606.00 474.00,606.00
             474.00,606.00 474.00,594.00 474.00,594.00
             474.00,594.00 468.00,594.00 468.00,594.00
             468.00,594.00 468.00,588.00 468.00,588.00
             468.00,588.00 462.00,588.00 462.00,588.00
             462.00,588.00 462.00,582.00 462.00,582.00
             462.00,582.00 450.00,582.00 450.00,582.00 Z" />
  <path id="Tohjo Falls"
        fill="none" stroke="black" stroke-width="1"
        d="M 882.00,438.00
           C 882.00,438.00 882.00,444.00 882.00,444.00
             882.00,444.00 876.00,444.00 876.00,444.00
             876.00,444.00 876.00,450.00 876.00,450.00
             876.00,450.00 870.00,450.00 870.00,450.00
             870.00,450.00 870.00,462.00 870.00,462.00
             870.00,462.00 876.00,462.00 876.00,462.00
             876.00,462.00 876.00,468.00 876.00,468.00
             876.00,468.00 882.00,468.00 882.00,468.00
             882.00,468.00 882.00,474.00 882.00,474.00
             882.00,474.00 894.00,474.00 894.00,474.00
             894.00,474.00 894.00,468.00 894.00,468.00
             894.00,468.00 900.00,468.00 900.00,468.00
             900.00,468.00 900.00,462.00 900.00,462.00
             900.00,462.00 906.00,462.00 906.00,462.00
             906.00,462.00 906.00,450.00 906.00,450.00
             906.00,450.00 900.00,450.00 900.00,450.00
             900.00,450.00 900.00,444.00 900.00,444.00
             900.00,444.00 894.00,444.00 894.00,444.00
             894.00,444.00 894.00,438.00 894.00,438.00
             894.00,438.00 882.00,438.00 882.00,438.00 Z" />
  <path id="Ice Path"
        fill="none" stroke="black" stroke-width="1"
        d="M 738.00,54.00
           C 738.00,54.00 738.00,60.00 738.00,60.00
             738.00,60.00 732.00,60.00 732.00,60.00
             732.00,60.00 732.00,66.00 732.00,66.00
             732.00,66.00 726.00,66.00 726.00,66.00
             726.00,66.00 726.00,78.00 726.00,78.00
             726.00,78.00 732.00,78.00 732.00,78.00
             732.00,78.00 732.00,84.00 732.00,84.00
             732.00,84.00 738.00,84.00 738.00,84.00
             738.00,84.00 738.00,90.00 738.00,90.00
             738.00,90.00 750.00,90.00 750.00,90.00
             750.00,90.00 750.00,84.00 750.00,84.00
             750.00,84.00 756.00,84.00 756.00,84.00
             756.00,84.00 756.00,78.00 756.00,78.00
             756.00,78.00 762.00,78.00 762.00,78.00
             762.00,78.00 762.00,66.00 762.00,66.00
             762.00,66.00 756.00,66.00 756.00,66.00
             756.00,66.00 756.00,60.00 756.00,60.00
             756.00,60.00 750.00,60.00 750.00,60.00
             750.00,60.00 750.00,54.00 750.00,54.00
             750.00,54.00 738.00,54.00 738.00,54.00 Z" />
  <path id="Lake of Rage"
        fill="none" stroke="black" stroke-width="1"
        d="M 594.00,6.00
           C 594.00,6.00 594.00,12.00 594.00,12.00
             594.00,12.00 588.00,12.00 588.00,12.00
             588.00,12.00 588.00,18.00 588.00,18.00
             588.00,18.00 582.00,18.00 582.00,18.00
             582.00,18.00 582.00,30.00 582.00,30.00
             582.00,30.00 588.00,30.00 588.00,30.00
             588.00,30.00 588.00,36.00 588.00,36.00
             588.00,36.00 594.00,36.00 594.00,36.00
             594.00,36.00 594.00,42.00 594.00,42.00
             594.00,42.00 606.00,42.00 606.00,42.00
             606.00,42.00 606.00,36.00 606.00,36.00
             606.00,36.00 612.00,36.00 612.00,36.00
             612.00,36.00 612.00,30.00 612.00,30.00
             612.00,30.00 618.00,30.00 618.00,30.00
             618.00,30.00 618.00,18.00 618.00,18.00
             618.00,18.00 612.00,18.00 612.00,18.00
             612.00,18.00 612.00,12.00 612.00,12.00
             612.00,12.00 606.00,12.00 606.00,12.00
             606.00,12.00 606.00,6.00 606.00,6.00
             606.00,6.00 594.00,6.00 594.00,6.00 Z" />
  <path id="Mt. Mortar"
        fill="none" stroke="black" stroke-width="1"
        d="M 450.00,102.00
           C 450.00,102.00 450.00,108.00 450.00,108.00
             450.00,108.00 444.00,108.00 444.00,108.00
             444.00,108.00 444.00,114.00 444.00,114.00
             444.00,114.00 438.00,114.00 438.00,114.00
             438.00,114.00 438.00,126.00 438.00,126.00
             438.00,126.00 444.00,126.00 444.00,126.00
             444.00,126.00 444.00,132.00 444.00,132.00
             444.00,132.00 450.00,132.00 450.00,132.00
             450.00,132.00 450.00,138.00 450.00,138.00
             450.00,138.00 462.00,138.00 462.00,138.00
             462.00,138.00 462.00,132.00 462.00,132.00
             462.00,132.00 468.00,132.00 468.00,132.00
             468.00,132.00 468.00,126.00 468.00,126.00
             468.00,126.00 474.00,126.00 474.00,126.00
             474.00,126.00 474.00,114.00 474.00,114.00
             474.00,114.00 468.00,114.00 468.00,114.00
             468.00,114.00 468.00,108.00 468.00,108.00
             468.00,108.00 462.00,108.00 462.00,108.00
             462.00,108.00 462.00,102.00 462.00,102.00
             462.00,102.00 450.00,102.00 450.00,102.00 Z" />
  <path id="Whirl Islands"
        fill="none" stroke="black" stroke-width="1"
        d="M 114.00,390.00
           C 114.00,390.00 114.00,396.00 114.00,396.00
             114.00,396.00 108.00,396.00 108.00,396.00
             108.00,396.00 108.00,402.00 108.00,402.00
             108.00,402.00 102.00,402.00 102.00,402.00
             102.00,402.00 102.00,414.00 102.00,414.00
             102.00,414.00 108.00,414.00 108.00,414.00
             108.00,414.00 108.00,420.00 108.00,420.00
             108.00,420.00 114.00,420.00 114.00,420.00
             114.00,420.00 114.00,426.00 114.00,426.00
             114.00,426.00 126.00,426.00 126.00,426.00
             126.00,426.00 126.00,420.00 126.00,420.00
             126.00,420.00 132.00,420.00 132.00,420.00
             132.00,420.00 132.00,414.00 132.00,414.00
             132.00,414.00 138.00,414.00 138.00,414.00
             138.00,414.00 138.00,402.00 138.00,402.00
             138.00,402.00 132.00,402.00 132.00,402.00
             132.00,402.00 132.00,396.00 132.00,396.00
             132.00,396.00 126.00,396.00 126.00,396.00
             126.00,396.00 126.00,390.00 126.00,390.00
             126.00,390.00 114.00,390.00 114.00,390.00 Z" />
  <path id="National Park"
        fill="none" stroke="black" stroke-width="1"
        d="M 258.00,198.00
           C 258.00,198.00 258.00,204.00 258.00,204.00
             258.00,204.00 252.00,204.00 252.00,204.00
             252.00,204.00 252.00,210.00 252.00,210.00
             252.00,210.00 246.00,210.00 246.00,210.00
             246.00,210.00 246.00,222.00 246.00,222.00
             246.00,222.00 252.00,222.00 252.00,222.00
             252.00,222.00 252.00,228.00 252.00,228.00
             252.00,228.00 258.00,228.00 258.00,228.00
             258.00,228.00 258.00,234.00 258.00,234.00
             258.00,234.00 270.00,234.00 270.00,234.00
             270.00,234.00 270.00,228.00 270.00,228.00
             270.00,228.00 276.00,228.00 276.00,228.00
             276.00,228.00 276.00,222.00 276.00,222.00
             276.00,222.00 282.00,222.00 282.00,222.00
             282.00,222.00 282.00,210.00 282.00,210.00
             282.00,210.00 276.00,210.00 276.00,210.00
             276.00,210.00 276.00,204.00 276.00,204.00
             276.00,204.00 270.00,204.00 270.00,204.00
             270.00,204.00 270.00,198.00 270.00,198.00
             270.00,198.00 258.00,198.00 258.00,198.00 Z" />
  <path id="Silver Cave"
        fill="none" stroke="black" stroke-width="1"
        d="M 834.00,246.00
           C 834.00,246.00 834.00,252.00 834.00,252.00
             834.00,252.00 828.00,252.00 828.00,252.00
             828.00,252.00 828.00,258.00 828.00,258.00
             828.00,258.00 822.00,258.00 822.00,258.00
             822.00,258.00 822.00,270.00 822.00,270.00
             822.00,270.00 828.00,270.00 828.00,270.00
             828.00,270.00 828.00,276.00 828.00,276.00
             828.00,276.00 834.00,276.00 834.00,276.00
             834.00,276.00 834.00,282.00 834.00,282.00
             834.00,282.00 846.00,282.00 846.00,282.00
             846.00,282.00 846.00,276.00 846.00,276.00
             846.00,276.00 852.00,276.00 852.00,276.00
             852.00,276.00 852.00,270.00 852.00,270.00
             852.00,270.00 858.00,270.00 858.00,270.00
             858.00,270.00 858.00,258.00 858.00,258.00
             858.00,258.00 852.00,258.00 852.00,258.00
             852.00,258.00 852.00,252.00 852.00,252.00
             852.00,252.00 846.00,252.00 846.00,252.00
             846.00,252.00 846.00,246.00 846.00,246.00
             846.00,246.00 834.00,246.00 834.00,246.00 Z" />
  <path id="Victory Road"
        fill="none" stroke="black" stroke-width="1"
        d="M 978.00,150.00
           C 978.00,150.00 978.00,156.00 978.00,156.00
             978.00,156.00 972.00,156.00 972.00,156.00
             972.00,156.00 972.00,162.00 972.00,162.00
             972.00,162.00 966.00,162.00 966.00,162.00
             966.00,162.00 966.00,174.00 966.00,174.00
             966.00,174.00 972.00,174.00 972.00,174.00
             972.00,174.00 972.00,180.00 972.00,180.00
             972.00,180.00 978.00,180.00 978.00,180.00
             978.00,180.00 978.00,186.00 978.00,186.00
             978.00,186.00 990.00,186.00 990.00,186.00
             990.00,186.00 990.00,180.00 990.00,180.00
             990.00,180.00 996.00,180.00 996.00,180.00
             996.00,180.00 996.00,174.00 996.00,174.00
             996.00,174.00 1002.00,174.00 1002.00,174.00
             1002.00,174.00 1002.00,162.00 1002.00,162.00
             1002.00,162.00 996.00,162.00 996.00,162.00
             996.00,162.00 996.00,156.00 996.00,156.00
             996.00,156.00 990.00,156.00 990.00,156.00
             990.00,156.00 990.00,150.00 990.00,150.00
             990.00,150.00 978.00,150.00 978.00,150.00 Z" />
  <path id="Indigo Plateau"
        fill="none" stroke="black" stroke-width="1"
        d="M 978.00,54.00
           C 978.00,54.00 978.00,60.00 978.00,60.00
             978.00,60.00 972.00,60.00 972.00,60.00
             972.00,60.00 972.00,66.00 972.00,66.00
             972.00,66.00 966.00,66.00 966.00,66.00
             966.00,66.00 966.00,78.00 966.00,78.00
             966.00,78.00 972.00,78.00 972.00,78.00
             972.00,78.00 972.00,84.00 972.00,84.00
             972.00,84.00 978.00,84.00 978.00,84.00
             978.00,84.00 978.00,90.00 978.00,90.00
             978.00,90.00 990.00,90.00 990.00,90.00
             990.00,90.00 990.00,84.00 990.00,84.00
             990.00,84.00 996.00,84.00 996.00,84.00
             996.00,84.00 996.00,78.00 996.00,78.00
             996.00,78.00 1002.00,78.00 1002.00,78.00
             1002.00,78.00 1002.00,66.00 1002.00,66.00
             1002.00,66.00 996.00,66.00 996.00,66.00
             996.00,66.00 996.00,60.00 996.00,60.00
             996.00,60.00 990.00,60.00 990.00,60.00
             990.00,60.00 990.00,54.00 990.00,54.00
             990.00,54.00 978.00,54.00 978.00,54.00 Z" />
  <path id="Mt. Moon"
        fill="none" stroke="black" stroke-width="1"
        d="M 1266.00,150.00
           C 1266.00,150.00 1266.00,156.00 1266.00,156.00
             1266.00,156.00 1260.00,156.00 1260.00,156.00
             1260.00,156.00 1260.00,162.00 1260.00,162.00
             1260.00,162.00 1254.00,162.00 1254.00,162.00
             1254.00,162.00 1254.00,174.00 1254.00,174.00
             1254.00,174.00 1260.00,174.00 1260.00,174.00
             1260.00,174.00 1260.00,180.00 1260.00,180.00
             1260.00,180.00 1266.00,180.00 1266.00,180.00
             1266.00,180.00 1266.00,186.00 1266.00,186.00
             1266.00,186.00 1278.00,186.00 1278.00,186.00
             1278.00,186.00 1278.00,180.00 1278.00,180.00
             1278.00,180.00 1284.00,180.00 1284.00,180.00
             1284.00,180.00 1284.00,174.00 1284.00,174.00
             1284.00,174.00 1290.00,174.00 1290.00,174.00
             1290.00,174.00 1290.00,162.00 1290.00,162.00
             1290.00,162.00 1284.00,162.00 1284.00,162.00
             1284.00,162.00 1284.00,156.00 1284.00,156.00
             1284.00,156.00 1278.00,156.00 1278.00,156.00
             1278.00,156.00 1278.00,150.00 1278.00,150.00
             1278.00,150.00 1266.00,150.00 1266.00,150.00 Z" />
  <path id="Power Plant"
        fill="none" stroke="black" stroke-width="1"
        d="M 1602.00,198.00
           C 1602.00,198.00 1602.00,204.00 1602.00,204.00
             1602.00,204.00 1596.00,204.00 1596.00,204.00
             1596.00,204.00 1596.00,210.00 1596.00,210.00
             1596.00,210.00 1590.00,210.00 1590.00,210.00
             1590.00,210.00 1590.00,222.00 1590.00,222.00
             1590.00,222.00 1596.00,222.00 1596.00,222.00
             1596.00,222.00 1596.00,228.00 1596.00,228.00
             1596.00,228.00 1602.00,228.00 1602.00,228.00
             1602.00,228.00 1602.00,234.00 1602.00,234.00
             1602.00,234.00 1614.00,234.00 1614.00,234.00
             1614.00,234.00 1614.00,228.00 1614.00,228.00
             1614.00,228.00 1620.00,228.00 1620.00,228.00
             1620.00,228.00 1620.00,222.00 1620.00,222.00
             1620.00,222.00 1626.00,222.00 1626.00,222.00
             1626.00,222.00 1626.00,210.00 1626.00,210.00
             1626.00,210.00 1620.00,210.00 1620.00,210.00
             1620.00,210.00 1620.00,204.00 1620.00,204.00
             1620.00,204.00 1614.00,204.00 1614.00,204.00
             1614.00,204.00 1614.00,198.00 1614.00,198.00
             1614.00,198.00 1602.00,198.00 1602.00,198.00 Z" />
  <path id="Rock Tunnel"
        fill="none" stroke="black" stroke-width="1"
        d="M 1602.00,150.00
           C 1602.00,150.00 1602.00,156.00 1602.00,156.00
             1602.00,156.00 1596.00,156.00 1596.00,156.00
             1596.00,156.00 1596.00,162.00 1596.00,162.00
             1596.00,162.00 1590.00,162.00 1590.00,162.00
             1590.00,162.00 1590.00,174.00 1590.00,174.00
             1590.00,174.00 1596.00,174.00 1596.00,174.00
             1596.00,174.00 1596.00,180.00 1596.00,180.00
             1596.00,180.00 1602.00,180.00 1602.00,180.00
             1602.00,180.00 1602.00,186.00 1602.00,186.00
             1602.00,186.00 1614.00,186.00 1614.00,186.00
             1614.00,186.00 1614.00,180.00 1614.00,180.00
             1614.00,180.00 1620.00,180.00 1620.00,180.00
             1620.00,180.00 1620.00,174.00 1620.00,174.00
             1620.00,174.00 1626.00,174.00 1626.00,174.00
             1626.00,174.00 1626.00,162.00 1626.00,162.00
             1626.00,162.00 1620.00,162.00 1620.00,162.00
             1620.00,162.00 1620.00,156.00 1620.00,156.00
             1620.00,156.00 1614.00,156.00 1614.00,156.00
             1614.00,156.00 1614.00,150.00 1614.00,150.00
             1614.00,150.00 1602.00,150.00 1602.00,150.00 Z" />
  <path id="Lavender Radio Tower"
        fill="none" stroke="black" stroke-width="1"
        d="M 1650.00,246.00
           C 1650.00,246.00 1650.00,252.00 1650.00,252.00
             1650.00,252.00 1644.00,252.00 1644.00,252.00
             1644.00,252.00 1644.00,258.00 1644.00,258.00
             1644.00,258.00 1638.00,258.00 1638.00,258.00
             1638.00,258.00 1638.00,270.00 1638.00,270.00
             1638.00,270.00 1644.00,270.00 1644.00,270.00
             1644.00,270.00 1644.00,276.00 1644.00,276.00
             1644.00,276.00 1650.00,276.00 1650.00,276.00
             1650.00,276.00 1650.00,282.00 1650.00,282.00
             1650.00,282.00 1662.00,282.00 1662.00,282.00
             1662.00,282.00 1662.00,276.00 1662.00,276.00
             1662.00,276.00 1668.00,276.00 1668.00,276.00
             1668.00,276.00 1668.00,270.00 1668.00,270.00
             1668.00,270.00 1674.00,270.00 1674.00,270.00
             1674.00,270.00 1674.00,258.00 1674.00,258.00
             1674.00,258.00 1668.00,258.00 1668.00,258.00
             1668.00,258.00 1668.00,252.00 1668.00,252.00
             1668.00,252.00 1662.00,252.00 1662.00,252.00
             1662.00,252.00 1662.00,246.00 1662.00,246.00
             1662.00,246.00 1650.00,246.00 1650.00,246.00 Z" />
  <path id="Seafoam Islands"
        fill="none" stroke="black" stroke-width="1"
        d="M 1218.00,630.00
           C 1218.00,630.00 1218.00,636.00 1218.00,636.00
             1218.00,636.00 1212.00,636.00 1212.00,636.00
             1212.00,636.00 1212.00,642.00 1212.00,642.00
             1212.00,642.00 1206.00,642.00 1206.00,642.00
             1206.00,642.00 1206.00,654.00 1206.00,654.00
             1206.00,654.00 1212.00,654.00 1212.00,654.00
             1212.00,654.00 1212.00,660.00 1212.00,660.00
             1212.00,660.00 1218.00,660.00 1218.00,660.00
             1218.00,660.00 1218.00,666.00 1218.00,666.00
             1218.00,666.00 1230.00,666.00 1230.00,666.00
             1230.00,666.00 1230.00,660.00 1230.00,660.00
             1230.00,660.00 1236.00,660.00 1236.00,660.00
             1236.00,660.00 1236.00,654.00 1236.00,654.00
             1236.00,654.00 1242.00,654.00 1242.00,654.00
             1242.00,654.00 1242.00,642.00 1242.00,642.00
             1242.00,642.00 1236.00,642.00 1236.00,642.00
             1236.00,642.00 1236.00,636.00 1236.00,636.00
             1236.00,636.00 1230.00,636.00 1230.00,636.00
             1230.00,636.00 1230.00,630.00 1230.00,630.00
             1230.00,630.00 1218.00,630.00 1218.00,630.00 Z" />
  <path id="Azalea Town"
        fill="none" stroke="black" stroke-width="1"
        d="M 342.00,582.00
           C 342.00,582.00 342.00,618.00 342.00,618.00
             342.00,618.00 378.00,618.00 378.00,618.00
             378.00,618.00 378.00,582.00 378.00,582.00
             378.00,582.00 342.00,582.00 342.00,582.00 Z" />
  <path id="Violet City"
        fill="none" stroke="black" stroke-width="1"
        d="M 438.00,198.00
           C 438.00,198.00 438.00,234.00 438.00,234.00
             438.00,234.00 474.00,234.00 474.00,234.00
             474.00,234.00 474.00,198.00 474.00,198.00
             474.00,198.00 438.00,198.00 438.00,198.00 Z" />
  <path id="Ecruteak City"
        fill="none" stroke="black" stroke-width="1"
        d="M 342.00,102.00
           C 342.00,102.00 342.00,138.00 342.00,138.00
             342.00,138.00 378.00,138.00 378.00,138.00
             378.00,138.00 378.00,102.00 378.00,102.00
             378.00,102.00 342.00,102.00 342.00,102.00 Z" />
  <path id="Goldenrod City"
        fill="none" stroke="black" stroke-width="1"
        d="M 246.00,390.00
           C 246.00,390.00 246.00,426.00 246.00,426.00
             246.00,426.00 282.00,426.00 282.00,426.00
             282.00,426.00 282.00,390.00 282.00,390.00
             282.00,390.00 246.00,390.00 246.00,390.00 Z" />
  <path id="Cianwood City"
        fill="none" stroke="black" stroke-width="1"
        d="M 54.00,438.00
           C 54.00,438.00 54.00,474.00 54.00,474.00
             54.00,474.00 90.00,474.00 90.00,474.00
             90.00,474.00 90.00,438.00 90.00,438.00
             90.00,438.00 54.00,438.00 54.00,438.00 Z" />
  <path id="Olivine City"
        fill="none" stroke="black" stroke-width="1"
        d="M 150.00,198.00
           C 150.00,198.00 150.00,234.00 150.00,234.00
             150.00,234.00 186.00,234.00 186.00,234.00
             186.00,234.00 186.00,198.00 186.00,198.00
             186.00,198.00 150.00,198.00 150.00,198.00 Z" />
  <path id="Mahogany Town"
        fill="none" stroke="black" stroke-width="1"
        d="M 582.00,102.00
           C 582.00,102.00 582.00,138.00 582.00,138.00
             582.00,138.00 618.00,138.00 618.00,138.00
             618.00,138.00 618.00,102.00 618.00,102.00
             618.00,102.00 582.00,102.00 582.00,102.00 Z" />
  <path id="Blackthorn City"
        fill="none" stroke="black" stroke-width="1"
        d="M 726.00,102.00
           C 726.00,102.00 726.00,138.00 726.00,138.00
             726.00,138.00 762.00,138.00 762.00,138.00
             762.00,138.00 762.00,102.00 762.00,102.00
             762.00,102.00 726.00,102.00 726.00,102.00 Z" />
  <path id="New Bark Town"
        fill="none" stroke="black" stroke-width="1"
        d="M 774.00,438.00
           C 774.00,438.00 774.00,474.00 774.00,474.00
             774.00,474.00 810.00,474.00 810.00,474.00
             810.00,474.00 810.00,438.00 810.00,438.00
             810.00,438.00 774.00,438.00 774.00,438.00 Z" />
  <path id="Cherrygrove City"
        fill="none" stroke="black" stroke-width="1"
        d="M 534.00,438.00
           C 534.00,438.00 534.00,474.00 534.00,474.00
             534.00,474.00 570.00,474.00 570.00,474.00
             570.00,474.00 570.00,438.00 570.00,438.00
             570.00,438.00 534.00,438.00 534.00,438.00 Z" />
  <path id="Pewter City"
        fill="none" stroke="black" stroke-width="1"
        d="M 1110.00,150.00
           C 1110.00,150.00 1110.00,186.00 1110.00,186.00
             1110.00,186.00 1146.00,186.00 1146.00,186.00
             1146.00,186.00 1146.00,150.00 1146.00,150.00
             1146.00,150.00 1110.00,150.00 1110.00,150.00 Z" />
  <path id="Viridian City"
        fill="none" stroke="black" stroke-width="1"
        d="M 1110.00,294.00
           C 1110.00,294.00 1110.00,330.00 1110.00,330.00
             1110.00,330.00 1146.00,330.00 1146.00,330.00
             1146.00,330.00 1146.00,294.00 1146.00,294.00
             1146.00,294.00 1110.00,294.00 1110.00,294.00 Z" />
  <path id="Pallet Town"
        fill="none" stroke="black" stroke-width="1"
        d="M 1110.00,486.00
           C 1110.00,486.00 1110.00,522.00 1110.00,522.00
             1110.00,522.00 1146.00,522.00 1146.00,522.00
             1146.00,522.00 1146.00,486.00 1146.00,486.00
             1146.00,486.00 1110.00,486.00 1110.00,486.00 Z" />
  <path id="Cinnabar Island"
        fill="none" stroke="black" stroke-width="1"
        d="M 1110.00,630.00
           C 1110.00,630.00 1110.00,666.00 1110.00,666.00
             1110.00,666.00 1146.00,666.00 1146.00,666.00
             1146.00,666.00 1146.00,630.00 1146.00,630.00
             1146.00,630.00 1110.00,630.00 1110.00,630.00 Z" />
  <path id="Fuchsia City"
        fill="none" stroke="black" stroke-width="1"
        d="M 1350.00,534.00
           C 1350.00,534.00 1350.00,570.00 1350.00,570.00
             1350.00,570.00 1386.00,570.00 1386.00,570.00
             1386.00,570.00 1386.00,534.00 1386.00,534.00
             1386.00,534.00 1350.00,534.00 1350.00,534.00 Z" />
  <path id="Celadon City"
        fill="none" stroke="black" stroke-width="1"
        d="M 1254.00,246.00
           C 1254.00,246.00 1254.00,282.00 1254.00,282.00
             1254.00,282.00 1290.00,282.00 1290.00,282.00
             1290.00,282.00 1290.00,246.00 1290.00,246.00
             1290.00,246.00 1254.00,246.00 1254.00,246.00 Z" />
  <path id="Cerulean City"
        fill="none" stroke="black" stroke-width="1"
        d="M 1398.00,150.00
           C 1398.00,150.00 1398.00,186.00 1398.00,186.00
             1398.00,186.00 1434.00,186.00 1434.00,186.00
             1434.00,186.00 1434.00,150.00 1434.00,150.00
             1434.00,150.00 1398.00,150.00 1398.00,150.00 Z" />
  <path id="Saffron City"
        fill="none" stroke="black" stroke-width="1"
        d="M 1398.00,246.00
           C 1398.00,246.00 1398.00,282.00 1398.00,282.00
             1398.00,282.00 1434.00,282.00 1434.00,282.00
             1434.00,282.00 1434.00,246.00 1434.00,246.00
             1434.00,246.00 1398.00,246.00 1398.00,246.00 Z" />
  <path id="Vermilion City"
        fill="none" stroke="black" stroke-width="1"
        d="M 1398.00,342.00
           C 1398.00,342.00 1398.00,378.00 1398.00,378.00
             1398.00,378.00 1434.00,378.00 1434.00,378.00
             1434.00,378.00 1434.00,342.00 1434.00,342.00
             1434.00,342.00 1398.00,342.00 1398.00,342.00 Z" />
  <path id="Lavender Town"
        fill="none" stroke="black" stroke-width="1"
        d="M 1590.00,246.00
           C 1590.00,246.00 1590.00,282.00 1590.00,282.00
             1590.00,282.00 1626.00,282.00 1626.00,282.00
             1626.00,282.00 1626.00,246.00 1626.00,246.00
             1626.00,246.00 1590.00,246.00 1590.00,246.00 Z" />
  <path id="Ilex Forest"
        fill="none" stroke="black" stroke-width="1"
        d="M 240.00,576.00
           C 240.00,576.00 240.00,624.00 240.00,624.00
             240.00,624.00 336.00,624.00 336.00,624.00
             336.00,624.00 336.00,576.00 336.00,576.00
             336.00,576.00 240.00,576.00 240.00,576.00 Z" />
  <path id="Pokémon League Reception Gate"
        fill="none" stroke="black" stroke-width="1"
        d="M 960.00,192.00
           C 960.00,192.00 960.00,288.00 960.00,288.00
             960.00,288.00 1008.00,288.00 1008.00,288.00
             1008.00,288.00 1008.00,192.00 1008.00,192.00
             1008.00,192.00 960.00,192.00 960.00,192.00 Z" />
  <path id="Route 41"
        fill="none" stroke="black" stroke-width="1"
        d="M 114.00,426.00
           C 114.00,426.00 114.00,450.00 114.00,450.00
             114.00,450.00 96.00,450.00 96.00,450.00
             96.00,450.00 96.00,462.00 96.00,462.00
             96.00,462.00 126.00,462.00 126.00,462.00
             126.00,462.00 126.00,426.00 126.00,426.00
             126.00,426.00 114.00,426.00 114.00,426.00 Z" />
  <path id="Route 40"
        fill="none" stroke="black" stroke-width="1"
        d="M 96.00,192.00
           C 96.00,192.00 96.00,240.00 96.00,240.00
             96.00,240.00 114.00,240.00 114.00,240.00
             114.00,240.00 114.00,390.00 114.00,390.00
             114.00,390.00 126.00,390.00 126.00,390.00
             126.00,390.00 126.00,240.00 126.00,240.00
             126.00,240.00 144.00,240.00 144.00,240.00
             144.00,240.00 144.00,192.00 144.00,192.00
             144.00,192.00 96.00,192.00 96.00,192.00 Z" />
  <path id="Route 20"
        fill="none" stroke="black" stroke-width="1"
        d="M 1218.00,630.00
           C 1218.00,630.00 1218.00,636.00 1218.00,636.00
             1218.00,636.00 1212.00,636.00 1212.00,636.00
             1212.00,636.00 1212.00,642.00 1212.00,642.00
             1212.00,642.00 1152.00,642.00 1152.00,642.00
             1152.00,642.00 1152.00,654.00 1152.00,654.00
             1152.00,654.00 1212.00,654.00 1212.00,654.00
             1212.00,654.00 1212.00,660.00 1212.00,660.00
             1212.00,660.00 1218.00,660.00 1218.00,660.00
             1218.00,660.00 1218.00,666.00 1218.00,666.00
             1218.00,666.00 1230.00,666.00 1230.00,666.00
             1230.00,666.00 1230.00,660.00 1230.00,660.00
             1230.00,660.00 1236.00,660.00 1236.00,660.00
             1236.00,660.00 1236.00,654.00 1236.00,654.00
             1236.00,654.00 1344.00,654.00 1344.00,654.00
             1344.00,654.00 1344.00,642.00 1344.00,642.00
             1344.00,642.00 1236.00,642.00 1236.00,642.00
             1236.00,642.00 1236.00,636.00 1236.00,636.00
             1236.00,636.00 1230.00,636.00 1230.00,636.00
             1230.00,636.00 1230.00,630.00 1230.00,630.00
             1230.00,630.00 1218.00,630.00 1218.00,630.00 Z" />
  <path id="Route 21"
        fill="none" stroke="black" stroke-width="1"
        d="M 1122.00,528.00
           C 1122.00,528.00 1122.00,624.00 1122.00,624.00
             1122.00,624.00 1134.00,624.00 1134.00,624.00
             1134.00,624.00 1134.00,528.00 1134.00,528.00
             1134.00,528.00 1122.00,528.00 1122.00,528.00 Z" />
  <path id="Route 19"
        fill="none" stroke="black" stroke-width="1"
        d="M 1344.00,576.00
           C 1344.00,576.00 1344.00,624.00 1344.00,624.00
             1344.00,624.00 1362.00,624.00 1362.00,624.00
             1362.00,624.00 1362.00,642.00 1362.00,642.00
             1362.00,642.00 1344.00,642.00 1344.00,642.00
             1344.00,642.00 1344.00,654.00 1344.00,654.00
             1344.00,654.00 1374.00,654.00 1374.00,654.00
             1374.00,654.00 1374.00,624.00 1374.00,624.00
             1374.00,624.00 1392.00,624.00 1392.00,624.00
             1392.00,624.00 1392.00,576.00 1392.00,576.00
             1392.00,576.00 1344.00,576.00 1344.00,576.00 Z" />
  <path id="Route 46"
        fill="none" stroke="black" stroke-width="1"
        d="M 672.00,288.00
           C 672.00,288.00 672.00,432.00 672.00,432.00
             672.00,432.00 720.00,432.00 720.00,432.00
             720.00,432.00 720.00,288.00 720.00,288.00
             720.00,288.00 672.00,288.00 672.00,288.00 Z" />
  <path id="Route 45"
        fill="none" stroke="black" stroke-width="1"
        d="M 720.00,144.00
           C 720.00,144.00 720.00,336.00 720.00,336.00
             720.00,336.00 768.00,336.00 768.00,336.00
             768.00,336.00 768.00,144.00 768.00,144.00
             768.00,144.00 720.00,144.00 720.00,144.00 Z" />
  <path id="Route 44"
        fill="none" stroke="black" stroke-width="1"
        d="M 624.00,96.00
           C 624.00,96.00 624.00,144.00 624.00,144.00
             624.00,144.00 720.00,144.00 720.00,144.00
             720.00,144.00 720.00,96.00 720.00,96.00
             720.00,96.00 624.00,96.00 624.00,96.00 Z" />
  <path id="Route 43"
        fill="none" stroke="black" stroke-width="1"
        d="M 576.00,48.00
           C 576.00,48.00 576.00,96.00 576.00,96.00
             576.00,96.00 624.00,96.00 624.00,96.00
             624.00,96.00 624.00,48.00 624.00,48.00
             624.00,48.00 576.00,48.00 576.00,48.00 Z" />
  <path id="Route 42"
        fill="none" stroke="black" stroke-width="1"
        d="M 384.00,96.00
           C 384.00,96.00 384.00,144.00 384.00,144.00
             384.00,144.00 576.00,144.00 576.00,144.00
             576.00,144.00 576.00,96.00 576.00,96.00
             576.00,96.00 384.00,96.00 384.00,96.00 Z" />
  <path id="Route 39"
        fill="none" stroke="black" stroke-width="1"
        d="M 144.00,96.00
           C 144.00,96.00 144.00,192.00 144.00,192.00
             144.00,192.00 192.00,192.00 192.00,192.00
             192.00,192.00 192.00,96.00 192.00,96.00
             192.00,96.00 144.00,96.00 144.00,96.00 Z" />
  <path id="Route 38"
        fill="none" stroke="black" stroke-width="1"
        d="M 192.00,96.00
           C 192.00,96.00 192.00,144.00 192.00,144.00
             192.00,144.00 336.00,144.00 336.00,144.00
             336.00,144.00 336.00,96.00 336.00,96.00
             336.00,96.00 192.00,96.00 192.00,96.00 Z" />
  <path id="Route 37"
        fill="none" stroke="black" stroke-width="1"
        d="M 336.00,144.00
           C 336.00,144.00 336.00,192.00 336.00,192.00
             336.00,192.00 384.00,192.00 384.00,192.00
             384.00,192.00 384.00,144.00 384.00,144.00
             384.00,144.00 336.00,144.00 336.00,144.00 Z" />
  <path id="Route 36"
        fill="none" stroke="black" stroke-width="1"
        d="M 288.00,192.00
           C 288.00,192.00 288.00,240.00 288.00,240.00
             288.00,240.00 432.00,240.00 432.00,240.00
             432.00,240.00 432.00,192.00 432.00,192.00
             432.00,192.00 288.00,192.00 288.00,192.00 Z" />
  <path id="Route 35"
        fill="none" stroke="black" stroke-width="1"
        d="M 240.00,240.00
           C 240.00,240.00 240.00,384.00 240.00,384.00
             240.00,384.00 288.00,384.00 288.00,384.00
             288.00,384.00 288.00,240.00 288.00,240.00
             288.00,240.00 240.00,240.00 240.00,240.00 Z" />
  <path id="Route 34"
        fill="none" stroke="black" stroke-width="1"
        d="M 240.00,432.00
           C 240.00,432.00 240.00,576.00 240.00,576.00
             240.00,576.00 288.00,576.00 288.00,576.00
             288.00,576.00 288.00,432.00 288.00,432.00
             288.00,432.00 240.00,432.00 240.00,432.00 Z" />
  <path id="Route 33"
        fill="none" stroke="black" stroke-width="1"
        d="M 384.00,576.00
           C 384.00,576.00 384.00,624.00 384.00,624.00
             384.00,624.00 480.00,624.00 480.00,624.00
             480.00,624.00 480.00,576.00 480.00,576.00
             480.00,576.00 384.00,576.00 384.00,576.00 Z" />
  <path id="Route 32"
        fill="none" stroke="black" stroke-width="1"
        d="M 432.00,240.00
           C 432.00,240.00 432.00,576.00 432.00,576.00
             432.00,576.00 480.00,576.00 480.00,576.00
             480.00,576.00 480.00,240.00 480.00,240.00
             480.00,240.00 432.00,240.00 432.00,240.00 Z" />
  <path id="Route 31"
        fill="none" stroke="black" stroke-width="1"
        d="M 480.00,192.00
           C 480.00,192.00 480.00,240.00 480.00,240.00
             480.00,240.00 576.00,240.00 576.00,240.00
             576.00,240.00 576.00,192.00 576.00,192.00
             576.00,192.00 480.00,192.00 480.00,192.00 Z" />
  <path id="Route 30"
        fill="none" stroke="black" stroke-width="1"
        d="M 528.00,240.00
           C 528.00,240.00 528.00,432.00 528.00,432.00
             528.00,432.00 576.00,432.00 576.00,432.00
             576.00,432.00 576.00,240.00 576.00,240.00
             576.00,240.00 528.00,240.00 528.00,240.00 Z" />
  <path id="Route 29"
        fill="none" stroke="black" stroke-width="1"
        d="M 576.00,432.00
           C 576.00,432.00 576.00,480.00 576.00,480.00
             576.00,480.00 768.00,480.00 768.00,480.00
             768.00,480.00 768.00,432.00 768.00,432.00
             768.00,432.00 576.00,432.00 576.00,432.00 Z" />
  <path id="Route 28"
        fill="none" stroke="black" stroke-width="1"
        d="M 864.00,240.00
           C 864.00,240.00 864.00,288.00 864.00,288.00
             864.00,288.00 960.00,288.00 960.00,288.00
             960.00,288.00 960.00,240.00 960.00,240.00
             960.00,240.00 864.00,240.00 864.00,240.00 Z" />
  <path id="Route 27"
        fill="none" stroke="black" stroke-width="1"
        d="M 816.00,432.00
           C 816.00,432.00 816.00,480.00 816.00,480.00
             816.00,480.00 960.00,480.00 960.00,480.00
             960.00,480.00 960.00,432.00 960.00,432.00
             960.00,432.00 816.00,432.00 816.00,432.00 Z" />
  <path id="Route 26"
        fill="none" stroke="black" stroke-width="1"
        d="M 960.00,288.00
           C 960.00,288.00 960.00,480.00 960.00,480.00
             960.00,480.00 1008.00,480.00 1008.00,480.00
             1008.00,480.00 1008.00,288.00 1008.00,288.00
             1008.00,288.00 960.00,288.00 960.00,288.00 Z" />
  <path id="Route 25"
        fill="none" stroke="black" stroke-width="1"
        d="M 1392.00,48.00
           C 1392.00,48.00 1392.00,96.00 1392.00,96.00
             1392.00,96.00 1536.00,96.00 1536.00,96.00
             1536.00,96.00 1536.00,48.00 1536.00,48.00
             1536.00,48.00 1392.00,48.00 1392.00,48.00 Z" />
  <path id="Route 24"
        fill="none" stroke="black" stroke-width="1"
        d="M 1392.00,96.00
           C 1392.00,96.00 1392.00,144.00 1392.00,144.00
             1392.00,144.00 1440.00,144.00 1440.00,144.00
             1440.00,144.00 1440.00,96.00 1440.00,96.00
             1440.00,96.00 1392.00,96.00 1392.00,96.00 Z" />
  <path id="Route 23"
        fill="none" stroke="black" stroke-width="1"
        d="M 960.00,96.00
           C 960.00,96.00 960.00,144.00 960.00,144.00
             960.00,144.00 1008.00,144.00 1008.00,144.00
             1008.00,144.00 1008.00,96.00 1008.00,96.00
             1008.00,96.00 960.00,96.00 960.00,96.00 Z" />
  <path id="Route 22"
        fill="none" stroke="black" stroke-width="1"
        d="M 1008.00,240.00
           C 1008.00,240.00 1008.00,288.00 1008.00,288.00
             1008.00,288.00 1104.00,288.00 1104.00,288.00
             1104.00,288.00 1104.00,240.00 1104.00,240.00
             1104.00,240.00 1008.00,240.00 1008.00,240.00 Z" />
  <path id="Route 18"
        fill="none" stroke="black" stroke-width="1"
        d="M 1248.00,528.00
           C 1248.00,528.00 1248.00,576.00 1248.00,576.00
             1248.00,576.00 1344.00,576.00 1344.00,576.00
             1344.00,576.00 1344.00,528.00 1344.00,528.00
             1344.00,528.00 1248.00,528.00 1248.00,528.00 Z" />
  <path id="Route 17"
        fill="none" stroke="black" stroke-width="1"
        d="M 1200.00,288.00
           C 1200.00,288.00 1200.00,576.00 1200.00,576.00
             1200.00,576.00 1248.00,576.00 1248.00,576.00
             1248.00,576.00 1248.00,288.00 1248.00,288.00
             1248.00,288.00 1200.00,288.00 1200.00,288.00 Z" />
  <path id="Route 16"
        fill="none" stroke="black" stroke-width="1"
        d="M 1200.00,240.00
           C 1200.00,240.00 1200.00,288.00 1200.00,288.00
             1200.00,288.00 1248.00,288.00 1248.00,288.00
             1248.00,288.00 1248.00,240.00 1248.00,240.00
             1248.00,240.00 1200.00,240.00 1200.00,240.00 Z" />
  <path id="Route 15"
        fill="none" stroke="black" stroke-width="1"
        d="M 1392.00,528.00
           C 1392.00,528.00 1392.00,576.00 1392.00,576.00
             1392.00,576.00 1488.00,576.00 1488.00,576.00
             1488.00,576.00 1488.00,528.00 1488.00,528.00
             1488.00,528.00 1392.00,528.00 1392.00,528.00 Z" />
  <path id="Route 14"
        fill="none" stroke="black" stroke-width="1"
        d="M 1488.00,480.00
           C 1488.00,480.00 1488.00,576.00 1488.00,576.00
             1488.00,576.00 1536.00,576.00 1536.00,576.00
             1536.00,576.00 1536.00,480.00 1536.00,480.00
             1536.00,480.00 1488.00,480.00 1488.00,480.00 Z" />
  <path id="Route 13"
        fill="none" stroke="black" stroke-width="1"
        d="M 1488.00,432.00
           C 1488.00,432.00 1488.00,480.00 1488.00,480.00
             1488.00,480.00 1632.00,480.00 1632.00,480.00
             1632.00,480.00 1632.00,432.00 1632.00,432.00
             1632.00,432.00 1488.00,432.00 1488.00,432.00 Z" />
  <path id="Route 12"
        fill="none" stroke="black" stroke-width="1"
        d="M 1584.00,288.00
           C 1584.00,288.00 1584.00,432.00 1584.00,432.00
             1584.00,432.00 1632.00,432.00 1632.00,432.00
             1632.00,432.00 1632.00,288.00 1632.00,288.00
             1632.00,288.00 1584.00,288.00 1584.00,288.00 Z" />
  <path id="Route 11"
        fill="none" stroke="black" stroke-width="1"
        d="M 1440.00,336.00
           C 1440.00,336.00 1440.00,384.00 1440.00,384.00
             1440.00,384.00 1584.00,384.00 1584.00,384.00
             1584.00,384.00 1584.00,336.00 1584.00,336.00
             1584.00,336.00 1440.00,336.00 1440.00,336.00 Z" />
  <path id="Route 10"
        fill="none" stroke="black" stroke-width="1"
        d="M 1584.00,192.00
           C 1584.00,192.00 1584.00,240.00 1584.00,240.00
             1584.00,240.00 1632.00,240.00 1632.00,240.00
             1632.00,240.00 1632.00,192.00 1632.00,192.00
             1632.00,192.00 1584.00,192.00 1584.00,192.00 Z" />
  <path id="Route 9"
        fill="none" stroke="black" stroke-width="1"
        d="M 1440.00,144.00
           C 1440.00,144.00 1440.00,192.00 1440.00,192.00
             1440.00,192.00 1632.00,192.00 1632.00,192.00
             1632.00,192.00 1632.00,144.00 1632.00,144.00
             1632.00,144.00 1440.00,144.00 1440.00,144.00 Z" />
  <path id="Route 8"
        fill="none" stroke="black" stroke-width="1"
        d="M 1440.00,240.00
           C 1440.00,240.00 1440.00,288.00 1440.00,288.00
             1440.00,288.00 1584.00,288.00 1584.00,288.00
             1584.00,288.00 1584.00,240.00 1584.00,240.00
             1584.00,240.00 1440.00,240.00 1440.00,240.00 Z" />
  <path id="Route 7"
        fill="none" stroke="black" stroke-width="1"
        d="M 1296.00,240.00
           C 1296.00,240.00 1296.00,288.00 1296.00,288.00
             1296.00,288.00 1392.00,288.00 1392.00,288.00
             1392.00,288.00 1392.00,240.00 1392.00,240.00
             1392.00,240.00 1296.00,240.00 1296.00,240.00 Z" />
  <path id="Route 6"
        fill="none" stroke="black" stroke-width="1"
        d="M 1392.00,288.00
           C 1392.00,288.00 1392.00,336.00 1392.00,336.00
             1392.00,336.00 1440.00,336.00 1440.00,336.00
             1440.00,336.00 1440.00,288.00 1440.00,288.00
             1440.00,288.00 1392.00,288.00 1392.00,288.00 Z" />
  <path id="Route 5"
        fill="none" stroke="black" stroke-width="1"
        d="M 1392.00,192.00
           C 1392.00,192.00 1392.00,240.00 1392.00,240.00
             1392.00,240.00 1440.00,240.00 1440.00,240.00
             1440.00,240.00 1440.00,192.00 1440.00,192.00
             1440.00,192.00 1392.00,192.00 1392.00,192.00 Z" />
  <path id="Route 4"
        fill="none" stroke="black" stroke-width="1"
        d="M 1296.00,144.00
           C 1296.00,144.00 1296.00,192.00 1296.00,192.00
             1296.00,192.00 1392.00,192.00 1392.00,192.00
             1392.00,192.00 1392.00,144.00 1392.00,144.00
             1392.00,144.00 1296.00,144.00 1296.00,144.00 Z" />
  <path id="Route 3"
        fill="none" stroke="black" stroke-width="1"
        d="M 1152.00,144.00
           C 1152.00,144.00 1152.00,192.00 1152.00,192.00
             1152.00,192.00 1248.00,192.00 1248.00,192.00
             1248.00,192.00 1248.00,144.00 1248.00,144.00
             1248.00,144.00 1152.00,144.00 1152.00,144.00 Z" />
  <path id="Route 2"
        fill="none" stroke="black" stroke-width="1"
        d="M 1104.00,192.00
           C 1104.00,192.00 1104.00,288.00 1104.00,288.00
             1104.00,288.00 1152.00,288.00 1152.00,288.00
             1152.00,288.00 1152.00,192.00 1152.00,192.00
             1152.00,192.00 1104.00,192.00 1104.00,192.00 Z" />
  <path id="Route 1"
        fill="none" stroke="black" stroke-width="1"
        d="M 1104.00,336.00
           C 1104.00,336.00 1104.00,480.00 1104.00,480.00
             1104.00,480.00 1152.00,480.00 1152.00,480.00
             1152.00,480.00 1152.00,336.00 1152.00,336.00
             1152.00,336.00 1104.00,336.00 1104.00,336.00 Z" />
</svg>
