<?xml version="1.0" encoding="UTF-8" standalone="no"?>
<!DOCTYPE svg PUBLIC "-//W3C//DTD SVG 20010904//EN"
              "http://www.w3.org/TR/2001/REC-SVG-20010904/DTD/svg10.dtd">

<svg xmlns="http://www.w3.org/2000/svg"
     width="476.316mm" height="189.203mm"
     viewBox="0 0 1800 715">
  <path id="National Park"
        fill="none" stroke="black" stroke-width="1"
        d="M 385.00,300.00
           C 385.00,300.00 385.00,305.00 385.00,305.00
             385.00,305.00 380.00,305.00 380.00,305.00
             380.00,305.00 380.00,335.00 380.00,335.00
             380.00,335.00 385.00,335.00 385.00,335.00
             385.00,335.00 385.00,340.00 385.00,340.00
             385.00,340.00 415.00,340.00 415.00,340.00
             415.00,340.00 415.00,335.00 415.00,335.00
             415.00,335.00 420.00,335.00 420.00,335.00
             420.00,335.00 420.00,305.00 420.00,305.00
             420.00,305.00 415.00,305.00 415.00,305.00
             415.00,305.00 415.00,300.00 415.00,300.00
             415.00,300.00 385.00,300.00 385.00,300.00 Z" />
  <path id="Lake of Rage"
        fill="none" stroke="black" stroke-width="1"
        d="M 565.00,80.00
           C 565.00,80.00 565.00,85.00 565.00,85.00
             565.00,85.00 560.00,85.00 560.00,85.00
             560.00,85.00 560.00,155.00 560.00,155.00
             560.00,155.00 565.00,155.00 565.00,155.00
             565.00,155.00 565.00,160.00 565.00,160.00
             565.00,160.00 675.00,160.00 675.00,160.00
             675.00,160.00 675.00,155.00 675.00,155.00
             675.00,155.00 680.00,155.00 680.00,155.00
             680.00,155.00 680.00,85.00 680.00,85.00
             680.00,85.00 675.00,85.00 675.00,85.00
             675.00,85.00 675.00,80.00 675.00,80.00
             675.00,80.00 565.00,80.00 565.00,80.00 Z" />
  <path id="Battle Frontier"
        fill="none" stroke="black" stroke-width="1"
        d="M 225.00,300.00
           C 225.00,300.00 225.00,305.00 225.00,305.00
             225.00,305.00 220.00,305.00 220.00,305.00
             220.00,305.00 220.00,335.00 220.00,335.00
             220.00,335.00 225.00,335.00 225.00,335.00
             225.00,335.00 225.00,340.00 225.00,340.00
             225.00,340.00 255.00,340.00 255.00,340.00
             255.00,340.00 255.00,335.00 255.00,335.00
             255.00,335.00 260.00,335.00 260.00,335.00
             260.00,335.00 260.00,305.00 260.00,305.00
             260.00,305.00 255.00,305.00 255.00,305.00
             255.00,305.00 255.00,300.00 255.00,300.00
             255.00,300.00 225.00,300.00 225.00,300.00 Z" />
  <path id="Safari Zone"
        fill="none" stroke="black" stroke-width="1"
        d="M 55.00,370.00
           C 55.00,370.00 55.00,375.00 55.00,375.00
             55.00,375.00 50.00,375.00 50.00,375.00
             50.00,375.00 50.00,425.00 50.00,425.00
             50.00,425.00 55.00,425.00 55.00,425.00
             55.00,425.00 55.00,430.00 55.00,430.00
             55.00,430.00 105.00,430.00 105.00,430.00
             105.00,430.00 105.00,425.00 105.00,425.00
             105.00,425.00 110.00,425.00 110.00,425.00
             110.00,425.00 110.00,375.00 110.00,375.00
             110.00,375.00 105.00,375.00 105.00,375.00
             105.00,375.00 105.00,370.00 105.00,370.00
             105.00,370.00 55.00,370.00 55.00,370.00 Z" />
  <path id="Ruins of Alph"
        fill="none" stroke="black" stroke-width="1"
        d="M 485.00,360.00
           C 485.00,360.00 485.00,365.00 485.00,365.00
             485.00,365.00 480.00,365.00 480.00,365.00
             480.00,365.00 480.00,435.00 480.00,435.00
             480.00,435.00 485.00,435.00 485.00,435.00
             485.00,435.00 485.00,440.00 485.00,440.00
             485.00,440.00 515.00,440.00 515.00,440.00
             515.00,440.00 515.00,435.00 515.00,435.00
             515.00,435.00 520.00,435.00 520.00,435.00
             520.00,435.00 520.00,365.00 520.00,365.00
             520.00,365.00 515.00,365.00 515.00,365.00
             515.00,365.00 515.00,360.00 515.00,360.00
             515.00,360.00 485.00,360.00 485.00,360.00 Z" />
  <path id="Mt. Mortar"
        fill="none" stroke="black" stroke-width="1"
        d="M 535.00,250.00
           C 535.00,250.00 535.00,255.00 535.00,255.00
             535.00,255.00 530.00,255.00 530.00,255.00
             530.00,255.00 530.00,265.00 530.00,265.00
             530.00,265.00 535.00,265.00 535.00,265.00
             535.00,265.00 535.00,270.00 535.00,270.00
             535.00,270.00 545.00,270.00 545.00,270.00
             545.00,270.00 545.00,265.00 545.00,265.00
             545.00,265.00 550.00,265.00 550.00,265.00
             550.00,265.00 550.00,255.00 550.00,255.00
             550.00,255.00 545.00,255.00 545.00,255.00
             545.00,255.00 545.00,250.00 545.00,250.00
             545.00,250.00 535.00,250.00 535.00,250.00 Z" />
  <path id="Burned Tower"
        fill="none" stroke="black" stroke-width="1"
        d="M 415.00,210.00
           C 415.00,210.00 415.00,215.00 415.00,215.00
             415.00,215.00 410.00,215.00 410.00,215.00
             410.00,215.00 410.00,225.00 410.00,225.00
             410.00,225.00 415.00,225.00 415.00,225.00
             415.00,225.00 415.00,230.00 415.00,230.00
             415.00,230.00 425.00,230.00 425.00,230.00
             425.00,230.00 425.00,225.00 425.00,225.00
             425.00,225.00 430.00,225.00 430.00,225.00
             430.00,225.00 430.00,215.00 430.00,215.00
             430.00,215.00 425.00,215.00 425.00,215.00
             425.00,215.00 425.00,210.00 425.00,210.00
             425.00,210.00 415.00,210.00 415.00,210.00 Z" />
  <path id="Bell Tower"
        fill="none" stroke="black" stroke-width="1"
        d="M 455.00,210.00
           C 455.00,210.00 455.00,215.00 455.00,215.00
             455.00,215.00 450.00,215.00 450.00,215.00
             450.00,215.00 450.00,225.00 450.00,225.00
             450.00,225.00 455.00,225.00 455.00,225.00
             455.00,225.00 455.00,230.00 455.00,230.00
             455.00,230.00 465.00,230.00 465.00,230.00
             465.00,230.00 465.00,225.00 465.00,225.00
             465.00,225.00 470.00,225.00 470.00,225.00
             470.00,225.00 470.00,215.00 470.00,215.00
             470.00,215.00 465.00,215.00 465.00,215.00
             465.00,215.00 465.00,210.00 465.00,210.00
             465.00,210.00 455.00,210.00 455.00,210.00 Z" />
  <path id="Ice Path"
        fill="none" stroke="black" stroke-width="1"
        d="M 815.00,210.00
           C 815.00,210.00 815.00,215.00 815.00,215.00
             815.00,215.00 810.00,215.00 810.00,215.00
             810.00,215.00 810.00,225.00 810.00,225.00
             810.00,225.00 815.00,225.00 815.00,225.00
             815.00,225.00 815.00,230.00 815.00,230.00
             815.00,230.00 825.00,230.00 825.00,230.00
             825.00,230.00 825.00,225.00 825.00,225.00
             825.00,225.00 830.00,225.00 830.00,225.00
             830.00,225.00 830.00,215.00 830.00,215.00
             830.00,215.00 825.00,215.00 825.00,215.00
             825.00,215.00 825.00,210.00 825.00,210.00
             825.00,210.00 815.00,210.00 815.00,210.00 Z" />
  <path id="Dark Cave_3"
        fill="none" stroke="black" stroke-width="1"
        d="M 735.00,450.00
           C 735.00,450.00 735.00,455.00 735.00,455.00
             735.00,455.00 730.00,455.00 730.00,455.00
             730.00,455.00 730.00,465.00 730.00,465.00
             730.00,465.00 735.00,465.00 735.00,465.00
             735.00,465.00 735.00,470.00 735.00,470.00
             735.00,470.00 745.00,470.00 745.00,470.00
             745.00,470.00 745.00,465.00 745.00,465.00
             745.00,465.00 750.00,465.00 750.00,465.00
             750.00,465.00 750.00,455.00 750.00,455.00
             750.00,455.00 745.00,455.00 745.00,455.00
             745.00,455.00 745.00,450.00 745.00,450.00
             745.00,450.00 735.00,450.00 735.00,450.00 Z" />
  <path id="Dark Cave_2"
        fill="none" stroke="black" stroke-width="1"
        d="M 775.00,290.00
           C 775.00,290.00 775.00,295.00 775.00,295.00
             775.00,295.00 770.00,295.00 770.00,295.00
             770.00,295.00 770.00,305.00 770.00,305.00
             770.00,305.00 775.00,305.00 775.00,305.00
             775.00,305.00 775.00,310.00 775.00,310.00
             775.00,310.00 785.00,310.00 785.00,310.00
             785.00,310.00 785.00,305.00 785.00,305.00
             785.00,305.00 790.00,305.00 790.00,305.00
             790.00,305.00 790.00,295.00 790.00,295.00
             790.00,295.00 785.00,295.00 785.00,295.00
             785.00,295.00 785.00,290.00 785.00,290.00
             785.00,290.00 775.00,290.00 775.00,290.00 Z" />
  <path id="Dark Cave_1"
        fill="none" stroke="black" stroke-width="1"
        d="M 655.00,370.00
           C 655.00,370.00 655.00,375.00 655.00,375.00
             655.00,375.00 650.00,375.00 650.00,375.00
             650.00,375.00 650.00,385.00 650.00,385.00
             650.00,385.00 655.00,385.00 655.00,385.00
             655.00,385.00 655.00,390.00 655.00,390.00
             655.00,390.00 665.00,390.00 665.00,390.00
             665.00,390.00 665.00,385.00 665.00,385.00
             665.00,385.00 670.00,385.00 670.00,385.00
             670.00,385.00 670.00,375.00 670.00,375.00
             670.00,375.00 665.00,375.00 665.00,375.00
             665.00,375.00 665.00,370.00 665.00,370.00
             665.00,370.00 655.00,370.00 655.00,370.00 Z" />
  <path id="Sprout Tower"
        fill="none" stroke="black" stroke-width="1"
        d="M 575.00,330.00
           C 575.00,330.00 575.00,335.00 575.00,335.00
             575.00,335.00 570.00,335.00 570.00,335.00
             570.00,335.00 570.00,345.00 570.00,345.00
             570.00,345.00 575.00,345.00 575.00,345.00
             575.00,345.00 575.00,350.00 575.00,350.00
             575.00,350.00 585.00,350.00 585.00,350.00
             585.00,350.00 585.00,345.00 585.00,345.00
             585.00,345.00 590.00,345.00 590.00,345.00
             590.00,345.00 590.00,335.00 590.00,335.00
             590.00,335.00 585.00,335.00 585.00,335.00
             585.00,335.00 585.00,330.00 585.00,330.00
             585.00,330.00 575.00,330.00 575.00,330.00 Z" />
  <path id="Glitter Lighthouse"
        fill="none" stroke="black" stroke-width="1"
        d="M 335.00,370.00
           C 335.00,370.00 335.00,375.00 335.00,375.00
             335.00,375.00 330.00,375.00 330.00,375.00
             330.00,375.00 330.00,385.00 330.00,385.00
             330.00,385.00 335.00,385.00 335.00,385.00
             335.00,385.00 335.00,390.00 335.00,390.00
             335.00,390.00 345.00,390.00 345.00,390.00
             345.00,390.00 345.00,385.00 345.00,385.00
             345.00,385.00 350.00,385.00 350.00,385.00
             350.00,385.00 350.00,375.00 350.00,375.00
             350.00,375.00 345.00,375.00 345.00,375.00
             345.00,375.00 345.00,370.00 345.00,370.00
             345.00,370.00 335.00,370.00 335.00,370.00 Z" />
  <path id="Whirl Islands"
        fill="none" stroke="black" stroke-width="1"
        d="M 255.00,490.00
           C 255.00,490.00 255.00,495.00 255.00,495.00
             255.00,495.00 250.00,495.00 250.00,495.00
             250.00,495.00 250.00,505.00 250.00,505.00
             250.00,505.00 255.00,505.00 255.00,505.00
             255.00,505.00 255.00,510.00 255.00,510.00
             255.00,510.00 265.00,510.00 265.00,510.00
             265.00,510.00 265.00,505.00 265.00,505.00
             265.00,505.00 270.00,505.00 270.00,505.00
             270.00,505.00 270.00,495.00 270.00,495.00
             270.00,495.00 265.00,495.00 265.00,495.00
             265.00,495.00 265.00,490.00 265.00,490.00
             265.00,490.00 255.00,490.00 255.00,490.00 Z" />
  <path id="Ilex Forest"
        fill="none" stroke="black" stroke-width="1"
        d="M 415.00,610.00
           C 415.00,610.00 415.00,615.00 415.00,615.00
             415.00,615.00 410.00,615.00 410.00,615.00
             410.00,615.00 410.00,625.00 410.00,625.00
             410.00,625.00 415.00,625.00 415.00,625.00
             415.00,625.00 415.00,630.00 415.00,630.00
             415.00,630.00 425.00,630.00 425.00,630.00
             425.00,630.00 425.00,625.00 425.00,625.00
             425.00,625.00 430.00,625.00 430.00,625.00
             430.00,625.00 430.00,615.00 430.00,615.00
             430.00,615.00 425.00,615.00 425.00,615.00
             425.00,615.00 425.00,610.00 425.00,610.00
             425.00,610.00 415.00,610.00 415.00,610.00 Z" />
  <path id="Slowpoke Well"
        fill="none" stroke="black" stroke-width="1"
        d="M 495.00,610.00
           C 495.00,610.00 495.00,615.00 495.00,615.00
             495.00,615.00 490.00,615.00 490.00,615.00
             490.00,615.00 490.00,625.00 490.00,625.00
             490.00,625.00 495.00,625.00 495.00,625.00
             495.00,625.00 495.00,630.00 495.00,630.00
             495.00,630.00 505.00,630.00 505.00,630.00
             505.00,630.00 505.00,625.00 505.00,625.00
             505.00,625.00 510.00,625.00 510.00,625.00
             510.00,625.00 510.00,615.00 510.00,615.00
             510.00,615.00 505.00,615.00 505.00,615.00
             505.00,615.00 505.00,610.00 505.00,610.00
             505.00,610.00 495.00,610.00 495.00,610.00 Z" />
  <path id="Union Cave"
        fill="none" stroke="black" stroke-width="1"
        d="M 535.00,570.00
           C 535.00,570.00 535.00,575.00 535.00,575.00
             535.00,575.00 530.00,575.00 530.00,575.00
             530.00,575.00 530.00,585.00 530.00,585.00
             530.00,585.00 535.00,585.00 535.00,585.00
             535.00,585.00 535.00,590.00 535.00,590.00
             535.00,590.00 545.00,590.00 545.00,590.00
             545.00,590.00 545.00,585.00 545.00,585.00
             545.00,585.00 550.00,585.00 550.00,585.00
             550.00,585.00 550.00,575.00 550.00,575.00
             550.00,575.00 545.00,575.00 545.00,575.00
             545.00,575.00 545.00,570.00 545.00,570.00
             545.00,570.00 535.00,570.00 535.00,570.00 Z" />
  <path id="Tohjo Falls"
        fill="none" stroke="black" stroke-width="1"
        d="M 895.00,530.00
           C 895.00,530.00 895.00,535.00 895.00,535.00
             895.00,535.00 890.00,535.00 890.00,535.00
             890.00,535.00 890.00,545.00 890.00,545.00
             890.00,545.00 895.00,545.00 895.00,545.00
             895.00,545.00 895.00,550.00 895.00,550.00
             895.00,550.00 905.00,550.00 905.00,550.00
             905.00,550.00 905.00,545.00 905.00,545.00
             905.00,545.00 910.00,545.00 910.00,545.00
             910.00,545.00 910.00,535.00 910.00,535.00
             910.00,535.00 905.00,535.00 905.00,535.00
             905.00,535.00 905.00,530.00 905.00,530.00
             905.00,530.00 895.00,530.00 895.00,530.00 Z" />
  <path id="Mt. Silver"
        fill="none" stroke="black" stroke-width="1"
        d="M 975.00,370.00
           C 975.00,370.00 975.00,375.00 975.00,375.00
             975.00,375.00 970.00,375.00 970.00,375.00
             970.00,375.00 970.00,385.00 970.00,385.00
             970.00,385.00 975.00,385.00 975.00,385.00
             975.00,385.00 975.00,390.00 975.00,390.00
             975.00,390.00 985.00,390.00 985.00,390.00
             985.00,390.00 985.00,385.00 985.00,385.00
             985.00,385.00 990.00,385.00 990.00,385.00
             990.00,385.00 990.00,375.00 990.00,375.00
             990.00,375.00 985.00,375.00 985.00,375.00
             985.00,375.00 985.00,370.00 985.00,370.00
             985.00,370.00 975.00,370.00 975.00,370.00 Z" />
  <path id="Pokémon League Reception Gate"
        fill="none" stroke="black" stroke-width="1"
        d="M 1095.00,330.00
           C 1095.00,330.00 1095.00,335.00 1095.00,335.00
             1095.00,335.00 1090.00,335.00 1090.00,335.00
             1090.00,335.00 1090.00,385.00 1090.00,385.00
             1090.00,385.00 1095.00,385.00 1095.00,385.00
             1095.00,385.00 1095.00,390.00 1095.00,390.00
             1095.00,390.00 1105.00,390.00 1105.00,390.00
             1105.00,390.00 1105.00,385.00 1105.00,385.00
             1105.00,385.00 1110.00,385.00 1110.00,385.00
             1110.00,385.00 1110.00,335.00 1110.00,335.00
             1110.00,335.00 1105.00,335.00 1105.00,335.00
             1105.00,335.00 1105.00,330.00 1105.00,330.00
             1105.00,330.00 1095.00,330.00 1095.00,330.00 Z" />
  <path id="Indigo Plateau"
        fill="none" stroke="black" stroke-width="1"
        d="M 1095.00,290.00
           C 1095.00,290.00 1095.00,295.00 1095.00,295.00
             1095.00,295.00 1090.00,295.00 1090.00,295.00
             1090.00,295.00 1090.00,305.00 1090.00,305.00
             1090.00,305.00 1095.00,305.00 1095.00,305.00
             1095.00,305.00 1095.00,310.00 1095.00,310.00
             1095.00,310.00 1105.00,310.00 1105.00,310.00
             1105.00,310.00 1105.00,305.00 1105.00,305.00
             1105.00,305.00 1110.00,305.00 1110.00,305.00
             1110.00,305.00 1110.00,295.00 1110.00,295.00
             1110.00,295.00 1105.00,295.00 1105.00,295.00
             1105.00,295.00 1105.00,290.00 1105.00,290.00
             1105.00,290.00 1095.00,290.00 1095.00,290.00 Z" />
  <path id="Viridian Forest"
        fill="none" stroke="black" stroke-width="1"
        d="M 1255.00,250.00
           C 1255.00,250.00 1255.00,255.00 1255.00,255.00
             1255.00,255.00 1250.00,255.00 1250.00,255.00
             1250.00,255.00 1250.00,265.00 1250.00,265.00
             1250.00,265.00 1255.00,265.00 1255.00,265.00
             1255.00,265.00 1255.00,270.00 1255.00,270.00
             1255.00,270.00 1265.00,270.00 1265.00,270.00
             1265.00,270.00 1265.00,265.00 1265.00,265.00
             1265.00,265.00 1270.00,265.00 1270.00,265.00
             1270.00,265.00 1270.00,255.00 1270.00,255.00
             1270.00,255.00 1265.00,255.00 1265.00,255.00
             1265.00,255.00 1265.00,250.00 1265.00,250.00
             1265.00,250.00 1255.00,250.00 1255.00,250.00 Z" />
  <path id="Diglett&apos;s Cave_2"
        fill="none" stroke="black" stroke-width="1"
        d="M 1655.00,410.00
           C 1655.00,410.00 1655.00,415.00 1655.00,415.00
             1655.00,415.00 1650.00,415.00 1650.00,415.00
             1650.00,415.00 1650.00,425.00 1650.00,425.00
             1650.00,425.00 1655.00,425.00 1655.00,425.00
             1655.00,425.00 1655.00,430.00 1655.00,430.00
             1655.00,430.00 1665.00,430.00 1665.00,430.00
             1665.00,430.00 1665.00,425.00 1665.00,425.00
             1665.00,425.00 1670.00,425.00 1670.00,425.00
             1670.00,425.00 1670.00,415.00 1670.00,415.00
             1670.00,415.00 1665.00,415.00 1665.00,415.00
             1665.00,415.00 1665.00,410.00 1665.00,410.00
             1665.00,410.00 1655.00,410.00 1655.00,410.00 Z" />
  <path id="Diglett&apos;s Cave_1"
        fill="none" stroke="black" stroke-width="1"
        d="M 1255.00,210.00
           C 1255.00,210.00 1255.00,215.00 1255.00,215.00
             1255.00,215.00 1250.00,215.00 1250.00,215.00
             1250.00,215.00 1250.00,225.00 1250.00,225.00
             1250.00,225.00 1255.00,225.00 1255.00,225.00
             1255.00,225.00 1255.00,230.00 1255.00,230.00
             1255.00,230.00 1265.00,230.00 1265.00,230.00
             1265.00,230.00 1265.00,225.00 1265.00,225.00
             1265.00,225.00 1270.00,225.00 1270.00,225.00
             1270.00,225.00 1270.00,215.00 1270.00,215.00
             1270.00,215.00 1265.00,215.00 1265.00,215.00
             1265.00,215.00 1265.00,210.00 1265.00,210.00
             1265.00,210.00 1255.00,210.00 1255.00,210.00 Z" />
  <path id="Mt. Moon"
        fill="none" stroke="black" stroke-width="1"
        d="M 1415.00,170.00
           C 1415.00,170.00 1415.00,175.00 1415.00,175.00
             1415.00,175.00 1410.00,175.00 1410.00,175.00
             1410.00,175.00 1410.00,185.00 1410.00,185.00
             1410.00,185.00 1415.00,185.00 1415.00,185.00
             1415.00,185.00 1415.00,190.00 1415.00,190.00
             1415.00,190.00 1425.00,190.00 1425.00,190.00
             1425.00,190.00 1425.00,185.00 1425.00,185.00
             1425.00,185.00 1430.00,185.00 1430.00,185.00
             1430.00,185.00 1430.00,175.00 1430.00,175.00
             1430.00,175.00 1425.00,175.00 1425.00,175.00
             1425.00,175.00 1425.00,170.00 1425.00,170.00
             1425.00,170.00 1415.00,170.00 1415.00,170.00 Z" />
  <path id="Cerulean Cave"
        fill="none" stroke="black" stroke-width="1"
        d="M 1575.00,170.00
           C 1575.00,170.00 1575.00,175.00 1575.00,175.00
             1575.00,175.00 1570.00,175.00 1570.00,175.00
             1570.00,175.00 1570.00,185.00 1570.00,185.00
             1570.00,185.00 1575.00,185.00 1575.00,185.00
             1575.00,185.00 1575.00,190.00 1575.00,190.00
             1575.00,190.00 1585.00,190.00 1585.00,190.00
             1585.00,190.00 1585.00,185.00 1585.00,185.00
             1585.00,185.00 1590.00,185.00 1590.00,185.00
             1590.00,185.00 1590.00,175.00 1590.00,175.00
             1590.00,175.00 1585.00,175.00 1585.00,175.00
             1585.00,175.00 1585.00,170.00 1585.00,170.00
             1585.00,170.00 1575.00,170.00 1575.00,170.00 Z" />
  <path id="Rock Tunnel"
        fill="none" stroke="black" stroke-width="1"
        d="M 1735.00,210.00
           C 1735.00,210.00 1735.00,215.00 1735.00,215.00
             1735.00,215.00 1730.00,215.00 1730.00,215.00
             1730.00,215.00 1730.00,225.00 1730.00,225.00
             1730.00,225.00 1735.00,225.00 1735.00,225.00
             1735.00,225.00 1735.00,230.00 1735.00,230.00
             1735.00,230.00 1745.00,230.00 1745.00,230.00
             1745.00,230.00 1745.00,225.00 1745.00,225.00
             1745.00,225.00 1750.00,225.00 1750.00,225.00
             1750.00,225.00 1750.00,215.00 1750.00,215.00
             1750.00,215.00 1745.00,215.00 1745.00,215.00
             1745.00,215.00 1745.00,210.00 1745.00,210.00
             1745.00,210.00 1735.00,210.00 1735.00,210.00 Z" />
  <path id="Power Plant"
        fill="none" stroke="black" stroke-width="1"
        d="M 1735.00,250.00
           C 1735.00,250.00 1735.00,255.00 1735.00,255.00
             1735.00,255.00 1730.00,255.00 1730.00,255.00
             1730.00,255.00 1730.00,265.00 1730.00,265.00
             1730.00,265.00 1735.00,265.00 1735.00,265.00
             1735.00,265.00 1735.00,270.00 1735.00,270.00
             1735.00,270.00 1745.00,270.00 1745.00,270.00
             1745.00,270.00 1745.00,265.00 1745.00,265.00
             1745.00,265.00 1750.00,265.00 1750.00,265.00
             1750.00,265.00 1750.00,255.00 1750.00,255.00
             1750.00,255.00 1745.00,255.00 1745.00,255.00
             1745.00,255.00 1745.00,250.00 1745.00,250.00
             1745.00,250.00 1735.00,250.00 1735.00,250.00 Z" />
  <path id="Pal Park"
        fill="none" stroke="black" stroke-width="1"
        d="M 1455.00,530.00
           C 1455.00,530.00 1455.00,535.00 1455.00,535.00
             1455.00,535.00 1450.00,535.00 1450.00,535.00
             1450.00,535.00 1450.00,545.00 1450.00,545.00
             1450.00,545.00 1455.00,545.00 1455.00,545.00
             1455.00,545.00 1455.00,550.00 1455.00,550.00
             1455.00,550.00 1465.00,550.00 1465.00,550.00
             1465.00,550.00 1465.00,545.00 1465.00,545.00
             1465.00,545.00 1470.00,545.00 1470.00,545.00
             1470.00,545.00 1470.00,535.00 1470.00,535.00
             1470.00,535.00 1465.00,535.00 1465.00,535.00
             1465.00,535.00 1465.00,530.00 1465.00,530.00
             1465.00,530.00 1455.00,530.00 1455.00,530.00 Z" />
  <path id="Seafoam Islands"
        fill="none" stroke="black" stroke-width="1"
        d="M 1375.00,650.00
           C 1375.00,650.00 1375.00,655.00 1375.00,655.00
             1375.00,655.00 1370.00,655.00 1370.00,655.00
             1370.00,655.00 1370.00,665.00 1370.00,665.00
             1370.00,665.00 1375.00,665.00 1375.00,665.00
             1375.00,665.00 1375.00,670.00 1375.00,670.00
             1375.00,670.00 1385.00,670.00 1385.00,670.00
             1385.00,670.00 1385.00,665.00 1385.00,665.00
             1385.00,665.00 1390.00,665.00 1390.00,665.00
             1390.00,665.00 1390.00,655.00 1390.00,655.00
             1390.00,655.00 1385.00,655.00 1385.00,655.00
             1385.00,655.00 1385.00,650.00 1385.00,650.00
             1385.00,650.00 1375.00,650.00 1375.00,650.00 Z" />
  <path id="Blackthorn City"
        fill="none" stroke="black" stroke-width="1"
        d="M 765.00,200.00
           C 765.00,200.00 765.00,205.00 765.00,205.00
             765.00,205.00 760.00,205.00 760.00,205.00
             760.00,205.00 760.00,275.00 760.00,275.00
             760.00,275.00 765.00,275.00 765.00,275.00
             765.00,275.00 765.00,280.00 765.00,280.00
             765.00,280.00 835.00,280.00 835.00,280.00
             835.00,280.00 835.00,275.00 835.00,275.00
             835.00,275.00 840.00,275.00 840.00,275.00
             840.00,275.00 840.00,210.00 840.00,210.00
             840.00,210.00 835.00,210.00 835.00,210.00
             835.00,210.00 835.00,235.00 835.00,235.00
             835.00,235.00 825.00,235.00 825.00,235.00
             825.00,235.00 825.00,240.00 825.00,240.00
             825.00,240.00 815.00,240.00 815.00,240.00
             815.00,240.00 815.00,235.00 815.00,235.00
             815.00,235.00 805.00,235.00 805.00,235.00
             805.00,235.00 805.00,225.00 805.00,225.00
             805.00,225.00 800.00,225.00 800.00,225.00
             800.00,225.00 800.00,215.00 800.00,215.00
             800.00,215.00 805.00,215.00 805.00,215.00
             805.00,215.00 805.00,205.00 805.00,205.00
             805.00,205.00 830.00,205.00 830.00,205.00
             830.00,205.00 830.00,200.00 830.00,200.00
             830.00,200.00 765.00,200.00 765.00,200.00 Z" />
  <path id="Ecruteak City"
        fill="none" stroke="black" stroke-width="1"
        d="M 410.00,200.00
           C 410.00,200.00 410.00,205.00 410.00,205.00
             410.00,205.00 435.00,205.00 435.00,205.00
             435.00,205.00 435.00,235.00 435.00,235.00
             435.00,235.00 425.00,235.00 425.00,235.00
             425.00,235.00 425.00,240.00 425.00,240.00
             425.00,240.00 415.00,240.00 415.00,240.00
             415.00,240.00 415.00,235.00 415.00,235.00
             415.00,235.00 405.00,235.00 405.00,235.00
             405.00,235.00 405.00,210.00 405.00,210.00
             405.00,210.00 400.00,210.00 400.00,210.00
             400.00,210.00 400.00,275.00 400.00,275.00
             400.00,275.00 405.00,275.00 405.00,275.00
             405.00,275.00 405.00,280.00 405.00,280.00
             405.00,280.00 475.00,280.00 475.00,280.00
             475.00,280.00 475.00,275.00 475.00,275.00
             475.00,275.00 480.00,275.00 480.00,275.00
             480.00,275.00 480.00,210.00 480.00,210.00
             480.00,210.00 475.00,210.00 475.00,210.00
             475.00,210.00 475.00,235.00 475.00,235.00
             475.00,235.00 465.00,235.00 465.00,235.00
             465.00,235.00 465.00,240.00 465.00,240.00
             465.00,240.00 455.00,240.00 455.00,240.00
             455.00,240.00 455.00,235.00 455.00,235.00
             455.00,235.00 445.00,235.00 445.00,235.00
             445.00,235.00 445.00,205.00 445.00,205.00
             445.00,205.00 470.00,205.00 470.00,205.00
             470.00,205.00 470.00,200.00 470.00,200.00
             470.00,200.00 410.00,200.00 410.00,200.00 Z" />
  <path id="Violet City"
        fill="none" stroke="black" stroke-width="1"
        d="M 525.00,320.00
           C 525.00,320.00 525.00,325.00 525.00,325.00
             525.00,325.00 520.00,325.00 520.00,325.00
             520.00,325.00 520.00,355.00 520.00,355.00
             520.00,355.00 525.00,355.00 525.00,355.00
             525.00,355.00 525.00,360.00 525.00,360.00
             525.00,360.00 530.00,360.00 530.00,360.00
             530.00,360.00 530.00,400.00 530.00,400.00
             530.00,400.00 595.00,400.00 595.00,400.00
             595.00,400.00 595.00,395.00 595.00,395.00
             595.00,395.00 600.00,395.00 600.00,395.00
             600.00,395.00 600.00,330.00 600.00,330.00
             600.00,330.00 595.00,330.00 595.00,330.00
             595.00,330.00 595.00,355.00 595.00,355.00
             595.00,355.00 585.00,355.00 585.00,355.00
             585.00,355.00 585.00,360.00 585.00,360.00
             585.00,360.00 575.00,360.00 575.00,360.00
             575.00,360.00 575.00,355.00 575.00,355.00
             575.00,355.00 565.00,355.00 565.00,355.00
             565.00,355.00 565.00,345.00 565.00,345.00
             565.00,345.00 560.00,345.00 560.00,345.00
             560.00,345.00 560.00,335.00 560.00,335.00
             560.00,335.00 565.00,335.00 565.00,335.00
             565.00,335.00 565.00,325.00 565.00,325.00
             565.00,325.00 590.00,325.00 590.00,325.00
             590.00,325.00 590.00,320.00 590.00,320.00
             590.00,320.00 525.00,320.00 525.00,320.00 Z" />
  <path id="Cherrygrove City"
        fill="none" stroke="black" stroke-width="1"
        d="M 605.00,520.00
           C 605.00,520.00 605.00,525.00 605.00,525.00
             605.00,525.00 600.00,525.00 600.00,525.00
             600.00,525.00 600.00,555.00 600.00,555.00
             600.00,555.00 605.00,555.00 605.00,555.00
             605.00,555.00 605.00,560.00 605.00,560.00
             605.00,560.00 675.00,560.00 675.00,560.00
             675.00,560.00 675.00,555.00 675.00,555.00
             675.00,555.00 680.00,555.00 680.00,555.00
             680.00,555.00 680.00,525.00 680.00,525.00
             680.00,525.00 675.00,525.00 675.00,525.00
             675.00,525.00 675.00,520.00 675.00,520.00
             675.00,520.00 605.00,520.00 605.00,520.00 Z" />
  <path id="New Bark Town"
        fill="none" stroke="black" stroke-width="1"
        d="M 805.00,520.00
           C 805.00,520.00 805.00,525.00 805.00,525.00
             805.00,525.00 800.00,525.00 800.00,525.00
             800.00,525.00 800.00,555.00 800.00,555.00
             800.00,555.00 805.00,555.00 805.00,555.00
             805.00,555.00 805.00,560.00 805.00,560.00
             805.00,560.00 835.00,560.00 835.00,560.00
             835.00,560.00 835.00,555.00 835.00,555.00
             835.00,555.00 840.00,555.00 840.00,555.00
             840.00,555.00 840.00,525.00 840.00,525.00
             840.00,525.00 835.00,525.00 835.00,525.00
             835.00,525.00 835.00,520.00 835.00,520.00
             835.00,520.00 805.00,520.00 805.00,520.00 Z" />
  <path id="Goldenrod City"
        fill="none" stroke="black" stroke-width="1"
        d="M 325.00,440.00
           C 325.00,440.00 325.00,445.00 325.00,445.00
             325.00,445.00 320.00,445.00 320.00,445.00
             320.00,445.00 320.00,515.00 320.00,515.00
             320.00,515.00 325.00,515.00 325.00,515.00
             325.00,515.00 325.00,520.00 325.00,520.00
             325.00,520.00 435.00,520.00 435.00,520.00
             435.00,520.00 435.00,515.00 435.00,515.00
             435.00,515.00 440.00,515.00 440.00,515.00
             440.00,515.00 440.00,445.00 440.00,445.00
             440.00,445.00 435.00,445.00 435.00,445.00
             435.00,445.00 435.00,440.00 435.00,440.00
             435.00,440.00 325.00,440.00 325.00,440.00 Z" />
  <path id="Olivine City"
        fill="none" stroke="black" stroke-width="1"
        d="M 285.00,320.00
           C 285.00,320.00 285.00,325.00 285.00,325.00
             285.00,325.00 280.00,325.00 280.00,325.00
             280.00,325.00 280.00,395.00 280.00,395.00
             280.00,395.00 285.00,395.00 285.00,395.00
             285.00,395.00 285.00,400.00 285.00,400.00
             285.00,400.00 350.00,400.00 350.00,400.00
             350.00,400.00 350.00,395.00 350.00,395.00
             350.00,395.00 325.00,395.00 325.00,395.00
             325.00,395.00 325.00,385.00 325.00,385.00
             325.00,385.00 320.00,385.00 320.00,385.00
             320.00,385.00 320.00,375.00 320.00,375.00
             320.00,375.00 325.00,375.00 325.00,375.00
             325.00,375.00 325.00,365.00 325.00,365.00
             325.00,365.00 335.00,365.00 335.00,365.00
             335.00,365.00 335.00,360.00 335.00,360.00
             335.00,360.00 345.00,360.00 345.00,360.00
             345.00,360.00 345.00,365.00 345.00,365.00
             345.00,365.00 355.00,365.00 355.00,365.00
             355.00,365.00 355.00,390.00 355.00,390.00
             355.00,390.00 360.00,390.00 360.00,390.00
             360.00,390.00 360.00,325.00 360.00,325.00
             360.00,325.00 355.00,325.00 355.00,325.00
             355.00,325.00 355.00,320.00 355.00,320.00
             355.00,320.00 285.00,320.00 285.00,320.00 Z" />
  <path id="Cianwood City"
        fill="none" stroke="black" stroke-width="1"
        d="M 165.00,440.00
           C 165.00,440.00 165.00,445.00 165.00,445.00
             165.00,445.00 160.00,445.00 160.00,445.00
             160.00,445.00 160.00,515.00 160.00,515.00
             160.00,515.00 165.00,515.00 165.00,515.00
             165.00,515.00 165.00,520.00 165.00,520.00
             165.00,520.00 195.00,520.00 195.00,520.00
             195.00,520.00 195.00,515.00 195.00,515.00
             195.00,515.00 200.00,515.00 200.00,515.00
             200.00,515.00 200.00,445.00 200.00,445.00
             200.00,445.00 195.00,445.00 195.00,445.00
             195.00,445.00 195.00,440.00 195.00,440.00
             195.00,440.00 165.00,440.00 165.00,440.00 Z" />
  <path id="Azalea Town"
        fill="none" stroke="black" stroke-width="1"
        d="M 445.00,600.00
           C 445.00,600.00 445.00,605.00 445.00,605.00
             445.00,605.00 440.00,605.00 440.00,605.00
             440.00,605.00 440.00,635.00 440.00,635.00
             440.00,635.00 445.00,635.00 445.00,635.00
             445.00,635.00 445.00,640.00 445.00,640.00
             445.00,640.00 520.00,640.00 520.00,640.00
             520.00,640.00 520.00,625.00 520.00,625.00
             520.00,625.00 515.00,625.00 515.00,625.00
             515.00,625.00 515.00,635.00 515.00,635.00
             515.00,635.00 485.00,635.00 485.00,635.00
             485.00,635.00 485.00,625.00 485.00,625.00
             485.00,625.00 480.00,625.00 480.00,625.00
             480.00,625.00 480.00,615.00 480.00,615.00
             480.00,615.00 485.00,615.00 485.00,615.00
             485.00,615.00 485.00,605.00 485.00,605.00
             485.00,605.00 515.00,605.00 515.00,605.00
             515.00,605.00 515.00,615.00 515.00,615.00
             515.00,615.00 520.00,615.00 520.00,615.00
             520.00,615.00 520.00,600.00 520.00,600.00
             520.00,600.00 445.00,600.00 445.00,600.00 Z" />
  <path id="Viridian City"
        fill="none" stroke="black" stroke-width="1"
        d="M 1205.00,320.00
           C 1205.00,320.00 1205.00,325.00 1205.00,325.00
             1205.00,325.00 1200.00,325.00 1200.00,325.00
             1200.00,325.00 1200.00,395.00 1200.00,395.00
             1200.00,395.00 1205.00,395.00 1205.00,395.00
             1205.00,395.00 1205.00,400.00 1205.00,400.00
             1205.00,400.00 1275.00,400.00 1275.00,400.00
             1275.00,400.00 1275.00,395.00 1275.00,395.00
             1275.00,395.00 1280.00,395.00 1280.00,395.00
             1280.00,395.00 1280.00,325.00 1280.00,325.00
             1280.00,325.00 1275.00,325.00 1275.00,325.00
             1275.00,325.00 1275.00,320.00 1275.00,320.00
             1275.00,320.00 1205.00,320.00 1205.00,320.00 Z" />
  <path id="Pewter City"
        fill="none" stroke="black" stroke-width="1"
        d="M 1245.00,120.00
           C 1245.00,120.00 1245.00,125.00 1245.00,125.00
             1245.00,125.00 1240.00,125.00 1240.00,125.00
             1240.00,125.00 1240.00,195.00 1240.00,195.00
             1240.00,195.00 1245.00,195.00 1245.00,195.00
             1245.00,195.00 1245.00,200.00 1245.00,200.00
             1245.00,200.00 1315.00,200.00 1315.00,200.00
             1315.00,200.00 1315.00,195.00 1315.00,195.00
             1315.00,195.00 1320.00,195.00 1320.00,195.00
             1320.00,195.00 1320.00,125.00 1320.00,125.00
             1320.00,125.00 1315.00,125.00 1315.00,125.00
             1315.00,125.00 1315.00,120.00 1315.00,120.00
             1315.00,120.00 1245.00,120.00 1245.00,120.00 Z" />
  <path id="Pallet Town"
        fill="none" stroke="black" stroke-width="1"
        d="M 1245.00,480.00
           C 1245.00,480.00 1245.00,485.00 1245.00,485.00
             1245.00,485.00 1240.00,485.00 1240.00,485.00
             1240.00,485.00 1240.00,515.00 1240.00,515.00
             1240.00,515.00 1245.00,515.00 1245.00,515.00
             1245.00,515.00 1245.00,520.00 1245.00,520.00
             1245.00,520.00 1275.00,520.00 1275.00,520.00
             1275.00,520.00 1275.00,515.00 1275.00,515.00
             1275.00,515.00 1280.00,515.00 1280.00,515.00
             1280.00,515.00 1280.00,485.00 1280.00,485.00
             1280.00,485.00 1275.00,485.00 1275.00,485.00
             1275.00,485.00 1275.00,480.00 1275.00,480.00
             1275.00,480.00 1245.00,480.00 1245.00,480.00 Z" />
  <path id="Cinnabar Island"
        fill="none" stroke="black" stroke-width="1"
        d="M 1245.00,640.00
           C 1245.00,640.00 1245.00,645.00 1245.00,645.00
             1245.00,645.00 1240.00,645.00 1240.00,645.00
             1240.00,645.00 1240.00,675.00 1240.00,675.00
             1240.00,675.00 1245.00,675.00 1245.00,675.00
             1245.00,675.00 1245.00,680.00 1245.00,680.00
             1245.00,680.00 1275.00,680.00 1275.00,680.00
             1275.00,680.00 1275.00,675.00 1275.00,675.00
             1275.00,675.00 1280.00,675.00 1280.00,675.00
             1280.00,675.00 1280.00,645.00 1280.00,645.00
             1280.00,645.00 1275.00,645.00 1275.00,645.00
             1275.00,645.00 1275.00,640.00 1275.00,640.00
             1275.00,640.00 1245.00,640.00 1245.00,640.00 Z" />
  <path id="Fuchsia City"
        fill="none" stroke="black" stroke-width="1"
        d="M 1450.00,520.00
           C 1450.00,520.00 1450.00,525.00 1450.00,525.00
             1450.00,525.00 1475.00,525.00 1475.00,525.00
             1475.00,525.00 1475.00,535.00 1475.00,535.00
             1475.00,535.00 1480.00,535.00 1480.00,535.00
             1480.00,535.00 1480.00,545.00 1480.00,545.00
             1480.00,545.00 1475.00,545.00 1475.00,545.00
             1475.00,545.00 1475.00,555.00 1475.00,555.00
             1475.00,555.00 1465.00,555.00 1465.00,555.00
             1465.00,555.00 1465.00,560.00 1465.00,560.00
             1465.00,560.00 1455.00,560.00 1455.00,560.00
             1455.00,560.00 1455.00,555.00 1455.00,555.00
             1455.00,555.00 1445.00,555.00 1445.00,555.00
             1445.00,555.00 1445.00,530.00 1445.00,530.00
             1445.00,530.00 1440.00,530.00 1440.00,530.00
             1440.00,530.00 1440.00,595.00 1440.00,595.00
             1440.00,595.00 1445.00,595.00 1445.00,595.00
             1445.00,595.00 1445.00,600.00 1445.00,600.00
             1445.00,600.00 1515.00,600.00 1515.00,600.00
             1515.00,600.00 1515.00,595.00 1515.00,595.00
             1515.00,595.00 1520.00,595.00 1520.00,595.00
             1520.00,595.00 1520.00,525.00 1520.00,525.00
             1520.00,525.00 1515.00,525.00 1515.00,525.00
             1515.00,525.00 1515.00,520.00 1515.00,520.00
             1515.00,520.00 1450.00,520.00 1450.00,520.00 Z" />
  <path id="Celadon City"
        fill="none" stroke="black" stroke-width="1"
        d="M 1445.00,320.00
           C 1445.00,320.00 1445.00,325.00 1445.00,325.00
             1445.00,325.00 1440.00,325.00 1440.00,325.00
             1440.00,325.00 1440.00,395.00 1440.00,395.00
             1440.00,395.00 1445.00,395.00 1445.00,395.00
             1445.00,395.00 1445.00,400.00 1445.00,400.00
             1445.00,400.00 1515.00,400.00 1515.00,400.00
             1515.00,400.00 1515.00,395.00 1515.00,395.00
             1515.00,395.00 1520.00,395.00 1520.00,395.00
             1520.00,395.00 1520.00,325.00 1520.00,325.00
             1520.00,325.00 1515.00,325.00 1515.00,325.00
             1515.00,325.00 1515.00,320.00 1515.00,320.00
             1515.00,320.00 1445.00,320.00 1445.00,320.00 Z" />
  <path id="Vermilion City"
        fill="none" stroke="black" stroke-width="1"
        d="M 1565.00,400.00
           C 1565.00,400.00 1565.00,405.00 1565.00,405.00
             1565.00,405.00 1560.00,405.00 1560.00,405.00
             1560.00,405.00 1560.00,475.00 1560.00,475.00
             1560.00,475.00 1565.00,475.00 1565.00,475.00
             1565.00,475.00 1565.00,480.00 1565.00,480.00
             1565.00,480.00 1635.00,480.00 1635.00,480.00
             1635.00,480.00 1635.00,475.00 1635.00,475.00
             1635.00,475.00 1640.00,475.00 1640.00,475.00
             1640.00,475.00 1640.00,405.00 1640.00,405.00
             1640.00,405.00 1635.00,405.00 1635.00,405.00
             1635.00,405.00 1635.00,400.00 1635.00,400.00
             1635.00,400.00 1565.00,400.00 1565.00,400.00 Z" />
  <path id="Saffron City"
        fill="none" stroke="black" stroke-width="1"
        d="M 1565.00,280.00
           C 1565.00,280.00 1565.00,285.00 1565.00,285.00
             1565.00,285.00 1560.00,285.00 1560.00,285.00
             1560.00,285.00 1560.00,355.00 1560.00,355.00
             1560.00,355.00 1565.00,355.00 1565.00,355.00
             1565.00,355.00 1565.00,360.00 1565.00,360.00
             1565.00,360.00 1635.00,360.00 1635.00,360.00
             1635.00,360.00 1635.00,355.00 1635.00,355.00
             1635.00,355.00 1640.00,355.00 1640.00,355.00
             1640.00,355.00 1640.00,285.00 1640.00,285.00
             1640.00,285.00 1635.00,285.00 1635.00,285.00
             1635.00,285.00 1635.00,280.00 1635.00,280.00
             1635.00,280.00 1565.00,280.00 1565.00,280.00 Z" />
  <path id="Lavender Town"
        fill="none" stroke="black" stroke-width="1"
        d="M 1725.00,320.00
           C 1725.00,320.00 1725.00,325.00 1725.00,325.00
             1725.00,325.00 1720.00,325.00 1720.00,325.00
             1720.00,325.00 1720.00,355.00 1720.00,355.00
             1720.00,355.00 1725.00,355.00 1725.00,355.00
             1725.00,355.00 1725.00,360.00 1725.00,360.00
             1725.00,360.00 1755.00,360.00 1755.00,360.00
             1755.00,360.00 1755.00,355.00 1755.00,355.00
             1755.00,355.00 1760.00,355.00 1760.00,355.00
             1760.00,355.00 1760.00,325.00 1760.00,325.00
             1760.00,325.00 1755.00,325.00 1755.00,325.00
             1755.00,325.00 1755.00,320.00 1755.00,320.00
             1755.00,320.00 1725.00,320.00 1725.00,320.00 Z" />
  <path id="Cerulean City"
        fill="none" stroke="black" stroke-width="1"
        d="M 1570.00,160.00
           C 1570.00,160.00 1570.00,165.00 1570.00,165.00
             1570.00,165.00 1595.00,165.00 1595.00,165.00
             1595.00,165.00 1595.00,175.00 1595.00,175.00
             1595.00,175.00 1600.00,175.00 1600.00,175.00
             1600.00,175.00 1600.00,185.00 1600.00,185.00
             1600.00,185.00 1595.00,185.00 1595.00,185.00
             1595.00,185.00 1595.00,195.00 1595.00,195.00
             1595.00,195.00 1585.00,195.00 1585.00,195.00
             1585.00,195.00 1585.00,200.00 1585.00,200.00
             1585.00,200.00 1575.00,200.00 1575.00,200.00
             1575.00,200.00 1575.00,195.00 1575.00,195.00
             1575.00,195.00 1565.00,195.00 1565.00,195.00
             1565.00,195.00 1565.00,170.00 1565.00,170.00
             1565.00,170.00 1560.00,170.00 1560.00,170.00
             1560.00,170.00 1560.00,235.00 1560.00,235.00
             1560.00,235.00 1565.00,235.00 1565.00,235.00
             1565.00,235.00 1565.00,240.00 1565.00,240.00
             1565.00,240.00 1635.00,240.00 1635.00,240.00
             1635.00,240.00 1635.00,235.00 1635.00,235.00
             1635.00,235.00 1640.00,235.00 1640.00,235.00
             1640.00,235.00 1640.00,165.00 1640.00,165.00
             1640.00,165.00 1635.00,165.00 1635.00,165.00
             1635.00,165.00 1635.00,160.00 1635.00,160.00
             1635.00,160.00 1570.00,160.00 1570.00,160.00 Z" />
  <path id="Mahogany Town"
        fill="none" stroke="black" stroke-width="1"
        d="M 605.00,240.00
           C 605.00,240.00 605.00,245.00 605.00,245.00
             605.00,245.00 600.00,245.00 600.00,245.00
             600.00,245.00 600.00,275.00 600.00,275.00
             600.00,275.00 605.00,275.00 605.00,275.00
             605.00,275.00 605.00,280.00 605.00,280.00
             605.00,280.00 635.00,280.00 635.00,280.00
             635.00,280.00 635.00,275.00 635.00,275.00
             635.00,275.00 640.00,275.00 640.00,275.00
             640.00,275.00 640.00,245.00 640.00,245.00
             640.00,245.00 635.00,245.00 635.00,245.00
             635.00,245.00 635.00,240.00 635.00,240.00
             635.00,240.00 605.00,240.00 605.00,240.00 Z" />
  <path id="Sinjoh Ruins"
        fill="none" stroke="black" stroke-width="1"
        d="M 775.00,25.00
           C 775.00,25.00 775.00,35.00 775.00,35.00
             775.00,35.00 770.00,35.00 770.00,35.00
             770.00,35.00 770.00,45.00 770.00,45.00
             770.00,45.00 765.00,45.00 765.00,45.00
             765.00,45.00 765.00,55.00 765.00,55.00
             765.00,55.00 755.00,55.00 755.00,55.00
             755.00,55.00 755.00,60.00 755.00,60.00
             755.00,60.00 745.00,60.00 745.00,60.00
             745.00,60.00 745.00,65.00 745.00,65.00
             745.00,65.00 740.00,65.00 740.00,65.00
             740.00,65.00 740.00,75.00 740.00,75.00
             740.00,75.00 735.00,75.00 735.00,75.00
             735.00,75.00 735.00,85.00 735.00,85.00
             735.00,85.00 730.00,85.00 730.00,85.00
             730.00,85.00 730.00,115.00 730.00,115.00
             730.00,115.00 735.00,115.00 735.00,115.00
             735.00,115.00 735.00,125.00 735.00,125.00
             735.00,125.00 740.00,125.00 740.00,125.00
             740.00,125.00 740.00,135.00 740.00,135.00
             740.00,135.00 745.00,135.00 745.00,135.00
             745.00,135.00 745.00,140.00 745.00,140.00
             745.00,140.00 755.00,140.00 755.00,140.00
             755.00,140.00 755.00,145.00 755.00,145.00
             755.00,145.00 765.00,145.00 765.00,145.00
             765.00,145.00 765.00,150.00 765.00,150.00
             765.00,150.00 795.00,150.00 795.00,150.00
             795.00,150.00 795.00,145.00 795.00,145.00
             795.00,145.00 805.00,145.00 805.00,145.00
             805.00,145.00 805.00,140.00 805.00,140.00
             805.00,140.00 815.00,140.00 815.00,140.00
             815.00,140.00 815.00,135.00 815.00,135.00
             815.00,135.00 820.00,135.00 820.00,135.00
             820.00,135.00 820.00,125.00 820.00,125.00
             820.00,125.00 825.00,125.00 825.00,125.00
             825.00,125.00 825.00,115.00 825.00,115.00
             825.00,115.00 830.00,115.00 830.00,115.00
             830.00,115.00 830.00,85.00 830.00,85.00
             830.00,85.00 825.00,85.00 825.00,85.00
             825.00,85.00 825.00,75.00 825.00,75.00
             825.00,75.00 820.00,75.00 820.00,75.00
             820.00,75.00 820.00,65.00 820.00,65.00
             820.00,65.00 815.00,65.00 815.00,65.00
             815.00,65.00 815.00,60.00 815.00,60.00
             815.00,60.00 805.00,60.00 805.00,60.00
             805.00,60.00 805.00,55.00 805.00,55.00
             805.00,55.00 795.00,55.00 795.00,55.00
             795.00,55.00 795.00,45.00 795.00,45.00
             795.00,45.00 790.00,45.00 790.00,45.00
             790.00,45.00 790.00,35.00 790.00,35.00
             790.00,35.00 785.00,35.00 785.00,35.00
             785.00,35.00 785.00,25.00 785.00,25.00
             785.00,25.00 775.00,25.00 775.00,25.00 Z" />
  <path id="S.S. Aqua"
        fill="none" stroke="black" stroke-width="1"
        d="M 965.00,570.00
           C 965.00,570.00 965.00,575.00 965.00,575.00
             965.00,575.00 955.00,575.00 955.00,575.00
             955.00,575.00 955.00,580.00 955.00,580.00
             955.00,580.00 945.00,580.00 945.00,580.00
             945.00,580.00 945.00,585.00 945.00,585.00
             945.00,585.00 940.00,585.00 940.00,585.00
             940.00,585.00 940.00,595.00 940.00,595.00
             940.00,595.00 935.00,595.00 935.00,595.00
             935.00,595.00 935.00,605.00 935.00,605.00
             935.00,605.00 930.00,605.00 930.00,605.00
             930.00,605.00 930.00,635.00 930.00,635.00
             930.00,635.00 935.00,635.00 935.00,635.00
             935.00,635.00 935.00,645.00 935.00,645.00
             935.00,645.00 940.00,645.00 940.00,645.00
             940.00,645.00 940.00,655.00 940.00,655.00
             940.00,655.00 945.00,655.00 945.00,655.00
             945.00,655.00 945.00,660.00 945.00,660.00
             945.00,660.00 955.00,660.00 955.00,660.00
             955.00,660.00 955.00,665.00 955.00,665.00
             955.00,665.00 965.00,665.00 965.00,665.00
             965.00,665.00 965.00,670.00 965.00,670.00
             965.00,670.00 995.00,670.00 995.00,670.00
             995.00,670.00 995.00,665.00 995.00,665.00
             995.00,665.00 1005.00,665.00 1005.00,665.00
             1005.00,665.00 1005.00,660.00 1005.00,660.00
             1005.00,660.00 1015.00,660.00 1015.00,660.00
             1015.00,660.00 1015.00,655.00 1015.00,655.00
             1015.00,655.00 1020.00,655.00 1020.00,655.00
             1020.00,655.00 1020.00,645.00 1020.00,645.00
             1020.00,645.00 1025.00,645.00 1025.00,645.00
             1025.00,645.00 1025.00,635.00 1025.00,635.00
             1025.00,635.00 1030.00,635.00 1030.00,635.00
             1030.00,635.00 1030.00,605.00 1030.00,605.00
             1030.00,605.00 1025.00,605.00 1025.00,605.00
             1025.00,605.00 1025.00,595.00 1025.00,595.00
             1025.00,595.00 1020.00,595.00 1020.00,595.00
             1020.00,595.00 1020.00,585.00 1020.00,585.00
             1020.00,585.00 1015.00,585.00 1015.00,585.00
             1015.00,585.00 1015.00,580.00 1015.00,580.00
             1015.00,580.00 1005.00,580.00 1005.00,580.00
             1005.00,580.00 1005.00,575.00 1005.00,575.00
             1005.00,575.00 995.00,575.00 995.00,575.00
             995.00,575.00 995.00,570.00 995.00,570.00
             995.00,570.00 965.00,570.00 965.00,570.00 Z" />
  <path id="Route 41"
        fill="none" stroke="black" stroke-width="1"
        d="M 245.00,445.00
           C 245.00,445.00 245.00,450.00 245.00,450.00
             245.00,450.00 210.00,450.00 210.00,450.00
             210.00,450.00 210.00,510.00 210.00,510.00
             210.00,510.00 245.00,510.00 245.00,510.00
             245.00,510.00 245.00,505.00 245.00,505.00
             245.00,505.00 240.00,505.00 240.00,505.00
             240.00,505.00 240.00,495.00 240.00,495.00
             240.00,495.00 245.00,495.00 245.00,495.00
             245.00,495.00 245.00,485.00 245.00,485.00
             245.00,485.00 255.00,485.00 255.00,485.00
             255.00,485.00 255.00,480.00 255.00,480.00
             255.00,480.00 265.00,480.00 265.00,480.00
             265.00,480.00 265.00,485.00 265.00,485.00
             265.00,485.00 270.00,485.00 270.00,485.00
             270.00,485.00 270.00,445.00 270.00,445.00
             270.00,445.00 245.00,445.00 245.00,445.00 Z" />
  <path id="Route 40"
        fill="none" stroke="black" stroke-width="1"
        d="M 255.00,370.00
           C 255.00,370.00 255.00,375.00 255.00,375.00
             255.00,375.00 250.00,375.00 250.00,375.00
             250.00,375.00 250.00,445.00 250.00,445.00
             250.00,445.00 270.00,445.00 270.00,445.00
             270.00,445.00 270.00,370.00 270.00,370.00
             270.00,370.00 255.00,370.00 255.00,370.00 Z" />
  <path id="Route 21"
        fill="none" stroke="black" stroke-width="1"
        d="M 1250.00,530.00
           C 1250.00,530.00 1250.00,630.00 1250.00,630.00
             1250.00,630.00 1270.00,630.00 1270.00,630.00
             1270.00,630.00 1270.00,530.00 1270.00,530.00
             1270.00,530.00 1250.00,530.00 1250.00,530.00 Z" />
  <path id="Route 20"
        fill="none" stroke="black" stroke-width="1"
        d="M 1290.00,650.00
           C 1290.00,650.00 1290.00,670.00 1290.00,670.00
             1290.00,670.00 1445.00,670.00 1445.00,670.00
             1445.00,670.00 1445.00,650.00 1445.00,650.00
             1445.00,650.00 1290.00,650.00 1290.00,650.00 Z" />
  <path id="Route 19"
        fill="none" stroke="black" stroke-width="1"
        d="M 1450.00,610.00
           C 1450.00,610.00 1450.00,645.00 1450.00,645.00
             1450.00,645.00 1445.00,645.00 1445.00,645.00
             1445.00,645.00 1445.00,670.00 1445.00,670.00
             1445.00,670.00 1465.00,670.00 1465.00,670.00
             1465.00,670.00 1465.00,665.00 1465.00,665.00
             1465.00,665.00 1470.00,665.00 1470.00,665.00
             1470.00,665.00 1470.00,610.00 1470.00,610.00
             1470.00,610.00 1450.00,610.00 1450.00,610.00 Z" />
  <path id="Route 48"
        fill="none" stroke="black" stroke-width="1"
        d="M 50.00,440.00
           C 50.00,440.00 50.00,485.00 50.00,485.00
             50.00,485.00 110.00,485.00 110.00,485.00
             110.00,485.00 110.00,440.00 110.00,440.00
             110.00,440.00 50.00,440.00 50.00,440.00 Z" />
  <path id="Route 47"
        fill="none" stroke="black" stroke-width="1"
        d="M 50.00,485.00
           C 50.00,485.00 50.00,545.00 50.00,545.00
             50.00,545.00 55.00,545.00 55.00,545.00
             55.00,545.00 55.00,550.00 55.00,550.00
             55.00,550.00 145.00,550.00 145.00,550.00
             145.00,550.00 145.00,545.00 145.00,545.00
             145.00,545.00 150.00,545.00 150.00,545.00
             150.00,545.00 150.00,490.00 150.00,490.00
             150.00,490.00 115.00,490.00 115.00,490.00
             115.00,490.00 115.00,485.00 115.00,485.00
             115.00,485.00 50.00,485.00 50.00,485.00 Z" />
  <path id="Route 46"
        fill="none" stroke="black" stroke-width="1"
        d="M 730.00,475.00
           C 730.00,475.00 730.00,525.00 730.00,525.00
             730.00,525.00 725.00,525.00 725.00,525.00
             725.00,525.00 725.00,530.00 725.00,530.00
             725.00,530.00 755.00,530.00 755.00,530.00
             755.00,530.00 755.00,525.00 755.00,525.00
             755.00,525.00 750.00,525.00 750.00,525.00
             750.00,525.00 750.00,475.00 750.00,475.00
             750.00,475.00 745.00,475.00 745.00,475.00
             745.00,475.00 745.00,480.00 745.00,480.00
             745.00,480.00 735.00,480.00 735.00,480.00
             735.00,480.00 735.00,475.00 735.00,475.00
             735.00,475.00 730.00,475.00 730.00,475.00 Z" />
  <path id="Route 45"
        fill="none" stroke="black" stroke-width="1"
        d="M 770.00,315.00
           C 770.00,315.00 770.00,445.00 770.00,445.00
             770.00,445.00 765.00,445.00 765.00,445.00
             765.00,445.00 765.00,450.00 765.00,450.00
             765.00,450.00 755.00,450.00 755.00,450.00
             755.00,450.00 755.00,455.00 755.00,455.00
             755.00,455.00 760.00,455.00 760.00,455.00
             760.00,455.00 760.00,465.00 760.00,465.00
             760.00,465.00 755.00,465.00 755.00,465.00
             755.00,465.00 755.00,470.00 755.00,470.00
             755.00,470.00 785.00,470.00 785.00,470.00
             785.00,470.00 785.00,465.00 785.00,465.00
             785.00,465.00 790.00,465.00 790.00,465.00
             790.00,465.00 790.00,315.00 790.00,315.00
             790.00,315.00 785.00,315.00 785.00,315.00
             785.00,315.00 785.00,320.00 785.00,320.00
             785.00,320.00 775.00,320.00 775.00,320.00
             775.00,320.00 775.00,315.00 775.00,315.00
             775.00,315.00 770.00,315.00 770.00,315.00 Z" />
  <path id="Route 44"
        fill="none" stroke="black" stroke-width="1"
        d="M 650.00,250.00
           C 650.00,250.00 650.00,270.00 650.00,270.00
             650.00,270.00 750.00,270.00 750.00,270.00
             750.00,270.00 750.00,250.00 750.00,250.00
             750.00,250.00 650.00,250.00 650.00,250.00 Z" />
  <path id="Route 43"
        fill="none" stroke="black" stroke-width="1"
        d="M 610.00,170.00
           C 610.00,170.00 610.00,230.00 610.00,230.00
             610.00,230.00 630.00,230.00 630.00,230.00
             630.00,230.00 630.00,170.00 630.00,170.00
             630.00,170.00 610.00,170.00 610.00,170.00 Z" />
  <path id="Route 42"
        fill="none" stroke="black" stroke-width="1"
        d="M 490.00,250.00
           C 490.00,250.00 490.00,270.00 490.00,270.00
             490.00,270.00 590.00,270.00 590.00,270.00
             590.00,270.00 590.00,250.00 590.00,250.00
             590.00,250.00 490.00,250.00 490.00,250.00 Z" />
  <path id="Route 39"
        fill="none" stroke="black" stroke-width="1"
        d="M 295.00,250.00
           C 295.00,250.00 295.00,255.00 295.00,255.00
             295.00,255.00 290.00,255.00 290.00,255.00
             290.00,255.00 290.00,310.00 290.00,310.00
             290.00,310.00 310.00,310.00 310.00,310.00
             310.00,310.00 310.00,275.00 310.00,275.00
             310.00,275.00 315.00,275.00 315.00,275.00
             315.00,275.00 315.00,250.00 315.00,250.00
             315.00,250.00 295.00,250.00 295.00,250.00 Z" />
  <path id="Route 38"
        fill="none" stroke="black" stroke-width="1"
        d="M 315.00,250.00
           C 315.00,250.00 315.00,270.00 315.00,270.00
             315.00,270.00 390.00,270.00 390.00,270.00
             390.00,270.00 390.00,250.00 390.00,250.00
             390.00,250.00 315.00,250.00 315.00,250.00 Z" />
  <path id="Route 37"
        fill="none" stroke="black" stroke-width="1"
        d="M 450.00,290.00
           C 450.00,290.00 450.00,325.00 450.00,325.00
             450.00,325.00 470.00,325.00 470.00,325.00
             470.00,325.00 470.00,290.00 470.00,290.00
             470.00,290.00 450.00,290.00 450.00,290.00 Z" />
  <path id="Route 36"
        fill="none" stroke="black" stroke-width="1"
        d="M 445.00,325.00
           C 445.00,325.00 445.00,330.00 445.00,330.00
             445.00,330.00 430.00,330.00 430.00,330.00
             430.00,330.00 430.00,340.00 430.00,340.00
             430.00,340.00 425.00,340.00 425.00,340.00
             425.00,340.00 425.00,345.00 425.00,345.00
             425.00,345.00 420.00,345.00 420.00,345.00
             420.00,345.00 420.00,350.00 420.00,350.00
             420.00,350.00 410.00,350.00 410.00,350.00
             410.00,350.00 410.00,355.00 410.00,355.00
             410.00,355.00 435.00,355.00 435.00,355.00
             435.00,355.00 435.00,350.00 435.00,350.00
             435.00,350.00 510.00,350.00 510.00,350.00
             510.00,350.00 510.00,330.00 510.00,330.00
             510.00,330.00 475.00,330.00 475.00,330.00
             475.00,330.00 475.00,325.00 475.00,325.00
             475.00,325.00 445.00,325.00 445.00,325.00 Z" />
  <path id="Route 35"
        fill="none" stroke="black" stroke-width="1"
        d="M 410.00,355.00
           C 410.00,355.00 410.00,430.00 410.00,430.00
             410.00,430.00 430.00,430.00 430.00,430.00
             430.00,430.00 430.00,355.00 430.00,355.00
             430.00,355.00 410.00,355.00 410.00,355.00 Z" />
  <path id="Route 34"
        fill="none" stroke="black" stroke-width="1"
        d="M 410.00,530.00
           C 410.00,530.00 410.00,605.00 410.00,605.00
             410.00,605.00 415.00,605.00 415.00,605.00
             415.00,605.00 415.00,600.00 415.00,600.00
             415.00,600.00 425.00,600.00 425.00,600.00
             425.00,600.00 425.00,605.00 425.00,605.00
             425.00,605.00 430.00,605.00 430.00,605.00
             430.00,605.00 430.00,530.00 430.00,530.00
             430.00,530.00 410.00,530.00 410.00,530.00 Z" />
  <path id="Route 33"
        fill="none" stroke="black" stroke-width="1"
        d="M 530.00,595.00
           C 530.00,595.00 530.00,630.00 530.00,630.00
             530.00,630.00 545.00,630.00 545.00,630.00
             545.00,630.00 545.00,625.00 545.00,625.00
             545.00,625.00 550.00,625.00 550.00,625.00
             550.00,625.00 550.00,595.00 550.00,595.00
             550.00,595.00 545.00,595.00 545.00,595.00
             545.00,595.00 545.00,600.00 545.00,600.00
             545.00,600.00 535.00,600.00 535.00,600.00
             535.00,600.00 535.00,595.00 535.00,595.00
             535.00,595.00 530.00,595.00 530.00,595.00 Z" />
  <path id="Route 32"
        fill="none" stroke="black" stroke-width="1"
        d="M 530.00,410.00
           C 530.00,410.00 530.00,565.00 530.00,565.00
             530.00,565.00 535.00,565.00 535.00,565.00
             535.00,565.00 535.00,560.00 535.00,560.00
             535.00,560.00 545.00,560.00 545.00,560.00
             545.00,560.00 545.00,565.00 545.00,565.00
             545.00,565.00 550.00,565.00 550.00,565.00
             550.00,565.00 550.00,410.00 550.00,410.00
             550.00,410.00 530.00,410.00 530.00,410.00 Z" />
  <path id="Route 31"
        fill="none" stroke="black" stroke-width="1"
        d="M 610.00,370.00
           C 610.00,370.00 610.00,390.00 610.00,390.00
             610.00,390.00 645.00,390.00 645.00,390.00
             645.00,390.00 645.00,385.00 645.00,385.00
             645.00,385.00 640.00,385.00 640.00,385.00
             640.00,385.00 640.00,375.00 640.00,375.00
             640.00,375.00 645.00,375.00 645.00,375.00
             645.00,375.00 645.00,370.00 645.00,370.00
             645.00,370.00 610.00,370.00 610.00,370.00 Z" />
  <path id="Route 30"
        fill="none" stroke="black" stroke-width="1"
        d="M 650.00,395.00
           C 650.00,395.00 650.00,510.00 650.00,510.00
             650.00,510.00 670.00,510.00 670.00,510.00
             670.00,510.00 670.00,395.00 670.00,395.00
             670.00,395.00 665.00,395.00 665.00,395.00
             665.00,395.00 665.00,400.00 665.00,400.00
             665.00,400.00 655.00,400.00 655.00,400.00
             655.00,400.00 655.00,395.00 655.00,395.00
             655.00,395.00 650.00,395.00 650.00,395.00 Z" />
  <path id="Route 29"
        fill="none" stroke="black" stroke-width="1"
        d="M 690.00,530.00
           C 690.00,530.00 690.00,550.00 690.00,550.00
             690.00,550.00 790.00,550.00 790.00,550.00
             790.00,550.00 790.00,530.00 790.00,530.00
             790.00,530.00 690.00,530.00 690.00,530.00 Z" />
  <path id="Route 28"
        fill="none" stroke="black" stroke-width="1"
        d="M 995.00,370.00
           C 995.00,370.00 995.00,375.00 995.00,375.00
             995.00,375.00 1000.00,375.00 1000.00,375.00
             1000.00,375.00 1000.00,385.00 1000.00,385.00
             1000.00,385.00 995.00,385.00 995.00,385.00
             995.00,385.00 995.00,390.00 995.00,390.00
             995.00,390.00 1085.00,390.00 1085.00,390.00
             1085.00,390.00 1085.00,385.00 1085.00,385.00
             1085.00,385.00 1080.00,385.00 1080.00,385.00
             1080.00,385.00 1080.00,370.00 1080.00,370.00
             1080.00,370.00 995.00,370.00 995.00,370.00 Z" />
  <path id="Route 27"
        fill="none" stroke="black" stroke-width="1"
        d="M 850.00,530.00
           C 850.00,530.00 850.00,550.00 850.00,550.00
             850.00,550.00 1085.00,550.00 1085.00,550.00
             1085.00,550.00 1085.00,530.00 1085.00,530.00
             1085.00,530.00 850.00,530.00 850.00,530.00 Z" />
  <path id="Route 26"
        fill="none" stroke="black" stroke-width="1"
        d="M 1090.00,395.00
           C 1090.00,395.00 1090.00,525.00 1090.00,525.00
             1090.00,525.00 1085.00,525.00 1085.00,525.00
             1085.00,525.00 1085.00,550.00 1085.00,550.00
             1085.00,550.00 1105.00,550.00 1105.00,550.00
             1105.00,550.00 1105.00,545.00 1105.00,545.00
             1105.00,545.00 1110.00,545.00 1110.00,545.00
             1110.00,545.00 1110.00,395.00 1110.00,395.00
             1110.00,395.00 1105.00,395.00 1105.00,395.00
             1105.00,395.00 1105.00,400.00 1105.00,400.00
             1105.00,400.00 1095.00,400.00 1095.00,400.00
             1095.00,400.00 1095.00,395.00 1095.00,395.00
             1095.00,395.00 1090.00,395.00 1090.00,395.00 Z" />
  <path id="Route 25"
        fill="none" stroke="black" stroke-width="1"
        d="M 1615.00,90.00
           C 1615.00,90.00 1615.00,95.00 1615.00,95.00
             1615.00,95.00 1610.00,95.00 1610.00,95.00
             1610.00,95.00 1610.00,115.00 1610.00,115.00
             1610.00,115.00 1635.00,115.00 1635.00,115.00
             1635.00,115.00 1635.00,110.00 1635.00,110.00
             1635.00,110.00 1750.00,110.00 1750.00,110.00
             1750.00,110.00 1750.00,90.00 1750.00,90.00
             1750.00,90.00 1615.00,90.00 1615.00,90.00 Z" />
  <path id="Route 24"
        fill="none" stroke="black" stroke-width="1"
        d="M 1610.00,115.00
           C 1610.00,115.00 1610.00,150.00 1610.00,150.00
             1610.00,150.00 1630.00,150.00 1630.00,150.00
             1630.00,150.00 1630.00,115.00 1630.00,115.00
             1630.00,115.00 1610.00,115.00 1610.00,115.00 Z" />
  <path id="Route 22"
        fill="none" stroke="black" stroke-width="1"
        d="M 1120.00,370.00
           C 1120.00,370.00 1120.00,385.00 1120.00,385.00
             1120.00,385.00 1115.00,385.00 1115.00,385.00
             1115.00,385.00 1115.00,390.00 1115.00,390.00
             1115.00,390.00 1190.00,390.00 1190.00,390.00
             1190.00,390.00 1190.00,370.00 1190.00,370.00
             1190.00,370.00 1120.00,370.00 1120.00,370.00 Z" />
  <path id="Route 18"
        fill="none" stroke="black" stroke-width="1"
        d="M 1370.00,565.00
           C 1370.00,565.00 1370.00,585.00 1370.00,585.00
             1370.00,585.00 1375.00,585.00 1375.00,585.00
             1375.00,585.00 1375.00,590.00 1375.00,590.00
             1375.00,590.00 1430.00,590.00 1430.00,590.00
             1430.00,590.00 1430.00,570.00 1430.00,570.00
             1430.00,570.00 1395.00,570.00 1395.00,570.00
             1395.00,570.00 1395.00,565.00 1395.00,565.00
             1395.00,565.00 1370.00,565.00 1370.00,565.00 Z" />
  <path id="Route 17"
        fill="none" stroke="black" stroke-width="1"
        d="M 1370.00,395.00
           C 1370.00,395.00 1370.00,565.00 1370.00,565.00
             1370.00,565.00 1390.00,565.00 1390.00,565.00
             1390.00,565.00 1390.00,395.00 1390.00,395.00
             1390.00,395.00 1370.00,395.00 1370.00,395.00 Z" />
  <path id="Route 16"
        fill="none" stroke="black" stroke-width="1"
        d="M 1375.00,370.00
           C 1375.00,370.00 1375.00,375.00 1375.00,375.00
             1375.00,375.00 1370.00,375.00 1370.00,375.00
             1370.00,375.00 1370.00,395.00 1370.00,395.00
             1370.00,395.00 1395.00,395.00 1395.00,395.00
             1395.00,395.00 1395.00,390.00 1395.00,390.00
             1395.00,390.00 1430.00,390.00 1430.00,390.00
             1430.00,390.00 1430.00,370.00 1430.00,370.00
             1430.00,370.00 1375.00,370.00 1375.00,370.00 Z" />
  <path id="Route 15"
        fill="none" stroke="black" stroke-width="1"
        d="M 1530.00,570.00
           C 1530.00,570.00 1530.00,590.00 1530.00,590.00
             1530.00,590.00 1645.00,590.00 1645.00,590.00
             1645.00,590.00 1645.00,570.00 1645.00,570.00
             1645.00,570.00 1530.00,570.00 1530.00,570.00 Z" />
  <path id="Route 14"
        fill="none" stroke="black" stroke-width="1"
        d="M 1650.00,515.00
           C 1650.00,515.00 1650.00,565.00 1650.00,565.00
             1650.00,565.00 1645.00,565.00 1645.00,565.00
             1645.00,565.00 1645.00,590.00 1645.00,590.00
             1645.00,590.00 1665.00,590.00 1665.00,590.00
             1665.00,590.00 1665.00,585.00 1665.00,585.00
             1665.00,585.00 1670.00,585.00 1670.00,585.00
             1670.00,585.00 1670.00,515.00 1670.00,515.00
             1670.00,515.00 1650.00,515.00 1650.00,515.00 Z" />
  <path id="Route 13"
        fill="none" stroke="black" stroke-width="1"
        d="M 1725.00,485.00
           C 1725.00,485.00 1725.00,490.00 1725.00,490.00
             1725.00,490.00 1655.00,490.00 1655.00,490.00
             1655.00,490.00 1655.00,495.00 1655.00,495.00
             1655.00,495.00 1650.00,495.00 1650.00,495.00
             1650.00,495.00 1650.00,515.00 1650.00,515.00
             1650.00,515.00 1675.00,515.00 1675.00,515.00
             1675.00,515.00 1675.00,510.00 1675.00,510.00
             1675.00,510.00 1745.00,510.00 1745.00,510.00
             1745.00,510.00 1745.00,505.00 1745.00,505.00
             1745.00,505.00 1750.00,505.00 1750.00,505.00
             1750.00,505.00 1750.00,485.00 1750.00,485.00
             1750.00,485.00 1725.00,485.00 1725.00,485.00 Z" />
  <path id="Route 12"
        fill="none" stroke="black" stroke-width="1"
        d="M 1730.00,370.00
           C 1730.00,370.00 1730.00,485.00 1730.00,485.00
             1730.00,485.00 1750.00,485.00 1750.00,485.00
             1750.00,485.00 1750.00,370.00 1750.00,370.00
             1750.00,370.00 1730.00,370.00 1730.00,370.00 Z" />
  <path id="Route 11"
        fill="none" stroke="black" stroke-width="1"
        d="M 1725.00,405.00
           C 1725.00,405.00 1725.00,410.00 1725.00,410.00
             1725.00,410.00 1675.00,410.00 1675.00,410.00
             1675.00,410.00 1675.00,415.00 1675.00,415.00
             1675.00,415.00 1680.00,415.00 1680.00,415.00
             1680.00,415.00 1680.00,425.00 1680.00,425.00
             1680.00,425.00 1675.00,425.00 1675.00,425.00
             1675.00,425.00 1675.00,430.00 1675.00,430.00
             1675.00,430.00 1725.00,430.00 1725.00,430.00
             1725.00,430.00 1725.00,435.00 1725.00,435.00
             1725.00,435.00 1730.00,435.00 1730.00,435.00
             1730.00,435.00 1730.00,405.00 1730.00,405.00
             1730.00,405.00 1725.00,405.00 1725.00,405.00 Z" />
  <path id="Route 10"
        fill="none" stroke="black" stroke-width="1"
        d="M 1730.00,275.00
           C 1730.00,275.00 1730.00,310.00 1730.00,310.00
             1730.00,310.00 1750.00,310.00 1750.00,310.00
             1750.00,310.00 1750.00,275.00 1750.00,275.00
             1750.00,275.00 1745.00,275.00 1745.00,275.00
             1745.00,275.00 1745.00,280.00 1745.00,280.00
             1745.00,280.00 1735.00,280.00 1735.00,280.00
             1735.00,280.00 1735.00,275.00 1735.00,275.00
             1735.00,275.00 1730.00,275.00 1730.00,275.00 Z" />
  <path id="Route 9"
        fill="none" stroke="black" stroke-width="1"
        d="M 1650.00,210.00
           C 1650.00,210.00 1650.00,230.00 1650.00,230.00
             1650.00,230.00 1725.00,230.00 1725.00,230.00
             1725.00,230.00 1725.00,225.00 1725.00,225.00
             1725.00,225.00 1720.00,225.00 1720.00,225.00
             1720.00,225.00 1720.00,215.00 1720.00,215.00
             1720.00,215.00 1725.00,215.00 1725.00,215.00
             1725.00,215.00 1725.00,210.00 1725.00,210.00
             1725.00,210.00 1650.00,210.00 1650.00,210.00 Z" />
  <path id="Route 8"
        fill="none" stroke="black" stroke-width="1"
        d="M 1650.00,330.00
           C 1650.00,330.00 1650.00,350.00 1650.00,350.00
             1650.00,350.00 1710.00,350.00 1710.00,350.00
             1710.00,350.00 1710.00,330.00 1710.00,330.00
             1710.00,330.00 1650.00,330.00 1650.00,330.00 Z" />
  <path id="Route 7"
        fill="none" stroke="black" stroke-width="1"
        d="M 1530.00,330.00
           C 1530.00,330.00 1530.00,350.00 1530.00,350.00
             1530.00,350.00 1550.00,350.00 1550.00,350.00
             1550.00,350.00 1550.00,330.00 1550.00,330.00
             1550.00,330.00 1530.00,330.00 1530.00,330.00 Z" />
  <path id="Route 6"
        fill="none" stroke="black" stroke-width="1"
        d="M 1570.00,370.00
           C 1570.00,370.00 1570.00,390.00 1570.00,390.00
             1570.00,390.00 1590.00,390.00 1590.00,390.00
             1590.00,390.00 1590.00,370.00 1590.00,370.00
             1590.00,370.00 1570.00,370.00 1570.00,370.00 Z" />
  <path id="Route 5"
        fill="none" stroke="black" stroke-width="1"
        d="M 1570.00,250.00
           C 1570.00,250.00 1570.00,270.00 1570.00,270.00
             1570.00,270.00 1590.00,270.00 1590.00,270.00
             1590.00,270.00 1590.00,250.00 1590.00,250.00
             1590.00,250.00 1570.00,250.00 1570.00,250.00 Z" />
  <path id="Route 4"
        fill="none" stroke="black" stroke-width="1"
        d="M 1435.00,170.00
           C 1435.00,170.00 1435.00,175.00 1435.00,175.00
             1435.00,175.00 1440.00,175.00 1440.00,175.00
             1440.00,175.00 1440.00,185.00 1440.00,185.00
             1440.00,185.00 1435.00,185.00 1435.00,185.00
             1435.00,185.00 1435.00,190.00 1435.00,190.00
             1435.00,190.00 1550.00,190.00 1550.00,190.00
             1550.00,190.00 1550.00,170.00 1550.00,170.00
             1550.00,170.00 1435.00,170.00 1435.00,170.00 Z" />
  <path id="Route 3"
        fill="none" stroke="black" stroke-width="1"
        d="M 1330.00,170.00
           C 1330.00,170.00 1330.00,190.00 1330.00,190.00
             1330.00,190.00 1405.00,190.00 1405.00,190.00
             1405.00,190.00 1405.00,185.00 1405.00,185.00
             1405.00,185.00 1400.00,185.00 1400.00,185.00
             1400.00,185.00 1400.00,175.00 1400.00,175.00
             1400.00,175.00 1405.00,175.00 1405.00,175.00
             1405.00,175.00 1405.00,170.00 1405.00,170.00
             1405.00,170.00 1330.00,170.00 1330.00,170.00 Z" />
  <path id="Route 2"
        fill="none" stroke="black" stroke-width="1"
        d="M 1250.00,275.00
           C 1250.00,275.00 1250.00,310.00 1250.00,310.00
             1250.00,310.00 1270.00,310.00 1270.00,310.00
             1270.00,310.00 1270.00,275.00 1270.00,275.00
             1270.00,275.00 1265.00,275.00 1265.00,275.00
             1265.00,275.00 1265.00,280.00 1265.00,280.00
             1265.00,280.00 1255.00,280.00 1255.00,280.00
             1255.00,280.00 1255.00,275.00 1255.00,275.00
             1255.00,275.00 1250.00,275.00 1250.00,275.00 Z" />
  <path id="Route 1"
        fill="none" stroke="black" stroke-width="1"
        d="M 1250.00,410.00
           C 1250.00,410.00 1250.00,470.00 1250.00,470.00
             1250.00,470.00 1270.00,470.00 1270.00,470.00
             1270.00,470.00 1270.00,410.00 1270.00,410.00
             1270.00,410.00 1250.00,410.00 1250.00,410.00 Z" />
</svg>
