<?xml version="1.0" encoding="UTF-8" standalone="no"?>
<!DOCTYPE svg PUBLIC "-//W3C//DTD SVG 20010904//EN"
              "http://www.w3.org/TR/2001/REC-SVG-20010904/DTD/svg10.dtd">

<svg xmlns="http://www.w3.org/2000/svg"
     width="338.624mm" height="222.222mm"
     viewBox="0 0 1280 840">
  <path id="Ambrette Town"
        fill="none" stroke="black" stroke-width="1"
        d="M 282.00,617.64
           C 289.16,616.20 295.37,617.02 300.90,622.21
             311.79,632.46 307.21,650.07 293.00,654.35
             280.96,657.98 267.88,647.47 268.47,635.00
             268.87,626.54 274.39,620.51 282.00,617.64 Z" />
  <path id="Geosenge Town"
        fill="none" stroke="black" stroke-width="1"
        d="M 112.00,381.53
           C 119.40,380.34 127.44,382.66 131.87,389.09
             138.88,399.27 134.71,415.38 122.00,418.47
             102.95,423.09 88.16,400.20 103.10,386.21
             105.95,383.54 108.37,382.61 112.00,381.53 Z" />
  <path id="Shalour City"
        fill="none" stroke="black" stroke-width="1"
        d="M 186.00,285.53
           C 190.61,284.77 195.70,284.53 200.00,286.69
             219.27,296.33 211.10,324.38 190.00,322.90
             171.04,321.58 165.16,292.15 186.00,285.53 Z" />
  <path id="Cyllage City"
        fill="none" stroke="black" stroke-width="1"
        d="M 219.00,461.53
           C 223.22,460.84 226.96,460.62 231.00,462.36
             248.64,469.98 246.71,494.39 228.00,498.91
             224.75,499.87 222.21,499.54 219.00,498.91
             200.15,494.16 199.79,467.52 219.00,461.53 Z" />
  <path id="Camphrier Town"
        fill="none" stroke="black" stroke-width="1"
        d="M 522.00,464.72
           C 528.61,464.85 533.89,465.92 538.47,471.18
             550.12,484.57 539.02,502.06 525.00,502.89
             502.03,504.25 496.25,467.32 522.00,464.72 Z" />
  <path id="Lumiose City"
        fill="none" stroke="black" stroke-width="1"
        d="M 651.00,261.46
           C 668.32,259.07 687.27,261.96 699.91,275.04
             704.95,280.26 709.95,288.96 711.84,296.00
             712.82,299.63 713.60,303.56 710.57,306.49
             707.16,309.78 698.59,309.06 694.00,309.00
             682.84,308.84 686.49,304.26 681.35,297.00
             677.07,290.96 671.28,288.17 664.00,288.02
             656.64,287.86 652.25,289.45 647.18,295.02
             639.01,304.00 643.56,307.92 632.00,308.00
             632.00,308.00 623.00,308.00 623.00,308.00
             620.97,307.99 618.14,308.13 616.40,306.98
             610.62,303.17 615.98,290.68 618.26,286.00
             625.47,271.17 635.22,264.97 651.00,261.46 Z
           M 659.00,293.31
           C 661.22,293.17 662.72,292.94 665.00,293.31
             675.51,293.83 684.85,305.50 682.61,316.00
             680.62,325.37 671.25,331.44 662.00,330.96
             642.71,329.95 637.14,300.34 659.00,293.31 Z
           M 616.28,317.02
           C 619.66,315.76 635.63,315.05 638.51,317.02
             640.30,318.25 642.96,324.50 644.79,326.99
             650.17,334.32 656.30,336.24 665.00,335.98
             672.39,335.77 678.57,331.12 682.44,325.00
             683.95,322.60 685.14,318.41 687.30,317.02
             689.22,315.79 692.75,316.00 695.00,316.00
             698.65,315.99 708.72,315.17 711.13,317.74
             713.92,320.62 712.07,326.66 711.13,330.00
             707.82,341.10 699.36,351.84 689.00,357.03
             670.84,366.14 642.20,365.88 627.09,350.91
             620.84,344.71 608.12,324.88 616.28,317.02 Z" />
  <path id="Kiloude City"
        fill="none" stroke="black" stroke-width="1"
        d="M 956.00,757.47
           C 963.30,756.52 970.85,758.92 975.35,765.04
             983.66,776.34 976.62,792.30 963.00,794.67
             947.63,797.35 935.33,779.46 943.09,766.00
             946.12,760.74 950.39,758.80 956.00,757.47 Z" />
  <path id="Santalune City"
        fill="none" stroke="black" stroke-width="1"
        d="M 782.00,457.64
           C 789.59,456.11 796.27,457.21 801.79,463.10
             811.62,473.61 806.77,490.41 793.00,494.36
             779.74,498.18 768.74,488.45 769.02,475.00
             769.08,471.74 769.42,468.90 771.09,466.00
             773.65,461.56 777.37,459.38 782.00,457.64 Z" />
  <path id="Pokémon League"
        fill="none" stroke="black" stroke-width="1"
        d="M 936.00,349.53
           C 961.24,345.64 968.72,381.65 944.00,387.32
             930.92,390.32 920.37,379.99 921.04,367.00
             921.51,357.90 927.62,352.03 936.00,349.53 Z" />
  <path id="Aquacorde Town"
        fill="none" stroke="black" stroke-width="1"
        d="M 843.00,605.31
           C 845.22,605.17 846.71,604.94 849.00,605.31
             869.29,606.51 873.83,634.57 855.00,642.24
             852.16,643.39 849.07,644.11 846.00,643.80
             825.69,641.79 821.90,612.23 843.00,605.31 Z" />
  <path id="Vaniville Town"
        fill="none" stroke="black" stroke-width="1"
        d="M 844.00,701.47
           C 851.75,700.41 858.59,702.40 863.35,709.02
             870.90,719.50 866.18,735.74 853.00,738.61
             848.75,739.54 841.82,739.11 838.00,736.91
             825.72,729.84 824.19,706.31 844.00,701.47 Z" />
  <path id="Snowbelle City"
        fill="none" stroke="black" stroke-width="1"
        d="M 1080.00,449.52
           C 1102.65,445.99 1113.33,476.49 1091.00,485.52
             1088.09,486.69 1085.12,487.12 1082.00,486.90
             1067.34,485.88 1060.26,468.90 1067.99,457.04
             1070.97,452.48 1075.00,450.89 1080.00,449.52 Z" />
  <path id="Couriway Town"
        fill="none" stroke="black" stroke-width="1"
        d="M 1188.00,365.52
           C 1195.91,364.27 1202.49,366.25 1207.35,373.02
             1214.57,383.04 1210.76,399.37 1198.00,402.47
             1193.11,403.66 1185.26,403.24 1181.04,400.30
             1171.34,393.55 1170.23,377.39 1179.21,369.56
             1181.79,367.31 1184.79,366.40 1188.00,365.52 Z" />
  <path id="Anistar City"
        fill="none" stroke="black" stroke-width="1"
        d="M 1119.00,301.53
           C 1126.67,300.28 1133.31,301.88 1138.47,308.09
             1147.08,318.47 1142.55,335.20 1129.00,338.47
             1119.86,340.67 1108.64,336.54 1105.65,327.00
             1104.93,324.72 1104.96,321.41 1105.01,319.00
             1105.12,314.64 1105.89,310.76 1108.80,307.33
             1111.50,304.13 1115.11,302.69 1119.00,301.53 Z" />
  <path id="Dendemille Town"
        fill="none" stroke="black" stroke-width="1"
        d="M 872.00,233.52
           C 879.70,232.32 886.64,234.46 891.35,241.02
             898.96,251.59 894.39,267.87 881.00,270.71
             859.01,275.37 850.73,251.11 861.39,239.19
             864.34,235.89 867.88,234.65 872.00,233.52 Z" />
  <path id="Laverre City"
        fill="none" stroke="black" stroke-width="1"
        d="M 658.00,76.55
           C 664.53,76.33 671.28,78.74 675.35,84.09
             684.28,95.82 677.93,112.98 663.00,114.82
             644.50,117.09 635.32,96.56 644.80,84.09
             648.15,79.68 652.73,77.63 658.00,76.55 Z" />
  <path id="Coumarine City"
        fill="none" stroke="black" stroke-width="1"
        d="M 436.00,233.53
           C 443.64,232.35 451.74,235.30 456.01,242.01
             462.28,251.88 458.06,267.54 446.00,270.47
             441.10,271.66 433.26,271.24 429.04,268.30
             420.59,262.42 418.12,248.36 424.65,240.18
             427.47,236.65 431.79,234.78 436.00,233.53 Z" />
  <path id="Glittering Cave"
        fill="none" stroke="black" stroke-width="1"
        d="M 459.00,622.65
           C 463.07,621.82 466.45,621.62 469.89,624.43
             476.35,629.71 474.88,640.25 467.00,643.26
             454.57,648.01 444.84,628.79 459.00,622.65 Z" />
  <path id="Reflection Cave"
        fill="none" stroke="black" stroke-width="1"
        d="M 157.00,323.56
           C 171.82,321.35 174.24,341.27 162.00,344.57
             153.51,346.86 144.31,340.18 148.01,331.01
             149.74,326.71 152.88,325.00 157.00,323.56 Z" />
  <path id="Connecting Cave"
        fill="none" stroke="black" stroke-width="1"
        d="M 281.00,469.62
           C 296.86,469.12 297.03,490.14 285.00,491.74
             272.25,493.42 265.17,474.13 281.00,469.62 Z" />
  <path id="Parfum Palace"
        fill="none" stroke="black" stroke-width="1"
        d="M 372.02,364.74
           C 375.59,363.88 378.69,363.60 381.96,365.74
             389.43,370.64 390.15,381.73 381.00,385.26
             369.25,389.79 357.38,372.79 372.02,364.74 Z" />
  <path id="Pokémon Village"
        fill="none" stroke="black" stroke-width="1"
        d="M 1029.01,622.65
           C 1032.14,622.01 1034.99,621.62 1037.98,623.17
             1047.45,628.09 1044.61,640.45 1035.00,643.35
             1021.67,647.37 1014.52,629.02 1029.01,622.65 Z" />
  <path id="Poké Ball Factory"
        fill="none" stroke="black" stroke-width="1"
        d="M 656.00,36.58
           C 670.44,34.63 677.06,53.52 662.83,57.25
             646.55,61.52 642.35,41.89 656.00,36.58 Z" />
  <path id="Santalune Forest"
        fill="none" stroke="black" stroke-width="1"
        d="M 844.00,529.65
           C 859.74,526.58 862.69,546.72 850.98,551.26
             841.77,554.84 833.32,544.74 836.74,536.02
             838.16,532.39 840.65,531.07 844.00,529.65 Z" />
  <path id="Victory Road"
        fill="none" stroke="black" stroke-width="1"
        d="M 935.00,450.57
           C 938.97,449.86 942.50,449.59 945.79,452.43
             952.63,458.34 949.83,469.35 942.00,471.42
             929.63,474.68 921.33,456.06 935.00,450.57 Z" />
  <path id="Kalos Power Plant"
        fill="none" stroke="black" stroke-width="1"
        d="M 487.00,328.57
           C 502.00,326.64 505.54,346.65 492.99,350.49
             482.68,353.64 476.56,343.12 478.66,336.01
             479.97,331.62 482.98,329.96 487.00,328.57 Z" />
  <path id="Sea Spirit&apos;s Den"
        fill="none" stroke="black" stroke-width="1"
        d="M 316.00,142.74
           C 331.64,139.00 336.78,157.78 323.99,162.85
             311.38,167.86 301.90,150.29 316.00,142.74 Z" />
  <path id="Lost Hotel"
        fill="none" stroke="black" stroke-width="1"
        d="M 760.00,205.60
           C 775.06,204.42 776.79,224.78 763.00,227.59
             754.24,229.38 748.68,220.88 751.30,213.01
             752.76,208.62 755.90,206.96 760.00,205.60 Z" />
  <path id="Frost Cavern"
        fill="none" stroke="black" stroke-width="1"
        d="M 925.00,181.57
           C 940.75,180.52 941.73,201.77 929.00,203.76
             919.04,205.31 912.57,194.12 916.31,187.10
             918.16,183.66 921.50,182.55 925.00,181.57 Z" />
  <path id="Terminus Cave"
        fill="none" stroke="black" stroke-width="1"
        d="M 1226.00,304.66
           C 1228.38,304.22 1229.52,303.89 1232.00,304.66
             1245.99,308.41 1241.01,328.72 1228.00,326.76
             1219.12,325.42 1212.28,311.95 1226.00,304.66 Z" />
  <path id="Chamber of Emptiness"
        fill="none" stroke="black" stroke-width="1"
        d="M 884.00,492.70
           C 897.95,489.99 903.76,510.09 889.00,514.34
             881.28,516.56 875.25,509.39 876.23,502.00
             876.89,496.96 879.66,494.70 884.00,492.70 Z" />
  <path id="Azure Bay"
        fill="none" stroke="black" stroke-width="1"
        d="M 346.43,169.17
           C 350.30,168.78 353.40,171.72 355.38,175.00
             356.45,176.76 357.16,179.37 354.68,180.35
             351.22,181.70 340.47,175.25 346.43,169.17 Z
           M 368.06,184.91
           C 371.74,185.33 373.83,186.47 375.53,190.02
             376.82,192.71 376.64,196.16 372.94,196.34
             368.05,196.59 359.45,187.68 368.06,184.91 Z
           M 385.28,200.08
           C 388.57,200.17 392.11,201.58 394.14,204.38
             396.07,207.02 395.81,210.94 391.94,211.35
             387.20,211.85 378.71,204.14 385.28,200.08 Z
           M 415.00,219.00
           C 414.52,220.62 414.46,221.46 413.41,222.94
             405.28,234.35 394.26,210.33 409.00,216.07
             409.00,216.07 415.00,219.00 415.00,219.00 Z" />
  <path id="Route 22"
        fill="none" stroke="black" stroke-width="1"
        d="M 917.00,455.00
           C 917.00,455.00 919.00,470.00 919.00,470.00
             894.14,470.00 869.66,470.45 845.00,473.87
             834.80,475.29 822.55,476.53 813.00,480.00
             813.00,480.00 812.00,467.00 812.00,467.00
             840.70,467.00 852.62,466.12 881.00,462.13
             891.13,460.71 908.04,458.81 917.00,455.00 Z" />
  <path id="Route 21"
        fill="none" stroke="black" stroke-width="1"
        d="M 960.00,456.00
           C 982.57,460.25 1000.18,461.04 1023.00,461.00
             1023.00,461.00 1058.00,459.00 1058.00,459.00
             1058.00,459.00 1056.00,472.00 1056.00,472.00
             1056.00,472.00 1029.00,469.00 1029.00,469.00
             1029.00,469.00 1011.00,468.00 1011.00,468.00
             1011.00,468.00 982.00,468.00 982.00,468.00
             982.00,468.00 972.00,468.96 972.00,468.96
             972.00,468.96 959.00,468.96 959.00,468.96
             959.00,468.96 960.00,456.00 960.00,456.00 Z" />
  <path id="Route 20"
        fill="none" stroke="black" stroke-width="1"
        d="M 1070.00,493.00
           C 1070.00,493.00 1086.00,496.00 1086.00,496.00
             1071.52,523.41 1064.94,548.67 1056.58,578.00
             1054.28,586.05 1047.39,609.84 1048.00,617.00
             1048.00,617.00 1034.00,611.00 1034.00,611.00
             1035.68,603.84 1041.41,592.40 1044.40,585.00
             1044.40,585.00 1051.65,565.00 1051.65,565.00
             1059.91,540.29 1064.33,518.17 1070.00,493.00 Z" />
  <path id="Route 19"
        fill="none" stroke="black" stroke-width="1"
        d="M 1167.00,397.00
           C 1167.00,397.00 1176.00,407.00 1176.00,407.00
             1176.00,407.00 1176.00,409.00 1176.00,409.00
             1155.84,418.70 1123.44,443.25 1109.00,460.00
             1109.00,460.00 1101.00,448.00 1101.00,448.00
             1107.16,446.49 1112.64,442.13 1118.00,438.81
             1127.53,432.90 1142.99,420.71 1151.00,412.96
             1151.00,412.96 1167.00,397.00 1167.00,397.00 Z" />
  <path id="Route 18"
        fill="none" stroke="black" stroke-width="1"
        d="M 1148.00,328.00
           C 1148.00,328.00 1151.48,335.00 1151.48,335.00
             1155.23,341.26 1166.79,353.85 1173.00,357.52
             1176.99,359.88 1179.20,359.44 1183.00,361.00
             1183.00,361.00 1170.00,368.00 1170.00,368.00
             1162.03,355.44 1152.53,349.14 1140.00,342.00
             1140.00,342.00 1148.00,328.00 1148.00,328.00 Z" />
  <path id="Route 17"
        fill="none" stroke="black" stroke-width="1"
        d="M 903.00,250.00
           C 916.90,256.55 959.56,269.79 976.00,274.72
             976.00,274.72 1061.00,298.12 1061.00,298.12
             1061.00,298.12 1099.00,306.00 1099.00,306.00
             1096.34,311.64 1095.31,313.67 1095.00,320.00
             1060.82,305.50 1014.33,292.66 978.00,283.12
             978.00,283.12 900.00,265.00 900.00,265.00
             900.00,265.00 903.00,250.00 903.00,250.00 Z" />
  <path id="Route 16"
        fill="none" stroke="black" stroke-width="1"
        d="M 718.00,290.00
           C 725.27,290.61 743.14,286.16 751.00,284.42
             751.00,284.42 815.00,267.98 815.00,267.98
             815.00,267.98 850.00,257.00 850.00,257.00
             850.00,257.00 853.00,268.00 853.00,268.00
             840.03,268.60 814.99,274.91 802.00,278.57
             802.00,278.57 792.00,281.04 792.00,281.04
             792.00,281.04 722.00,305.00 722.00,305.00
             722.00,305.00 718.00,290.00 718.00,290.00 Z" />
  <path id="Route 15"
        fill="none" stroke="black" stroke-width="1"
        d="M 685.00,101.00
           C 685.00,101.00 707.00,120.39 707.00,120.39
             735.97,143.89 766.48,165.85 797.00,187.28
             797.00,187.28 840.00,217.28 840.00,217.28
             840.00,217.28 860.00,231.00 860.00,231.00
             855.60,234.32 854.40,236.11 852.00,241.00
             846.85,238.56 842.56,233.68 838.00,230.00
             838.00,230.00 807.00,204.88 807.00,204.88
             774.75,180.28 742.62,155.44 708.00,134.19
             708.00,134.19 678.00,116.00 678.00,116.00
             678.00,116.00 685.00,101.00 685.00,101.00 Z" />
  <path id="Route 14"
        fill="none" stroke="black" stroke-width="1"
        d="M 652.00,122.00
           C 659.19,123.29 659.81,123.29 667.00,122.00
             664.96,133.18 663.98,144.63 664.00,156.00
             664.00,156.00 665.00,173.00 665.00,173.00
             665.00,173.00 665.00,220.00 665.00,220.00
             665.00,220.00 667.00,251.00 667.00,251.00
             667.00,251.00 652.00,252.00 652.00,252.00
             656.13,239.27 655.00,218.75 655.00,205.00
             655.00,205.00 655.00,154.00 655.00,154.00
             654.98,143.41 653.39,132.51 652.00,122.00 Z" />
  <path id="Route 13"
        fill="none" stroke="black" stroke-width="1"
        d="M 467.00,250.00
           C 481.13,258.53 509.61,267.71 526.00,272.15
             548.42,278.22 581.27,286.00 604.00,289.00
             604.00,289.00 601.00,302.00 601.00,302.00
             601.00,302.00 566.00,289.72 566.00,289.72
             566.00,289.72 505.00,274.58 505.00,274.58
             494.20,272.19 472.37,267.09 462.00,267.00
             465.33,259.85 466.82,258.17 467.00,250.00 Z" />
  <path id="Route 12"
        fill="none" stroke="black" stroke-width="1"
        d="M 411.00,248.00
           C 411.00,248.00 416.00,265.00 416.00,265.00
             405.68,263.38 380.30,268.06 369.00,269.73
             333.97,274.89 299.43,282.95 265.00,291.12
             265.00,291.12 234.00,298.42 234.00,298.42
             227.16,299.94 222.09,299.97 218.00,306.00
             217.97,295.42 216.84,294.16 212.00,285.00
             219.90,288.33 221.22,286.66 229.00,286.09
             229.00,286.09 267.00,280.75 267.00,280.75
             267.00,280.75 320.00,271.55 320.00,271.55
             320.00,271.55 359.00,262.65 359.00,262.65
             369.60,260.22 402.48,251.94 411.00,248.00 Z" />
  <path id="Route 11"
        fill="none" stroke="black" stroke-width="1"
        d="M 142.00,348.00
           C 142.00,348.00 151.00,354.00 151.00,354.00
             147.30,358.98 136.33,373.27 136.12,379.00
             136.05,380.65 136.54,381.53 137.00,383.00
             137.00,383.00 129.00,377.13 129.00,377.13
             129.00,377.13 121.00,373.00 121.00,373.00
             127.55,369.39 137.03,354.44 142.00,348.00 Z" />
  <path id="Route 10"
        fill="none" stroke="black" stroke-width="1"
        d="M 142.00,406.00
           C 155.28,428.43 182.08,449.71 206.00,460.00
             206.00,460.00 197.00,474.00 197.00,474.00
             185.97,459.00 168.20,442.75 152.00,433.43
             152.00,433.43 137.00,425.88 137.00,425.88
             137.00,425.88 129.00,423.00 129.00,423.00
             136.85,417.00 137.38,414.11 142.00,406.00 Z" />
  <path id="Route 9"
        fill="none" stroke="black" stroke-width="1"
        d="M 314.00,629.00
           C 338.14,634.43 355.65,633.00 380.00,633.00
             380.00,633.00 422.00,631.83 422.00,631.83
             422.00,631.83 432.00,630.29 432.00,630.29
             436.72,629.70 436.68,630.29 442.00,629.00
             442.00,629.00 443.00,641.00 443.00,641.00
             443.00,641.00 420.00,640.00 420.00,640.00
             420.00,640.00 362.00,640.00 362.00,640.00
             351.19,640.00 323.59,640.67 314.00,643.00
             314.00,643.00 314.00,629.00 314.00,629.00 Z" />
  <path id="Route 8"
        fill="none" stroke="black" stroke-width="1"
        d="M 237.00,504.00
           C 237.00,504.00 244.05,527.00 244.05,527.00
             244.05,527.00 265.14,577.00 265.14,577.00
             269.56,586.93 276.04,602.02 283.00,610.00
             283.00,610.00 268.00,617.00 268.00,617.00
             260.77,592.26 253.58,567.75 243.42,544.00
             238.44,532.35 231.31,517.43 223.00,508.00
             229.23,507.71 231.52,507.00 237.00,504.00 Z" />
  <path id="Route 7"
        fill="none" stroke="black" stroke-width="1"
        d="M 304.00,477.00
           C 304.00,477.00 337.00,477.00 337.00,477.00
             337.00,477.00 353.00,478.00 353.00,478.00
             353.00,478.00 378.00,478.00 378.00,478.00
             378.00,478.00 391.00,477.00 391.00,477.00
             391.00,477.00 432.00,477.00 432.00,477.00
             432.00,477.00 449.00,476.00 449.00,476.00
             449.00,476.00 499.00,474.00 499.00,474.00
             499.00,474.00 497.00,491.00 497.00,491.00
             497.00,491.00 482.00,489.00 482.00,489.00
             482.00,489.00 473.00,489.00 473.00,489.00
             473.00,489.00 438.00,487.00 438.00,487.00
             438.00,487.00 421.00,486.00 421.00,486.00
             421.00,486.00 396.00,486.00 396.00,486.00
             396.00,486.00 379.00,485.00 379.00,485.00
             379.00,485.00 333.00,485.00 333.00,485.00
             333.00,485.00 320.00,486.00 320.00,486.00
             320.00,486.00 304.00,485.00 304.00,485.00
             304.00,485.00 304.00,477.00 304.00,477.00 Z" />
  <path id="Route 6"
        fill="none" stroke="black" stroke-width="1"
        d="M 396.00,379.00
           C 400.04,381.26 403.39,385.45 407.00,388.58
             407.00,388.58 432.00,409.00 432.00,409.00
             445.76,419.91 485.19,447.67 500.00,455.69
             500.00,455.69 512.00,461.00 512.00,461.00
             506.62,464.14 503.14,467.62 500.00,473.00
             500.00,473.00 470.00,446.47 470.00,446.47
             470.00,446.47 424.00,414.00 424.00,414.00
             424.00,414.00 390.00,392.00 390.00,392.00
             390.00,392.00 396.00,379.00 396.00,379.00 Z" />
  <path id="Route 5"
        fill="none" stroke="black" stroke-width="1"
        d="M 619.00,357.00
           C 619.00,357.00 630.00,364.00 630.00,364.00
             624.95,371.95 611.47,384.79 604.28,393.00
             589.57,409.80 555.76,451.80 545.00,470.00
             540.10,463.22 538.31,463.29 532.00,459.00
             554.42,441.59 573.32,420.41 590.65,398.00
             599.29,386.84 612.20,369.11 619.00,357.00 Z" />
  <path id="Route 4"
        fill="none" stroke="black" stroke-width="1"
        d="M 704.00,355.00
           C 704.00,355.00 714.69,372.00 714.69,372.00
             714.69,372.00 735.88,403.00 735.88,403.00
             735.88,403.00 762.17,436.00 762.17,436.00
             762.17,436.00 777.00,451.00 777.00,451.00
             768.83,454.65 769.28,455.59 763.00,461.00
             761.22,453.73 749.90,436.79 745.33,430.00
             745.33,430.00 712.60,385.00 712.60,385.00
             712.60,385.00 701.83,372.00 701.83,372.00
             698.59,368.40 696.97,367.15 694.00,363.00
             694.00,363.00 704.00,355.00 704.00,355.00 Z" />
  <path id="Route 3"
        fill="none" stroke="black" stroke-width="1"
        d="M 810.00,487.00
           C 810.00,487.00 822.32,508.96 822.32,508.96
             822.32,508.96 839.00,521.00 839.00,521.00
             831.10,525.62 832.10,526.69 827.00,533.00
             824.84,527.60 821.26,518.51 817.47,514.30
             811.14,507.26 802.81,505.09 795.00,501.00
             802.86,497.49 806.16,494.82 810.00,487.00 Z" />
  <path id="Route 2"
        fill="none" stroke="black" stroke-width="1"
        d="M 839.00,562.00
           C 839.00,562.00 854.00,562.00 854.00,562.00
             847.15,576.54 849.17,582.99 852.00,598.00
             852.00,598.00 839.00,599.00 839.00,599.00
             842.87,585.63 843.33,575.31 839.00,562.00 Z" />
  <path id="Route 1"
        fill="none" stroke="black" stroke-width="1"
        d="M 840.00,652.00
           C 840.00,652.00 853.00,653.00 853.00,653.00
             848.40,667.05 848.54,679.27 854.00,693.00
             854.00,693.00 839.00,694.00 839.00,694.00
             840.80,686.12 843.38,678.25 842.91,670.00
             842.91,670.00 840.00,652.00 840.00,652.00 Z" />
</svg>
