<?xml version="1.0" encoding="UTF-8" standalone="no"?>
<!DOCTYPE svg PUBLIC "-//W3C//DTD SVG 20010904//EN"
              "http://www.w3.org/TR/2001/REC-SVG-20010904/DTD/svg10.dtd">

<svg xmlns="http://www.w3.org/2000/svg"
     width="338.624mm" height="222.222mm"
     viewBox="0 0 1280 840">
  <path id="Ambrette Town"
        fill="none" stroke="black" stroke-width="1"
        d="M 282.00,617.64
           C 274.39,620.51 268.87,626.54 268.47,635.00
             267.88,647.47 280.96,657.98 293.00,654.35
             307.21,650.07 311.79,632.46 300.90,622.21
             295.37,617.02 289.16,616.20 282.00,617.64 Z" />
  <path id="Geosenge Town"
        fill="none" stroke="black" stroke-width="1"
        d="M 112.00,381.53
           C 108.37,382.61 105.95,383.54 103.10,386.21
             88.16,400.20 102.95,423.09 122.00,418.47
             134.71,415.38 138.88,399.27 131.87,389.09
             127.44,382.66 119.40,380.34 112.00,381.53 Z" />
  <path id="Shalour City"
        fill="none" stroke="black" stroke-width="1"
        d="M 186.00,285.53
           C 165.16,292.15 171.04,321.58 190.00,322.90
             211.10,324.38 219.27,296.33 200.00,286.69
             195.70,284.53 190.61,284.77 186.00,285.53 Z" />
  <path id="Cyllage City"
        fill="none" stroke="black" stroke-width="1"
        d="M 219.00,461.53
           C 199.79,467.52 200.15,494.16 219.00,498.91
             222.21,499.54 224.75,499.87 228.00,498.91
             246.71,494.39 248.64,469.98 231.00,462.36
             226.96,460.62 223.22,460.84 219.00,461.53 Z" />
  <path id="Camphrier Town"
        fill="none" stroke="black" stroke-width="1"
        d="M 522.00,464.72
           C 496.25,467.32 502.03,504.25 525.00,502.89
             539.02,502.06 550.12,484.57 538.47,471.18
             533.89,465.92 528.61,464.85 522.00,464.72 Z" />
  <path id="Lumiose City"
        fill="none" stroke="black" stroke-width="1"
        d="M 651.00,261.46
           C 640.90,263.71 631.11,267.88 624.33,276.00
             617.31,284.41 613.13,297.10 613.00,308.00
             612.90,317.28 612.48,322.98 615.52,332.00
             621.93,350.97 638.01,362.76 658.00,363.00
             669.50,363.13 678.56,362.39 689.00,356.88
             703.18,349.40 712.81,334.11 713.00,318.00
             713.20,300.70 712.85,288.44 699.91,275.04
             687.33,262.02 668.25,259.08 651.00,261.46 Z" />
  <path id="Kiloude City"
        fill="none" stroke="black" stroke-width="1"
        d="M 956.00,757.47
           C 950.39,758.80 946.12,760.74 943.09,766.00
             935.33,779.46 947.63,797.35 963.00,794.67
             976.62,792.30 983.66,776.34 975.35,765.04
             970.85,758.92 963.30,756.52 956.00,757.47 Z" />
  <path id="Santalune City"
        fill="none" stroke="black" stroke-width="1"
        d="M 782.00,457.64
           C 777.37,459.38 773.65,461.56 771.09,466.00
             769.42,468.90 769.08,471.74 769.02,475.00
             768.74,488.45 779.74,498.18 793.00,494.36
             806.77,490.41 811.62,473.61 801.79,463.10
             796.27,457.21 789.59,456.11 782.00,457.64 Z" />
  <path id="Pokémon League"
        fill="none" stroke="black" stroke-width="1"
        d="M 936.00,349.53
           C 927.62,352.03 921.51,357.90 921.04,367.00
             920.37,379.99 930.92,390.32 944.00,387.32
             968.72,381.65 961.24,345.64 936.00,349.53 Z" />
  <path id="Aquacorde Town"
        fill="none" stroke="black" stroke-width="1"
        d="M 843.00,605.31
           C 821.90,612.23 825.69,641.79 846.00,643.80
             849.07,644.11 852.16,643.39 855.00,642.24
             873.83,634.57 869.29,606.51 849.00,605.31
             846.71,604.94 845.22,605.17 843.00,605.31 Z" />
  <path id="Vaniville Town"
        fill="none" stroke="black" stroke-width="1"
        d="M 844.00,701.47
           C 824.19,706.31 825.72,729.84 838.00,736.91
             841.82,739.11 848.75,739.54 853.00,738.61
             866.18,735.74 870.90,719.50 863.35,709.02
             858.59,702.40 851.75,700.41 844.00,701.47 Z" />
  <path id="Snowbelle City"
        fill="none" stroke="black" stroke-width="1"
        d="M 1080.00,449.52
           C 1075.00,450.89 1070.97,452.48 1067.99,457.04
             1060.26,468.90 1067.34,485.88 1082.00,486.90
             1085.12,487.12 1088.09,486.69 1091.00,485.52
             1113.33,476.49 1102.65,445.99 1080.00,449.52 Z" />
  <path id="Couriway Town"
        fill="none" stroke="black" stroke-width="1"
        d="M 1188.00,365.52
           C 1184.79,366.40 1181.79,367.31 1179.21,369.56
             1170.23,377.39 1171.34,393.55 1181.04,400.30
             1185.26,403.24 1193.11,403.66 1198.00,402.47
             1210.76,399.37 1214.57,383.04 1207.35,373.02
             1202.49,366.25 1195.91,364.27 1188.00,365.52 Z" />
  <path id="Anistar City"
        fill="none" stroke="black" stroke-width="1"
        d="M 1119.00,301.53
           C 1115.11,302.69 1111.50,304.13 1108.80,307.33
             1105.89,310.76 1105.12,314.64 1105.01,319.00
             1104.96,321.41 1104.93,324.72 1105.65,327.00
             1108.64,336.54 1119.86,340.67 1129.00,338.47
             1142.55,335.20 1147.08,318.47 1138.47,308.09
             1133.31,301.88 1126.67,300.28 1119.00,301.53 Z" />
  <path id="Dendemille Town"
        fill="none" stroke="black" stroke-width="1"
        d="M 872.00,233.52
           C 867.88,234.65 864.34,235.89 861.39,239.19
             850.73,251.11 859.01,275.37 881.00,270.71
             894.39,267.87 898.96,251.59 891.35,241.01
             886.64,234.46 879.70,232.32 872.00,233.52 Z" />
  <path id="Laverre City"
        fill="none" stroke="black" stroke-width="1"
        d="M 658.00,76.55
           C 652.73,77.63 648.15,79.68 644.80,84.09
             635.32,96.56 644.50,117.09 663.00,114.82
             677.93,112.98 684.28,95.82 675.35,84.09
             671.28,78.74 664.53,76.33 658.00,76.55 Z" />
  <path id="Coumarine City"
        fill="none" stroke="black" stroke-width="1"
        d="M 436.00,233.53
           C 431.79,234.78 427.47,236.65 424.65,240.18
             418.12,248.36 420.59,262.42 429.04,268.30
             433.26,271.24 441.10,271.66 446.00,270.47
             458.06,267.54 462.28,251.88 456.01,242.01
             451.74,235.30 443.64,232.35 436.00,233.53 Z" />
  <path id="Glittering Cave"
        fill="none" stroke="black" stroke-width="1"
        d="M 459.00,622.65
           C 444.84,628.79 454.57,648.01 467.00,643.26
             474.88,640.25 476.35,629.71 469.89,624.43
             466.45,621.62 463.07,621.82 459.00,622.65 Z" />
  <path id="Reflection Cave"
        fill="none" stroke="black" stroke-width="1"
        d="M 157.00,323.56
           C 152.88,325.00 149.74,326.71 148.01,331.01
             144.31,340.18 153.51,346.86 162.00,344.57
             174.24,341.27 171.82,321.35 157.00,323.56 Z" />
  <path id="Connecting Cave"
        fill="none" stroke="black" stroke-width="1"
        d="M 281.00,469.62
           C 265.17,474.13 272.25,493.42 285.00,491.74
             297.03,490.14 296.86,469.12 281.00,469.62 Z" />
  <path id="Parfum Palace"
        fill="none" stroke="black" stroke-width="1"
        d="M 372.02,364.74
           C 357.38,372.79 369.25,389.79 381.00,385.26
             390.15,381.73 389.43,370.64 381.96,365.74
             378.69,363.60 375.59,363.88 372.02,364.74 Z" />
  <path id="Pokémon Village"
        fill="none" stroke="black" stroke-width="1"
        d="M 1029.01,622.65
           C 1014.52,629.02 1021.67,647.37 1035.00,643.35
             1044.61,640.45 1047.45,628.09 1037.98,623.17
             1034.99,621.62 1032.14,622.01 1029.01,622.65 Z" />
  <path id="Poké Ball Factory"
        fill="none" stroke="black" stroke-width="1"
        d="M 656.00,36.58
           C 642.35,41.89 646.55,61.52 662.83,57.25
             677.06,53.52 670.44,34.63 656.00,36.58 Z" />
  <path id="Santalune Forest"
        fill="none" stroke="black" stroke-width="1"
        d="M 844.00,529.65
           C 840.65,531.07 838.16,532.39 836.74,536.02
             833.32,544.74 841.77,554.84 850.98,551.26
             862.69,546.72 859.74,526.58 844.00,529.65 Z" />
  <path id="Victory Road"
        fill="none" stroke="black" stroke-width="1"
        d="M 935.00,450.57
           C 921.33,456.06 929.63,474.68 942.00,471.42
             949.83,469.35 952.63,458.34 945.79,452.43
             942.50,449.59 938.97,449.86 935.00,450.57 Z" />
  <path id="Kalos Power Plant"
        fill="none" stroke="black" stroke-width="1"
        d="M 487.00,328.57
           C 482.98,329.96 479.97,331.62 478.66,336.01
             476.56,343.12 482.68,353.64 492.99,350.49
             505.54,346.65 502.00,326.64 487.00,328.57 Z" />
  <path id="Sea Spirit&apos;s Den"
        fill="none" stroke="black" stroke-width="1"
        d="M 316.00,142.74
           C 301.90,150.29 311.38,167.86 323.99,162.85
             336.78,157.78 331.64,139.00 316.00,142.74 Z" />
  <path id="Lost Hotel"
        fill="none" stroke="black" stroke-width="1"
        d="M 760.00,205.60
           C 755.90,206.96 752.76,208.62 751.30,213.01
             748.68,220.88 754.24,229.38 763.00,227.59
             776.79,224.78 775.06,204.42 760.00,205.60 Z" />
  <path id="Frost Cavern"
        fill="none" stroke="black" stroke-width="1"
        d="M 925.00,181.57
           C 921.50,182.55 918.16,183.66 916.31,187.10
             912.57,194.12 919.04,205.31 929.00,203.76
             941.73,201.77 940.75,180.52 925.00,181.57 Z" />
  <path id="Terminus Cave"
        fill="none" stroke="black" stroke-width="1"
        d="M 1226.00,304.66
           C 1212.28,311.95 1219.12,325.42 1228.00,326.76
             1241.01,328.72 1245.99,308.41 1232.00,304.66
             1229.52,303.89 1228.38,304.22 1226.00,304.66 Z" />
  <path id="Chamber of Emptiness"
        fill="none" stroke="black" stroke-width="1"
        d="M 884.00,492.70
           C 879.66,494.70 876.89,496.96 876.23,502.00
             875.25,509.39 881.28,516.56 889.00,514.34
             903.76,510.09 897.95,489.99 884.00,492.70 Z" />
  <path id="Azure Bay"
        fill="none" stroke="black" stroke-width="1"
        d="M 347.23,169.01
           C 339.30,173.62 351.26,181.18 355.00,184.20
             355.00,184.20 394.00,216.08 394.00,216.08
             396.86,218.45 405.50,226.56 409.00,226.09
             410.37,225.91 411.77,224.91 412.63,223.85
             416.48,219.09 408.30,214.25 405.00,211.66
             405.00,211.66 365.00,180.13 365.00,180.13
             360.41,176.68 352.78,169.40 347.23,169.01 Z" />
  <path id="Route 22"
        fill="none" stroke="black" stroke-width="1"
        d="M 917.00,455.00
           C 908.04,458.81 891.13,460.71 881.00,462.13
             852.62,466.12 840.70,467.00 812.00,467.00
             812.00,467.00 813.00,480.00 813.00,480.00
             822.55,476.53 834.80,475.29 845.00,473.87
             869.66,470.45 894.14,470.00 919.00,470.00
             919.00,470.00 917.00,455.00 917.00,455.00 Z" />
  <path id="Route 21"
        fill="none" stroke="black" stroke-width="1"
        d="M 960.00,456.00
           C 960.00,456.00 959.00,468.96 959.00,468.96
             959.00,468.96 972.00,468.96 972.00,468.96
             972.00,468.96 982.00,468.00 982.00,468.00
             982.00,468.00 1011.00,468.00 1011.00,468.00
             1011.00,468.00 1029.00,469.00 1029.00,469.00
             1029.00,469.00 1056.00,472.00 1056.00,472.00
             1056.00,472.00 1058.00,459.00 1058.00,459.00
             1058.00,459.00 1023.00,461.00 1023.00,461.00
             1000.18,461.04 982.57,460.25 960.00,456.00 Z" />
  <path id="Route 20"
        fill="none" stroke="black" stroke-width="1"
        d="M 1070.00,493.00
           C 1064.33,518.17 1059.91,540.29 1051.65,565.00
             1051.65,565.00 1044.40,585.00 1044.40,585.00
             1041.41,592.40 1035.68,603.84 1034.00,611.00
             1034.00,611.00 1048.00,617.00 1048.00,617.00
             1047.39,609.84 1054.28,586.05 1056.58,578.00
             1064.94,548.67 1071.52,523.41 1086.00,496.00
             1086.00,496.00 1070.00,493.00 1070.00,493.00 Z" />
  <path id="Route 19"
        fill="none" stroke="black" stroke-width="1"
        d="M 1167.00,397.00
           C 1167.00,397.00 1151.00,412.96 1151.00,412.96
             1142.99,420.71 1127.53,432.90 1118.00,438.81
             1112.64,442.13 1107.16,446.49 1101.00,448.00
             1101.00,448.00 1109.00,460.00 1109.00,460.00
             1123.44,443.25 1155.84,418.70 1176.00,409.00
             1176.00,409.00 1176.00,407.00 1176.00,407.00
             1176.00,407.00 1167.00,397.00 1167.00,397.00 Z" />
  <path id="Route 18"
        fill="none" stroke="black" stroke-width="1"
        d="M 1148.00,328.00
           C 1148.00,328.00 1140.00,342.00 1140.00,342.00
             1152.53,349.14 1162.03,355.44 1170.00,368.00
             1170.00,368.00 1183.00,361.00 1183.00,361.00
             1179.20,359.44 1176.99,359.88 1173.00,357.52
             1166.79,353.85 1155.23,341.26 1151.48,335.00
             1151.48,335.00 1148.00,328.00 1148.00,328.00 Z" />
  <path id="Route 17"
        fill="none" stroke="black" stroke-width="1"
        d="M 903.00,250.00
           C 903.00,250.00 900.00,265.00 900.00,265.00
             900.00,265.00 978.00,283.12 978.00,283.12
             1014.33,292.66 1060.82,305.50 1095.00,320.00
             1095.31,313.67 1096.34,311.64 1099.00,306.00
             1099.00,306.00 1061.00,298.12 1061.00,298.12
             1061.00,298.12 976.00,274.72 976.00,274.72
             959.56,269.79 916.90,256.55 903.00,250.00 Z" />
  <path id="Route 16"
        fill="none" stroke="black" stroke-width="1"
        d="M 718.00,290.00
           C 718.00,290.00 722.00,305.00 722.00,305.00
             722.00,305.00 792.00,281.04 792.00,281.04
             792.00,281.04 802.00,278.57 802.00,278.57
             814.99,274.91 840.03,268.60 853.00,268.00
             853.00,268.00 850.00,257.00 850.00,257.00
             850.00,257.00 815.00,267.98 815.00,267.98
             815.00,267.98 751.00,284.42 751.00,284.42
             743.14,286.16 725.27,290.61 718.00,290.00 Z" />
  <path id="Route 15"
        fill="none" stroke="black" stroke-width="1"
        d="M 685.00,101.00
           C 685.00,101.00 678.00,116.00 678.00,116.00
             678.00,116.00 708.00,134.19 708.00,134.19
             742.62,155.44 774.75,180.28 807.00,204.88
             807.00,204.88 838.00,230.00 838.00,230.00
             842.56,233.68 846.85,238.56 852.00,241.00
             854.40,236.11 855.60,234.32 860.00,231.00
             860.00,231.00 840.00,217.28 840.00,217.28
             840.00,217.28 797.00,187.28 797.00,187.28
             766.48,165.85 735.97,143.89 707.00,120.39
             707.00,120.39 685.00,101.00 685.00,101.00 Z" />
  <path id="Route 14"
        fill="none" stroke="black" stroke-width="1"
        d="M 652.00,122.00
           C 653.39,132.51 654.98,143.41 655.00,154.00
             655.00,154.00 655.00,205.00 655.00,205.00
             655.00,218.75 656.13,239.27 652.00,252.00
             652.00,252.00 667.00,251.00 667.00,251.00
             667.00,251.00 665.00,220.00 665.00,220.00
             665.00,220.00 665.00,173.00 665.00,173.00
             665.00,173.00 664.00,156.00 664.00,156.00
             663.98,144.63 664.96,133.18 667.00,122.00
             659.81,123.29 659.19,123.29 652.00,122.00 Z" />
  <path id="Route 13"
        fill="none" stroke="black" stroke-width="1"
        d="M 467.00,250.00
           C 466.82,258.17 465.33,259.85 462.00,267.00
             472.37,267.09 494.20,272.19 505.00,274.58
             505.00,274.58 566.00,289.72 566.00,289.72
             566.00,289.72 601.00,302.00 601.00,302.00
             601.00,302.00 604.00,289.00 604.00,289.00
             581.27,286.00 548.42,278.22 526.00,272.15
             509.61,267.71 481.13,258.53 467.00,250.00 Z" />
  <path id="Route 12"
        fill="none" stroke="black" stroke-width="1"
        d="M 411.00,248.00
           C 402.48,251.94 369.60,260.22 359.00,262.65
             359.00,262.65 320.00,271.55 320.00,271.55
             320.00,271.55 267.00,280.75 267.00,280.75
             267.00,280.75 229.00,286.09 229.00,286.09
             221.22,286.66 219.90,288.33 212.00,285.00
             216.84,294.16 217.97,295.42 218.00,306.00
             222.09,299.97 227.16,299.94 234.00,298.42
             234.00,298.42 265.00,291.12 265.00,291.12
             299.43,282.95 333.97,274.89 369.00,269.73
             380.30,268.06 405.68,263.38 416.00,265.00
             416.00,265.00 411.00,248.00 411.00,248.00 Z" />
  <path id="Route 11"
        fill="none" stroke="black" stroke-width="1"
        d="M 142.00,348.00
           C 137.03,354.44 127.55,369.39 121.00,373.00
             121.00,373.00 129.00,377.13 129.00,377.13
             129.00,377.13 137.00,383.00 137.00,383.00
             136.54,381.53 136.05,380.65 136.12,379.00
             136.33,373.27 147.30,358.98 151.00,354.00
             151.00,354.00 142.00,348.00 142.00,348.00 Z" />
  <path id="Route 10"
        fill="none" stroke="black" stroke-width="1"
        d="M 142.00,406.00
           C 137.38,414.11 136.85,417.00 129.00,423.00
             129.00,423.00 137.00,425.88 137.00,425.88
             137.00,425.88 152.00,433.43 152.00,433.43
             168.20,442.75 185.97,459.00 197.00,474.00
             197.00,474.00 206.00,460.00 206.00,460.00
             182.08,449.71 155.28,428.43 142.00,406.00 Z
           M 207.00,460.00
           C 207.00,460.00 207.00,461.00 207.00,461.00
             207.00,461.00 208.00,460.00 208.00,460.00
             208.00,460.00 207.00,460.00 207.00,460.00 Z" />
  <path id="Route 9"
        fill="none" stroke="black" stroke-width="1"
        d="M 314.00,629.00
           C 315.22,635.80 315.22,636.20 314.00,643.00
             323.59,640.67 351.19,640.00 362.00,640.00
             362.00,640.00 420.00,640.00 420.00,640.00
             420.00,640.00 443.00,641.00 443.00,641.00
             443.00,641.00 442.00,629.00 442.00,629.00
             436.68,630.29 436.72,629.70 432.00,630.29
             432.00,630.29 422.00,631.83 422.00,631.83
             422.00,631.83 380.00,633.00 380.00,633.00
             355.65,633.00 338.14,634.43 314.00,629.00 Z" />
  <path id="Route 8"
        fill="none" stroke="black" stroke-width="1"
        d="M 237.00,504.00
           C 231.52,507.00 229.23,507.71 223.00,508.00
             231.31,517.43 238.44,532.35 243.42,544.00
             253.58,567.75 260.77,592.26 268.00,617.00
             268.00,617.00 283.00,610.00 283.00,610.00
             276.04,602.02 269.56,586.93 265.14,577.00
             265.14,577.00 244.05,527.00 244.05,527.00
             244.05,527.00 237.00,504.00 237.00,504.00 Z" />
  <path id="Route 7"
        fill="none" stroke="black" stroke-width="1"
        d="M 304.00,477.00
           C 304.00,477.00 304.00,485.00 304.00,485.00
             304.00,485.00 320.00,486.00 320.00,486.00
             320.00,486.00 333.00,485.00 333.00,485.00
             333.00,485.00 379.00,485.00 379.00,485.00
             379.00,485.00 396.00,486.00 396.00,486.00
             396.00,486.00 421.00,486.00 421.00,486.00
             421.00,486.00 438.00,487.00 438.00,487.00
             438.00,487.00 473.00,489.00 473.00,489.00
             473.00,489.00 482.00,489.00 482.00,489.00
             482.00,489.00 497.00,491.00 497.00,491.00
             497.00,491.00 499.00,474.00 499.00,474.00
             499.00,474.00 449.00,476.00 449.00,476.00
             449.00,476.00 432.00,477.00 432.00,477.00
             432.00,477.00 391.00,477.00 391.00,477.00
             391.00,477.00 378.00,478.00 378.00,478.00
             378.00,478.00 353.00,478.00 353.00,478.00
             353.00,478.00 337.00,477.00 337.00,477.00
             337.00,477.00 304.00,477.00 304.00,477.00 Z" />
  <path id="Route 6"
        fill="none" stroke="black" stroke-width="1"
        d="M 396.00,379.00
           C 396.00,379.00 390.00,392.00 390.00,392.00
             390.00,392.00 424.00,414.00 424.00,414.00
             424.00,414.00 470.00,446.47 470.00,446.47
             470.00,446.47 500.00,473.00 500.00,473.00
             503.14,467.62 506.62,464.14 512.00,461.00
             512.00,461.00 500.00,455.69 500.00,455.69
             485.19,447.67 445.76,419.91 432.00,409.00
             432.00,409.00 407.00,388.58 407.00,388.58
             403.39,385.45 400.04,381.26 396.00,379.00 Z" />
  <path id="Route 5"
        fill="none" stroke="black" stroke-width="1"
        d="M 619.00,357.00
           C 612.20,369.11 599.29,386.84 590.65,398.00
             573.32,420.41 554.42,441.59 532.00,459.00
             538.31,463.29 540.10,463.22 545.00,470.00
             555.76,451.80 589.57,409.80 604.28,393.00
             611.47,384.79 624.95,371.95 630.00,364.00
             630.00,364.00 619.00,357.00 619.00,357.00 Z" />
  <path id="Route 4"
        fill="none" stroke="black" stroke-width="1"
        d="M 704.00,355.00
           C 704.00,355.00 694.00,363.00 694.00,363.00
             696.97,367.15 698.59,368.40 701.83,372.00
             701.83,372.00 712.60,385.00 712.60,385.00
             712.60,385.00 745.33,430.00 745.33,430.00
             749.90,436.79 761.22,453.73 763.00,461.00
             769.28,455.59 768.83,454.65 777.00,451.00
             777.00,451.00 762.17,436.00 762.17,436.00
             762.17,436.00 735.88,403.00 735.88,403.00
             735.88,403.00 714.69,372.00 714.69,372.00
             714.69,372.00 704.00,355.00 704.00,355.00 Z" />
  <path id="Route 3"
        fill="none" stroke="black" stroke-width="1"
        d="M 810.00,487.00
           C 806.16,494.82 802.86,497.49 795.00,501.00
             802.81,505.09 811.14,507.26 817.47,514.30
             821.26,518.51 824.84,527.60 827.00,533.00
             832.10,526.69 831.10,525.62 839.00,521.00
             839.00,521.00 822.32,508.96 822.32,508.96
             822.32,508.96 810.00,487.00 810.00,487.00 Z" />
  <path id="Route 2"
        fill="none" stroke="black" stroke-width="1"
        d="M 839.00,562.00
           C 843.33,575.31 842.87,585.63 839.00,599.00
             839.00,599.00 852.00,598.00 852.00,598.00
             849.17,582.99 847.15,576.54 854.00,562.00
             854.00,562.00 839.00,562.00 839.00,562.00 Z" />
  <path id="Route 1"
        fill="none" stroke="black" stroke-width="1"
        d="M 840.00,652.00
           C 840.00,652.00 842.91,670.00 842.91,670.00
             843.38,678.25 840.80,686.12 839.00,694.00
             839.00,694.00 854.00,693.00 854.00,693.00
             848.54,679.27 848.40,667.05 853.00,653.00
             853.00,653.00 840.00,652.00 840.00,652.00 Z" />
  <path id="asd"
        fill="none" stroke="black" stroke-width="1"
        d="M 209.00,140.00
           C 209.00,140.00 210.00,150.00 210.00,150.00
             210.00,150.00 213.00,150.00 213.00,150.00
             213.00,150.00 214.00,140.00 214.00,140.00
             214.00,140.00 209.00,140.00 209.00,140.00 Z" />
</svg>
