<?xml version="1.0" encoding="UTF-8" standalone="no"?>
<!DOCTYPE svg PUBLIC "-//W3C//DTD SVG 20010904//EN"
              "http://www.w3.org/TR/2001/REC-SVG-20010904/DTD/svg10.dtd">

<svg xmlns="http://www.w3.org/2000/svg"
     width="16.9444in" height="9.15278in"
     viewBox="0 0 1220 659">
  <path id="Seafoam Islands"
        fill="none" stroke="black" stroke-width="1"
        d="M 265.00,610.70
           C 259.18,613.33 254.65,618.22 254.65,625.00
             254.65,635.33 265.38,642.56 275.00,639.30
             286.71,635.34 288.80,620.11 278.82,612.76
             274.45,609.55 270.07,609.56 265.00,610.70 Z" />
  <path id="Viridian Forest"
        fill="none" stroke="black" stroke-width="1"
        d="M 145.00,210.70
           C 139.18,213.33 134.65,218.22 134.65,225.00
             134.65,235.33 145.38,242.56 155.00,239.30
             166.71,235.34 168.80,220.11 158.82,212.76
             154.45,209.55 150.07,209.56 145.00,210.70 Z" />
  <path id="Victory Road"
        fill="none" stroke="black" stroke-width="1"
        d="M 65.00,170.70
           C 59.18,173.33 54.65,178.22 54.65,185.00
             54.65,195.33 65.38,202.56 75.00,199.30
             86.71,195.34 88.80,180.11 78.82,172.76
             74.45,169.55 70.07,169.56 65.00,170.70 Z" />
  <path id="Diglett&apos;s Cave"
        fill="none" stroke="black" stroke-width="1"
        d="M 185.00,170.70
           C 179.18,173.33 174.65,178.22 174.65,185.00
             174.65,195.33 185.38,202.56 195.00,199.30
             206.71,195.34 208.80,180.11 198.82,172.76
             194.45,169.55 190.07,169.56 185.00,170.70 Z" />
  <path id="Mt. Moon"
        fill="none" stroke="black" stroke-width="1"
        d="M 305.00,90.70
           C 299.18,93.33 294.65,98.22 294.65,105.00
             294.65,115.33 305.38,122.56 315.00,119.30
             326.71,115.34 328.80,100.11 318.82,92.76
             314.45,89.55 310.07,89.56 305.00,90.70 Z" />
  <path id="Rock Tunnel"
        fill="none" stroke="black" stroke-width="1"
        d="M 625.00,130.70
           C 619.18,133.33 614.65,138.22 614.65,145.00
             614.65,155.33 625.38,162.56 635.00,159.30
             646.71,155.34 648.80,140.11 638.82,132.76
             634.45,129.55 630.07,129.56 625.00,130.70 Z" />
  <path id="Power Plant"
        fill="none" stroke="black" stroke-width="1"
        d="M 665.00,170.70
           C 659.18,173.33 654.65,178.22 654.65,185.00
             654.65,195.33 665.38,202.56 675.00,199.30
             685.05,195.90 688.73,182.44 681.35,174.61
             676.96,169.94 670.89,169.37 665.00,170.70 Z" />
  <path id="Lavender Town"
        fill="none" stroke="black" stroke-width="1"
        d="M 615.00,210.00
           C 615.00,210.00 615.00,240.00 615.00,240.00
             615.00,240.00 645.00,240.00 645.00,240.00
             645.00,240.00 645.00,210.00 645.00,210.00
             645.00,210.00 615.00,210.00 615.00,210.00 Z" />
  <path id="Saffron City"
        fill="none" stroke="black" stroke-width="1"
        d="M 455.00,210.00
           C 455.00,210.00 455.00,240.00 455.00,240.00
             455.00,240.00 485.00,240.00 485.00,240.00
             485.00,240.00 485.00,210.00 485.00,210.00
             485.00,210.00 455.00,210.00 455.00,210.00 Z" />
  <path id="Cerulean City"
        fill="none" stroke="black" stroke-width="1"
        d="M 455.00,90.00
           C 455.00,90.00 455.00,120.00 455.00,120.00
             455.00,120.00 485.00,120.00 485.00,120.00
             485.00,120.00 485.00,90.00 485.00,90.00
             485.00,90.00 455.00,90.00 455.00,90.00 Z" />
  <path id="Indigo Plateau"
        fill="none" stroke="black" stroke-width="1"
        d="M 55.00,90.00
           C 55.00,90.00 55.00,120.00 55.00,120.00
             55.00,120.00 85.00,120.00 85.00,120.00
             85.00,120.00 85.00,90.00 85.00,90.00
             85.00,90.00 55.00,90.00 55.00,90.00 Z" />
  <path id="Pewter City"
        fill="none" stroke="black" stroke-width="1"
        d="M 135.00,130.00
           C 135.00,130.00 135.00,160.00 135.00,160.00
             135.00,160.00 165.00,160.00 165.00,160.00
             165.00,160.00 165.00,130.00 165.00,130.00
             165.00,130.00 135.00,130.00 135.00,130.00 Z" />
  <path id="Viridian City"
        fill="none" stroke="black" stroke-width="1"
        d="M 135.00,330.00
           C 135.00,330.00 135.00,360.00 135.00,360.00
             135.00,360.00 165.00,360.00 165.00,360.00
             165.00,360.00 165.00,330.00 165.00,330.00
             165.00,330.00 135.00,330.00 135.00,330.00 Z" />
  <path id="Pallet Town"
        fill="none" stroke="black" stroke-width="1"
        d="M 135.00,450.00
           C 135.00,450.00 135.00,480.00 135.00,480.00
             135.00,480.00 165.00,480.00 165.00,480.00
             165.00,480.00 165.00,450.00 165.00,450.00
             165.00,450.00 135.00,450.00 135.00,450.00 Z" />
  <path id="Cinnabar Island"
        fill="none" stroke="black" stroke-width="1"
        d="M 135.00,610.00
           C 135.00,610.00 135.00,640.00 135.00,640.00
             135.00,640.00 165.00,640.00 165.00,640.00
             165.00,640.00 165.00,610.00 165.00,610.00
             165.00,610.00 135.00,610.00 135.00,610.00 Z" />
  <path id="Fuchsia City"
        fill="none" stroke="black" stroke-width="1"
        d="M 375.00,530.00
           C 375.00,530.00 375.00,560.00 375.00,560.00
             375.00,560.00 405.00,560.00 405.00,560.00
             405.00,560.00 405.00,530.00 405.00,530.00
             405.00,530.00 375.00,530.00 375.00,530.00 Z" />
  <path id="Vermilion City"
        fill="none" stroke="black" stroke-width="1"
        d="M 455.00,370.00
           C 455.00,370.00 455.00,400.00 455.00,400.00
             455.00,400.00 485.00,400.00 485.00,400.00
             485.00,400.00 485.00,370.00 485.00,370.00
             485.00,370.00 455.00,370.00 455.00,370.00 Z" />
  <path id="Celadon City"
        fill="none" stroke="black" stroke-width="1"
        d="M 335.00,210.00
           C 335.00,210.00 335.00,240.00 335.00,240.00
             335.00,240.00 365.00,240.00 365.00,240.00
             365.00,240.00 365.00,210.00 365.00,210.00
             365.00,210.00 335.00,210.00 335.00,210.00 Z" />
  <path id="Route 21"
        fill="none" stroke="black" stroke-width="1"
        d="M 140.00,486.00
           C 140.00,486.00 140.60,508.69 140.60,508.69
             140.60,508.69 144.00,511.00 144.00,511.00
             144.00,511.00 144.00,579.00 144.00,579.00
             144.00,579.00 140.60,581.31 140.60,581.31
             140.60,581.31 140.00,604.00 140.00,604.00
             140.00,604.00 160.00,604.00 160.00,604.00
             160.00,604.00 159.40,581.31 159.40,581.31
             159.40,581.31 156.00,579.00 156.00,579.00
             156.00,579.00 156.00,511.00 156.00,511.00
             156.00,511.00 159.40,508.69 159.40,508.69
             159.40,508.69 160.00,486.00 160.00,486.00
             160.00,486.00 140.00,486.00 140.00,486.00 Z" />
  <path id="Route 20"
        fill="none" stroke="black" stroke-width="1"
        d="M 171.00,615.00
           C 171.00,615.00 171.00,635.00 171.00,635.00
             171.00,635.00 195.00,635.00 195.00,635.00
             199.64,634.99 202.29,635.87 204.00,631.00
             204.00,631.00 380.00,631.00 380.00,631.00
             380.00,631.00 380.00,619.00 380.00,619.00
             380.00,619.00 204.00,619.00 204.00,619.00
             202.55,614.86 201.15,615.08 197.00,615.00
             197.00,615.00 171.00,615.00 171.00,615.00 Z" />
  <path id="Route 19"
        fill="none" stroke="black" stroke-width="1"
        d="M 380.00,566.00
           C 380.00,566.00 380.00,590.00 380.00,590.00
             380.01,594.64 379.13,597.29 384.00,599.00
             384.00,599.00 384.00,619.00 384.00,619.00
             384.00,619.00 380.00,619.00 380.00,619.00
             380.00,619.00 380.00,631.00 380.00,631.00
             380.00,631.00 396.00,631.00 396.00,631.00
             396.00,631.00 396.00,599.00 396.00,599.00
             400.14,597.55 399.92,596.15 400.00,592.00
             400.00,592.00 400.00,566.00 400.00,566.00
             400.00,566.00 380.00,566.00 380.00,566.00 Z" />
  <path id="Route 25"
        fill="none" stroke="black" stroke-width="1"
        d="M 481.00,15.00
           C 481.00,15.00 481.00,35.00 481.00,35.00
             481.00,35.00 538.00,35.00 538.00,35.00
             553.98,35.00 555.84,36.37 556.00,28.00
             556.00,28.00 556.00,22.00 556.00,22.00
             555.84,13.63 553.98,15.00 538.00,15.00
             538.00,15.00 481.00,15.00 481.00,15.00 Z" />
  <path id="Route 24"
        fill="none" stroke="black" stroke-width="1"
        d="M 460.00,84.00
           C 460.00,84.00 480.00,84.00 480.00,84.00
             480.00,84.00 480.00,45.00 480.00,45.00
             480.00,45.00 481.00,29.00 481.00,29.00
             481.00,29.00 481.00,15.00 481.00,15.00
             481.00,15.00 469.00,15.00 469.00,15.00
             460.36,15.02 460.02,15.36 460.00,24.00
             460.00,24.00 460.00,84.00 460.00,84.00 Z" />
  <path id="Route 23"
        fill="none" stroke="black" stroke-width="1"
        d="M 60.00,126.00
           C 60.00,126.00 60.00,334.00 60.00,334.00
             60.00,334.00 80.00,334.00 80.00,334.00
             80.00,334.00 80.00,126.00 80.00,126.00
             80.00,126.00 60.00,126.00 60.00,126.00 Z" />
  <path id="Route 22"
        fill="none" stroke="black" stroke-width="1"
        d="M 60.00,334.00
           C 60.00,334.00 60.00,346.00 60.00,346.00
             60.02,354.64 60.36,354.98 69.00,355.00
             69.00,355.00 129.00,355.00 129.00,355.00
             129.00,355.00 129.00,335.00 129.00,335.00
             129.00,335.00 90.00,335.00 90.00,335.00
             90.00,335.00 74.00,334.00 74.00,334.00
             74.00,334.00 60.00,334.00 60.00,334.00 Z" />
  <path id="Route 18"
        fill="none" stroke="black" stroke-width="1"
        d="M 224.00,535.00
           C 224.00,535.00 224.00,551.00 224.00,551.00
             224.00,551.00 304.00,551.00 304.00,551.00
             304.00,551.00 305.59,553.98 305.59,553.98
             305.59,553.98 320.00,555.00 320.00,555.00
             320.00,555.00 369.00,555.00 369.00,555.00
             369.00,555.00 369.00,535.00 369.00,535.00
             369.00,535.00 320.00,535.00 320.00,535.00
             320.00,535.00 305.59,536.02 305.59,536.02
             305.59,536.02 304.00,539.00 304.00,539.00
             304.00,539.00 236.00,539.00 236.00,539.00
             236.00,539.00 236.00,535.00 236.00,535.00
             236.00,535.00 224.00,535.00 224.00,535.00 Z" />
  <path id="Route 17"
        fill="none" stroke="black" stroke-width="1"
        d="M 220.00,236.00
           C 220.00,236.00 220.00,390.00 220.00,390.00
             220.00,390.00 220.00,431.00 220.00,431.00
             220.03,435.46 219.45,437.41 224.00,439.00
             224.00,439.00 224.00,535.00 224.00,535.00
             224.00,535.00 236.00,535.00 236.00,535.00
             236.00,535.00 236.00,439.00 236.00,439.00
             240.87,437.29 239.99,434.64 240.00,430.00
             240.00,430.00 240.00,390.00 240.00,390.00
             240.00,390.00 240.00,236.00 240.00,236.00
             240.00,236.00 220.00,236.00 220.00,236.00 Z" />
  <path id="Route 16"
        fill="none" stroke="black" stroke-width="1"
        d="M 220.00,235.98
           C 220.00,235.98 237.00,235.98 237.00,235.98
             237.00,235.98 248.00,235.00 248.00,235.00
             248.00,235.00 329.00,235.00 329.00,235.00
             329.00,235.00 329.00,215.00 329.00,215.00
             329.00,215.00 229.00,215.00 229.00,215.00
             227.01,215.00 223.19,214.77 221.60,216.02
             219.05,218.04 220.00,232.32 220.00,235.98 Z" />
  <path id="Route 15"
        fill="none" stroke="black" stroke-width="1"
        d="M 411.00,535.00
           C 411.00,535.00 411.00,555.00 411.00,555.00
             411.00,555.00 499.00,555.00 499.00,555.00
             499.00,555.00 499.00,535.00 499.00,535.00
             499.00,535.00 411.00,535.00 411.00,535.00 Z" />
  <path id="Route 14"
        fill="none" stroke="black" stroke-width="1"
        d="M 499.00,555.00
           C 499.00,555.00 511.00,555.00 511.00,555.00
             511.00,555.00 518.40,553.98 518.40,553.98
             518.40,553.98 520.00,548.00 520.00,548.00
             520.00,548.00 520.00,532.00 520.00,532.00
             520.00,532.00 520.00,485.00 520.00,485.00
             520.00,485.00 521.00,469.00 521.00,469.00
             521.00,469.00 521.00,455.00 521.00,455.00
             521.00,455.00 509.00,455.00 509.00,455.00
             509.00,455.00 501.60,456.02 501.60,456.02
             501.60,456.02 500.00,462.00 500.00,462.00
             500.00,462.00 500.00,478.00 500.00,478.00
             500.00,478.00 500.00,525.00 500.00,525.00
             500.00,525.00 499.00,541.00 499.00,541.00
             499.00,541.00 499.00,555.00 499.00,555.00 Z" />
  <path id="Route 13"
        fill="none" stroke="black" stroke-width="1"
        d="M 521.00,455.00
           C 521.00,455.00 521.00,475.00 521.00,475.00
             521.00,475.00 631.00,475.00 631.00,475.00
             632.99,475.00 636.81,475.23 638.40,473.98
             640.95,471.96 640.00,457.68 640.00,454.02
             640.00,454.02 623.00,454.02 623.00,454.02
             623.00,454.02 612.00,455.00 612.00,455.00
             612.00,455.00 521.00,455.00 521.00,455.00 Z" />
  <path id="Route 12"
        fill="none" stroke="black" stroke-width="1"
        d="M 620.00,246.00
           C 620.00,246.00 620.00,365.00 620.00,365.00
             620.00,365.00 619.05,380.00 619.05,380.00
             619.05,380.00 619.05,393.00 619.05,393.00
             619.05,393.00 620.00,405.00 620.00,405.00
             620.00,405.00 620.00,454.00 620.00,454.00
             620.00,454.00 640.00,454.00 640.00,454.00
             640.00,454.00 640.00,246.00 640.00,246.00
             640.00,246.00 620.00,246.00 620.00,246.00 Z" />
  <path id="Route 11"
        fill="none" stroke="black" stroke-width="1"
        d="M 491.00,375.00
           C 491.00,375.00 491.00,395.00 491.00,395.00
             491.00,395.00 619.00,395.00 619.00,395.00
             619.00,395.00 619.00,375.00 619.00,375.00
             619.00,375.00 491.00,375.00 491.00,375.00 Z" />
  <path id="Route 10"
        fill="none" stroke="black" stroke-width="1"
        d="M 619.04,95.00
           C 619.04,95.00 619.04,112.00 619.04,112.00
             619.04,112.00 620.00,122.00 620.00,122.00
             620.00,122.00 620.00,204.00 620.00,204.00
             620.00,204.00 640.00,204.00 640.00,204.00
             640.00,204.00 640.00,104.00 640.00,104.00
             640.00,102.01 640.23,98.19 638.98,96.60
             636.96,94.05 622.68,95.00 619.04,95.00 Z" />
  <path id="Route 9"
        fill="none" stroke="black" stroke-width="1"
        d="M 491.00,95.00
           C 491.00,95.00 491.00,115.00 491.00,115.00
             491.00,115.00 619.00,115.00 619.00,115.00
             619.00,115.00 619.00,95.00 619.00,95.00
             619.00,95.00 491.00,95.00 491.00,95.00 Z" />
  <path id="Route 8"
        fill="none" stroke="black" stroke-width="1"
        d="M 491.00,215.00
           C 491.00,215.00 491.00,235.00 491.00,235.00
             491.00,235.00 609.00,235.00 609.00,235.00
             609.00,235.00 609.00,215.00 609.00,215.00
             609.00,215.00 491.00,215.00 491.00,215.00 Z" />
  <path id="Route 7"
        fill="none" stroke="black" stroke-width="1"
        d="M 371.00,215.00
           C 371.00,215.00 371.00,235.00 371.00,235.00
             371.00,235.00 449.00,235.00 449.00,235.00
             449.00,235.00 449.00,215.00 449.00,215.00
             449.00,215.00 371.00,215.00 371.00,215.00 Z" />
  <path id="Route 6"
        fill="none" stroke="black" stroke-width="1"
        d="M 460.00,246.00
           C 460.00,246.00 460.00,364.00 460.00,364.00
             460.00,364.00 480.00,364.00 480.00,364.00
             480.00,364.00 480.00,246.00 480.00,246.00
             480.00,246.00 460.00,246.00 460.00,246.00 Z" />
  <path id="Route 5"
        fill="none" stroke="black" stroke-width="1"
        d="M 460.00,126.00
           C 460.00,126.00 460.00,204.00 460.00,204.00
             460.00,204.00 480.00,204.00 480.00,204.00
             480.00,204.00 480.00,126.00 480.00,126.00
             480.00,126.00 460.00,126.00 460.00,126.00 Z" />
  <path id="Route 4"
        fill="none" stroke="black" stroke-width="1"
        d="M 260.00,134.00
           C 260.00,134.00 280.00,134.00 280.00,134.00
             280.00,134.00 280.00,125.00 280.00,125.00
             280.00,125.00 281.60,116.60 281.60,116.60
             281.60,116.60 290.00,115.00 290.00,115.00
             290.00,115.00 319.00,115.00 319.00,115.00
             319.00,115.00 449.00,115.00 449.00,115.00
             449.00,115.00 449.00,95.00 449.00,95.00
             449.00,95.00 269.00,95.00 269.00,95.00
             269.00,95.00 261.02,96.60 261.02,96.60
             261.02,96.60 260.00,107.00 260.00,107.00
             260.00,107.00 260.00,134.00 260.00,134.00 Z" />
  <path id="Route 3"
        fill="none" stroke="black" stroke-width="1"
        d="M 171.00,135.00
           C 171.00,135.00 171.00,155.00 171.00,155.00
             171.00,155.00 271.00,155.00 271.00,155.00
             272.99,155.00 276.81,155.23 278.40,153.98
             280.95,151.96 280.00,137.68 280.00,134.02
             280.00,134.02 263.00,134.02 263.00,134.02
             263.00,134.02 252.00,135.00 252.00,135.00
             252.00,135.00 171.00,135.00 171.00,135.00 Z" />
  <path id="Route 2"
        fill="none" stroke="black" stroke-width="1"
        d="M 140.00,166.00
           C 140.00,166.00 140.00,324.00 140.00,324.00
             140.00,324.00 160.00,324.00 160.00,324.00
             160.00,324.00 160.00,166.00 160.00,166.00
             160.00,166.00 140.00,166.00 140.00,166.00 Z" />
  <path id="Route 1"
        fill="none" stroke="black" stroke-width="1"
        d="M 140.00,366.00
           C 140.00,366.00 140.00,444.00 140.00,444.00
             140.00,444.00 160.00,444.00 160.00,444.00
             160.00,444.00 160.00,366.00 160.00,366.00
             160.00,366.00 140.00,366.00 140.00,366.00 Z" />
</svg>
