<?xml version="1.0" encoding="UTF-8" standalone="no"?>
<!DOCTYPE svg PUBLIC "-//W3C//DTD SVG 20010904//EN"
              "http://www.w3.org/TR/2001/REC-SVG-20010904/DTD/svg10.dtd">

<svg xmlns="http://www.w3.org/2000/svg"
     width="16.9444in" height="9.15278in"
     viewBox="0 0 1220 659">
  <path id="Seafoam Islands"
        fill="none" stroke="black" stroke-width="1"
        d="M 265.00,610.70
           C 270.07,609.56 274.45,609.55 278.82,612.76
             288.80,620.11 286.71,635.34 275.00,639.30
             265.38,642.56 254.65,635.33 254.65,625.00
             254.65,618.22 259.18,613.33 265.00,610.70 Z" />
  <path id="Viridian Forest"
        fill="none" stroke="black" stroke-width="1"
        d="M 145.00,210.70
           C 150.07,209.56 154.45,209.55 158.82,212.76
             168.80,220.11 166.71,235.34 155.00,239.30
             145.38,242.56 134.65,235.33 134.65,225.00
             134.65,218.22 139.18,213.33 145.00,210.70 Z" />
  <path id="Victory Road"
        fill="none" stroke="black" stroke-width="1"
        d="M 65.00,170.70
           C 70.07,169.56 74.45,169.55 78.82,172.76
             88.80,180.11 86.71,195.34 75.00,199.30
             65.38,202.56 54.65,195.33 54.65,185.00
             54.65,178.22 59.18,173.33 65.00,170.70 Z" />
  <path id="Diglett&apos;s Cave"
        fill="none" stroke="black" stroke-width="1"
        d="M 185.00,170.70
           C 190.07,169.56 194.45,169.55 198.82,172.76
             208.80,180.11 206.71,195.34 195.00,199.30
             185.38,202.56 174.65,195.33 174.65,185.00
             174.65,178.22 179.18,173.33 185.00,170.70 Z" />
  <path id="Mt. Moon"
        fill="none" stroke="black" stroke-width="1"
        d="M 305.00,90.70
           C 310.07,89.56 314.45,89.55 318.82,92.76
             328.80,100.11 326.71,115.34 315.00,119.30
             305.38,122.56 294.65,115.33 294.65,105.00
             294.65,98.22 299.18,93.33 305.00,90.70 Z" />
  <path id="Rock Tunnel"
        fill="none" stroke="black" stroke-width="1"
        d="M 625.00,130.70
           C 630.07,129.56 634.45,129.55 638.82,132.76
             648.80,140.11 646.71,155.34 635.00,159.30
             625.38,162.56 614.65,155.33 614.65,145.00
             614.65,138.22 619.18,133.33 625.00,130.70 Z" />
  <path id="Power Plant"
        fill="none" stroke="black" stroke-width="1"
        d="M 665.00,170.70
           C 670.89,169.37 676.96,169.94 681.35,174.61
             688.73,182.44 685.05,195.90 675.00,199.30
             665.38,202.56 654.65,195.33 654.65,185.00
             654.65,178.22 659.18,173.33 665.00,170.70 Z" />
  <path id="Lavender Town"
        fill="none" stroke="black" stroke-width="1"
        d="M 615.00,210.00
           C 615.00,210.00 645.00,210.00 645.00,210.00
             645.00,210.00 645.00,240.00 645.00,240.00
             645.00,240.00 615.00,240.00 615.00,240.00
             615.00,240.00 615.00,210.00 615.00,210.00 Z" />
  <path id="Saffron City"
        fill="none" stroke="black" stroke-width="1"
        d="M 455.00,210.00
           C 455.00,210.00 485.00,210.00 485.00,210.00
             485.00,210.00 485.00,240.00 485.00,240.00
             485.00,240.00 455.00,240.00 455.00,240.00
             455.00,240.00 455.00,210.00 455.00,210.00 Z" />
  <path id="Cerulean City"
        fill="none" stroke="black" stroke-width="1"
        d="M 455.00,90.00
           C 455.00,90.00 485.00,90.00 485.00,90.00
             485.00,90.00 485.00,120.00 485.00,120.00
             485.00,120.00 455.00,120.00 455.00,120.00
             455.00,120.00 455.00,90.00 455.00,90.00 Z" />
  <path id="Indigo Plateau"
        fill="none" stroke="black" stroke-width="1"
        d="M 55.00,90.00
           C 55.00,90.00 85.00,90.00 85.00,90.00
             85.00,90.00 85.00,120.00 85.00,120.00
             85.00,120.00 55.00,120.00 55.00,120.00
             55.00,120.00 55.00,90.00 55.00,90.00 Z" />
  <path id="Pewter City"
        fill="none" stroke="black" stroke-width="1"
        d="M 135.00,130.00
           C 135.00,130.00 165.00,130.00 165.00,130.00
             165.00,130.00 165.00,160.00 165.00,160.00
             165.00,160.00 135.00,160.00 135.00,160.00
             135.00,160.00 135.00,130.00 135.00,130.00 Z" />
  <path id="Viridian City"
        fill="none" stroke="black" stroke-width="1"
        d="M 135.00,330.00
           C 135.00,330.00 165.00,330.00 165.00,330.00
             165.00,330.00 165.00,360.00 165.00,360.00
             165.00,360.00 135.00,360.00 135.00,360.00
             135.00,360.00 135.00,330.00 135.00,330.00 Z" />
  <path id="Pallet Town"
        fill="none" stroke="black" stroke-width="1"
        d="M 135.00,450.00
           C 135.00,450.00 165.00,450.00 165.00,450.00
             165.00,450.00 165.00,480.00 165.00,480.00
             165.00,480.00 135.00,480.00 135.00,480.00
             135.00,480.00 135.00,450.00 135.00,450.00 Z" />
  <path id="Cinnabar Island"
        fill="none" stroke="black" stroke-width="1"
        d="M 135.00,610.00
           C 135.00,610.00 165.00,610.00 165.00,610.00
             165.00,610.00 165.00,640.00 165.00,640.00
             165.00,640.00 135.00,640.00 135.00,640.00
             135.00,640.00 135.00,610.00 135.00,610.00 Z" />
  <path id="Fuchsia City"
        fill="none" stroke="black" stroke-width="1"
        d="M 375.00,530.00
           C 375.00,530.00 405.00,530.00 405.00,530.00
             405.00,530.00 405.00,560.00 405.00,560.00
             405.00,560.00 375.00,560.00 375.00,560.00
             375.00,560.00 375.00,530.00 375.00,530.00 Z" />
  <path id="Vermilion City"
        fill="none" stroke="black" stroke-width="1"
        d="M 455.00,370.00
           C 455.00,370.00 485.00,370.00 485.00,370.00
             485.00,370.00 485.00,400.00 485.00,400.00
             485.00,400.00 455.00,400.00 455.00,400.00
             455.00,400.00 455.00,370.00 455.00,370.00 Z" />
  <path id="Celadon City"
        fill="none" stroke="black" stroke-width="1"
        d="M 335.00,210.00
           C 335.00,210.00 365.00,210.00 365.00,210.00
             365.00,210.00 365.00,240.00 365.00,240.00
             365.00,240.00 335.00,240.00 335.00,240.00
             335.00,240.00 335.00,210.00 335.00,210.00 Z" />
  <path id="Route 21"
        fill="none" stroke="black" stroke-width="1"
        d="M 140.00,486.00
           C 140.00,486.00 160.00,486.00 160.00,486.00
             160.00,486.00 160.00,504.00 160.00,504.00
             160.00,504.00 158.40,509.98 158.40,509.98
             158.40,509.98 147.00,511.00 147.00,511.00
             147.00,511.00 141.02,509.40 141.02,509.40
             141.02,509.40 140.00,502.00 140.00,502.00
             140.00,502.00 140.00,486.00 140.00,486.00 Z
           M 147.15,516.03
           C 156.23,513.13 158.00,523.04 152.85,525.97
             147.53,529.01 140.16,522.20 147.15,516.03 Z
           M 147.15,532.03
           C 156.23,529.13 158.00,539.04 152.85,541.97
             147.53,545.01 140.16,538.20 147.15,532.03 Z
           M 147.15,548.03
           C 156.23,545.13 158.00,555.04 152.85,557.97
             147.53,561.01 140.16,554.20 147.15,548.03 Z
           M 147.15,564.03
           C 156.23,561.13 158.00,571.04 152.85,573.97
             147.53,577.01 140.16,570.20 147.15,564.03 Z
           M 140.00,604.00
           C 140.00,604.00 140.00,586.00 140.00,586.00
             140.15,578.37 141.85,578.93 152.00,579.00
             154.13,579.02 157.51,578.74 158.98,580.60
             160.23,582.19 160.00,586.01 160.00,588.00
             160.00,588.00 160.00,604.00 160.00,604.00
             160.00,604.00 140.00,604.00 140.00,604.00 Z" />
  <path id="Route 20"
        fill="none" stroke="black" stroke-width="1"
        d="M 171.00,615.00
           C 171.00,615.00 197.00,615.00 197.00,615.00
             204.63,615.15 204.07,616.85 204.00,627.00
             203.99,628.82 204.15,631.92 202.98,633.40
             201.51,635.26 198.13,634.98 196.00,635.00
             196.00,635.00 171.00,635.00 171.00,635.00
             171.00,635.00 171.00,615.00 171.00,615.00 Z
           M 211.15,620.03
           C 220.23,617.13 222.00,627.04 216.85,629.97
             211.53,633.01 204.16,626.20 211.15,620.03 Z
           M 227.15,620.03
           C 236.23,617.13 238.00,627.04 232.85,629.97
             227.53,633.01 220.16,626.20 227.15,620.03 Z
           M 250.00,630.00
           C 248.25,630.48 246.91,631.01 245.02,630.64
             239.88,629.63 238.84,623.50 242.31,620.60
             244.75,618.56 247.28,619.26 250.00,620.00
             250.00,620.00 250.00,630.00 250.00,630.00 Z
           M 290.00,620.00
           C 303.15,616.43 303.15,633.57 290.00,630.00
             290.00,630.00 290.00,620.00 290.00,620.00 Z
           M 307.15,620.03
           C 316.23,617.13 318.00,627.04 312.85,629.97
             307.53,633.01 300.16,626.20 307.15,620.03 Z
           M 323.15,620.03
           C 332.23,617.13 334.00,627.04 328.85,629.97
             323.53,633.01 316.16,626.20 323.15,620.03 Z
           M 339.15,620.03
           C 348.23,617.13 350.00,627.04 344.85,629.97
             339.53,633.01 332.16,626.20 339.15,620.03 Z
           M 355.15,620.03
           C 364.23,617.13 366.00,627.04 360.85,629.97
             355.53,633.01 348.16,626.20 355.15,620.03 Z
           M 371.15,620.03
           C 380.23,617.13 382.00,627.04 376.85,629.97
             371.53,633.01 364.16,626.20 371.15,620.03 Z" />
  <path id="Route 19"
        fill="none" stroke="black" stroke-width="1"
        d="M 380.00,566.00
           C 380.00,566.00 400.00,566.00 400.00,566.00
             400.00,566.00 400.00,592.00 400.00,592.00
             399.85,599.63 398.15,599.07 388.00,599.00
             386.18,598.99 383.08,599.15 381.60,597.98
             379.74,596.51 380.02,593.13 380.00,591.00
             380.00,591.00 380.00,566.00 380.00,566.00 Z
           M 387.15,604.03
           C 396.23,601.13 398.00,611.04 392.85,613.97
             387.53,617.01 380.16,610.20 387.15,604.03 Z
           M 387.15,620.03
           C 396.23,617.13 398.00,627.04 392.85,629.97
             387.53,633.01 380.16,626.20 387.15,620.03 Z" />
  <path id="Route 25"
        fill="none" stroke="black" stroke-width="1"
        d="M 481.00,15.00
           C 481.00,15.00 538.00,15.00 538.00,15.00
             553.98,15.00 555.84,13.63 556.00,22.00
             556.00,22.00 556.00,28.00 556.00,28.00
             555.84,36.37 553.98,35.00 538.00,35.00
             538.00,35.00 481.00,35.00 481.00,35.00
             481.00,35.00 481.00,15.00 481.00,15.00 Z" />
  <path id="Route 24"
        fill="none" stroke="black" stroke-width="1"
        d="M 460.00,84.00
           C 460.00,84.00 460.00,24.00 460.00,24.00
             460.02,15.36 460.36,15.02 469.00,15.00
             469.00,15.00 481.00,15.00 481.00,15.00
             481.00,15.00 481.00,29.00 481.00,29.00
             481.00,29.00 480.00,45.00 480.00,45.00
             480.00,45.00 480.00,84.00 480.00,84.00
             480.00,84.00 460.00,84.00 460.00,84.00 Z" />
  <path id="Route 23"
        fill="none" stroke="black" stroke-width="1"
        d="M 60.00,126.00
           C 60.00,126.00 80.00,126.00 80.00,126.00
             80.00,126.00 80.00,166.00 80.00,166.00
             72.27,164.62 67.49,164.19 60.00,167.00
             60.00,167.00 60.00,126.00 60.00,126.00 Z
           M 60.00,203.00
           C 67.18,205.69 72.82,205.69 80.00,203.00
             80.00,203.00 80.00,334.00 80.00,334.00
             80.00,334.00 60.00,334.00 60.00,334.00
             60.00,334.00 60.00,203.00 60.00,203.00 Z" />
  <path id="Route 22"
        fill="none" stroke="black" stroke-width="1"
        d="M 60.00,334.00
           C 60.00,334.00 74.00,334.00 74.00,334.00
             74.00,334.00 90.00,335.00 90.00,335.00
             90.00,335.00 129.00,335.00 129.00,335.00
             129.00,335.00 129.00,355.00 129.00,355.00
             129.00,355.00 69.00,355.00 69.00,355.00
             60.36,354.98 60.02,354.64 60.00,346.00
             60.00,346.00 60.00,334.00 60.00,334.00 Z" />
  <path id="Route 18"
        fill="none" stroke="black" stroke-width="1"
        d="M 369.00,555.00
           C 369.00,555.00 312.00,555.00 312.00,555.00
             303.39,554.94 303.79,553.74 304.00,542.00
             304.14,534.51 306.26,535.01 313.00,535.00
             313.00,535.00 369.00,535.00 369.00,535.00
             369.00,535.00 369.00,555.00 369.00,555.00 Z
           M 227.15,540.03
           C 236.23,537.13 238.00,547.04 232.85,549.97
             227.53,553.01 220.16,546.20 227.15,540.03 Z
           M 243.15,540.03
           C 252.23,537.13 254.00,547.04 248.85,549.97
             243.53,553.01 236.16,546.20 243.15,540.03 Z
           M 259.15,540.03
           C 268.23,537.13 270.00,547.04 264.85,549.97
             259.53,553.01 252.16,546.20 259.15,540.03 Z
           M 275.15,540.03
           C 284.23,537.13 286.00,547.04 280.85,549.97
             275.53,553.01 268.16,546.20 275.15,540.03 Z
           M 291.15,540.03
           C 300.23,537.13 302.00,547.04 296.85,549.97
             291.53,553.01 284.16,546.20 291.15,540.03 Z" />
  <path id="Route 17"
        fill="none" stroke="black" stroke-width="1"
        d="M 220.00,236.00
           C 220.00,236.00 240.00,236.00 240.00,236.00
             240.00,236.00 240.00,392.00 240.00,392.00
             240.00,392.00 240.00,432.00 240.00,432.00
             239.85,439.68 237.97,439.20 227.00,439.00
             219.51,438.86 220.01,436.74 220.00,430.00
             220.00,430.00 220.00,236.00 220.00,236.00 Z
           M 227.15,444.03
           C 236.23,441.13 238.00,451.04 232.85,453.97
             227.53,457.01 220.16,450.20 227.15,444.03 Z
           M 227.15,460.03
           C 236.23,457.13 238.00,467.04 232.85,469.97
             227.53,473.01 220.16,466.20 227.15,460.03 Z
           M 227.15,476.03
           C 236.23,473.13 238.00,483.04 232.85,485.97
             227.53,489.01 220.16,482.20 227.15,476.03 Z
           M 227.15,492.03
           C 236.23,489.13 238.00,499.04 232.85,501.97
             227.53,505.01 220.16,498.20 227.15,492.03 Z
           M 227.15,508.03
           C 236.23,505.13 238.00,515.04 232.85,517.97
             227.53,521.01 220.16,514.20 227.15,508.03 Z
           M 227.15,524.03
           C 236.23,521.13 238.00,531.04 232.85,533.97
             227.53,537.01 220.16,530.20 227.15,524.03 Z" />
  <path id="Route 16"
        fill="none" stroke="black" stroke-width="1"
        d="M 220.00,235.98
           C 220.00,232.32 219.05,218.04 221.60,216.02
             223.19,214.77 227.01,215.00 229.00,215.00
             229.00,215.00 329.00,215.00 329.00,215.00
             329.00,215.00 329.00,235.00 329.00,235.00
             329.00,235.00 248.00,235.00 248.00,235.00
             248.00,235.00 237.00,235.98 237.00,235.98
             237.00,235.98 220.00,235.98 220.00,235.98 Z" />
  <path id="Route 15"
        fill="none" stroke="black" stroke-width="1"
        d="M 411.00,535.00
           C 411.00,535.00 499.00,535.00 499.00,535.00
             499.00,535.00 499.00,555.00 499.00,555.00
             499.00,555.00 411.00,555.00 411.00,555.00
             411.00,555.00 411.00,535.00 411.00,535.00 Z" />
  <path id="Route 14"
        fill="none" stroke="black" stroke-width="1"
        d="M 499.00,555.00
           C 499.00,555.00 499.00,541.00 499.00,541.00
             499.00,541.00 500.00,525.00 500.00,525.00
             500.00,525.00 500.00,478.00 500.00,478.00
             500.00,478.00 500.00,462.00 500.00,462.00
             500.00,462.00 501.60,456.02 501.60,456.02
             501.60,456.02 509.00,455.00 509.00,455.00
             509.00,455.00 521.00,455.00 521.00,455.00
             521.00,455.00 521.00,469.00 521.00,469.00
             521.00,469.00 520.00,485.00 520.00,485.00
             520.00,485.00 520.00,532.00 520.00,532.00
             520.00,532.00 520.00,548.00 520.00,548.00
             520.00,548.00 518.40,553.98 518.40,553.98
             518.40,553.98 511.00,555.00 511.00,555.00
             511.00,555.00 499.00,555.00 499.00,555.00 Z" />
  <path id="Route 13"
        fill="none" stroke="black" stroke-width="1"
        d="M 521.00,455.00
           C 521.00,455.00 612.00,455.00 612.00,455.00
             612.00,455.00 623.00,454.02 623.00,454.02
             623.00,454.02 640.00,454.02 640.00,454.02
             640.00,457.68 640.95,471.96 638.40,473.98
             636.81,475.23 632.99,475.00 631.00,475.00
             631.00,475.00 521.00,475.00 521.00,475.00
             521.00,475.00 521.00,455.00 521.00,455.00 Z" />
  <path id="Route 12"
        fill="none" stroke="black" stroke-width="1"
        d="M 620.00,246.00
           C 620.00,246.00 640.00,246.00 640.00,246.00
             640.00,246.00 640.00,454.00 640.00,454.00
             640.00,454.00 620.00,454.00 620.00,454.00
             620.00,454.00 620.00,405.00 620.00,405.00
             620.00,405.00 619.05,393.00 619.05,393.00
             619.05,393.00 619.05,380.00 619.05,380.00
             619.05,380.00 620.00,365.00 620.00,365.00
             620.00,365.00 620.00,246.00 620.00,246.00 Z" />
  <path id="Route 11"
        fill="none" stroke="black" stroke-width="1"
        d="M 491.00,375.00
           C 491.00,375.00 619.00,375.00 619.00,375.00
             619.00,375.00 619.00,395.00 619.00,395.00
             619.00,395.00 491.00,395.00 491.00,395.00
             491.00,395.00 491.00,375.00 491.00,375.00 Z" />
  <path id="Route 10"
        fill="none" stroke="black" stroke-width="1"
        d="M 619.00,95.00
           C 619.00,95.00 638.40,96.02 638.40,96.02
             638.40,96.02 640.00,104.00 640.00,104.00
             640.00,104.00 640.00,126.00 640.00,126.00
             632.27,124.62 627.49,124.19 620.00,127.00
             620.00,127.00 619.00,109.00 619.00,109.00
             619.00,109.00 619.00,95.00 619.00,95.00 Z
           M 639.00,163.00
           C 639.00,163.00 640.00,177.00 640.00,177.00
             640.00,177.00 640.00,204.00 640.00,204.00
             640.00,204.00 620.00,204.00 620.00,204.00
             620.00,204.00 620.00,164.00 620.00,164.00
             626.09,165.48 633.35,165.98 639.00,163.00 Z" />
  <path id="Route 9"
        fill="none" stroke="black" stroke-width="1"
        d="M 491.00,95.00
           C 491.00,95.00 619.00,95.00 619.00,95.00
             619.00,95.00 619.00,115.00 619.00,115.00
             619.00,115.00 491.00,115.00 491.00,115.00
             491.00,115.00 491.00,95.00 491.00,95.00 Z" />
  <path id="Route 8"
        fill="none" stroke="black" stroke-width="1"
        d="M 491.00,215.00
           C 491.00,215.00 609.00,215.00 609.00,215.00
             609.00,215.00 609.00,235.00 609.00,235.00
             609.00,235.00 491.00,235.00 491.00,235.00
             491.00,235.00 491.00,215.00 491.00,215.00 Z" />
  <path id="Route 7"
        fill="none" stroke="black" stroke-width="1"
        d="M 371.00,215.00
           C 371.00,215.00 449.00,215.00 449.00,215.00
             449.00,215.00 449.00,235.00 449.00,235.00
             449.00,235.00 371.00,235.00 371.00,235.00
             371.00,235.00 371.00,215.00 371.00,215.00 Z" />
  <path id="Route 6"
        fill="none" stroke="black" stroke-width="1"
        d="M 460.00,246.00
           C 460.00,246.00 480.00,246.00 480.00,246.00
             480.00,246.00 480.00,364.00 480.00,364.00
             480.00,364.00 460.00,364.00 460.00,364.00
             460.00,364.00 460.00,246.00 460.00,246.00 Z" />
  <path id="Route 5"
        fill="none" stroke="black" stroke-width="1"
        d="M 460.00,126.00
           C 460.00,126.00 480.00,126.00 480.00,126.00
             480.00,126.00 480.00,204.00 480.00,204.00
             480.00,204.00 460.00,204.00 460.00,204.00
             460.00,204.00 460.00,126.00 460.00,126.00 Z" />
  <path id="Route 4"
        fill="none" stroke="black" stroke-width="1"
        d="M 260.00,134.00
           C 260.00,134.00 260.00,109.00 260.00,109.00
             260.00,106.61 259.72,99.11 260.60,97.31
             261.81,94.85 264.65,95.05 267.00,95.00
             267.00,95.00 292.00,95.00 292.00,95.00
             287.79,107.16 288.84,103.28 292.00,115.00
             289.49,115.00 284.35,114.66 282.31,116.02
             278.83,118.35 280.00,129.93 280.00,134.00
             280.00,134.00 260.00,134.00 260.00,134.00 Z
           M 329.00,95.00
           C 329.00,95.00 449.00,95.00 449.00,95.00
             449.00,95.00 449.00,115.00 449.00,115.00
             449.00,115.00 328.00,115.00 328.00,115.00
             332.22,102.34 330.83,106.88 329.00,95.00 Z" />
  <path id="Route 3"
        fill="none" stroke="black" stroke-width="1"
        d="M 171.00,135.00
           C 171.00,135.00 252.00,135.00 252.00,135.00
             252.00,135.00 263.00,134.02 263.00,134.02
             263.00,134.02 280.00,134.02 280.00,134.02
             280.00,137.68 280.95,151.96 278.40,153.98
             276.81,155.23 272.99,155.00 271.00,155.00
             271.00,155.00 171.00,155.00 171.00,155.00
             171.00,155.00 171.00,135.00 171.00,135.00 Z" />
  <path id="Route 2"
        fill="none" stroke="black" stroke-width="1"
        d="M 140.00,166.00
           C 140.00,166.00 160.00,166.00 160.00,166.00
             160.00,166.00 160.00,207.00 160.00,207.00
             152.58,204.22 147.42,204.22 140.00,207.00
             140.00,207.00 140.00,166.00 140.00,166.00 Z
           M 140.00,243.00
           C 147.42,245.78 152.58,245.78 160.00,243.00
             160.00,243.00 160.00,324.00 160.00,324.00
             160.00,324.00 140.00,324.00 140.00,324.00
             140.00,324.00 140.00,243.00 140.00,243.00 Z" />
  <path id="Route 1"
        fill="none" stroke="black" stroke-width="1"
        d="M 140.00,366.00
           C 140.00,366.00 160.00,366.00 160.00,366.00
             160.00,366.00 160.00,444.00 160.00,444.00
             160.00,444.00 140.00,444.00 140.00,444.00
             140.00,444.00 140.00,366.00 140.00,366.00 Z" />
</svg>
