<?xml version="1.0" encoding="UTF-8" standalone="no"?>
<!DOCTYPE svg PUBLIC "-//W3C//DTD SVG 20010904//EN"
              "http://www.w3.org/TR/2001/REC-SVG-20010904/DTD/svg10.dtd">

<svg xmlns="http://www.w3.org/2000/svg"
     width="254.035mm" height="215.93mm"
     viewBox="0 0 960 816">
  <path id="Victory Road"
        fill="none" stroke="black" stroke-width="1"
        d="M 114.00,210.00
           C 114.00,210.00 114.00,222.00 114.00,222.00
             114.00,222.00 126.00,222.00 126.00,222.00
             126.00,222.00 126.00,210.00 126.00,210.00
             126.00,210.00 114.00,210.00 114.00,210.00 Z" />
  <path id="Viridian Forest"
        fill="none" stroke="black" stroke-width="1"
        d="M 210.00,210.00
           C 210.00,210.00 210.00,222.00 210.00,222.00
             210.00,222.00 222.00,222.00 222.00,222.00
             222.00,222.00 222.00,210.00 222.00,210.00
             222.00,210.00 210.00,210.00 210.00,210.00 Z" />
  <path id="Mt. Moon"
        fill="none" stroke="black" stroke-width="1"
        d="M 402.00,114.00
           C 402.00,114.00 402.00,126.00 402.00,126.00
             402.00,126.00 414.00,126.00 414.00,126.00
             414.00,126.00 414.00,114.00 414.00,114.00
             414.00,114.00 402.00,114.00 402.00,114.00 Z" />
  <path id="Rock Tunnel"
        fill="none" stroke="black" stroke-width="1"
        d="M 786.00,162.00
           C 786.00,162.00 786.00,174.00 786.00,174.00
             786.00,174.00 798.00,174.00 798.00,174.00
             798.00,174.00 798.00,162.00 798.00,162.00
             798.00,162.00 786.00,162.00 786.00,162.00 Z" />
  <path id="Seafoam Islands"
        fill="none" stroke="black" stroke-width="1"
        d="M 354.00,738.00
           C 354.00,738.00 354.00,750.00 354.00,750.00
             354.00,750.00 366.00,750.00 366.00,750.00
             366.00,750.00 366.00,738.00 366.00,738.00
             366.00,738.00 354.00,738.00 354.00,738.00 Z" />
  <path id="Pallet Town"
        fill="none" stroke="black" stroke-width="1"
        d="M 198.00,534.00
           C 198.00,534.00 198.00,570.00 198.00,570.00
             198.00,570.00 234.00,570.00 234.00,570.00
             234.00,570.00 234.00,534.00 234.00,534.00
             234.00,534.00 198.00,534.00 198.00,534.00 Z" />
  <path id="Viridian City"
        fill="none" stroke="black" stroke-width="1"
        d="M 198.00,390.00
           C 198.00,390.00 198.00,426.00 198.00,426.00
             198.00,426.00 234.00,426.00 234.00,426.00
             234.00,426.00 234.00,390.00 234.00,390.00
             234.00,390.00 198.00,390.00 198.00,390.00 Z" />
  <path id="Pewter City"
        fill="none" stroke="black" stroke-width="1"
        d="M 198.00,150.00
           C 198.00,150.00 198.00,186.00 198.00,186.00
             198.00,186.00 234.00,186.00 234.00,186.00
             234.00,186.00 234.00,150.00 234.00,150.00
             234.00,150.00 198.00,150.00 198.00,150.00 Z" />
  <path id="Lavender Town"
        fill="none" stroke="black" stroke-width="1"
        d="M 774.00,246.00
           C 774.00,246.00 774.00,282.00 774.00,282.00
             774.00,282.00 810.00,282.00 810.00,282.00
             810.00,282.00 810.00,246.00 810.00,246.00
             810.00,246.00 774.00,246.00 774.00,246.00 Z" />
  <path id="Saffron City"
        fill="none" stroke="black" stroke-width="1"
        d="M 582.00,246.00
           C 582.00,246.00 582.00,282.00 582.00,282.00
             582.00,282.00 618.00,282.00 618.00,282.00
             618.00,282.00 618.00,246.00 618.00,246.00
             618.00,246.00 582.00,246.00 582.00,246.00 Z" />
  <path id="Celadon City"
        fill="none" stroke="black" stroke-width="1"
        d="M 438.00,246.00
           C 438.00,246.00 438.00,282.00 438.00,282.00
             438.00,282.00 474.00,282.00 474.00,282.00
             474.00,282.00 474.00,246.00 474.00,246.00
             474.00,246.00 438.00,246.00 438.00,246.00 Z" />
  <path id="Fuchsia City"
        fill="none" stroke="black" stroke-width="1"
        d="M 486.00,630.00
           C 486.00,630.00 486.00,666.00 486.00,666.00
             486.00,666.00 522.00,666.00 522.00,666.00
             522.00,666.00 522.00,630.00 522.00,630.00
             522.00,630.00 486.00,630.00 486.00,630.00 Z" />
  <path id="Vermilion City"
        fill="none" stroke="black" stroke-width="1"
        d="M 582.00,438.00
           C 582.00,438.00 582.00,474.00 582.00,474.00
             582.00,474.00 618.00,474.00 618.00,474.00
             618.00,474.00 618.00,438.00 618.00,438.00
             618.00,438.00 582.00,438.00 582.00,438.00 Z" />
  <path id="Cerulean City"
        fill="none" stroke="black" stroke-width="1"
        d="M 582.00,102.00
           C 582.00,102.00 582.00,138.00 582.00,138.00
             582.00,138.00 618.00,138.00 618.00,138.00
             618.00,138.00 618.00,102.00 618.00,102.00
             618.00,102.00 582.00,102.00 582.00,102.00 Z" />
  <path id="Cinnabar Island"
        fill="none" stroke="black" stroke-width="1"
        d="M 198.00,726.00
           C 198.00,726.00 198.00,762.00 198.00,762.00
             198.00,762.00 234.00,762.00 234.00,762.00
             234.00,762.00 234.00,726.00 234.00,726.00
             234.00,726.00 198.00,726.00 198.00,726.00 Z" />
  <path id="Indigo Plateau"
        fill="none" stroke="black" stroke-width="1"
        d="M 102.00,102.00
           C 102.00,102.00 102.00,138.00 102.00,138.00
             102.00,138.00 138.00,138.00 138.00,138.00
             138.00,138.00 138.00,102.00 138.00,102.00
             138.00,102.00 102.00,102.00 102.00,102.00 Z" />
  <path id="Route 21"
        fill="none" stroke="black" stroke-width="1"
        d="M 192.00,576.00
           C 192.00,576.00 192.00,624.00 192.00,624.00
             192.00,624.00 210.00,624.00 210.00,624.00
             210.00,624.00 210.00,672.00 210.00,672.00
             210.00,672.00 192.00,672.00 192.00,672.00
             192.00,672.00 192.00,720.00 192.00,720.00
             192.00,720.00 240.00,720.00 240.00,720.00
             240.00,720.00 240.00,672.00 240.00,672.00
             240.00,672.00 222.00,672.00 222.00,672.00
             222.00,672.00 222.00,624.00 222.00,624.00
             222.00,624.00 240.00,624.00 240.00,624.00
             240.00,624.00 240.00,576.00 240.00,576.00
             240.00,576.00 192.00,576.00 192.00,576.00 Z" />
  <path id="Route 19"
        fill="none" stroke="black" stroke-width="1"
        d="M 480.00,672.00
           C 480.00,672.00 480.00,720.00 480.00,720.00
             480.00,720.00 498.00,720.00 498.00,720.00
             498.00,720.00 498.00,738.00 498.00,738.00
             498.00,738.00 480.00,738.00 480.00,738.00
             480.00,738.00 480.00,750.00 480.00,750.00
             480.00,750.00 510.00,750.00 510.00,750.00
             510.00,750.00 510.00,720.00 510.00,720.00
             510.00,720.00 528.00,720.00 528.00,720.00
             528.00,720.00 528.00,672.00 528.00,672.00
             528.00,672.00 480.00,672.00 480.00,672.00 Z" />
  <path id="Route 25"
        fill="none" stroke="black" stroke-width="1"
        d="M 624.00,0.00
           C 624.00,0.00 624.00,48.00 624.00,48.00
             624.00,48.00 720.00,48.00 720.00,48.00
             720.00,48.00 720.00,0.00 720.00,0.00
             720.00,0.00 624.00,0.00 624.00,0.00 Z" />
  <path id="Route 24"
        fill="none" stroke="black" stroke-width="1"
        d="M 576.00,0.00
           C 576.00,0.00 576.00,96.00 576.00,96.00
             576.00,96.00 624.00,96.00 624.00,96.00
             624.00,96.00 624.00,0.00 624.00,0.00
             624.00,0.00 576.00,0.00 576.00,0.00 Z" />
  <path id="Route 23"
        fill="none" stroke="black" stroke-width="1"
        d="M 96.00,144.00
           C 96.00,144.00 144.00,144.00 144.00,144.00
             144.00,144.00 144.00,384.00 144.00,384.00
             144.00,384.00 96.00,384.00 96.00,384.00
             96.00,384.00 96.00,144.00 96.00,144.00 Z
           M 126.00,204.00
           C 126.00,204.00 114.00,204.00 114.00,204.00
             114.00,204.00 114.00,210.00 114.00,210.00
             114.00,210.00 108.00,210.00 108.00,210.00
             108.00,210.00 108.00,222.00 108.00,222.00
             108.00,222.00 114.00,222.00 114.00,222.00
             114.00,222.00 114.00,228.00 114.00,228.00
             114.00,228.00 126.00,228.00 126.00,228.00
             126.00,228.00 126.00,222.00 126.00,222.00
             126.00,222.00 132.00,222.00 132.00,222.00
             132.00,222.00 132.00,210.00 132.00,210.00
             132.00,210.00 126.00,210.00 126.00,210.00
             126.00,210.00 126.00,204.00 126.00,204.00 Z" />
  <path id="Route 22"
        fill="none" stroke="black" stroke-width="1"
        d="M 96.00,384.00
           C 96.00,384.00 96.00,432.00 96.00,432.00
             96.00,432.00 192.00,432.00 192.00,432.00
             192.00,432.00 192.00,384.00 192.00,384.00
             192.00,384.00 96.00,384.00 96.00,384.00 Z" />
  <path id="Route 18"
        fill="none" stroke="black" stroke-width="1"
        d="M 306.00,624.00
           C 306.00,624.00 306.00,654.00 306.00,654.00
             306.00,654.00 384.00,654.00 384.00,654.00
             384.00,654.00 384.00,672.00 384.00,672.00
             384.00,672.00 480.00,672.00 480.00,672.00
             480.00,672.00 480.00,624.00 480.00,624.00
             480.00,624.00 384.00,624.00 384.00,624.00
             384.00,624.00 384.00,642.00 384.00,642.00
             384.00,642.00 318.00,642.00 318.00,642.00
             318.00,642.00 318.00,624.00 318.00,624.00
             318.00,624.00 306.00,624.00 306.00,624.00 Z" />
  <path id="Route 17"
        fill="none" stroke="black" stroke-width="1"
        d="M 288.00,288.00
           C 288.00,288.00 288.00,528.00 288.00,528.00
             288.00,528.00 306.00,528.00 306.00,528.00
             306.00,528.00 306.00,624.00 306.00,624.00
             306.00,624.00 318.00,624.00 318.00,624.00
             318.00,624.00 318.00,528.00 318.00,528.00
             318.00,528.00 336.00,528.00 336.00,528.00
             336.00,528.00 336.00,288.00 336.00,288.00
             336.00,288.00 288.00,288.00 288.00,288.00 Z" />
  <path id="Route 16"
        fill="none" stroke="black" stroke-width="1"
        d="M 288.00,240.00
           C 288.00,240.00 288.00,288.00 288.00,288.00
             288.00,288.00 432.00,288.00 432.00,288.00
             432.00,288.00 432.00,240.00 432.00,240.00
             432.00,240.00 288.00,240.00 288.00,240.00 Z" />
  <path id="Route 15"
        fill="none" stroke="black" stroke-width="1"
        d="M 528.00,624.00
           C 528.00,624.00 528.00,672.00 528.00,672.00
             528.00,672.00 624.00,672.00 624.00,672.00
             624.00,672.00 624.00,624.00 624.00,624.00
             624.00,624.00 528.00,624.00 528.00,624.00 Z" />
  <path id="Route 14"
        fill="none" stroke="black" stroke-width="1"
        d="M 624.00,528.00
           C 624.00,528.00 624.00,672.00 624.00,672.00
             624.00,672.00 672.00,672.00 672.00,672.00
             672.00,672.00 672.00,528.00 672.00,528.00
             672.00,528.00 624.00,528.00 624.00,528.00 Z" />
  <path id="Route 13"
        fill="none" stroke="black" stroke-width="1"
        d="M 672.00,528.00
           C 672.00,528.00 672.00,576.00 672.00,576.00
             672.00,576.00 816.00,576.00 816.00,576.00
             816.00,576.00 816.00,528.00 816.00,528.00
             816.00,528.00 672.00,528.00 672.00,528.00 Z" />
  <path id="Route 12"
        fill="none" stroke="black" stroke-width="1"
        d="M 768.00,288.00
           C 768.00,288.00 768.00,528.00 768.00,528.00
             768.00,528.00 816.00,528.00 816.00,528.00
             816.00,528.00 816.00,288.00 816.00,288.00
             816.00,288.00 768.00,288.00 768.00,288.00 Z" />
  <path id="Route 11"
        fill="none" stroke="black" stroke-width="1"
        d="M 624.00,432.00
           C 624.00,432.00 624.00,480.00 624.00,480.00
             624.00,480.00 768.00,480.00 768.00,480.00
             768.00,480.00 768.00,432.00 768.00,432.00
             768.00,432.00 624.00,432.00 624.00,432.00 Z" />
  <path id="Route 20"
        fill="none" stroke="black" stroke-width="1"
        d="M 240.00,720.00
           C 240.00,720.00 288.00,720.00 288.00,720.00
             288.00,720.00 288.00,738.00 288.00,738.00
             288.00,738.00 336.00,738.00 336.00,738.00
             336.00,738.00 336.00,720.00 336.00,720.00
             336.00,720.00 384.00,720.00 384.00,720.00
             384.00,720.00 384.00,738.00 384.00,738.00
             384.00,738.00 480.00,738.00 480.00,738.00
             480.00,738.00 480.00,750.00 480.00,750.00
             480.00,750.00 384.00,750.00 384.00,750.00
             384.00,750.00 384.00,768.00 384.00,768.00
             384.00,768.00 336.00,768.00 336.00,768.00
             336.00,768.00 336.00,750.00 336.00,750.00
             336.00,750.00 288.00,750.00 288.00,750.00
             288.00,750.00 288.00,768.00 288.00,768.00
             288.00,768.00 240.00,768.00 240.00,768.00
             240.00,768.00 240.00,720.00 240.00,720.00 Z
           M 366.00,732.00
           C 366.00,732.00 354.00,732.00 354.00,732.00
             354.00,732.00 354.00,738.00 354.00,738.00
             354.00,738.00 348.00,738.00 348.00,738.00
             348.00,738.00 348.00,750.00 348.00,750.00
             348.00,750.00 354.00,750.00 354.00,750.00
             354.00,750.00 354.00,756.00 354.00,756.00
             354.00,756.00 366.00,756.00 366.00,756.00
             366.00,756.00 366.00,750.00 366.00,750.00
             366.00,750.00 372.00,750.00 372.00,750.00
             372.00,750.00 372.00,738.00 372.00,738.00
             372.00,738.00 366.00,738.00 366.00,738.00
             366.00,738.00 366.00,732.00 366.00,732.00 Z" />
  <path id="Route 10"
        fill="none" stroke="black" stroke-width="1"
        d="M 768.00,96.00
           C 768.00,96.00 816.00,96.00 816.00,96.00
             816.00,96.00 816.00,240.00 816.00,240.00
             816.00,240.00 768.00,240.00 768.00,240.00
             768.00,240.00 768.00,96.00 768.00,96.00 Z
           M 798.00,156.00
           C 798.00,156.00 786.00,156.00 786.00,156.00
             786.00,156.00 786.00,162.00 786.00,162.00
             786.00,162.00 780.00,162.00 780.00,162.00
             780.00,162.00 780.00,174.00 780.00,174.00
             780.00,174.00 786.00,174.00 786.00,174.00
             786.00,174.00 786.00,180.00 786.00,180.00
             786.00,180.00 798.00,180.00 798.00,180.00
             798.00,180.00 798.00,174.00 798.00,174.00
             798.00,174.00 804.00,174.00 804.00,174.00
             804.00,174.00 804.00,162.00 804.00,162.00
             804.00,162.00 798.00,162.00 798.00,162.00
             798.00,162.00 798.00,156.00 798.00,156.00 Z" />
  <path id="Route 4"
        fill="none" stroke="black" stroke-width="1"
        d="M 336.00,96.00
           C 336.00,96.00 576.00,96.00 576.00,96.00
             576.00,96.00 576.00,144.00 576.00,144.00
             576.00,144.00 336.00,144.00 336.00,144.00
             336.00,144.00 336.00,96.00 336.00,96.00 Z
           M 414.00,108.00
           C 414.00,108.00 402.00,108.00 402.00,108.00
             402.00,108.00 402.00,114.00 402.00,114.00
             402.00,114.00 396.00,114.00 396.00,114.00
             396.00,114.00 396.00,126.00 396.00,126.00
             396.00,126.00 402.00,126.00 402.00,126.00
             402.00,126.00 402.00,132.00 402.00,132.00
             402.00,132.00 414.00,132.00 414.00,132.00
             414.00,132.00 414.00,126.00 414.00,126.00
             414.00,126.00 420.00,126.00 420.00,126.00
             420.00,126.00 420.00,114.00 420.00,114.00
             420.00,114.00 414.00,114.00 414.00,114.00
             414.00,114.00 414.00,108.00 414.00,108.00 Z" />
  <path id="Route 2"
        fill="none" stroke="black" stroke-width="1"
        d="M 192.00,192.00
           C 192.00,192.00 240.00,192.00 240.00,192.00
             240.00,192.00 240.00,384.00 240.00,384.00
             240.00,384.00 192.00,384.00 192.00,384.00
             192.00,384.00 192.00,192.00 192.00,192.00 Z
           M 222.00,204.00
           C 222.00,204.00 210.00,204.00 210.00,204.00
             210.00,204.00 210.00,210.00 210.00,210.00
             210.00,210.00 204.00,210.00 204.00,210.00
             204.00,210.00 204.00,222.00 204.00,222.00
             204.00,222.00 210.00,222.00 210.00,222.00
             210.00,222.00 210.00,228.00 210.00,228.00
             210.00,228.00 222.00,228.00 222.00,228.00
             222.00,228.00 222.00,222.00 222.00,222.00
             222.00,222.00 228.00,222.00 228.00,222.00
             228.00,222.00 228.00,210.00 228.00,210.00
             228.00,210.00 222.00,210.00 222.00,210.00
             222.00,210.00 222.00,204.00 222.00,204.00 Z" />
  <path id="Route 9"
        fill="none" stroke="black" stroke-width="1"
        d="M 624.00,96.00
           C 624.00,96.00 624.00,144.00 624.00,144.00
             624.00,144.00 768.00,144.00 768.00,144.00
             768.00,144.00 768.00,96.00 768.00,96.00
             768.00,96.00 624.00,96.00 624.00,96.00 Z" />
  <path id="Route 8"
        fill="none" stroke="black" stroke-width="1"
        d="M 624.00,240.00
           C 624.00,240.00 624.00,288.00 624.00,288.00
             624.00,288.00 768.00,288.00 768.00,288.00
             768.00,288.00 768.00,240.00 768.00,240.00
             768.00,240.00 624.00,240.00 624.00,240.00 Z" />
  <path id="Route 7"
        fill="none" stroke="black" stroke-width="1"
        d="M 480.00,240.00
           C 480.00,240.00 480.00,288.00 480.00,288.00
             480.00,288.00 576.00,288.00 576.00,288.00
             576.00,288.00 576.00,240.00 576.00,240.00
             576.00,240.00 480.00,240.00 480.00,240.00 Z" />
  <path id="Route 6"
        fill="none" stroke="black" stroke-width="1"
        d="M 576.00,288.00
           C 576.00,288.00 576.00,432.00 576.00,432.00
             576.00,432.00 624.00,432.00 624.00,432.00
             624.00,432.00 624.00,288.00 624.00,288.00
             624.00,288.00 576.00,288.00 576.00,288.00 Z" />
  <path id="Route 5"
        fill="none" stroke="black" stroke-width="1"
        d="M 576.00,144.00
           C 576.00,144.00 576.00,240.00 576.00,240.00
             576.00,240.00 624.00,240.00 624.00,240.00
             624.00,240.00 624.00,144.00 624.00,144.00
             624.00,144.00 576.00,144.00 576.00,144.00 Z" />
  <path id="Route 3"
        fill="none" stroke="black" stroke-width="1"
        d="M 240.00,144.00
           C 240.00,144.00 240.00,192.00 240.00,192.00
             240.00,192.00 384.00,192.00 384.00,192.00
             384.00,192.00 384.00,144.00 384.00,144.00
             384.00,144.00 240.00,144.00 240.00,144.00 Z" />
  <path id="Route 1"
        fill="none" stroke="black" stroke-width="1"
        d="M 192.00,432.00
           C 192.00,432.00 192.00,528.00 192.00,528.00
             192.00,528.00 240.00,528.00 240.00,528.00
             240.00,528.00 240.00,432.00 240.00,432.00
             240.00,432.00 192.00,432.00 192.00,432.00 Z" />
</svg>
