<?xml version="1.0" encoding="UTF-8" standalone="no"?>
<!DOCTYPE svg PUBLIC "-//W3C//DTD SVG 20010904//EN"
              "http://www.w3.org/TR/2001/REC-SVG-20010904/DTD/svg10.dtd">

<svg xmlns="http://www.w3.org/2000/svg"
     width="48in" height="12in"
     viewBox="0 0 3456 864">
  <path id="Altering Cave"
        fill="none" stroke="black" stroke-width="1"
        d="M 3104.00,108.00
           C 3104.00,108.00 3104.00,132.00 3104.00,132.00
             3104.00,132.00 3128.00,132.00 3128.00,132.00
             3128.00,132.00 3128.00,108.00 3128.00,108.00
             3128.00,108.00 3104.00,108.00 3104.00,108.00 Z" />
  <path id="Pattern Bush"
        fill="none" stroke="black" stroke-width="1"
        d="M 3200.00,252.00
           C 3200.00,252.00 3200.00,276.00 3200.00,276.00
             3200.00,276.00 3224.00,276.00 3224.00,276.00
             3224.00,276.00 3224.00,252.00 3224.00,252.00
             3224.00,252.00 3200.00,252.00 3200.00,252.00 Z" />
  <path id="Dotted Hole"
        fill="none" stroke="black" stroke-width="1"
        d="M 3152.00,492.00
           C 3152.00,492.00 3152.00,516.00 3152.00,516.00
             3152.00,516.00 3176.00,516.00 3176.00,516.00
             3176.00,516.00 3176.00,492.00 3176.00,492.00
             3176.00,492.00 3152.00,492.00 3152.00,492.00 Z" />
  <path id="Tanoby Chambers"
        fill="none" stroke="black" stroke-width="1"
        d="M 2930.00,684.00
           C 2930.00,684.00 2930.00,708.00 2930.00,708.00
             2930.00,708.00 2954.00,708.00 2954.00,708.00
             2954.00,708.00 2954.00,684.00 2954.00,684.00
             2954.00,684.00 2930.00,684.00 2930.00,684.00 Z" />
  <path id="Lost Cave"
        fill="none" stroke="black" stroke-width="1"
        d="M 2551.00,540.00
           C 2551.00,540.00 2551.00,564.00 2551.00,564.00
             2551.00,564.00 2575.00,564.00 2575.00,564.00
             2575.00,564.00 2575.00,540.00 2575.00,540.00
             2575.00,540.00 2551.00,540.00 2551.00,540.00 Z" />
  <path id="Berry Forest"
        fill="none" stroke="black" stroke-width="1"
        d="M 1704.00,684.00
           C 1704.00,684.00 1704.00,708.00 1704.00,708.00
             1704.00,708.00 1728.00,708.00 1728.00,708.00
             1728.00,708.00 1728.00,684.00 1728.00,684.00
             1728.00,684.00 1704.00,684.00 1704.00,684.00 Z" />
  <path id="Icefall Cave"
        fill="none" stroke="black" stroke-width="1"
        d="M 2047.00,312.00
           C 2047.00,312.00 2047.00,336.00 2047.00,336.00
             2047.00,336.00 2071.00,336.00 2071.00,336.00
             2071.00,336.00 2071.00,312.00 2071.00,312.00
             2071.00,312.00 2047.00,312.00 2047.00,312.00 Z" />
  <path id="Mt. Ember"
        fill="none" stroke="black" stroke-width="1"
        d="M 1308.00,252.00
           C 1308.00,252.00 1308.00,276.00 1308.00,276.00
             1308.00,276.00 1332.00,276.00 1332.00,276.00
             1332.00,276.00 1332.00,252.00 1332.00,252.00
             1332.00,252.00 1308.00,252.00 1308.00,252.00 Z" />
  <path id="Rock Tunnel"
        fill="none" stroke="black" stroke-width="1"
        d="M 924.00,252.00
           C 924.00,252.00 924.00,276.00 924.00,276.00
             924.00,276.00 948.00,276.00 948.00,276.00
             948.00,276.00 948.00,252.00 948.00,252.00
             948.00,252.00 924.00,252.00 924.00,252.00 Z" />
  <path id="Power Plant"
        fill="none" stroke="black" stroke-width="1"
        d="M 924.00,300.00
           C 924.00,300.00 924.00,324.00 924.00,324.00
             924.00,324.00 948.00,324.00 948.00,324.00
             948.00,324.00 948.00,300.00 948.00,300.00
             948.00,300.00 924.00,300.00 924.00,300.00 Z" />
  <path id="Pokémon Tower"
        fill="none" stroke="black" stroke-width="1"
        d="M 936.00,408.00
           C 936.00,408.00 936.00,432.00 936.00,432.00
             936.00,432.00 960.00,432.00 960.00,432.00
             960.00,432.00 960.00,408.00 960.00,408.00
             960.00,408.00 936.00,408.00 936.00,408.00 Z" />
  <path id="Safari Zone"
        fill="none" stroke="black" stroke-width="1"
        d="M 648.00,696.00
           C 648.00,696.00 648.00,720.00 648.00,720.00
             648.00,720.00 672.00,720.00 672.00,720.00
             672.00,720.00 672.00,696.00 672.00,696.00
             672.00,696.00 648.00,696.00 648.00,696.00 Z" />
  <path id="Seafoam Islands"
        fill="none" stroke="black" stroke-width="1"
        d="M 444.00,780.00
           C 444.00,780.00 444.00,804.00 444.00,804.00
             444.00,804.00 468.00,804.00 468.00,804.00
             468.00,804.00 468.00,780.00 468.00,780.00
             468.00,780.00 444.00,780.00 444.00,780.00 Z" />
  <path id="Pokémon Mansion"
        fill="none" stroke="black" stroke-width="1"
        d="M 264.00,792.00
           C 264.00,792.00 264.00,816.00 264.00,816.00
             264.00,816.00 288.00,816.00 288.00,816.00
             288.00,816.00 288.00,792.00 288.00,792.00
             288.00,792.00 264.00,792.00 264.00,792.00 Z" />
  <path id="Viridian Forest"
        fill="none" stroke="black" stroke-width="1"
        d="M 252.00,396.00
           C 252.00,396.00 252.00,420.00 252.00,420.00
             252.00,420.00 276.00,420.00 276.00,420.00
             276.00,420.00 276.00,396.00 276.00,396.00
             276.00,396.00 252.00,396.00 252.00,396.00 Z" />
  <path id="Diglett&apos;s Cave_2"
        fill="none" stroke="black" stroke-width="1"
        d="M 780.00,540.00
           C 780.00,540.00 780.00,564.00 780.00,564.00
             780.00,564.00 804.00,564.00 804.00,564.00
             804.00,564.00 804.00,540.00 804.00,540.00
             804.00,540.00 780.00,540.00 780.00,540.00 Z" />
  <path id="Diglett&apos;s Cave_1"
        fill="none" stroke="black" stroke-width="1"
        d="M 252.00,348.00
           C 252.00,348.00 252.00,372.00 252.00,372.00
             252.00,372.00 276.00,372.00 276.00,372.00
             276.00,372.00 276.00,348.00 276.00,348.00
             276.00,348.00 252.00,348.00 252.00,348.00 Z" />
  <path id="Victory Road"
        fill="none" stroke="black" stroke-width="1"
        d="M 156.00,300.00
           C 156.00,300.00 156.00,324.00 156.00,324.00
             156.00,324.00 180.00,324.00 180.00,324.00
             180.00,324.00 180.00,300.00 180.00,300.00
             180.00,300.00 156.00,300.00 156.00,300.00 Z" />
  <path id="Mt. Moon"
        fill="none" stroke="black" stroke-width="1"
        d="M 492.00,252.00
           C 492.00,252.00 492.00,276.00 492.00,276.00
             492.00,276.00 516.00,276.00 516.00,276.00
             516.00,276.00 516.00,252.00 516.00,252.00
             516.00,252.00 492.00,252.00 492.00,252.00 Z" />
  <path id="Cerulean Cave"
        fill="none" stroke="black" stroke-width="1"
        d="M 744.00,264.00
           C 744.00,264.00 744.00,288.00 744.00,288.00
             744.00,288.00 768.00,288.00 768.00,288.00
             768.00,288.00 768.00,264.00 768.00,264.00
             768.00,264.00 744.00,264.00 744.00,264.00 Z" />
  <path id="Seven Island"
        fill="none" stroke="black" stroke-width="1"
        d="M 2738.00,486.00
           C 2738.00,486.00 2738.00,492.00 2738.00,492.00
             2738.00,492.00 2732.00,492.00 2732.00,492.00
             2732.00,492.00 2732.00,516.00 2732.00,516.00
             2732.00,516.00 2738.00,516.00 2738.00,516.00
             2738.00,516.00 2738.00,522.00 2738.00,522.00
             2738.00,522.00 2762.00,522.00 2762.00,522.00
             2762.00,522.00 2762.00,516.00 2762.00,516.00
             2762.00,516.00 2768.00,516.00 2768.00,516.00
             2768.00,516.00 2768.00,492.00 2768.00,492.00
             2768.00,492.00 2762.00,492.00 2762.00,492.00
             2762.00,492.00 2762.00,486.00 2762.00,486.00
             2762.00,486.00 2738.00,486.00 2738.00,486.00 Z" />
  <path id="Six Island"
        fill="none" stroke="black" stroke-width="1"
        d="M 3200.00,342.00
           C 3200.00,342.00 3200.00,348.00 3200.00,348.00
             3200.00,348.00 3194.00,348.00 3194.00,348.00
             3194.00,348.00 3194.00,372.00 3194.00,372.00
             3194.00,372.00 3200.00,372.00 3200.00,372.00
             3200.00,372.00 3200.00,378.00 3200.00,378.00
             3200.00,378.00 3224.00,378.00 3224.00,378.00
             3224.00,378.00 3224.00,372.00 3224.00,372.00
             3224.00,372.00 3230.00,372.00 3230.00,372.00
             3230.00,372.00 3230.00,348.00 3230.00,348.00
             3230.00,348.00 3224.00,348.00 3224.00,348.00
             3224.00,348.00 3224.00,342.00 3224.00,342.00
             3224.00,342.00 3200.00,342.00 3200.00,342.00 Z" />
  <path id="Five Island"
        fill="none" stroke="black" stroke-width="1"
        d="M 2455.00,630.00
           C 2455.00,630.00 2455.00,636.00 2455.00,636.00
             2455.00,636.00 2449.00,636.00 2449.00,636.00
             2449.00,636.00 2449.00,660.00 2449.00,660.00
             2449.00,660.00 2455.00,660.00 2455.00,660.00
             2455.00,660.00 2455.00,666.00 2455.00,666.00
             2455.00,666.00 2479.00,666.00 2479.00,666.00
             2479.00,666.00 2479.00,660.00 2479.00,660.00
             2479.00,660.00 2485.00,660.00 2485.00,660.00
             2485.00,660.00 2485.00,636.00 2485.00,636.00
             2485.00,636.00 2479.00,636.00 2479.00,636.00
             2479.00,636.00 2479.00,630.00 2479.00,630.00
             2479.00,630.00 2455.00,630.00 2455.00,630.00 Z" />
  <path id="Four Island"
        fill="none" stroke="black" stroke-width="1"
        d="M 2035.00,294.00
           C 2035.00,294.00 2035.00,300.00 2035.00,300.00
             2035.00,300.00 2029.00,300.00 2029.00,300.00
             2029.00,300.00 2029.00,324.00 2029.00,324.00
             2029.00,324.00 2035.00,324.00 2035.00,324.00
             2035.00,324.00 2035.00,330.00 2035.00,330.00
             2035.00,330.00 2041.00,330.00 2041.00,330.00
             2041.00,330.00 2041.00,306.00 2041.00,306.00
             2041.00,306.00 2065.00,306.00 2065.00,306.00
             2065.00,306.00 2065.00,300.00 2065.00,300.00
             2065.00,300.00 2059.00,300.00 2059.00,300.00
             2059.00,300.00 2059.00,294.00 2059.00,294.00
             2059.00,294.00 2035.00,294.00 2035.00,294.00 Z" />
  <path id="Three Island"
        fill="none" stroke="black" stroke-width="1"
        d="M 1896.00,678.00
           C 1896.00,678.00 1896.00,684.00 1896.00,684.00
             1896.00,684.00 1890.00,684.00 1890.00,684.00
             1890.00,684.00 1890.00,708.00 1890.00,708.00
             1890.00,708.00 1896.00,708.00 1896.00,708.00
             1896.00,708.00 1896.00,714.00 1896.00,714.00
             1896.00,714.00 1920.00,714.00 1920.00,714.00
             1920.00,714.00 1920.00,708.00 1920.00,708.00
             1920.00,708.00 1926.00,708.00 1926.00,708.00
             1926.00,708.00 1926.00,684.00 1926.00,684.00
             1926.00,684.00 1920.00,684.00 1920.00,684.00
             1920.00,684.00 1920.00,678.00 1920.00,678.00
             1920.00,678.00 1896.00,678.00 1896.00,678.00 Z" />
  <path id="Two Island"
        fill="none" stroke="black" stroke-width="1"
        d="M 1524.00,534.00
           C 1524.00,534.00 1524.00,540.00 1524.00,540.00
             1524.00,540.00 1518.00,540.00 1518.00,540.00
             1518.00,540.00 1518.00,564.00 1518.00,564.00
             1518.00,564.00 1524.00,564.00 1524.00,564.00
             1524.00,564.00 1524.00,570.00 1524.00,570.00
             1524.00,570.00 1548.00,570.00 1548.00,570.00
             1548.00,570.00 1548.00,564.00 1548.00,564.00
             1548.00,564.00 1554.00,564.00 1554.00,564.00
             1554.00,564.00 1554.00,540.00 1554.00,540.00
             1554.00,540.00 1548.00,540.00 1548.00,540.00
             1548.00,540.00 1548.00,534.00 1548.00,534.00
             1548.00,534.00 1524.00,534.00 1524.00,534.00 Z" />
  <path id="One Island"
        fill="none" stroke="black" stroke-width="1"
        d="M 1260.00,486.00
           C 1260.00,486.00 1260.00,492.00 1260.00,492.00
             1260.00,492.00 1254.00,492.00 1254.00,492.00
             1254.00,492.00 1254.00,516.00 1254.00,516.00
             1254.00,516.00 1260.00,516.00 1260.00,516.00
             1260.00,516.00 1260.00,522.00 1260.00,522.00
             1260.00,522.00 1284.00,522.00 1284.00,522.00
             1284.00,522.00 1284.00,516.00 1284.00,516.00
             1284.00,516.00 1290.00,516.00 1290.00,516.00
             1290.00,516.00 1290.00,492.00 1290.00,492.00
             1290.00,492.00 1284.00,492.00 1284.00,492.00
             1284.00,492.00 1284.00,486.00 1284.00,486.00
             1284.00,486.00 1260.00,486.00 1260.00,486.00 Z" />
  <path id="Saffron City"
        fill="none" stroke="black" stroke-width="1"
        d="M 732.00,390.00
           C 732.00,390.00 732.00,396.00 732.00,396.00
             732.00,396.00 726.00,396.00 726.00,396.00
             726.00,396.00 726.00,420.00 726.00,420.00
             726.00,420.00 732.00,420.00 732.00,420.00
             732.00,420.00 732.00,426.00 732.00,426.00
             732.00,426.00 756.00,426.00 756.00,426.00
             756.00,426.00 756.00,420.00 756.00,420.00
             756.00,420.00 762.00,420.00 762.00,420.00
             762.00,420.00 762.00,396.00 762.00,396.00
             762.00,396.00 756.00,396.00 756.00,396.00
             756.00,396.00 756.00,390.00 756.00,390.00
             756.00,390.00 732.00,390.00 732.00,390.00 Z" />
  <path id="Celadon City"
        fill="none" stroke="black" stroke-width="1"
        d="M 588.00,390.00
           C 588.00,390.00 588.00,396.00 588.00,396.00
             588.00,396.00 582.00,396.00 582.00,396.00
             582.00,396.00 582.00,420.00 582.00,420.00
             582.00,420.00 588.00,420.00 588.00,420.00
             588.00,420.00 588.00,426.00 588.00,426.00
             588.00,426.00 612.00,426.00 612.00,426.00
             612.00,426.00 612.00,420.00 612.00,420.00
             612.00,420.00 618.00,420.00 618.00,420.00
             618.00,420.00 618.00,396.00 618.00,396.00
             618.00,396.00 612.00,396.00 612.00,396.00
             612.00,396.00 612.00,390.00 612.00,390.00
             612.00,390.00 588.00,390.00 588.00,390.00 Z" />
  <path id="Vermilion City"
        fill="none" stroke="black" stroke-width="1"
        d="M 732.00,534.00
           C 732.00,534.00 732.00,540.00 732.00,540.00
             732.00,540.00 726.00,540.00 726.00,540.00
             726.00,540.00 726.00,564.00 726.00,564.00
             726.00,564.00 732.00,564.00 732.00,564.00
             732.00,564.00 732.00,570.00 732.00,570.00
             732.00,570.00 756.00,570.00 756.00,570.00
             756.00,570.00 756.00,564.00 756.00,564.00
             756.00,564.00 762.00,564.00 762.00,564.00
             762.00,564.00 762.00,540.00 762.00,540.00
             762.00,540.00 756.00,540.00 756.00,540.00
             756.00,540.00 756.00,534.00 756.00,534.00
             756.00,534.00 732.00,534.00 732.00,534.00 Z" />
  <path id="Pallet Town"
        fill="none" stroke="black" stroke-width="1"
        d="M 252.00,630.00
           C 252.00,630.00 252.00,636.00 252.00,636.00
             252.00,636.00 246.00,636.00 246.00,636.00
             246.00,636.00 246.00,660.00 246.00,660.00
             246.00,660.00 252.00,660.00 252.00,660.00
             252.00,660.00 252.00,666.00 252.00,666.00
             252.00,666.00 276.00,666.00 276.00,666.00
             276.00,666.00 276.00,660.00 276.00,660.00
             276.00,660.00 282.00,660.00 282.00,660.00
             282.00,660.00 282.00,636.00 282.00,636.00
             282.00,636.00 276.00,636.00 276.00,636.00
             276.00,636.00 276.00,630.00 276.00,630.00
             276.00,630.00 252.00,630.00 252.00,630.00 Z" />
  <path id="Viridian City"
        fill="none" stroke="black" stroke-width="1"
        d="M 252.00,486.00
           C 252.00,486.00 252.00,492.00 252.00,492.00
             252.00,492.00 246.00,492.00 246.00,492.00
             246.00,492.00 246.00,516.00 246.00,516.00
             246.00,516.00 252.00,516.00 252.00,516.00
             252.00,516.00 252.00,522.00 252.00,522.00
             252.00,522.00 276.00,522.00 276.00,522.00
             276.00,522.00 276.00,516.00 276.00,516.00
             276.00,516.00 282.00,516.00 282.00,516.00
             282.00,516.00 282.00,492.00 282.00,492.00
             282.00,492.00 276.00,492.00 276.00,492.00
             276.00,492.00 276.00,486.00 276.00,486.00
             276.00,486.00 252.00,486.00 252.00,486.00 Z" />
  <path id="Pewter City"
        fill="none" stroke="black" stroke-width="1"
        d="M 252.00,294.00
           C 252.00,294.00 252.00,300.00 252.00,300.00
             252.00,300.00 246.00,300.00 246.00,300.00
             246.00,300.00 246.00,324.00 246.00,324.00
             246.00,324.00 252.00,324.00 252.00,324.00
             252.00,324.00 252.00,330.00 252.00,330.00
             252.00,330.00 276.00,330.00 276.00,330.00
             276.00,330.00 276.00,324.00 276.00,324.00
             276.00,324.00 282.00,324.00 282.00,324.00
             282.00,324.00 282.00,300.00 282.00,300.00
             282.00,300.00 276.00,300.00 276.00,300.00
             276.00,300.00 276.00,294.00 276.00,294.00
             276.00,294.00 252.00,294.00 252.00,294.00 Z" />
  <path id="Indigo Plateau"
        fill="none" stroke="black" stroke-width="1"
        d="M 156.00,246.00
           C 156.00,246.00 156.00,252.00 156.00,252.00
             156.00,252.00 150.00,252.00 150.00,252.00
             150.00,252.00 150.00,276.00 150.00,276.00
             150.00,276.00 156.00,276.00 156.00,276.00
             156.00,276.00 156.00,282.00 156.00,282.00
             156.00,282.00 180.00,282.00 180.00,282.00
             180.00,282.00 180.00,276.00 180.00,276.00
             180.00,276.00 186.00,276.00 186.00,276.00
             186.00,276.00 186.00,252.00 186.00,252.00
             186.00,252.00 180.00,252.00 180.00,252.00
             180.00,252.00 180.00,246.00 180.00,246.00
             180.00,246.00 156.00,246.00 156.00,246.00 Z" />
  <path id="Cinnabar Island"
        fill="none" stroke="black" stroke-width="1"
        d="M 252.00,774.00
           C 252.00,774.00 252.00,780.00 252.00,780.00
             252.00,780.00 246.00,780.00 246.00,780.00
             246.00,780.00 246.00,804.00 246.00,804.00
             246.00,804.00 252.00,804.00 252.00,804.00
             252.00,804.00 252.00,810.00 252.00,810.00
             252.00,810.00 258.00,810.00 258.00,810.00
             258.00,810.00 258.00,786.00 258.00,786.00
             258.00,786.00 282.00,786.00 282.00,786.00
             282.00,786.00 282.00,780.00 282.00,780.00
             282.00,780.00 276.00,780.00 276.00,780.00
             276.00,780.00 276.00,774.00 276.00,774.00
             276.00,774.00 252.00,774.00 252.00,774.00 Z" />
  <path id="Fuchsia City"
        fill="none" stroke="black" stroke-width="1"
        d="M 636.00,678.00
           C 636.00,678.00 636.00,684.00 636.00,684.00
             636.00,684.00 630.00,684.00 630.00,684.00
             630.00,684.00 630.00,708.00 630.00,708.00
             630.00,708.00 636.00,708.00 636.00,708.00
             636.00,708.00 636.00,714.00 636.00,714.00
             636.00,714.00 642.00,714.00 642.00,714.00
             642.00,714.00 642.00,690.00 642.00,690.00
             642.00,690.00 666.00,690.00 666.00,690.00
             666.00,690.00 666.00,684.00 666.00,684.00
             666.00,684.00 660.00,684.00 660.00,684.00
             660.00,684.00 660.00,678.00 660.00,678.00
             660.00,678.00 636.00,678.00 636.00,678.00 Z" />
  <path id="Lavender Town"
        fill="none" stroke="black" stroke-width="1"
        d="M 924.00,390.00
           C 924.00,390.00 924.00,396.00 924.00,396.00
             924.00,396.00 918.00,396.00 918.00,396.00
             918.00,396.00 918.00,420.00 918.00,420.00
             918.00,420.00 924.00,420.00 924.00,420.00
             924.00,420.00 924.00,426.00 924.00,426.00
             924.00,426.00 930.00,426.00 930.00,426.00
             930.00,426.00 930.00,402.00 930.00,402.00
             930.00,402.00 954.00,402.00 954.00,402.00
             954.00,402.00 954.00,396.00 954.00,396.00
             954.00,396.00 948.00,396.00 948.00,396.00
             948.00,396.00 948.00,390.00 948.00,390.00
             948.00,390.00 924.00,390.00 924.00,390.00 Z" />
  <path id="Cerulean City"
        fill="none" stroke="black" stroke-width="1"
        d="M 732.00,246.00
           C 732.00,246.00 732.00,252.00 732.00,252.00
             732.00,252.00 726.00,252.00 726.00,252.00
             726.00,252.00 726.00,276.00 726.00,276.00
             726.00,276.00 732.00,276.00 732.00,276.00
             732.00,276.00 732.00,282.00 732.00,282.00
             732.00,282.00 738.00,282.00 738.00,282.00
             738.00,282.00 738.00,258.00 738.00,258.00
             738.00,258.00 762.00,258.00 762.00,258.00
             762.00,258.00 762.00,252.00 762.00,252.00
             762.00,252.00 756.00,252.00 756.00,252.00
             756.00,252.00 756.00,246.00 756.00,246.00
             756.00,246.00 732.00,246.00 732.00,246.00 Z" />
  <path id="Outcast Island"
        fill="none" stroke="black" stroke-width="1"
        d="M 3092.00,96.00
           C 3092.00,96.00 3092.00,240.00 3092.00,240.00
             3092.00,240.00 3140.00,240.00 3140.00,240.00
             3140.00,240.00 3140.00,96.00 3140.00,96.00
             3140.00,96.00 3092.00,96.00 3092.00,96.00 Z" />
  <path id="Green Path"
        fill="none" stroke="black" stroke-width="1"
        d="M 3092.00,240.00
           C 3092.00,240.00 3092.00,288.00 3092.00,288.00
             3092.00,288.00 3236.00,288.00 3236.00,288.00
             3236.00,288.00 3236.00,240.00 3236.00,240.00
             3236.00,240.00 3092.00,240.00 3092.00,240.00 Z" />
  <path id="Water Path"
        fill="none" stroke="black" stroke-width="1"
        d="M 3236.00,240.00
           C 3236.00,240.00 3236.00,480.00 3236.00,480.00
             3236.00,480.00 3284.00,480.00 3284.00,480.00
             3284.00,480.00 3284.00,240.00 3284.00,240.00
             3284.00,240.00 3236.00,240.00 3236.00,240.00 Z" />
  <path id="Ruin Valley"
        fill="none" stroke="black" stroke-width="1"
        d="M 3140.00,432.00
           C 3140.00,432.00 3140.00,528.00 3140.00,528.00
             3140.00,528.00 3236.00,528.00 3236.00,528.00
             3236.00,528.00 3236.00,432.00 3236.00,432.00
             3236.00,432.00 3140.00,432.00 3140.00,432.00 Z" />
  <path id="Tanoby Ruins"
        fill="none" stroke="black" stroke-width="1"
        d="M 2630.00,672.00
           C 2630.00,672.00 2630.00,720.00 2630.00,720.00
             2630.00,720.00 2966.00,720.00 2966.00,720.00
             2966.00,720.00 2966.00,672.00 2966.00,672.00
             2966.00,672.00 2630.00,672.00 2630.00,672.00 Z" />
  <path id="Sevault Canyon"
        fill="none" stroke="black" stroke-width="1"
        d="M 2774.00,528.00
           C 2774.00,528.00 2774.00,672.00 2774.00,672.00
             2774.00,672.00 2822.00,672.00 2822.00,672.00
             2822.00,672.00 2822.00,528.00 2822.00,528.00
             2822.00,528.00 2774.00,528.00 2774.00,528.00 Z" />
  <path id="Canyon Entrance"
        fill="none" stroke="black" stroke-width="1"
        d="M 2726.00,528.00
           C 2726.00,528.00 2726.00,576.00 2726.00,576.00
             2726.00,576.00 2774.00,576.00 2774.00,576.00
             2774.00,576.00 2774.00,528.00 2774.00,528.00
             2774.00,528.00 2726.00,528.00 2726.00,528.00 Z" />
  <path id="Trainer Tower"
        fill="none" stroke="black" stroke-width="1"
        d="M 2726.00,384.00
           C 2726.00,384.00 2726.00,480.00 2726.00,480.00
             2726.00,480.00 2774.00,480.00 2774.00,480.00
             2774.00,480.00 2774.00,384.00 2774.00,384.00
             2774.00,384.00 2726.00,384.00 2726.00,384.00 Z" />
  <path id="Resort Gorgeous"
        fill="none" stroke="black" stroke-width="1"
        d="M 2443.00,528.00
           C 2443.00,528.00 2443.00,576.00 2443.00,576.00
             2443.00,576.00 2587.00,576.00 2587.00,576.00
             2587.00,576.00 2587.00,528.00 2587.00,528.00
             2587.00,528.00 2443.00,528.00 2443.00,528.00 Z" />
  <path id="Water Labyrinth"
        fill="none" stroke="black" stroke-width="1"
        d="M 2347.00,576.00
           C 2347.00,576.00 2347.00,624.00 2347.00,624.00
             2347.00,624.00 2491.00,624.00 2491.00,624.00
             2491.00,624.00 2491.00,576.00 2491.00,576.00
             2491.00,576.00 2347.00,576.00 2347.00,576.00 Z" />
  <path id="Five Isle Meadow"
        fill="none" stroke="black" stroke-width="1"
        d="M 2491.00,624.00
           C 2491.00,624.00 2491.00,720.00 2491.00,720.00
             2491.00,720.00 2539.00,720.00 2539.00,720.00
             2539.00,720.00 2539.00,624.00 2539.00,624.00
             2539.00,624.00 2491.00,624.00 2491.00,624.00 Z" />
  <path id="Memorial Pillar"
        fill="none" stroke="black" stroke-width="1"
        d="M 2539.00,672.00
           C 2539.00,672.00 2539.00,816.00 2539.00,816.00
             2539.00,816.00 2587.00,816.00 2587.00,816.00
             2587.00,816.00 2587.00,672.00 2587.00,672.00
             2587.00,672.00 2539.00,672.00 2539.00,672.00 Z" />
  <path id="Bond Bridge"
        fill="none" stroke="black" stroke-width="1"
        d="M 1692.00,672.00
           C 1692.00,672.00 1692.00,720.00 1692.00,720.00
             1692.00,720.00 1884.00,720.00 1884.00,720.00
             1884.00,720.00 1884.00,672.00 1884.00,672.00
             1884.00,672.00 1692.00,672.00 1692.00,672.00 Z" />
  <path id="Three Isle Port"
        fill="none" stroke="black" stroke-width="1"
        d="M 1884.00,720.00
           C 1884.00,720.00 1884.00,768.00 1884.00,768.00
             1884.00,768.00 1977.00,768.00 1977.00,768.00
             1977.00,768.00 1977.00,720.00 1977.00,720.00
             1977.00,720.00 1884.00,720.00 1884.00,720.00 Z" />
  <path id="Cape Brink"
        fill="none" stroke="black" stroke-width="1"
        d="M 1512.00,432.00
           C 1512.00,432.00 1512.00,528.00 1512.00,528.00
             1512.00,528.00 1560.00,528.00 1560.00,528.00
             1560.00,528.00 1560.00,432.00 1560.00,432.00
             1560.00,432.00 1512.00,432.00 1512.00,432.00 Z" />
  <path id="Treasure Beach"
        fill="none" stroke="black" stroke-width="1"
        d="M 1248.00,528.00
           C 1248.00,528.00 1248.00,624.00 1248.00,624.00
             1248.00,624.00 1296.00,624.00 1296.00,624.00
             1296.00,624.00 1296.00,528.00 1296.00,528.00
             1296.00,528.00 1248.00,528.00 1248.00,528.00 Z" />
  <path id="Kindle Road"
        fill="none" stroke="black" stroke-width="1"
        d="M 1296.00,240.00
           C 1296.00,240.00 1296.00,528.00 1296.00,528.00
             1296.00,528.00 1344.00,528.00 1344.00,528.00
             1344.00,528.00 1344.00,240.00 1344.00,240.00
             1344.00,240.00 1296.00,240.00 1296.00,240.00 Z" />
  <path id="Route 21"
        fill="none" stroke="black" stroke-width="1"
        d="M 240.00,672.00
           C 240.00,672.00 240.00,768.00 240.00,768.00
             240.00,768.00 288.00,768.00 288.00,768.00
             288.00,768.00 288.00,672.00 288.00,672.00
             288.00,672.00 240.00,672.00 240.00,672.00 Z" />
  <path id="Route 20"
        fill="none" stroke="black" stroke-width="1"
        d="M 288.00,768.00
           C 288.00,768.00 288.00,786.00 288.00,786.00
             288.00,786.00 294.00,786.00 294.00,786.00
             294.00,786.00 294.00,816.00 294.00,816.00
             294.00,816.00 624.00,816.00 624.00,816.00
             624.00,816.00 624.00,768.00 624.00,768.00
             624.00,768.00 288.00,768.00 288.00,768.00 Z" />
  <path id="Route 19"
        fill="none" stroke="black" stroke-width="1"
        d="M 624.00,720.00
           C 624.00,720.00 624.00,816.00 624.00,816.00
             624.00,816.00 672.00,816.00 672.00,816.00
             672.00,816.00 672.00,726.00 672.00,726.00
             672.00,726.00 642.00,726.00 642.00,726.00
             642.00,726.00 642.00,720.00 642.00,720.00
             642.00,720.00 624.00,720.00 624.00,720.00 Z" />
  <path id="Route 25"
        fill="none" stroke="black" stroke-width="1"
        d="M 768.00,144.00
           C 768.00,144.00 768.00,192.00 768.00,192.00
             768.00,192.00 864.00,192.00 864.00,192.00
             864.00,192.00 864.00,144.00 864.00,144.00
             864.00,144.00 768.00,144.00 768.00,144.00 Z" />
  <path id="Route 24"
        fill="none" stroke="black" stroke-width="1"
        d="M 720.00,144.00
           C 720.00,144.00 720.00,240.00 720.00,240.00
             720.00,240.00 768.00,240.00 768.00,240.00
             768.00,240.00 768.00,144.00 768.00,144.00
             768.00,144.00 720.00,144.00 720.00,144.00 Z" />
  <path id="Route 23"
        fill="none" stroke="black" stroke-width="1"
        d="M 144.00,288.00
           C 144.00,288.00 144.00,480.00 144.00,480.00
             144.00,480.00 192.00,480.00 192.00,480.00
             192.00,480.00 192.00,288.00 192.00,288.00
             192.00,288.00 144.00,288.00 144.00,288.00 Z" />
  <path id="Route 22"
        fill="none" stroke="black" stroke-width="1"
        d="M 144.00,480.00
           C 144.00,480.00 144.00,528.00 144.00,528.00
             144.00,528.00 240.00,528.00 240.00,528.00
             240.00,528.00 240.00,480.00 240.00,480.00
             240.00,480.00 144.00,480.00 144.00,480.00 Z" />
  <path id="Route 18"
        fill="none" stroke="black" stroke-width="1"
        d="M 384.00,672.00
           C 384.00,672.00 384.00,720.00 384.00,720.00
             384.00,720.00 624.00,720.00 624.00,720.00
             624.00,720.00 624.00,672.00 624.00,672.00
             624.00,672.00 384.00,672.00 384.00,672.00 Z" />
  <path id="Route 17"
        fill="none" stroke="black" stroke-width="1"
        d="M 384.00,432.00
           C 384.00,432.00 384.00,672.00 384.00,672.00
             384.00,672.00 432.00,672.00 432.00,672.00
             432.00,672.00 432.00,432.00 432.00,432.00
             432.00,432.00 384.00,432.00 384.00,432.00 Z" />
  <path id="Route 16"
        fill="none" stroke="black" stroke-width="1"
        d="M 384.00,384.00
           C 384.00,384.00 384.00,432.00 384.00,432.00
             384.00,432.00 576.00,432.00 576.00,432.00
             576.00,432.00 576.00,384.00 576.00,384.00
             576.00,384.00 384.00,384.00 384.00,384.00 Z" />
  <path id="Route 15"
        fill="none" stroke="black" stroke-width="1"
        d="M 672.00,672.00
           C 672.00,672.00 672.00,690.00 672.00,690.00
             672.00,690.00 678.00,690.00 678.00,690.00
             678.00,690.00 678.00,720.00 678.00,720.00
             678.00,720.00 768.00,720.00 768.00,720.00
             768.00,720.00 768.00,672.00 768.00,672.00
             768.00,672.00 672.00,672.00 672.00,672.00 Z" />
  <path id="Route 14"
        fill="none" stroke="black" stroke-width="1"
        d="M 768.00,624.00
           C 768.00,624.00 768.00,720.00 768.00,720.00
             768.00,720.00 816.00,720.00 816.00,720.00
             816.00,720.00 816.00,624.00 816.00,624.00
             816.00,624.00 768.00,624.00 768.00,624.00 Z" />
  <path id="Route 13"
        fill="none" stroke="black" stroke-width="1"
        d="M 816.00,624.00
           C 816.00,624.00 816.00,672.00 816.00,672.00
             816.00,672.00 960.00,672.00 960.00,672.00
             960.00,672.00 960.00,624.00 960.00,624.00
             960.00,624.00 816.00,624.00 816.00,624.00 Z" />
  <path id="Route 12"
        fill="none" stroke="black" stroke-width="1"
        d="M 912.00,432.00
           C 912.00,432.00 912.00,624.00 912.00,624.00
             912.00,624.00 960.00,624.00 960.00,624.00
             960.00,624.00 960.00,438.00 960.00,438.00
             960.00,438.00 930.00,438.00 930.00,438.00
             930.00,438.00 930.00,432.00 930.00,432.00
             930.00,432.00 912.00,432.00 912.00,432.00 Z" />
  <path id="Route 11"
        fill="none" stroke="black" stroke-width="1"
        d="M 768.00,528.00
           C 768.00,528.00 768.00,576.00 768.00,576.00
             768.00,576.00 912.00,576.00 912.00,576.00
             912.00,576.00 912.00,528.00 912.00,528.00
             912.00,528.00 768.00,528.00 768.00,528.00 Z" />
  <path id="Route 10"
        fill="none" stroke="black" stroke-width="1"
        d="M 912.00,240.00
           C 912.00,240.00 912.00,384.00 912.00,384.00
             912.00,384.00 960.00,384.00 960.00,384.00
             960.00,384.00 960.00,240.00 960.00,240.00
             960.00,240.00 912.00,240.00 912.00,240.00 Z" />
  <path id="Route 9"
        fill="none" stroke="black" stroke-width="1"
        d="M 768.00,240.00
           C 768.00,240.00 768.00,258.00 768.00,258.00
             768.00,258.00 774.00,258.00 774.00,258.00
             774.00,258.00 774.00,288.00 774.00,288.00
             774.00,288.00 912.00,288.00 912.00,288.00
             912.00,288.00 912.00,240.00 912.00,240.00
             912.00,240.00 768.00,240.00 768.00,240.00 Z" />
  <path id="Route 8"
        fill="none" stroke="black" stroke-width="1"
        d="M 768.00,384.00
           C 768.00,384.00 768.00,432.00 768.00,432.00
             768.00,432.00 912.00,432.00 912.00,432.00
             912.00,432.00 912.00,384.00 912.00,384.00
             912.00,384.00 768.00,384.00 768.00,384.00 Z" />
  <path id="Route 7"
        fill="none" stroke="black" stroke-width="1"
        d="M 624.00,384.00
           C 624.00,384.00 624.00,432.00 624.00,432.00
             624.00,432.00 720.00,432.00 720.00,432.00
             720.00,432.00 720.00,384.00 720.00,384.00
             720.00,384.00 624.00,384.00 624.00,384.00 Z" />
  <path id="Route 6"
        fill="none" stroke="black" stroke-width="1"
        d="M 720.00,432.00
           C 720.00,432.00 720.00,528.00 720.00,528.00
             720.00,528.00 768.00,528.00 768.00,528.00
             768.00,528.00 768.00,432.00 768.00,432.00
             768.00,432.00 720.00,432.00 720.00,432.00 Z" />
  <path id="Route 5"
        fill="none" stroke="black" stroke-width="1"
        d="M 720.00,288.00
           C 720.00,288.00 720.00,384.00 720.00,384.00
             720.00,384.00 768.00,384.00 768.00,384.00
             768.00,384.00 768.00,294.00 768.00,294.00
             768.00,294.00 738.00,294.00 738.00,294.00
             738.00,294.00 738.00,288.00 738.00,288.00
             738.00,288.00 720.00,288.00 720.00,288.00 Z" />
  <path id="Route 4"
        fill="none" stroke="black" stroke-width="1"
        d="M 432.00,240.00
           C 432.00,240.00 432.00,288.00 432.00,288.00
             432.00,288.00 720.00,288.00 720.00,288.00
             720.00,288.00 720.00,240.00 720.00,240.00
             720.00,240.00 432.00,240.00 432.00,240.00 Z" />
  <path id="Route 3"
        fill="none" stroke="black" stroke-width="1"
        d="M 288.00,288.00
           C 288.00,288.00 288.00,336.00 288.00,336.00
             288.00,336.00 480.00,336.00 480.00,336.00
             480.00,336.00 480.00,288.00 480.00,288.00
             480.00,288.00 288.00,288.00 288.00,288.00 Z" />
  <path id="Route 2"
        fill="none" stroke="black" stroke-width="1"
        d="M 240.00,336.00
           C 240.00,336.00 240.00,480.00 240.00,480.00
             240.00,480.00 288.00,480.00 288.00,480.00
             288.00,480.00 288.00,336.00 288.00,336.00
             288.00,336.00 240.00,336.00 240.00,336.00 Z" />
  <path id="Route 1"
        fill="none" stroke="black" stroke-width="1"
        d="M 240.00,528.00
           C 240.00,528.00 240.00,624.00 240.00,624.00
             240.00,624.00 288.00,624.00 288.00,624.00
             288.00,624.00 288.00,528.00 288.00,528.00
             288.00,528.00 240.00,528.00 240.00,528.00 Z" />
</svg>
