<?xml version="1.0" encoding="UTF-8" standalone="no"?>
<!DOCTYPE svg PUBLIC "-//W3C//DTD SVG 20010904//EN"
              "http://www.w3.org/TR/2001/REC-SVG-20010904/DTD/svg10.dtd">

<svg xmlns="http://www.w3.org/2000/svg"
     width="8.88889in" height="6.66667in"
     viewBox="0 0 640 480">
  <path id="Phenac City"
        fill="none" stroke="black" stroke-width="1"
        d="M 371.00,266.00
           C 371.00,266.00 364.00,273.00 364.00,273.00
             364.00,273.00 371.00,281.00 371.00,281.00
             371.00,281.00 379.00,274.00 379.00,274.00
             379.00,274.00 371.00,266.00 371.00,266.00 Z" />
  <path id="Pyrite Town"
        fill="none" stroke="black" stroke-width="1"
        d="M 147.00,277.00
           C 147.00,277.00 140.00,284.00 140.00,284.00
             140.00,284.00 147.00,292.00 147.00,292.00
             147.00,292.00 155.00,285.00 155.00,285.00
             155.00,285.00 147.00,277.00 147.00,277.00 Z" />
  <path id="The Under"
        fill="none" stroke="black" stroke-width="1"
        d="M 126.00,254.00
           C 126.00,254.00 119.00,261.00 119.00,261.00
             119.00,261.00 126.00,269.00 126.00,269.00
             126.00,269.00 134.00,262.00 134.00,262.00
             134.00,262.00 126.00,254.00 126.00,254.00 Z" />
  <path id="Agate Village"
        fill="none" stroke="black" stroke-width="1"
        d="M 96.00,103.00
           C 96.00,103.00 89.00,110.00 89.00,110.00
             89.00,110.00 96.00,118.00 96.00,118.00
             96.00,118.00 104.00,111.00 104.00,111.00
             104.00,111.00 96.00,103.00 96.00,103.00 Z" />
  <path id="Outskirt Stand"
        fill="none" stroke="black" stroke-width="1"
        d="M 525.00,260.00
           C 525.00,260.00 518.00,267.00 518.00,267.00
             518.00,267.00 525.00,275.00 525.00,275.00
             525.00,275.00 533.00,268.00 533.00,268.00
             533.00,268.00 525.00,260.00 525.00,260.00 Z" />
  <path id="Realgam Tower"
        fill="none" stroke="black" stroke-width="1"
        d="M 305.00,248.00
           C 305.00,248.00 298.00,255.00 298.00,255.00
             298.00,255.00 305.00,263.00 305.00,263.00
             305.00,263.00 313.00,256.00 313.00,256.00
             313.00,256.00 305.00,248.00 305.00,248.00 Z" />
  <path id="Shadow Pkmn Lab"
        fill="none" stroke="black" stroke-width="1"
        d="M 299.00,179.00
           C 299.00,179.00 292.00,186.00 292.00,186.00
             292.00,186.00 299.00,194.00 299.00,194.00
             299.00,194.00 307.00,187.00 307.00,187.00
             307.00,187.00 299.00,179.00 299.00,179.00 Z" />
  <path id="Eclo Canyon"
        fill="none" stroke="black" stroke-width="1"
        d="M 505.00,149.00
           C 505.00,149.00 498.00,156.00 498.00,156.00
             498.00,156.00 505.00,164.00 505.00,164.00
             505.00,164.00 513.00,157.00 513.00,157.00
             513.00,157.00 505.00,149.00 505.00,149.00 Z" />
  <path id="Mt. Battle"
        fill="none" stroke="black" stroke-width="1"
        d="M 303.00,49.00
           C 303.00,49.00 296.00,56.00 296.00,56.00
             296.00,56.00 303.00,64.00 303.00,64.00
             303.00,64.00 311.00,57.00 311.00,57.00
             311.00,57.00 303.00,49.00 303.00,49.00 Z" />
</svg>
