<?xml version="1.0" encoding="UTF-8" standalone="no"?>
<!DOCTYPE svg PUBLIC "-//W3C//DTD SVG 20010904//EN"
              "http://www.w3.org/TR/2001/REC-SVG-20010904/DTD/svg10.dtd">

<svg xmlns="http://www.w3.org/2000/svg"
     width="18.7778in" height="15in"
     viewBox="0 0 1352 1080">
  <path id="Kaminko&apos;s House"
        fill="none" stroke="black" stroke-width="1"
        d="M 335.00,340.00
           C 333.84,343.47 332.06,352.91 328.37,353.88
             326.38,354.24 319.77,351.73 316.65,353.88
             314.00,355.92 314.12,360.90 313.04,364.00
             312.25,366.25 308.79,374.16 307.51,375.91
             305.03,379.28 299.74,383.71 298.87,387.98
             298.33,390.62 299.73,392.27 302.06,393.26
             302.06,393.26 320.72,397.05 320.72,397.05
             324.78,398.30 325.60,401.53 330.00,399.00
             335.88,402.11 338.37,400.30 341.70,403.43
             345.99,407.46 342.92,411.36 349.00,415.00
             349.00,412.28 348.16,404.58 351.98,404.14
             351.98,404.14 358.00,406.00 358.00,406.00
             365.57,394.09 360.54,397.81 373.00,386.09
             375.04,384.16 384.11,376.73 384.83,374.94
             385.99,372.06 383.33,370.42 380.98,369.65
             377.95,368.65 368.33,369.21 366.24,360.91
             363.51,350.04 374.24,352.78 376.00,342.00
             376.00,342.00 370.00,344.00 370.00,344.00
             370.00,344.00 370.00,340.00 370.00,340.00
             370.00,340.00 367.00,340.00 367.00,340.00
             365.71,344.19 363.23,347.09 360.12,350.00
             360.12,350.00 360.12,341.00 360.12,341.00
             351.01,344.15 358.97,355.38 360.12,360.00
             360.95,361.98 360.95,363.96 361.00,366.00
             360.27,364.55 359.81,363.18 358.47,362.15
             354.66,359.24 341.09,356.67 336.00,356.00
             336.00,356.00 337.00,340.00 337.00,340.00
             337.00,340.00 335.00,340.00 335.00,340.00 Z" />
  <path id="Phenac City"
        fill="none" stroke="black" stroke-width="1"
        d="M 979.00,694.00
           C 979.00,694.00 980.00,714.00 980.00,714.00
             980.00,714.00 982.00,714.00 982.00,714.00
             982.00,714.00 991.00,697.00 991.00,697.00
             996.22,698.20 996.25,696.89 1001.00,696.21
             1001.00,696.21 1008.00,695.48 1008.00,695.48
             1016.42,693.70 1027.20,688.09 1030.93,680.00
             1035.08,671.01 1033.52,659.73 1040.00,652.00
             1037.56,647.82 1033.36,642.26 1029.00,640.02
             1029.00,640.02 1020.00,637.21 1020.00,637.21
             1001.55,629.09 990.33,624.38 970.00,630.31
             964.22,632.00 956.27,635.93 952.82,641.04
             949.71,645.64 950.54,648.30 949.74,653.00
             948.77,658.77 947.80,657.29 948.02,665.00
             948.16,670.16 950.76,676.56 954.10,680.51
             956.22,683.01 969.04,692.02 972.00,693.11
             974.27,693.95 976.62,693.95 979.00,694.00 Z" />
  <path id="Agate Village"
        fill="none" stroke="black" stroke-width="1"
        d="M 507.00,352.00
           C 507.00,352.00 511.00,350.00 511.00,350.00
             511.46,352.99 514.02,360.94 518.00,357.00
             518.00,357.00 524.00,360.00 524.00,360.00
             524.17,358.98 524.12,358.18 524.59,357.14
             528.19,349.15 534.54,359.88 534.72,360.01
             536.02,360.98 537.48,360.88 539.00,361.00
             539.00,361.00 539.00,356.00 539.00,356.00
             539.00,356.00 541.00,362.00 541.00,362.00
             541.00,362.00 543.00,362.00 543.00,362.00
             543.00,362.00 545.74,351.30 545.74,351.30
             545.74,351.30 554.00,347.08 554.00,347.08
             554.00,347.08 563.00,340.00 563.00,340.00
             563.00,340.00 566.00,344.00 566.00,344.00
             566.00,334.14 565.94,328.89 558.25,321.43
             555.54,318.80 546.27,316.52 543.85,311.66
             542.83,309.60 543.01,306.30 543.00,304.00
             543.00,304.00 548.00,304.00 548.00,304.00
             548.00,304.00 548.00,298.00 548.00,298.00
             548.00,298.00 538.00,289.00 538.00,289.00
             535.33,292.89 533.74,290.60 529.00,290.00
             529.00,287.60 530.07,277.20 525.26,278.74
             523.00,279.47 523.05,282.91 522.77,284.83
             519.36,296.84 522.83,291.86 522.77,302.00
             523.15,311.17 521.75,314.41 515.00,320.96
             513.20,322.70 507.94,326.72 507.04,328.32
             505.16,331.67 507.73,334.87 507.70,337.72
             507.66,342.37 504.81,339.76 507.00,352.00 Z" />
  <path id="Pyrite Town"
        fill="none" stroke="black" stroke-width="1"
        d="M 389.88,626.00
           C 389.88,626.00 392.00,630.00 392.00,630.00
             389.05,631.39 384.05,633.35 383.58,637.05
             383.22,639.84 385.12,641.62 387.06,643.25
             390.23,645.93 400.24,653.52 404.00,654.23
             408.45,655.06 414.49,650.48 419.00,649.00
             420.38,653.72 425.35,662.34 429.13,665.43
             432.22,667.97 435.24,668.05 437.44,670.43
             437.44,670.43 446.00,687.00 446.00,687.00
             453.15,683.07 450.16,676.91 454.43,674.02
             456.87,672.37 460.38,673.63 464.91,671.87
             470.54,669.68 480.74,660.19 483.47,655.00
             485.24,651.63 488.29,642.76 488.66,639.00
             489.69,628.66 479.14,613.41 470.00,609.19
             465.31,607.02 462.00,607.01 457.00,607.00
             451.35,606.99 443.26,606.57 438.00,608.34
             432.50,610.19 433.08,612.50 425.90,614.00
             426.18,612.12 426.61,609.96 425.90,608.17
             423.86,603.80 415.04,598.09 410.00,598.11
             405.11,598.12 392.58,605.52 389.88,609.46
             384.71,616.50 397.43,618.67 389.88,626.00 Z" />
  <path id="Gateon Port"
        fill="none" stroke="black" stroke-width="1"
        d="M 162.00,303.00
           C 160.74,311.58 156.37,308.28 154.61,312.31
             153.23,315.49 157.11,325.25 158.00,329.00
             164.15,332.16 162.32,334.26 163.33,340.00
             163.85,342.97 166.65,352.45 168.00,355.00
             163.72,355.11 161.58,354.62 160.00,359.00
             154.13,360.02 155.68,362.85 157.27,367.27
             158.07,369.49 158.24,371.04 159.78,372.95
             159.78,372.95 168.70,380.93 168.70,380.93
             170.17,382.44 172.09,384.95 174.30,385.29
             176.85,385.69 182.63,382.27 185.00,381.00
             185.00,381.00 190.00,398.00 190.00,398.00
             183.48,398.76 180.28,401.12 182.00,408.00
             182.00,408.00 184.00,408.00 184.00,408.00
             184.00,408.00 185.00,405.00 185.00,405.00
             185.00,405.00 187.00,405.00 187.00,405.00
             190.08,411.97 194.27,409.55 191.00,403.00
             194.19,404.34 197.56,405.83 200.94,403.98
             202.74,402.99 204.83,400.66 203.26,398.60
             201.61,396.44 194.62,397.00 192.00,397.00
             192.63,389.22 193.98,386.14 192.00,378.00
             195.35,377.57 196.84,377.04 200.00,376.00
             200.00,376.00 206.77,373.53 206.77,373.53
             210.84,371.14 209.91,365.12 208.47,361.33
             207.33,358.31 204.52,357.15 202.15,355.22
             198.52,352.24 193.31,347.11 191.55,342.71
             190.20,339.33 191.20,337.97 190.04,335.28
             189.05,333.02 186.63,331.25 186.54,328.00
             186.45,325.14 188.60,322.71 188.59,319.04
             188.59,319.04 187.00,309.00 187.00,309.00
             183.78,306.81 183.23,306.75 182.00,303.00
             182.00,303.00 172.96,304.87 172.96,304.87
             172.96,304.87 162.00,303.00 162.00,303.00 Z" />
  <path id="Oasis Poké Spot"
        fill="none" stroke="black" stroke-width="1"
        d="M 526.00,549.00
           C 527.21,544.72 526.59,539.67 528.60,537.58
             530.00,536.12 535.55,534.81 538.00,533.64
             548.62,528.55 548.02,524.52 548.00,514.00
             547.99,510.82 548.27,507.82 546.40,505.04
             541.83,498.22 531.43,498.89 528.02,492.87
             526.80,490.71 527.01,487.44 527.00,485.00
             522.14,485.78 519.20,488.73 515.00,491.32
             504.89,497.55 492.99,503.73 493.01,517.00
             493.01,520.03 493.10,522.24 494.57,524.99
             496.41,528.42 502.40,534.01 506.00,535.42
             508.26,536.31 513.56,536.62 516.70,538.91
             521.29,542.24 518.65,546.29 526.00,549.00 Z" />
  <path id="Orre Colosseum"
        fill="none" stroke="black" stroke-width="1"
        d="M 332.00,586.00
           C 332.00,586.00 332.00,572.00 332.00,572.00
             338.72,571.63 343.38,569.18 349.00,565.69
             351.89,563.90 355.36,562.04 357.79,559.68
             362.90,554.71 366.61,544.08 365.81,537.00
             365.51,534.31 364.72,532.50 363.88,530.00
             362.31,525.30 361.63,522.84 357.83,519.21
             351.07,512.75 346.39,514.74 341.00,513.73
             341.00,513.73 334.00,511.83 334.00,511.83
             334.00,511.83 325.00,511.83 325.00,511.83
             325.00,511.83 305.00,508.00 305.00,508.00
             305.00,508.00 308.00,504.00 308.00,504.00
             300.53,502.07 300.23,505.19 294.00,507.31
             290.30,508.57 280.88,509.82 278.11,511.74
             272.36,515.72 270.89,525.64 269.75,532.00
             269.13,535.46 267.71,537.34 268.66,541.00
             269.31,543.46 274.88,553.47 276.46,556.00
             282.86,566.18 285.95,563.66 294.95,568.46
             298.64,570.43 298.91,572.53 301.26,573.20
             301.26,573.20 320.96,574.60 320.96,574.60
             326.43,576.71 326.48,582.64 332.00,586.00 Z" />
  <path id="Cave Poké Spot"
        fill="none" stroke="black" stroke-width="1"
        d="M 766.00,335.00
           C 755.31,336.38 750.16,345.70 753.83,355.83
             753.83,355.83 758.00,363.00 758.00,363.00
             758.00,363.00 762.00,362.00 762.00,362.00
             762.00,362.00 770.27,366.60 770.27,366.60
             770.27,366.60 775.00,383.00 775.00,383.00
             775.00,383.00 778.00,383.00 778.00,383.00
             778.29,378.89 780.27,370.36 783.48,367.66
             788.74,363.25 795.96,364.14 799.26,360.45
             800.65,358.90 801.25,355.55 802.16,353.42
             803.18,351.07 804.07,349.77 803.73,347.00
             802.97,340.82 797.04,339.30 795.51,334.82
             794.51,331.90 795.72,327.86 793.40,326.02
             791.95,324.87 788.82,325.02 787.00,324.72
             782.85,324.40 769.81,321.08 767.02,324.72
             765.60,326.40 766.00,332.59 766.00,335.00 Z" />
  <path id="Cipher Lab"
        fill="none" stroke="black" stroke-width="1"
        d="M 743.00,465.00
           C 736.51,460.36 731.85,464.31 727.00,468.99
             723.66,472.21 720.46,474.14 720.06,479.01
             719.61,484.43 721.06,485.83 721.74,490.00
             722.91,497.11 720.64,493.19 724.00,504.00
             724.00,504.00 729.00,504.00 729.00,504.00
             729.00,504.00 729.00,500.00 729.00,500.00
             729.00,500.00 731.00,500.00 731.00,500.00
             732.04,512.91 741.95,508.09 747.00,507.26
             751.29,506.55 751.77,507.49 757.00,506.00
             757.00,506.00 761.00,523.00 761.00,523.00
             765.43,518.27 768.38,508.32 767.00,502.00
             771.45,501.96 774.31,502.67 776.00,498.00
             778.92,498.00 783.33,498.24 786.00,497.27
             786.00,497.27 793.00,493.58 793.00,493.58
             793.00,493.58 801.00,492.00 801.00,492.00
             803.51,491.34 808.70,491.00 810.26,489.40
             812.71,486.89 811.98,481.97 810.94,479.00
             809.22,474.07 799.65,460.88 794.57,458.79
             789.39,456.65 787.13,460.16 783.00,462.20
             778.83,464.25 772.65,465.66 768.02,465.49
             763.15,465.31 763.86,461.94 760.70,460.60
             757.09,459.06 753.44,461.97 750.00,462.71
             750.00,462.71 744.54,463.54 744.54,463.54
             743.25,464.15 743.49,464.45 743.00,465.00 Z" />
  <path id="Cipher Key Lair"
        fill="none" stroke="black" stroke-width="1"
        d="M 1048.00,314.00
           C 1040.26,308.14 1027.48,292.68 1019.99,285.00
             1018.10,283.07 1011.60,276.23 1009.72,275.18
             1005.38,272.74 1000.95,275.37 997.00,277.22
             997.00,277.22 969.00,290.00 969.00,290.00
             965.05,291.71 958.82,293.60 959.19,298.93
             959.48,303.06 971.65,313.65 975.00,317.00
             975.00,317.00 989.01,332.00 989.01,332.00
             990.82,333.81 993.49,336.62 996.00,337.30
             999.33,338.20 1006.78,334.24 1010.00,332.77
             1010.00,332.77 1034.00,322.28 1034.00,322.28
             1039.59,319.87 1043.85,318.71 1048.00,314.00 Z" />
  <path id="Snagem Hideout"
        fill="none" stroke="black" stroke-width="1"
        d="M 1142.00,432.00
           C 1142.00,432.00 1143.00,444.00 1143.00,444.00
             1151.17,439.85 1150.76,429.10 1158.17,425.02
             1162.74,422.50 1166.95,425.99 1169.28,426.44
             1171.79,426.93 1173.76,425.93 1176.00,425.00
             1176.00,425.00 1172.00,433.00 1172.00,433.00
             1176.21,434.38 1187.08,439.16 1190.69,436.82
             1194.46,434.37 1192.10,429.37 1192.06,426.58
             1192.06,426.58 1193.00,417.00 1193.00,417.00
             1193.16,403.43 1190.95,402.61 1188.63,391.00
             1187.85,387.08 1188.40,382.14 1186.83,379.00
             1186.83,379.00 1176.21,366.00 1176.21,366.00
             1172.17,360.88 1167.75,354.09 1161.00,352.42
             1154.57,350.82 1149.61,353.68 1144.00,356.23
             1140.36,357.89 1133.92,359.47 1131.33,361.65
             1127.88,364.54 1126.52,368.97 1124.94,373.00
             1124.94,373.00 1119.69,384.00 1119.69,384.00
             1119.69,384.00 1117.96,393.00 1117.96,393.00
             1114.75,404.26 1111.11,413.25 1118.81,423.90
             1124.17,431.30 1132.33,429.04 1135.00,429.56
             1135.00,429.56 1142.00,432.00 1142.00,432.00 Z" />
  <path id="Rock Poké Spot"
        fill="none" stroke="black" stroke-width="1"
        d="M 1172.00,506.00
           C 1171.81,507.86 1171.71,509.19 1171.08,511.00
             1167.79,520.54 1161.83,514.90 1154.00,518.21
             1146.37,521.44 1144.49,526.14 1143.63,534.00
             1143.30,537.05 1143.54,539.16 1144.80,542.00
             1146.33,545.44 1149.67,548.90 1152.00,552.00
             1152.00,552.00 1153.00,552.00 1153.00,552.00
             1153.00,552.00 1154.00,550.00 1154.00,550.00
             1154.00,550.00 1162.00,556.00 1162.00,556.00
             1160.60,560.92 1160.60,565.08 1162.00,570.00
             1166.76,567.58 1170.25,562.29 1171.00,557.00
             1180.06,557.42 1187.90,559.42 1195.74,552.39
             1197.75,550.59 1198.81,548.44 1199.85,546.00
             1200.68,544.06 1202.14,540.04 1202.23,538.00
             1202.57,529.89 1192.43,521.00 1187.00,515.91
             1181.72,510.96 1179.57,506.61 1172.00,506.00 Z" />
  <path id="S.S. Libra"
        fill="none" stroke="black" stroke-width="1"
        d="M 1014.00,478.00
           C 1014.00,478.00 1012.00,472.00 1012.00,472.00
             1006.01,474.12 1004.35,478.01 1010.00,482.00
             1006.12,484.65 1005.66,485.33 1005.00,490.00
             1005.00,490.00 999.00,484.00 999.00,484.00
             993.27,485.24 991.65,486.69 995.00,492.00
             992.73,493.42 992.28,493.87 995.00,495.00
             986.66,498.35 984.82,502.02 984.00,511.00
             979.35,511.00 968.16,511.22 964.21,509.42
             961.89,508.36 959.68,505.02 958.08,503.00
             953.21,496.86 947.20,489.55 945.00,482.00
             940.76,484.62 938.64,492.32 936.88,497.00
             935.33,501.15 930.36,513.01 931.33,516.87
             932.30,520.74 938.55,522.93 942.00,523.96
             942.00,523.96 949.00,525.24 949.00,525.24
             949.00,525.24 955.00,526.85 955.00,526.85
             958.80,527.16 961.21,525.31 974.00,526.85
             972.19,531.53 972.47,531.29 972.84,536.00
             973.07,539.03 972.60,544.35 974.02,546.81
             975.80,549.90 982.53,553.21 986.00,554.02
             986.00,554.02 994.00,554.02 994.00,554.02
             994.00,554.02 1001.00,556.00 1001.00,556.00
             1006.76,547.86 1014.07,541.24 1020.63,533.83
             1020.63,533.83 1033.16,518.00 1033.16,518.00
             1036.54,513.53 1044.04,502.25 1045.25,497.00
             1045.79,494.69 1044.81,490.45 1044.42,488.00
             1043.15,479.82 1039.75,466.31 1029.01,467.12
             1022.38,467.62 1018.49,473.93 1014.00,478.00 Z" />
  <path id="Outskirt Stand"
        fill="none" stroke="black" stroke-width="1"
        d="M 1174.00,634.00
           C 1171.51,627.34 1166.75,623.99 1166.00,633.00
             1152.69,626.99 1155.64,631.60 1145.00,629.00
             1142.11,638.35 1142.00,640.40 1142.00,650.00
             1133.96,650.47 1132.11,653.25 1127.00,659.00
             1128.50,661.35 1129.99,663.78 1132.17,665.57
             1136.55,669.17 1144.58,670.36 1150.00,671.37
             1152.41,671.82 1154.54,672.92 1156.98,671.88
             1161.29,670.04 1161.86,666.07 1162.00,662.00
             1168.72,664.84 1169.79,663.47 1172.91,665.00
             1175.06,666.06 1176.57,668.27 1179.09,668.42
             1181.70,668.57 1184.02,666.29 1188.00,666.20
             1188.00,666.20 1200.00,668.70 1200.00,668.70
             1204.96,669.42 1213.34,669.01 1218.00,670.85
             1218.00,670.85 1227.00,675.86 1227.00,675.86
             1227.00,675.86 1238.00,678.28 1238.00,678.28
             1241.94,679.29 1245.94,681.01 1249.90,678.83
             1255.98,675.46 1254.50,668.32 1255.31,665.09
             1256.04,662.15 1257.65,661.58 1259.00,657.00
             1269.55,656.63 1265.48,650.67 1264.26,643.91
             1263.30,638.60 1265.72,633.82 1259.94,630.43
             1256.12,628.19 1251.24,629.35 1247.00,628.87
             1240.44,628.14 1226.33,622.22 1229.00,635.00
             1229.00,635.00 1225.00,637.00 1225.00,637.00
             1225.00,637.00 1227.00,630.00 1227.00,630.00
             1219.06,630.10 1218.10,631.06 1218.00,639.00
             1218.00,639.00 1208.00,635.00 1208.00,635.00
             1208.00,635.00 1212.80,612.00 1212.80,612.00
             1212.62,606.26 1208.27,605.44 1206.17,608.43
             1204.93,610.22 1204.99,613.81 1204.72,616.00
             1203.90,622.56 1203.09,630.38 1198.00,635.00
             1198.00,635.00 1195.43,624.00 1195.43,624.00
             1195.43,624.00 1196.00,614.00 1196.00,614.00
             1180.82,614.53 1190.59,629.65 1191.00,638.00
             1188.68,637.52 1184.40,636.90 1183.20,634.57
             1182.11,632.44 1183.88,628.15 1184.62,626.00
             1186.64,620.12 1188.14,614.17 1189.03,608.02
             1189.76,602.99 1186.21,602.34 1183.34,604.60
             1180.53,606.81 1180.29,609.78 1179.85,613.00
             1179.44,615.99 1178.89,619.15 1177.90,622.00
             1175.99,627.52 1174.69,627.48 1174.00,634.00 Z" />
  <path id="Realgam Tower"
        fill="none" stroke="black" stroke-width="1"
        d="M 800.00,510.00
           C 800.00,510.00 797.79,524.00 797.79,524.00
             797.79,524.00 796.00,535.00 796.00,535.00
             796.00,535.00 796.00,559.00 796.00,559.00
             796.00,559.00 793.98,539.29 793.98,539.29
             793.98,539.29 791.00,537.00 791.00,537.00
             786.44,545.96 788.71,547.19 787.83,556.00
             787.83,556.00 785.32,568.00 785.32,568.00
             784.13,575.37 785.97,571.66 782.98,582.96
             781.43,588.85 775.77,593.04 781.00,603.00
             779.82,601.81 779.28,601.62 778.43,599.89
             777.71,597.65 777.76,582.71 778.43,580.00
             779.04,575.92 780.66,575.30 780.96,570.00
             781.17,566.06 780.77,558.90 775.96,557.74
             774.27,557.34 772.91,558.02 771.85,559.32
             769.31,562.45 770.05,570.93 770.00,575.00
             769.89,582.78 765.61,587.88 762.89,595.00
             760.89,600.23 759.78,609.34 760.04,615.00
             760.17,617.81 760.56,621.42 762.56,623.57
             765.81,627.07 778.15,626.77 781.96,624.26
             785.51,621.92 786.64,618.78 788.00,615.00
             798.85,620.12 796.48,631.81 792.83,641.00
             790.66,646.47 785.93,652.42 794.00,655.00
             792.19,661.59 794.76,669.64 800.00,674.00
             804.98,665.56 803.38,665.36 805.94,660.11
             808.77,654.30 815.07,655.63 810.00,646.00
             810.00,646.00 816.00,651.00 816.00,651.00
             819.25,645.79 813.76,644.60 812.31,639.00
             810.09,630.45 810.72,620.83 817.53,614.43
             819.83,612.26 823.96,611.31 826.96,612.45
             830.83,613.91 832.61,618.67 836.29,620.71
             841.27,623.48 856.62,622.69 856.98,610.00
             857.33,598.24 853.21,601.19 850.74,594.96
             849.86,592.76 850.00,589.38 850.07,587.00
             850.07,587.00 850.07,569.00 850.07,569.00
             850.71,564.30 853.06,562.70 852.77,558.00
             852.57,554.65 850.28,549.21 849.00,546.00
             849.00,546.00 847.00,546.00 847.00,546.00
             847.00,546.00 843.74,561.91 843.74,561.91
             843.74,561.91 842.12,567.17 842.12,567.17
             842.12,567.17 842.12,577.00 842.12,577.00
             842.12,577.00 840.00,590.00 840.00,590.00
             840.00,590.00 836.00,589.00 836.00,589.00
             836.00,589.00 831.00,601.00 831.00,601.00
             831.00,589.36 830.39,593.91 829.11,585.00
             828.81,582.91 828.99,579.56 826.57,578.63
             823.94,577.62 820.12,580.65 818.00,582.00
             818.00,572.04 819.09,570.23 810.00,570.00
             807.29,559.05 803.03,565.26 803.00,552.00
             802.97,534.79 805.85,540.78 806.00,530.00
             806.13,519.72 806.25,519.52 802.00,510.00
             802.00,510.00 800.00,510.00 800.00,510.00 Z" />
  <path id="Mt. Battle"
        fill="none" stroke="black" stroke-width="1"
        d="M 687.00,245.00
           C 694.73,247.10 698.19,242.83 705.00,240.00
             705.00,240.00 704.00,245.00 704.00,245.00
             706.30,246.30 710.65,249.27 713.00,249.63
             716.33,250.15 718.57,248.01 721.00,248.05
             725.77,248.14 727.54,253.36 729.00,257.00
             729.00,257.00 731.00,257.00 731.00,257.00
             732.15,253.28 735.97,241.85 732.40,239.02
             731.00,237.91 728.69,238.06 727.00,238.00
             726.93,230.81 726.66,228.48 719.00,227.00
             719.00,227.00 719.00,216.00 719.00,216.00
             719.00,216.00 723.00,217.00 723.00,217.00
             723.60,211.57 725.57,205.32 730.22,201.84
             730.22,201.84 738.00,197.97 738.00,197.97
             740.40,196.68 745.25,193.54 747.95,193.99
             752.52,194.74 752.28,200.89 754.72,203.42
             755.85,204.59 757.52,205.13 759.02,205.65
             766.97,208.41 768.29,205.38 774.99,202.00
             774.18,194.66 777.02,193.08 774.99,189.02
             772.31,183.73 765.27,182.23 760.00,183.84
             760.00,183.84 752.00,187.09 752.00,187.09
             747.93,188.39 746.41,187.57 742.00,189.35
             742.00,189.35 729.00,195.26 729.00,195.26
             725.36,195.94 723.33,194.02 720.00,193.40
             717.88,193.01 706.07,194.78 704.81,196.02
             702.54,197.83 704.31,201.83 704.81,204.00
             704.81,204.00 706.83,209.83 706.83,209.83
             708.95,214.56 712.91,217.65 710.40,223.83
             709.32,226.49 700.46,234.97 697.71,236.62
             692.34,239.85 689.62,237.73 687.00,245.00 Z" />
  <path id="Pokémon HQ Lab"
        fill="none" stroke="black" stroke-width="1"
        d="M 270.00,228.00
           C 270.71,233.02 271.36,233.97 276.00,236.00
             272.53,242.69 275.58,246.97 279.00,253.00
             279.00,253.00 281.00,253.00 281.00,253.00
             281.00,253.00 282.00,237.00 282.00,237.00
             292.40,236.87 303.24,231.12 307.89,221.42
             310.30,216.41 308.00,205.02 305.41,203.02
             304.03,201.96 301.66,202.04 300.00,202.00
             297.06,201.95 292.68,202.38 290.10,200.98
             286.02,198.76 286.90,195.54 280.98,195.06
             273.28,194.43 273.83,197.51 268.96,198.85
             268.96,198.85 248.00,198.85 248.00,198.85
             245.81,199.02 243.09,198.90 241.14,200.02
             238.90,201.32 233.83,209.31 234.20,211.87
             234.63,214.87 238.68,216.18 242.14,220.62
             243.56,222.43 244.58,225.06 246.30,226.41
             249.61,229.01 265.13,228.00 270.00,228.00 Z" />
</svg>
