<?xml version="1.0" encoding="UTF-8" standalone="no"?>
<!DOCTYPE svg PUBLIC "-//W3C//DTD SVG 20010904//EN"
              "http://www.w3.org/TR/2001/REC-SVG-20010904/DTD/svg10.dtd">

<svg xmlns="http://www.w3.org/2000/svg"
     width="285.79mm" height="222.281mm"
     viewBox="0 0 1080 840">
  <path id="Victory Road"
        fill="none" stroke="black" stroke-width="1"
        d="M 925.00,445.00
           C 925.00,445.00 925.00,450.00 925.00,450.00
             925.00,450.00 920.00,450.00 920.00,450.00
             920.00,450.00 920.00,460.00 920.00,460.00
             920.00,460.00 925.00,460.00 925.00,460.00
             925.00,460.00 925.00,465.00 925.00,465.00
             925.00,465.00 945.00,465.00 945.00,465.00
             945.00,465.00 945.00,460.00 945.00,460.00
             945.00,460.00 950.00,460.00 950.00,460.00
             950.00,460.00 950.00,450.00 950.00,450.00
             950.00,450.00 945.00,450.00 945.00,450.00
             945.00,450.00 945.00,445.00 945.00,445.00
             945.00,445.00 925.00,445.00 925.00,445.00 Z" />
  <path id="Pal Park"
        fill="none" stroke="black" stroke-width="1"
        d="M 330.00,795.00
           C 330.00,795.00 330.00,800.00 330.00,800.00
             330.00,800.00 325.00,800.00 325.00,800.00
             325.00,800.00 325.00,810.00 325.00,810.00
             325.00,810.00 330.00,810.00 330.00,810.00
             330.00,810.00 330.00,815.00 330.00,815.00
             330.00,815.00 350.00,815.00 350.00,815.00
             350.00,815.00 350.00,810.00 350.00,810.00
             350.00,810.00 355.00,810.00 355.00,810.00
             355.00,810.00 355.00,800.00 355.00,800.00
             355.00,800.00 350.00,800.00 350.00,800.00
             350.00,800.00 350.00,795.00 350.00,795.00
             350.00,795.00 330.00,795.00 330.00,795.00 Z" />
  <path id="Pokémon League"
        fill="none" stroke="black" stroke-width="1"
        d="M 925.00,405.00
           C 925.00,405.00 925.00,410.00 925.00,410.00
             925.00,410.00 920.00,410.00 920.00,410.00
             920.00,410.00 920.00,430.00 920.00,430.00
             920.00,430.00 925.00,430.00 925.00,430.00
             925.00,430.00 925.00,435.00 925.00,435.00
             925.00,435.00 945.00,435.00 945.00,435.00
             945.00,435.00 945.00,430.00 945.00,430.00
             945.00,430.00 950.00,430.00 950.00,430.00
             950.00,430.00 950.00,410.00 950.00,410.00
             950.00,410.00 945.00,410.00 945.00,410.00
             945.00,410.00 945.00,405.00 945.00,405.00
             945.00,405.00 925.00,405.00 925.00,405.00 Z" />
  <path id="Fight Area"
        fill="none" stroke="black" stroke-width="1"
        d="M 680.00,265.00
           C 680.00,265.00 680.00,270.00 680.00,270.00
             680.00,270.00 675.00,270.00 675.00,270.00
             675.00,270.00 675.00,290.00 675.00,290.00
             675.00,290.00 680.00,290.00 680.00,290.00
             680.00,290.00 680.00,295.00 680.00,295.00
             680.00,295.00 735.00,295.00 735.00,295.00
             735.00,295.00 735.00,290.00 735.00,290.00
             735.00,290.00 740.00,290.00 740.00,290.00
             740.00,290.00 740.00,270.00 740.00,270.00
             740.00,270.00 735.00,270.00 735.00,270.00
             735.00,270.00 735.00,265.00 735.00,265.00
             735.00,265.00 680.00,265.00 680.00,265.00 Z" />
  <path id="Survival Area"
        fill="none" stroke="black" stroke-width="1"
        d="M 715.00,160.00
           C 715.00,160.00 715.00,165.00 715.00,165.00
             715.00,165.00 710.00,165.00 710.00,165.00
             710.00,165.00 710.00,185.00 710.00,185.00
             710.00,185.00 715.00,185.00 715.00,185.00
             715.00,185.00 715.00,190.00 715.00,190.00
             715.00,190.00 735.00,190.00 735.00,190.00
             735.00,190.00 735.00,185.00 735.00,185.00
             735.00,185.00 740.00,185.00 740.00,185.00
             740.00,185.00 740.00,165.00 740.00,165.00
             740.00,165.00 735.00,165.00 735.00,165.00
             735.00,165.00 735.00,160.00 735.00,160.00
             735.00,160.00 715.00,160.00 715.00,160.00 Z" />
  <path id="Resort Area"
        fill="none" stroke="black" stroke-width="1"
        d="M 890.00,300.00
           C 890.00,300.00 890.00,305.00 890.00,305.00
             890.00,305.00 885.00,305.00 885.00,305.00
             885.00,305.00 885.00,325.00 885.00,325.00
             885.00,325.00 890.00,325.00 890.00,325.00
             890.00,325.00 890.00,330.00 890.00,330.00
             890.00,330.00 910.00,330.00 910.00,330.00
             910.00,330.00 910.00,325.00 910.00,325.00
             910.00,325.00 915.00,325.00 915.00,325.00
             915.00,325.00 915.00,305.00 915.00,305.00
             915.00,305.00 910.00,305.00 910.00,305.00
             910.00,305.00 910.00,300.00 910.00,300.00
             910.00,300.00 890.00,300.00 890.00,300.00 Z" />
  <path id="Veilstone City"
        fill="none" stroke="black" stroke-width="1"
        d="M 750.00,440.00
           C 750.00,440.00 750.00,445.00 750.00,445.00
             750.00,445.00 745.00,445.00 745.00,445.00
             745.00,445.00 745.00,500.00 745.00,500.00
             745.00,500.00 750.00,500.00 750.00,500.00
             750.00,500.00 750.00,505.00 750.00,505.00
             750.00,505.00 805.00,505.00 805.00,505.00
             805.00,505.00 805.00,500.00 805.00,500.00
             805.00,500.00 810.00,500.00 810.00,500.00
             810.00,500.00 810.00,445.00 810.00,445.00
             810.00,445.00 805.00,445.00 805.00,445.00
             805.00,445.00 805.00,440.00 805.00,440.00
             805.00,440.00 750.00,440.00 750.00,440.00 Z" />
  <path id="Sunyshore City"
        fill="none" stroke="black" stroke-width="1"
        d="M 925.00,615.00
           C 925.00,615.00 925.00,620.00 925.00,620.00
             925.00,620.00 920.00,620.00 920.00,620.00
             920.00,620.00 920.00,675.00 920.00,675.00
             920.00,675.00 925.00,675.00 925.00,675.00
             925.00,675.00 925.00,680.00 925.00,680.00
             925.00,680.00 980.00,680.00 980.00,680.00
             980.00,680.00 980.00,675.00 980.00,675.00
             980.00,675.00 985.00,675.00 985.00,675.00
             985.00,675.00 985.00,620.00 985.00,620.00
             985.00,620.00 980.00,620.00 980.00,620.00
             980.00,620.00 980.00,615.00 980.00,615.00
             980.00,615.00 925.00,615.00 925.00,615.00 Z" />
  <path id="Pastoria City"
        fill="none" stroke="black" stroke-width="1"
        d="M 645.00,685.00
           C 645.00,685.00 645.00,690.00 645.00,690.00
             645.00,690.00 640.00,690.00 640.00,690.00
             640.00,690.00 640.00,745.00 640.00,745.00
             640.00,745.00 645.00,745.00 645.00,745.00
             645.00,745.00 645.00,750.00 645.00,750.00
             645.00,750.00 700.00,750.00 700.00,750.00
             700.00,750.00 700.00,745.00 700.00,745.00
             700.00,745.00 705.00,745.00 705.00,745.00
             705.00,745.00 705.00,690.00 705.00,690.00
             705.00,690.00 700.00,690.00 700.00,690.00
             700.00,690.00 700.00,685.00 700.00,685.00
             700.00,685.00 645.00,685.00 645.00,685.00 Z" />
  <path id="Hearthome City"
        fill="none" stroke="black" stroke-width="1"
        d="M 505.00,545.00
           C 505.00,545.00 505.00,550.00 505.00,550.00
             505.00,550.00 500.00,550.00 500.00,550.00
             500.00,550.00 500.00,605.00 500.00,605.00
             500.00,605.00 505.00,605.00 505.00,605.00
             505.00,605.00 505.00,610.00 505.00,610.00
             505.00,610.00 560.00,610.00 560.00,610.00
             560.00,610.00 560.00,605.00 560.00,605.00
             560.00,605.00 565.00,605.00 565.00,605.00
             565.00,605.00 565.00,550.00 565.00,550.00
             565.00,550.00 560.00,550.00 560.00,550.00
             560.00,550.00 560.00,545.00 560.00,545.00
             560.00,545.00 505.00,545.00 505.00,545.00 Z" />
  <path id="Oreburgh City"
        fill="none" stroke="black" stroke-width="1"
        d="M 295.00,615.00
           C 295.00,615.00 295.00,620.00 295.00,620.00
             295.00,620.00 290.00,620.00 290.00,620.00
             290.00,620.00 290.00,640.00 290.00,640.00
             290.00,640.00 295.00,640.00 295.00,640.00
             295.00,640.00 295.00,645.00 295.00,645.00
             295.00,645.00 325.00,645.00 325.00,645.00
             325.00,645.00 325.00,675.00 325.00,675.00
             325.00,675.00 330.00,675.00 330.00,675.00
             330.00,675.00 330.00,680.00 330.00,680.00
             330.00,680.00 350.00,680.00 350.00,680.00
             350.00,680.00 350.00,675.00 350.00,675.00
             350.00,675.00 355.00,675.00 355.00,675.00
             355.00,675.00 355.00,620.00 355.00,620.00
             355.00,620.00 350.00,620.00 350.00,620.00
             350.00,620.00 350.00,615.00 350.00,615.00
             350.00,615.00 295.00,615.00 295.00,615.00 Z" />
  <path id="Jubilife City"
        fill="none" stroke="black" stroke-width="1"
        d="M 155.00,615.00
           C 155.00,615.00 155.00,620.00 155.00,620.00
             155.00,620.00 150.00,620.00 150.00,620.00
             150.00,620.00 150.00,675.00 150.00,675.00
             150.00,675.00 155.00,675.00 155.00,675.00
             155.00,675.00 155.00,680.00 155.00,680.00
             155.00,680.00 210.00,680.00 210.00,680.00
             210.00,680.00 210.00,675.00 210.00,675.00
             210.00,675.00 215.00,675.00 215.00,675.00
             215.00,675.00 215.00,620.00 215.00,620.00
             215.00,620.00 210.00,620.00 210.00,620.00
             210.00,620.00 210.00,615.00 210.00,615.00
             210.00,615.00 155.00,615.00 155.00,615.00 Z" />
  <path id="Canalave City"
        fill="none" stroke="black" stroke-width="1"
        d="M 50.00,580.00
           C 50.00,580.00 50.00,585.00 50.00,585.00
             50.00,585.00 45.00,585.00 45.00,585.00
             45.00,585.00 45.00,640.00 45.00,640.00
             45.00,640.00 50.00,640.00 50.00,640.00
             50.00,640.00 50.00,645.00 50.00,645.00
             50.00,645.00 70.00,645.00 70.00,645.00
             70.00,645.00 70.00,640.00 70.00,640.00
             70.00,640.00 75.00,640.00 75.00,640.00
             75.00,640.00 75.00,585.00 75.00,585.00
             75.00,585.00 70.00,585.00 70.00,585.00
             70.00,585.00 70.00,580.00 70.00,580.00
             70.00,580.00 50.00,580.00 50.00,580.00 Z" />
  <path id="Floaroma Town"
        fill="none" stroke="black" stroke-width="1"
        d="M 190.00,475.00
           C 190.00,475.00 190.00,480.00 190.00,480.00
             190.00,480.00 185.00,480.00 185.00,480.00
             185.00,480.00 185.00,535.00 185.00,535.00
             185.00,535.00 190.00,535.00 190.00,535.00
             190.00,535.00 190.00,540.00 190.00,540.00
             190.00,540.00 210.00,540.00 210.00,540.00
             210.00,540.00 210.00,535.00 210.00,535.00
             210.00,535.00 215.00,535.00 215.00,535.00
             215.00,535.00 215.00,480.00 215.00,480.00
             215.00,480.00 210.00,480.00 210.00,480.00
             210.00,480.00 210.00,475.00 210.00,475.00
             210.00,475.00 190.00,475.00 190.00,475.00 Z" />
  <path id="Eterna City"
        fill="none" stroke="black" stroke-width="1"
        d="M 330.00,370.00
           C 330.00,370.00 330.00,375.00 330.00,375.00
             330.00,375.00 325.00,375.00 325.00,375.00
             325.00,375.00 325.00,430.00 325.00,430.00
             325.00,430.00 330.00,430.00 330.00,430.00
             330.00,430.00 330.00,435.00 330.00,435.00
             330.00,435.00 350.00,435.00 350.00,435.00
             350.00,435.00 350.00,430.00 350.00,430.00
             350.00,430.00 355.00,430.00 355.00,430.00
             355.00,430.00 355.00,400.00 355.00,400.00
             355.00,400.00 385.00,400.00 385.00,400.00
             385.00,400.00 385.00,395.00 385.00,395.00
             385.00,395.00 390.00,395.00 390.00,395.00
             390.00,395.00 390.00,375.00 390.00,375.00
             390.00,375.00 385.00,375.00 385.00,375.00
             385.00,375.00 385.00,370.00 385.00,370.00
             385.00,370.00 330.00,370.00 330.00,370.00 Z" />
  <path id="Snowpoint City"
        fill="none" stroke="black" stroke-width="1"
        d="M 400.00,20.00
           C 400.00,20.00 400.00,25.00 400.00,25.00
             400.00,25.00 395.00,25.00 395.00,25.00
             395.00,25.00 395.00,80.00 395.00,80.00
             395.00,80.00 400.00,80.00 400.00,80.00
             400.00,80.00 400.00,85.00 400.00,85.00
             400.00,85.00 420.00,85.00 420.00,85.00
             420.00,85.00 420.00,80.00 420.00,80.00
             420.00,80.00 425.00,80.00 425.00,80.00
             425.00,80.00 425.00,25.00 425.00,25.00
             425.00,25.00 420.00,25.00 420.00,25.00
             420.00,25.00 420.00,20.00 420.00,20.00
             420.00,20.00 400.00,20.00 400.00,20.00 Z" />
  <path id="Solaceon Town"
        fill="none" stroke="black" stroke-width="1"
        d="M 605.00,510.00
           C 605.00,510.00 605.00,515.00 605.00,515.00
             605.00,515.00 600.00,515.00 600.00,515.00
             600.00,515.00 600.00,535.00 600.00,535.00
             600.00,535.00 605.00,535.00 605.00,535.00
             605.00,535.00 605.00,540.00 605.00,540.00
             605.00,540.00 660.00,540.00 660.00,540.00
             660.00,540.00 660.00,535.00 660.00,535.00
             660.00,535.00 665.00,535.00 665.00,535.00
             665.00,535.00 665.00,515.00 665.00,515.00
             665.00,515.00 660.00,515.00 660.00,515.00
             660.00,515.00 660.00,510.00 660.00,510.00
             660.00,510.00 605.00,510.00 605.00,510.00 Z" />
  <path id="Celestic Town"
        fill="none" stroke="black" stroke-width="1"
        d="M 505.00,370.00
           C 505.00,370.00 505.00,375.00 505.00,375.00
             505.00,375.00 500.00,375.00 500.00,375.00
             500.00,375.00 500.00,395.00 500.00,395.00
             500.00,395.00 505.00,395.00 505.00,395.00
             505.00,395.00 505.00,400.00 505.00,400.00
             505.00,400.00 525.00,400.00 525.00,400.00
             525.00,400.00 525.00,395.00 525.00,395.00
             525.00,395.00 530.00,395.00 530.00,395.00
             530.00,395.00 530.00,375.00 530.00,375.00
             530.00,375.00 525.00,375.00 525.00,375.00
             525.00,375.00 525.00,370.00 525.00,370.00
             525.00,370.00 505.00,370.00 505.00,370.00 Z" />
  <path id="Sandgem Town"
        fill="none" stroke="black" stroke-width="1"
        d="M 190.00,720.00
           C 190.00,720.00 190.00,725.00 190.00,725.00
             190.00,725.00 185.00,725.00 185.00,725.00
             185.00,725.00 185.00,745.00 185.00,745.00
             185.00,745.00 190.00,745.00 190.00,745.00
             190.00,745.00 190.00,750.00 190.00,750.00
             190.00,750.00 210.00,750.00 210.00,750.00
             210.00,750.00 210.00,745.00 210.00,745.00
             210.00,745.00 215.00,745.00 215.00,745.00
             215.00,745.00 215.00,725.00 215.00,725.00
             215.00,725.00 210.00,725.00 210.00,725.00
             210.00,725.00 210.00,720.00 210.00,720.00
             210.00,720.00 190.00,720.00 190.00,720.00 Z" />
  <path id="Twinleaf Town"
        fill="none" stroke="black" stroke-width="1"
        d="M 120.00,755.00
           C 120.00,755.00 120.00,760.00 120.00,760.00
             120.00,760.00 115.00,760.00 115.00,760.00
             115.00,760.00 115.00,780.00 115.00,780.00
             115.00,780.00 120.00,780.00 120.00,780.00
             120.00,780.00 120.00,785.00 120.00,785.00
             120.00,785.00 140.00,785.00 140.00,785.00
             140.00,785.00 140.00,780.00 140.00,780.00
             140.00,780.00 145.00,780.00 145.00,780.00
             145.00,780.00 145.00,760.00 145.00,760.00
             145.00,760.00 140.00,760.00 140.00,760.00
             140.00,760.00 140.00,755.00 140.00,755.00
             140.00,755.00 120.00,755.00 120.00,755.00 Z" />
  <path id="Battle Park"
        fill="none" stroke="black" stroke-width="1"
        d="M 705.00,230.00
           C 705.00,230.00 705.00,260.00 705.00,260.00
             705.00,260.00 740.00,260.00 740.00,260.00
             740.00,260.00 740.00,235.00 740.00,235.00
             740.00,235.00 735.00,235.00 735.00,235.00
             735.00,235.00 735.00,230.00 735.00,230.00
             735.00,230.00 705.00,230.00 705.00,230.00 Z" />
  <path id="Iron Island"
        fill="none" stroke="black" stroke-width="1"
        d="M 120.00,335.00
           C 120.00,335.00 120.00,340.00 120.00,340.00
             120.00,340.00 115.00,340.00 115.00,340.00
             115.00,340.00 115.00,360.00 115.00,360.00
             115.00,360.00 120.00,360.00 120.00,360.00
             120.00,360.00 120.00,365.00 120.00,365.00
             120.00,365.00 140.00,365.00 140.00,365.00
             140.00,365.00 140.00,360.00 140.00,360.00
             140.00,360.00 145.00,360.00 145.00,360.00
             145.00,360.00 145.00,340.00 145.00,340.00
             145.00,340.00 140.00,340.00 140.00,340.00
             140.00,340.00 140.00,335.00 140.00,335.00
             140.00,335.00 120.00,335.00 120.00,335.00 Z" />
  <path id="Newmoon Island"
        fill="none" stroke="black" stroke-width="1"
        d="M 155.00,90.00
           C 155.00,90.00 155.00,95.00 155.00,95.00
             155.00,95.00 150.00,95.00 150.00,95.00
             150.00,95.00 150.00,115.00 150.00,115.00
             150.00,115.00 155.00,115.00 155.00,115.00
             155.00,115.00 155.00,120.00 155.00,120.00
             155.00,120.00 175.00,120.00 175.00,120.00
             175.00,120.00 175.00,115.00 175.00,115.00
             175.00,115.00 180.00,115.00 180.00,115.00
             180.00,115.00 180.00,95.00 180.00,95.00
             180.00,95.00 175.00,95.00 175.00,95.00
             175.00,95.00 175.00,90.00 175.00,90.00
             175.00,90.00 155.00,90.00 155.00,90.00 Z" />
  <path id="Fullmoon Island"
        fill="none" stroke="black" stroke-width="1"
        d="M 50.00,90.00
           C 50.00,90.00 50.00,95.00 50.00,95.00
             50.00,95.00 45.00,95.00 45.00,95.00
             45.00,95.00 45.00,115.00 45.00,115.00
             45.00,115.00 50.00,115.00 50.00,115.00
             50.00,115.00 50.00,120.00 50.00,120.00
             50.00,120.00 70.00,120.00 70.00,120.00
             70.00,120.00 70.00,115.00 70.00,115.00
             70.00,115.00 75.00,115.00 75.00,115.00
             75.00,115.00 75.00,95.00 75.00,95.00
             75.00,95.00 70.00,95.00 70.00,95.00
             70.00,95.00 70.00,90.00 70.00,90.00
             70.00,90.00 50.00,90.00 50.00,90.00 Z" />
  <path id="Acuity Lakefront"
        fill="none" stroke="black" stroke-width="1"
        d="M 330.00,20.00
           C 330.00,20.00 330.00,25.00 330.00,25.00
             330.00,25.00 325.00,25.00 325.00,25.00
             325.00,25.00 325.00,85.00 325.00,85.00
             325.00,85.00 390.00,85.00 390.00,85.00
             390.00,85.00 390.00,20.00 390.00,20.00
             390.00,20.00 330.00,20.00 330.00,20.00 Z" />
  <path id="Lake Acuity"
        fill="none" stroke="black" stroke-width="1"
        d="M 330.00,20.00
           C 330.00,20.00 330.00,25.00 330.00,25.00
             330.00,25.00 325.00,25.00 325.00,25.00
             325.00,25.00 325.00,85.00 325.00,85.00
             325.00,85.00 390.00,85.00 390.00,85.00
             390.00,85.00 390.00,20.00 390.00,20.00
             390.00,20.00 330.00,20.00 330.00,20.00 Z" />
  <path id="Mt. Coronet"
        fill="none" stroke="black" stroke-width="1"
        d="M 430.00,230.00
           C 430.00,230.00 430.00,475.00 430.00,475.00
             430.00,475.00 400.00,475.00 400.00,475.00
             400.00,475.00 400.00,480.00 400.00,480.00
             400.00,480.00 395.00,480.00 395.00,480.00
             395.00,480.00 395.00,610.00 395.00,610.00
             395.00,610.00 425.00,610.00 425.00,610.00
             425.00,610.00 425.00,505.00 425.00,505.00
             425.00,505.00 455.00,505.00 455.00,505.00
             455.00,505.00 455.00,500.00 455.00,500.00
             455.00,500.00 460.00,500.00 460.00,500.00
             460.00,500.00 460.00,235.00 460.00,235.00
             460.00,235.00 455.00,235.00 455.00,235.00
             455.00,235.00 455.00,230.00 455.00,230.00
             455.00,230.00 430.00,230.00 430.00,230.00 Z" />
  <path id="Spring Path"
        fill="none" stroke="black" stroke-width="1"
        d="M 810.00,545.00
           C 810.00,545.00 810.00,610.00 810.00,610.00
             810.00,610.00 875.00,610.00 875.00,610.00
             875.00,610.00 875.00,605.00 875.00,605.00
             875.00,605.00 880.00,605.00 880.00,605.00
             880.00,605.00 880.00,550.00 880.00,550.00
             880.00,550.00 875.00,550.00 875.00,550.00
             875.00,550.00 875.00,545.00 875.00,545.00
             875.00,545.00 810.00,545.00 810.00,545.00 Z" />
  <path id="Oreburgh Gate"
        fill="none" stroke="black" stroke-width="1"
        d="M 255.00,615.00
           C 255.00,615.00 285.00,615.00 285.00,615.00
             285.00,615.00 285.00,645.00 285.00,645.00
             285.00,645.00 255.00,645.00 255.00,645.00
             255.00,645.00 255.00,615.00 255.00,615.00 Z" />
  <path id="Valor Lakefront"
        fill="none" stroke="black" stroke-width="1"
        d="M 750.00,615.00
           C 750.00,615.00 750.00,620.00 750.00,620.00
             750.00,620.00 745.00,620.00 745.00,620.00
             745.00,620.00 745.00,685.00 745.00,685.00
             745.00,685.00 810.00,685.00 810.00,685.00
             810.00,685.00 810.00,615.00 810.00,615.00
             810.00,615.00 750.00,615.00 750.00,615.00 Z" />
  <path id="Lake Valor"
        fill="none" stroke="black" stroke-width="1"
        d="M 750.00,615.00
           C 750.00,615.00 750.00,620.00 750.00,620.00
             750.00,620.00 745.00,620.00 745.00,620.00
             745.00,620.00 745.00,685.00 745.00,685.00
             745.00,685.00 810.00,685.00 810.00,685.00
             810.00,685.00 810.00,615.00 810.00,615.00
             810.00,615.00 750.00,615.00 750.00,615.00 Z" />
  <path id="Seabreak Path"
        fill="none" stroke="black" stroke-width="1"
        d="M 990.00,50.00
           C 990.00,50.00 990.00,340.00 990.00,340.00
             990.00,340.00 1020.00,340.00 1020.00,340.00
             1020.00,340.00 1020.00,50.00 1020.00,50.00
             1020.00,50.00 990.00,50.00 990.00,50.00 Z" />
  <path id="Flower Paradise"
        fill="none" stroke="black" stroke-width="1"
        d="M 995.00,15.00
           C 995.00,15.00 995.00,20.00 995.00,20.00
             995.00,20.00 990.00,20.00 990.00,20.00
             990.00,20.00 990.00,50.00 990.00,50.00
             990.00,50.00 1020.00,50.00 1020.00,50.00
             1020.00,50.00 1020.00,20.00 1020.00,20.00
             1020.00,20.00 1015.00,20.00 1015.00,20.00
             1015.00,20.00 1015.00,15.00 1015.00,15.00
             1015.00,15.00 995.00,15.00 995.00,15.00 Z" />
  <path id="Verity Lakefront"
        fill="none" stroke="black" stroke-width="1"
        d="M 50.00,685.00
           C 50.00,685.00 50.00,690.00 50.00,690.00
             50.00,690.00 45.00,690.00 45.00,690.00
             45.00,690.00 45.00,745.00 45.00,745.00
             45.00,745.00 50.00,745.00 50.00,745.00
             50.00,745.00 50.00,750.00 50.00,750.00
             50.00,750.00 110.00,750.00 110.00,750.00
             110.00,750.00 110.00,690.00 110.00,690.00
             110.00,690.00 105.00,690.00 105.00,690.00
             105.00,690.00 105.00,685.00 105.00,685.00
             105.00,685.00 50.00,685.00 50.00,685.00 Z" />
  <path id="Lake Verity"
        fill="none" stroke="black" stroke-width="1"
        d="M 50.00,685.00
           C 50.00,685.00 50.00,690.00 50.00,690.00
             50.00,690.00 45.00,690.00 45.00,690.00
             45.00,690.00 45.00,745.00 45.00,745.00
             45.00,745.00 50.00,745.00 50.00,745.00
             50.00,745.00 50.00,750.00 50.00,750.00
             50.00,750.00 110.00,750.00 110.00,750.00
             110.00,750.00 110.00,690.00 110.00,690.00
             110.00,690.00 105.00,690.00 105.00,690.00
             105.00,690.00 105.00,685.00 105.00,685.00
             105.00,685.00 50.00,685.00 50.00,685.00 Z" />
  <path id="Stark Mountain"
        fill="none" stroke="black" stroke-width="1"
        d="M 820.00,55.00
           C 820.00,55.00 820.00,60.00 820.00,60.00
             820.00,60.00 815.00,60.00 815.00,60.00
             815.00,60.00 815.00,90.00 815.00,90.00
             815.00,90.00 845.00,90.00 845.00,90.00
             845.00,90.00 845.00,60.00 845.00,60.00
             845.00,60.00 840.00,60.00 840.00,60.00
             840.00,60.00 840.00,55.00 840.00,55.00
             840.00,55.00 820.00,55.00 820.00,55.00 Z" />
  <path id="Eterna Forest"
        fill="none" stroke="black" stroke-width="1"
        d="M 225.00,370.00
           C 225.00,370.00 225.00,375.00 225.00,375.00
             225.00,375.00 220.00,375.00 220.00,375.00
             220.00,375.00 220.00,435.00 220.00,435.00
             220.00,435.00 280.00,435.00 280.00,435.00
             280.00,435.00 280.00,430.00 280.00,430.00
             280.00,430.00 285.00,430.00 285.00,430.00
             285.00,430.00 285.00,370.00 285.00,370.00
             285.00,370.00 225.00,370.00 225.00,370.00 Z" />
  <path id="Valley Windworks"
        fill="none" stroke="black" stroke-width="1"
        d="M 250.00,510.00
           C 250.00,510.00 250.00,540.00 250.00,540.00
             250.00,540.00 280.00,540.00 280.00,540.00
             280.00,540.00 280.00,535.00 280.00,535.00
             280.00,535.00 285.00,535.00 285.00,535.00
             285.00,535.00 285.00,515.00 285.00,515.00
             285.00,515.00 280.00,515.00 280.00,515.00
             280.00,515.00 280.00,510.00 280.00,510.00
             280.00,510.00 250.00,510.00 250.00,510.00 Z" />
  <path id="Fuego Ironworks"
        fill="none" stroke="black" stroke-width="1"
        d="M 190.00,440.00
           C 190.00,440.00 190.00,445.00 190.00,445.00
             190.00,445.00 185.00,445.00 185.00,445.00
             185.00,445.00 185.00,470.00 185.00,470.00
             185.00,470.00 215.00,470.00 215.00,470.00
             215.00,470.00 215.00,475.00 215.00,475.00
             215.00,475.00 220.00,475.00 220.00,475.00
             220.00,475.00 220.00,440.00 220.00,440.00
             220.00,440.00 190.00,440.00 190.00,440.00 Z" />
  <path id="Route 230"
        fill="none" stroke="black" stroke-width="1"
        d="M 745.00,265.00
           C 745.00,265.00 745.00,295.00 745.00,295.00
             745.00,295.00 850.00,295.00 850.00,295.00
             850.00,295.00 850.00,265.00 850.00,265.00
             850.00,265.00 745.00,265.00 745.00,265.00 Z" />
  <path id="Route 226"
        fill="none" stroke="black" stroke-width="1"
        d="M 745.00,160.00
           C 745.00,160.00 745.00,190.00 745.00,190.00
             745.00,190.00 850.00,190.00 850.00,190.00
             850.00,190.00 850.00,160.00 850.00,160.00
             850.00,160.00 745.00,160.00 745.00,160.00 Z" />
  <path id="Route 223"
        fill="none" stroke="black" stroke-width="1"
        d="M 920.00,470.00
           C 920.00,470.00 920.00,610.00 920.00,610.00
             920.00,610.00 950.00,610.00 950.00,610.00
             950.00,610.00 950.00,470.00 950.00,470.00
             950.00,470.00 920.00,470.00 920.00,470.00 Z" />
  <path id="Route 220"
        fill="none" stroke="black" stroke-width="1"
        d="M 185.00,790.00
           C 185.00,790.00 185.00,815.00 185.00,815.00
             185.00,815.00 190.00,815.00 190.00,815.00
             190.00,815.00 190.00,820.00 190.00,820.00
             190.00,820.00 250.00,820.00 250.00,820.00
             250.00,820.00 250.00,790.00 250.00,790.00
             250.00,790.00 185.00,790.00 185.00,790.00 Z" />
  <path id="Route 229"
        fill="none" stroke="black" stroke-width="1"
        d="M 850.00,265.00
           C 850.00,265.00 850.00,295.00 850.00,295.00
             850.00,295.00 915.00,295.00 915.00,295.00
             915.00,295.00 915.00,270.00 915.00,270.00
             915.00,270.00 910.00,270.00 910.00,270.00
             910.00,270.00 910.00,265.00 910.00,265.00
             910.00,265.00 850.00,265.00 850.00,265.00 Z" />
  <path id="Route 228"
        fill="none" stroke="black" stroke-width="1"
        d="M 850.00,160.00
           C 850.00,160.00 850.00,265.00 850.00,265.00
             850.00,265.00 880.00,265.00 880.00,265.00
             880.00,265.00 880.00,165.00 880.00,165.00
             880.00,165.00 875.00,165.00 875.00,165.00
             875.00,165.00 875.00,160.00 875.00,160.00
             875.00,160.00 850.00,160.00 850.00,160.00 Z" />
  <path id="Route 227"
        fill="none" stroke="black" stroke-width="1"
        d="M 815.00,90.00
           C 815.00,90.00 815.00,160.00 815.00,160.00
             815.00,160.00 845.00,160.00 845.00,160.00
             845.00,160.00 845.00,90.00 845.00,90.00
             845.00,90.00 815.00,90.00 815.00,90.00 Z" />
  <path id="Route 225"
        fill="none" stroke="black" stroke-width="1"
        d="M 680.00,160.00
           C 680.00,160.00 680.00,165.00 680.00,165.00
             680.00,165.00 675.00,165.00 675.00,165.00
             675.00,165.00 675.00,260.00 675.00,260.00
             675.00,260.00 705.00,260.00 705.00,260.00
             705.00,260.00 705.00,160.00 705.00,160.00
             705.00,160.00 680.00,160.00 680.00,160.00 Z" />
  <path id="Route 224"
        fill="none" stroke="black" stroke-width="1"
        d="M 990.00,340.00
           C 990.00,340.00 990.00,370.00 990.00,370.00
             990.00,370.00 960.00,370.00 960.00,370.00
             960.00,370.00 960.00,375.00 960.00,375.00
             960.00,375.00 955.00,375.00 955.00,375.00
             955.00,375.00 955.00,435.00 955.00,435.00
             955.00,435.00 980.00,435.00 980.00,435.00
             980.00,435.00 980.00,430.00 980.00,430.00
             980.00,430.00 985.00,430.00 985.00,430.00
             985.00,430.00 985.00,400.00 985.00,400.00
             985.00,400.00 1015.00,400.00 1015.00,400.00
             1015.00,400.00 1015.00,395.00 1015.00,395.00
             1015.00,395.00 1020.00,395.00 1020.00,395.00
             1020.00,395.00 1020.00,340.00 1020.00,340.00
             1020.00,340.00 990.00,340.00 990.00,340.00 Z" />
  <path id="Route 222"
        fill="none" stroke="black" stroke-width="1"
        d="M 810.00,650.00
           C 810.00,650.00 810.00,680.00 810.00,680.00
             810.00,680.00 915.00,680.00 915.00,680.00
             915.00,680.00 915.00,650.00 915.00,650.00
             915.00,650.00 810.00,650.00 810.00,650.00 Z" />
  <path id="Route 221"
        fill="none" stroke="black" stroke-width="1"
        d="M 250.00,790.00
           C 250.00,790.00 250.00,820.00 250.00,820.00
             250.00,820.00 325.00,820.00 325.00,820.00
             325.00,820.00 325.00,815.00 325.00,815.00
             325.00,815.00 320.00,815.00 320.00,815.00
             320.00,815.00 320.00,795.00 320.00,795.00
             320.00,795.00 325.00,795.00 325.00,795.00
             325.00,795.00 325.00,790.00 325.00,790.00
             325.00,790.00 250.00,790.00 250.00,790.00 Z" />
  <path id="Route 219"
        fill="none" stroke="black" stroke-width="1"
        d="M 185.00,755.00
           C 185.00,755.00 185.00,790.00 185.00,790.00
             185.00,790.00 215.00,790.00 215.00,790.00
             215.00,790.00 215.00,755.00 215.00,755.00
             215.00,755.00 185.00,755.00 185.00,755.00 Z" />
  <path id="Route 218"
        fill="none" stroke="black" stroke-width="1"
        d="M 80.00,615.00
           C 80.00,615.00 80.00,645.00 80.00,645.00
             80.00,645.00 145.00,645.00 145.00,645.00
             145.00,645.00 145.00,615.00 145.00,615.00
             145.00,615.00 80.00,615.00 80.00,615.00 Z" />
  <path id="Route 217"
        fill="none" stroke="black" stroke-width="1"
        d="M 325.00,85.00
           C 325.00,85.00 325.00,230.00 325.00,230.00
             325.00,230.00 355.00,230.00 355.00,230.00
             355.00,230.00 355.00,85.00 355.00,85.00
             355.00,85.00 325.00,85.00 325.00,85.00 Z" />
  <path id="Route 216"
        fill="none" stroke="black" stroke-width="1"
        d="M 325.00,230.00
           C 325.00,230.00 325.00,255.00 325.00,255.00
             325.00,255.00 330.00,255.00 330.00,255.00
             330.00,255.00 330.00,260.00 330.00,260.00
             330.00,260.00 430.00,260.00 430.00,260.00
             430.00,260.00 430.00,230.00 430.00,230.00
             430.00,230.00 325.00,230.00 325.00,230.00 Z" />
  <path id="Route 215"
        fill="none" stroke="black" stroke-width="1"
        d="M 635.00,440.00
           C 635.00,440.00 635.00,470.00 635.00,470.00
             635.00,470.00 740.00,470.00 740.00,470.00
             740.00,470.00 740.00,440.00 740.00,440.00
             740.00,440.00 635.00,440.00 635.00,440.00 Z" />
  <path id="Route 214"
        fill="none" stroke="black" stroke-width="1"
        d="M 780.00,510.00
           C 780.00,510.00 780.00,615.00 780.00,615.00
             780.00,615.00 810.00,615.00 810.00,615.00
             810.00,615.00 810.00,510.00 810.00,510.00
             810.00,510.00 780.00,510.00 780.00,510.00 Z" />
  <path id="Route 213"
        fill="none" stroke="black" stroke-width="1"
        d="M 710.00,685.00
           C 710.00,685.00 710.00,750.00 710.00,750.00
             710.00,750.00 805.00,750.00 805.00,750.00
             805.00,750.00 805.00,745.00 805.00,745.00
             805.00,745.00 810.00,745.00 810.00,745.00
             810.00,745.00 810.00,685.00 810.00,685.00
             810.00,685.00 710.00,685.00 710.00,685.00 Z" />
  <path id="Route 212"
        fill="none" stroke="black" stroke-width="1"
        d="M 500.00,615.00
           C 500.00,615.00 500.00,745.00 500.00,745.00
             500.00,745.00 505.00,745.00 505.00,745.00
             505.00,745.00 505.00,750.00 505.00,750.00
             505.00,750.00 635.00,750.00 635.00,750.00
             635.00,750.00 635.00,720.00 635.00,720.00
             635.00,720.00 530.00,720.00 530.00,720.00
             530.00,720.00 530.00,615.00 530.00,615.00
             530.00,615.00 500.00,615.00 500.00,615.00 Z" />
  <path id="Route 211"
        fill="none" stroke="black" stroke-width="1"
        d="M 395.00,370.00
           C 395.00,370.00 395.00,400.00 395.00,400.00
             395.00,400.00 495.00,400.00 495.00,400.00
             495.00,400.00 495.00,370.00 495.00,370.00
             495.00,370.00 395.00,370.00 395.00,370.00 Z" />
  <path id="Route 210"
        fill="none" stroke="black" stroke-width="1"
        d="M 535.00,370.00
           C 535.00,370.00 535.00,400.00 535.00,400.00
             535.00,400.00 605.00,400.00 605.00,400.00
             605.00,400.00 605.00,505.00 605.00,505.00
             605.00,505.00 635.00,505.00 635.00,505.00
             635.00,505.00 635.00,375.00 635.00,375.00
             635.00,375.00 630.00,375.00 630.00,375.00
             630.00,375.00 630.00,370.00 630.00,370.00
             630.00,370.00 535.00,370.00 535.00,370.00 Z" />
  <path id="Route 209"
        fill="none" stroke="black" stroke-width="1"
        d="M 605.00,545.00
           C 605.00,545.00 605.00,580.00 605.00,580.00
             605.00,580.00 570.00,580.00 570.00,580.00
             570.00,580.00 570.00,610.00 570.00,610.00
             570.00,610.00 630.00,610.00 630.00,610.00
             630.00,610.00 630.00,605.00 630.00,605.00
             630.00,605.00 635.00,605.00 635.00,605.00
             635.00,605.00 635.00,545.00 635.00,545.00
             635.00,545.00 605.00,545.00 605.00,545.00 Z" />
  <path id="Route 208"
        fill="none" stroke="black" stroke-width="1"
        d="M 425.00,580.00
           C 425.00,580.00 425.00,610.00 425.00,610.00
             425.00,610.00 495.00,610.00 495.00,610.00
             495.00,610.00 495.00,580.00 495.00,580.00
             495.00,580.00 425.00,580.00 425.00,580.00 Z" />
  <path id="Route 207"
        fill="none" stroke="black" stroke-width="1"
        d="M 325.00,580.00
           C 325.00,580.00 325.00,610.00 325.00,610.00
             325.00,610.00 395.00,610.00 395.00,610.00
             395.00,610.00 395.00,580.00 395.00,580.00
             395.00,580.00 325.00,580.00 325.00,580.00 Z" />
  <path id="Route 206"
        fill="none" stroke="black" stroke-width="1"
        d="M 325.00,440.00
           C 325.00,440.00 325.00,580.00 325.00,580.00
             325.00,580.00 355.00,580.00 355.00,580.00
             355.00,580.00 355.00,440.00 355.00,440.00
             355.00,440.00 325.00,440.00 325.00,440.00 Z" />
  <path id="Route 205_2"
        fill="none" stroke="black" stroke-width="1"
        d="M 290.00,370.00
           C 290.00,370.00 290.00,400.00 290.00,400.00
             290.00,400.00 320.00,400.00 320.00,400.00
             320.00,400.00 320.00,370.00 320.00,370.00
             320.00,370.00 290.00,370.00 290.00,370.00 Z" />
  <path id="Route 205_1"
        fill="none" stroke="black" stroke-width="1"
        d="M 220.00,435.00
           C 220.00,435.00 220.00,540.00 220.00,540.00
             220.00,540.00 250.00,540.00 250.00,540.00
             250.00,540.00 250.00,435.00 250.00,435.00
             250.00,435.00 220.00,435.00 220.00,435.00 Z" />
  <path id="Route 204"
        fill="none" stroke="black" stroke-width="1"
        d="M 185.00,545.00
           C 185.00,545.00 185.00,610.00 185.00,610.00
             185.00,610.00 215.00,610.00 215.00,610.00
             215.00,610.00 215.00,545.00 215.00,545.00
             215.00,545.00 185.00,545.00 185.00,545.00 Z" />
  <path id="Route 203"
        fill="none" stroke="black" stroke-width="1"
        d="M 220.00,615.00
           C 220.00,615.00 255.00,615.00 255.00,615.00
             255.00,615.00 255.00,645.00 255.00,645.00
             255.00,645.00 220.00,645.00 220.00,645.00
             220.00,645.00 220.00,615.00 220.00,615.00 Z" />
  <path id="Route 202"
        fill="none" stroke="black" stroke-width="1"
        d="M 185.00,685.00
           C 185.00,685.00 185.00,715.00 185.00,715.00
             185.00,715.00 215.00,715.00 215.00,715.00
             215.00,715.00 215.00,685.00 215.00,685.00
             215.00,685.00 185.00,685.00 185.00,685.00 Z" />
  <path id="Route 201"
        fill="none" stroke="black" stroke-width="1"
        d="M 110.00,720.00
           C 110.00,720.00 180.00,720.00 180.00,720.00
             180.00,720.00 180.00,750.00 180.00,750.00
             180.00,750.00 110.00,750.00 110.00,750.00
             110.00,750.00 110.00,720.00 110.00,720.00 Z" />
</svg>
