<?xml version="1.0" encoding="UTF-8" standalone="no"?>
<!DOCTYPE svg PUBLIC "-//W3C//DTD SVG 20010904//EN"
              "http://www.w3.org/TR/2001/REC-SVG-20010904/DTD/svg10.dtd">

<svg xmlns="http://www.w3.org/2000/svg"
     width="338.714mm" height="222.281mm"
     viewBox="0 0 1280 840">
  <path id="Liberty Garden"
        fill="none" stroke="black" stroke-width="1"
        d="M 365.00,715.00
           C 365.00,715.00 365.00,720.00 365.00,720.00
             365.00,720.00 360.00,720.00 360.00,720.00
             360.00,720.00 360.00,730.00 360.00,730.00
             360.00,730.00 365.00,730.00 365.00,730.00
             365.00,730.00 365.00,735.00 365.00,735.00
             365.00,735.00 375.00,735.00 375.00,735.00
             375.00,735.00 375.00,730.00 375.00,730.00
             375.00,730.00 380.00,730.00 380.00,730.00
             380.00,730.00 380.00,720.00 380.00,720.00
             380.00,720.00 375.00,720.00 375.00,720.00
             375.00,720.00 375.00,715.00 375.00,715.00
             375.00,715.00 365.00,715.00 365.00,715.00 Z" />
  <path id="P2 Laboratory"
        fill="none" stroke="black" stroke-width="1"
        d="M 1105.00,745.00
           C 1105.00,745.00 1105.00,750.00 1105.00,750.00
             1105.00,750.00 1100.00,750.00 1100.00,750.00
             1100.00,750.00 1100.00,760.00 1100.00,760.00
             1100.00,760.00 1105.00,760.00 1105.00,760.00
             1105.00,760.00 1105.00,765.00 1105.00,765.00
             1105.00,765.00 1115.00,765.00 1115.00,765.00
             1115.00,765.00 1115.00,760.00 1115.00,760.00
             1115.00,760.00 1120.00,760.00 1120.00,760.00
             1120.00,760.00 1120.00,750.00 1120.00,750.00
             1120.00,750.00 1115.00,750.00 1115.00,750.00
             1115.00,750.00 1115.00,745.00 1115.00,745.00
             1115.00,745.00 1105.00,745.00 1105.00,745.00 Z" />
  <path id="Pinwheel Forest"
        fill="none" stroke="black" stroke-width="1"
        d="M 965.00,615.00
           C 965.00,615.00 965.00,620.00 965.00,620.00
             965.00,620.00 960.00,620.00 960.00,620.00
             960.00,620.00 960.00,630.00 960.00,630.00
             960.00,630.00 965.00,630.00 965.00,630.00
             965.00,630.00 965.00,635.00 965.00,635.00
             965.00,635.00 975.00,635.00 975.00,635.00
             975.00,635.00 975.00,630.00 975.00,630.00
             975.00,630.00 980.00,630.00 980.00,630.00
             980.00,630.00 980.00,620.00 980.00,620.00
             980.00,620.00 975.00,620.00 975.00,620.00
             975.00,620.00 975.00,615.00 975.00,615.00
             975.00,615.00 965.00,615.00 965.00,615.00 Z" />
  <path id="Wellspring Cave"
        fill="none" stroke="black" stroke-width="1"
        d="M 1070.00,540.00
           C 1070.00,540.00 1070.00,545.00 1070.00,545.00
             1070.00,545.00 1065.00,545.00 1065.00,545.00
             1065.00,545.00 1065.00,555.00 1065.00,555.00
             1065.00,555.00 1070.00,555.00 1070.00,555.00
             1070.00,555.00 1070.00,560.00 1070.00,560.00
             1070.00,560.00 1080.00,560.00 1080.00,560.00
             1080.00,560.00 1080.00,555.00 1080.00,555.00
             1080.00,555.00 1085.00,555.00 1085.00,555.00
             1085.00,555.00 1085.00,545.00 1085.00,545.00
             1085.00,545.00 1080.00,545.00 1080.00,545.00
             1080.00,545.00 1080.00,540.00 1080.00,540.00
             1080.00,540.00 1070.00,540.00 1070.00,540.00 Z" />
  <path id="Dreamyard"
        fill="none" stroke="black" stroke-width="1"
        d="M 1190.00,580.00
           C 1190.00,580.00 1190.00,585.00 1190.00,585.00
             1190.00,585.00 1185.00,585.00 1185.00,585.00
             1185.00,585.00 1185.00,595.00 1185.00,595.00
             1185.00,595.00 1190.00,595.00 1190.00,595.00
             1190.00,595.00 1190.00,600.00 1190.00,600.00
             1190.00,600.00 1200.00,600.00 1200.00,600.00
             1200.00,600.00 1200.00,595.00 1200.00,595.00
             1200.00,595.00 1205.00,595.00 1205.00,595.00
             1205.00,595.00 1205.00,585.00 1205.00,585.00
             1205.00,585.00 1200.00,585.00 1200.00,585.00
             1200.00,585.00 1200.00,580.00 1200.00,580.00
             1200.00,580.00 1190.00,580.00 1190.00,580.00 Z" />
  <path id="Undella Bay"
        fill="none" stroke="black" stroke-width="1"
        d="M 1235.00,330.00
           C 1235.00,330.00 1235.00,335.00 1235.00,335.00
             1235.00,335.00 1230.00,335.00 1230.00,335.00
             1230.00,335.00 1230.00,345.00 1230.00,345.00
             1230.00,345.00 1235.00,345.00 1235.00,345.00
             1235.00,345.00 1235.00,350.00 1235.00,350.00
             1235.00,350.00 1245.00,350.00 1245.00,350.00
             1245.00,350.00 1245.00,345.00 1245.00,345.00
             1245.00,345.00 1250.00,345.00 1250.00,345.00
             1250.00,345.00 1250.00,335.00 1250.00,335.00
             1250.00,335.00 1245.00,335.00 1245.00,335.00
             1245.00,335.00 1245.00,330.00 1245.00,330.00
             1245.00,330.00 1235.00,330.00 1235.00,330.00 Z" />
  <path id="Giant Chasm"
        fill="none" stroke="black" stroke-width="1"
        d="M 985.00,145.00
           C 985.00,145.00 985.00,150.00 985.00,150.00
             985.00,150.00 980.00,150.00 980.00,150.00
             980.00,150.00 980.00,160.00 980.00,160.00
             980.00,160.00 985.00,160.00 985.00,160.00
             985.00,160.00 985.00,165.00 985.00,165.00
             985.00,165.00 995.00,165.00 995.00,165.00
             995.00,165.00 995.00,160.00 995.00,160.00
             995.00,160.00 1000.00,160.00 1000.00,160.00
             1000.00,160.00 1000.00,150.00 1000.00,150.00
             1000.00,150.00 995.00,150.00 995.00,150.00
             995.00,150.00 995.00,145.00 995.00,145.00
             995.00,145.00 985.00,145.00 985.00,145.00 Z" />
  <path id="Abundant Shrine"
        fill="none" stroke="black" stroke-width="1"
        d="M 980.00,375.00
           C 980.00,375.00 980.00,380.00 980.00,380.00
             980.00,380.00 975.00,380.00 975.00,380.00
             975.00,380.00 975.00,390.00 975.00,390.00
             975.00,390.00 980.00,390.00 980.00,390.00
             980.00,390.00 980.00,395.00 980.00,395.00
             980.00,395.00 990.00,395.00 990.00,395.00
             990.00,395.00 990.00,390.00 990.00,390.00
             990.00,390.00 995.00,390.00 995.00,390.00
             995.00,390.00 995.00,380.00 995.00,380.00
             995.00,380.00 990.00,380.00 990.00,380.00
             990.00,380.00 990.00,375.00 990.00,375.00
             990.00,375.00 980.00,375.00 980.00,375.00 Z" />
  <path id="Poké Transfer Lab"
        fill="none" stroke="black" stroke-width="1"
        d="M 880.00,410.00
           C 880.00,410.00 880.00,415.00 880.00,415.00
             880.00,415.00 875.00,415.00 875.00,415.00
             875.00,415.00 875.00,425.00 875.00,425.00
             875.00,425.00 880.00,425.00 880.00,425.00
             880.00,425.00 880.00,430.00 880.00,430.00
             880.00,430.00 890.00,430.00 890.00,430.00
             890.00,430.00 890.00,425.00 890.00,425.00
             890.00,425.00 895.00,425.00 895.00,425.00
             895.00,425.00 895.00,415.00 895.00,415.00
             895.00,415.00 890.00,415.00 890.00,415.00
             890.00,415.00 890.00,410.00 890.00,410.00
             890.00,410.00 880.00,410.00 880.00,410.00 Z" />
  <path id="Challenger&apos;s Cave"
        fill="none" stroke="black" stroke-width="1"
        d="M 580.00,235.00
           C 580.00,235.00 580.00,240.00 580.00,240.00
             580.00,240.00 575.00,240.00 575.00,240.00
             575.00,240.00 575.00,250.00 575.00,250.00
             575.00,250.00 580.00,250.00 580.00,250.00
             580.00,250.00 580.00,255.00 580.00,255.00
             580.00,255.00 590.00,255.00 590.00,255.00
             590.00,255.00 590.00,250.00 590.00,250.00
             590.00,250.00 595.00,250.00 595.00,250.00
             595.00,250.00 595.00,240.00 595.00,240.00
             595.00,240.00 590.00,240.00 590.00,240.00
             590.00,240.00 590.00,235.00 590.00,235.00
             590.00,235.00 580.00,235.00 580.00,235.00 Z" />
  <path id="Entralink"
        fill="none" stroke="black" stroke-width="1"
        d="M 655.00,325.00
           C 655.00,325.00 655.00,330.00 655.00,330.00
             655.00,330.00 650.00,330.00 650.00,330.00
             650.00,330.00 650.00,340.00 650.00,340.00
             650.00,340.00 655.00,340.00 655.00,340.00
             655.00,340.00 655.00,345.00 655.00,345.00
             655.00,345.00 665.00,345.00 665.00,345.00
             665.00,345.00 665.00,340.00 665.00,340.00
             665.00,340.00 670.00,340.00 670.00,340.00
             670.00,340.00 670.00,330.00 670.00,330.00
             670.00,330.00 665.00,330.00 665.00,330.00
             665.00,330.00 665.00,325.00 665.00,325.00
             665.00,325.00 655.00,325.00 655.00,325.00 Z" />
  <path id="Lostlorn Forest"
        fill="none" stroke="black" stroke-width="1"
        d="M 725.00,410.00
           C 725.00,410.00 725.00,415.00 725.00,415.00
             725.00,415.00 720.00,415.00 720.00,415.00
             720.00,415.00 720.00,425.00 720.00,425.00
             720.00,425.00 725.00,425.00 725.00,425.00
             725.00,425.00 725.00,430.00 725.00,430.00
             725.00,430.00 735.00,430.00 735.00,430.00
             735.00,430.00 735.00,425.00 735.00,425.00
             735.00,425.00 740.00,425.00 740.00,425.00
             740.00,425.00 740.00,415.00 740.00,415.00
             740.00,415.00 735.00,415.00 735.00,415.00
             735.00,415.00 735.00,410.00 735.00,410.00
             735.00,410.00 725.00,410.00 725.00,410.00 Z" />
  <path id="Relic Castle"
        fill="none" stroke="black" stroke-width="1"
        d="M 570.00,510.00
           C 570.00,510.00 570.00,515.00 570.00,515.00
             570.00,515.00 565.00,515.00 565.00,515.00
             565.00,515.00 565.00,525.00 565.00,525.00
             565.00,525.00 570.00,525.00 570.00,525.00
             570.00,525.00 570.00,530.00 570.00,530.00
             570.00,530.00 580.00,530.00 580.00,530.00
             580.00,530.00 580.00,525.00 580.00,525.00
             580.00,525.00 585.00,525.00 585.00,525.00
             585.00,525.00 585.00,515.00 585.00,515.00
             585.00,515.00 580.00,515.00 580.00,515.00
             580.00,515.00 580.00,510.00 580.00,510.00
             580.00,510.00 570.00,510.00 570.00,510.00 Z" />
  <path id="Cold Storage"
        fill="none" stroke="black" stroke-width="1"
        d="M 365.00,505.00
           C 365.00,505.00 365.00,510.00 365.00,510.00
             365.00,510.00 360.00,510.00 360.00,510.00
             360.00,510.00 360.00,520.00 360.00,520.00
             360.00,520.00 365.00,520.00 365.00,520.00
             365.00,520.00 365.00,525.00 365.00,525.00
             365.00,525.00 375.00,525.00 375.00,525.00
             375.00,525.00 375.00,520.00 375.00,520.00
             375.00,520.00 380.00,520.00 380.00,520.00
             380.00,520.00 380.00,510.00 380.00,510.00
             380.00,510.00 375.00,510.00 375.00,510.00
             375.00,510.00 375.00,505.00 375.00,505.00
             375.00,505.00 365.00,505.00 365.00,505.00 Z" />
  <path id="Chargestone Cave"
        fill="none" stroke="black" stroke-width="1"
        d="M 205.00,390.00
           C 205.00,390.00 205.00,395.00 205.00,395.00
             205.00,395.00 200.00,395.00 200.00,395.00
             200.00,395.00 200.00,405.00 200.00,405.00
             200.00,405.00 205.00,405.00 205.00,405.00
             205.00,405.00 205.00,410.00 205.00,410.00
             205.00,410.00 215.00,410.00 215.00,410.00
             215.00,410.00 215.00,405.00 215.00,405.00
             215.00,405.00 220.00,405.00 220.00,405.00
             220.00,405.00 220.00,395.00 220.00,395.00
             220.00,395.00 215.00,395.00 215.00,395.00
             215.00,395.00 215.00,390.00 215.00,390.00
             215.00,390.00 205.00,390.00 205.00,390.00 Z" />
  <path id="Mistralton Cave"
        fill="none" stroke="black" stroke-width="1"
        d="M 340.00,360.00
           C 340.00,360.00 340.00,365.00 340.00,365.00
             340.00,365.00 335.00,365.00 335.00,365.00
             335.00,365.00 335.00,375.00 335.00,375.00
             335.00,375.00 340.00,375.00 340.00,375.00
             340.00,375.00 340.00,380.00 340.00,380.00
             340.00,380.00 350.00,380.00 350.00,380.00
             350.00,380.00 350.00,375.00 350.00,375.00
             350.00,375.00 355.00,375.00 355.00,375.00
             355.00,375.00 355.00,365.00 355.00,365.00
             355.00,365.00 350.00,365.00 350.00,365.00
             350.00,365.00 350.00,360.00 350.00,360.00
             350.00,360.00 340.00,360.00 340.00,360.00 Z" />
  <path id="Twist Mountain"
        fill="none" stroke="black" stroke-width="1"
        d="M 355.00,265.00
           C 355.00,265.00 355.00,270.00 355.00,270.00
             355.00,270.00 350.00,270.00 350.00,270.00
             350.00,270.00 350.00,280.00 350.00,280.00
             350.00,280.00 355.00,280.00 355.00,280.00
             355.00,280.00 355.00,285.00 355.00,285.00
             355.00,285.00 365.00,285.00 365.00,285.00
             365.00,285.00 365.00,280.00 365.00,280.00
             365.00,280.00 370.00,280.00 370.00,280.00
             370.00,280.00 370.00,270.00 370.00,270.00
             370.00,270.00 365.00,270.00 365.00,270.00
             365.00,270.00 365.00,265.00 365.00,265.00
             365.00,265.00 355.00,265.00 355.00,265.00 Z" />
  <path id="Moor of Icirrus"
        fill="none" stroke="black" stroke-width="1"
        d="M 435.00,170.00
           C 435.00,170.00 435.00,175.00 435.00,175.00
             435.00,175.00 430.00,175.00 430.00,175.00
             430.00,175.00 430.00,185.00 430.00,185.00
             430.00,185.00 435.00,185.00 435.00,185.00
             435.00,185.00 435.00,190.00 435.00,190.00
             435.00,190.00 445.00,190.00 445.00,190.00
             445.00,190.00 445.00,185.00 445.00,185.00
             445.00,185.00 450.00,185.00 450.00,185.00
             450.00,185.00 450.00,175.00 450.00,175.00
             450.00,175.00 445.00,175.00 445.00,175.00
             445.00,175.00 445.00,170.00 445.00,170.00
             445.00,170.00 435.00,170.00 435.00,170.00 Z" />
  <path id="Dragonspiral Tower"
        fill="none" stroke="black" stroke-width="1"
        d="M 325.00,145.00
           C 325.00,145.00 325.00,150.00 325.00,150.00
             325.00,150.00 320.00,150.00 320.00,150.00
             320.00,150.00 320.00,160.00 320.00,160.00
             320.00,160.00 325.00,160.00 325.00,160.00
             325.00,160.00 325.00,165.00 325.00,165.00
             325.00,165.00 335.00,165.00 335.00,165.00
             335.00,165.00 335.00,160.00 335.00,160.00
             335.00,160.00 340.00,160.00 340.00,160.00
             340.00,160.00 340.00,150.00 340.00,150.00
             340.00,150.00 335.00,150.00 335.00,150.00
             335.00,150.00 335.00,145.00 335.00,145.00
             335.00,145.00 325.00,145.00 325.00,145.00 Z" />
  <path id="Celestial Tower"
        fill="none" stroke="black" stroke-width="1"
        d="M 265.00,240.00
           C 265.00,240.00 265.00,245.00 265.00,245.00
             265.00,245.00 260.00,245.00 260.00,245.00
             260.00,245.00 260.00,255.00 260.00,255.00
             260.00,255.00 265.00,255.00 265.00,255.00
             265.00,255.00 265.00,260.00 265.00,260.00
             265.00,260.00 275.00,260.00 275.00,260.00
             275.00,260.00 275.00,255.00 275.00,255.00
             275.00,255.00 280.00,255.00 280.00,255.00
             280.00,255.00 280.00,245.00 280.00,245.00
             280.00,245.00 275.00,245.00 275.00,245.00
             275.00,245.00 275.00,240.00 275.00,240.00
             275.00,240.00 265.00,240.00 265.00,240.00 Z" />
  <path id="Anville Town"
        fill="none" stroke="black" stroke-width="1"
        d="M 30.00,140.00
           C 30.00,140.00 30.00,145.00 30.00,145.00
             30.00,145.00 25.00,145.00 25.00,145.00
             25.00,145.00 25.00,155.00 25.00,155.00
             25.00,155.00 30.00,155.00 30.00,155.00
             30.00,155.00 30.00,160.00 30.00,160.00
             30.00,160.00 40.00,160.00 40.00,160.00
             40.00,160.00 40.00,155.00 40.00,155.00
             40.00,155.00 45.00,155.00 45.00,155.00
             45.00,155.00 45.00,145.00 45.00,145.00
             45.00,145.00 40.00,145.00 40.00,145.00
             40.00,145.00 40.00,140.00 40.00,140.00
             40.00,140.00 30.00,140.00 30.00,140.00 Z" />
  <path id="Driftveil City"
        fill="none" stroke="black" stroke-width="1"
        d="M 360.00,435.00
           C 360.00,435.00 360.00,440.00 360.00,440.00
             360.00,440.00 355.00,440.00 355.00,440.00
             355.00,440.00 355.00,445.00 355.00,445.00
             355.00,445.00 350.00,445.00 350.00,445.00
             350.00,445.00 350.00,465.00 350.00,465.00
             350.00,465.00 355.00,465.00 355.00,465.00
             355.00,465.00 355.00,470.00 355.00,470.00
             355.00,470.00 360.00,470.00 360.00,470.00
             360.00,470.00 360.00,475.00 360.00,475.00
             360.00,475.00 380.00,475.00 380.00,475.00
             380.00,475.00 380.00,470.00 380.00,470.00
             380.00,470.00 385.00,470.00 385.00,470.00
             385.00,470.00 385.00,465.00 385.00,465.00
             385.00,465.00 390.00,465.00 390.00,465.00
             390.00,465.00 390.00,445.00 390.00,445.00
             390.00,445.00 385.00,445.00 385.00,445.00
             385.00,445.00 385.00,440.00 385.00,440.00
             385.00,440.00 380.00,440.00 380.00,440.00
             380.00,440.00 380.00,435.00 380.00,435.00
             380.00,435.00 360.00,435.00 360.00,435.00 Z" />
  <path id="Mistralton City"
        fill="none" stroke="black" stroke-width="1"
        d="M 190.00,315.00
           C 190.00,315.00 190.00,320.00 190.00,320.00
             190.00,320.00 185.00,320.00 185.00,320.00
             185.00,320.00 185.00,325.00 185.00,325.00
             185.00,325.00 180.00,325.00 180.00,325.00
             180.00,325.00 180.00,345.00 180.00,345.00
             180.00,345.00 185.00,345.00 185.00,345.00
             185.00,345.00 185.00,350.00 185.00,350.00
             185.00,350.00 190.00,350.00 190.00,350.00
             190.00,350.00 190.00,355.00 190.00,355.00
             190.00,355.00 210.00,355.00 210.00,355.00
             210.00,355.00 210.00,350.00 210.00,350.00
             210.00,350.00 215.00,350.00 215.00,350.00
             215.00,350.00 215.00,345.00 215.00,345.00
             215.00,345.00 220.00,345.00 220.00,345.00
             220.00,345.00 220.00,325.00 220.00,325.00
             220.00,325.00 215.00,325.00 215.00,325.00
             215.00,325.00 215.00,320.00 215.00,320.00
             215.00,320.00 210.00,320.00 210.00,320.00
             210.00,320.00 210.00,315.00 210.00,315.00
             210.00,315.00 190.00,315.00 190.00,315.00 Z" />
  <path id="Icirrus City"
        fill="none" stroke="black" stroke-width="1"
        d="M 360.00,195.00
           C 360.00,195.00 360.00,200.00 360.00,200.00
             360.00,200.00 355.00,200.00 355.00,200.00
             355.00,200.00 355.00,205.00 355.00,205.00
             355.00,205.00 350.00,205.00 350.00,205.00
             350.00,205.00 350.00,225.00 350.00,225.00
             350.00,225.00 355.00,225.00 355.00,225.00
             355.00,225.00 355.00,230.00 355.00,230.00
             355.00,230.00 360.00,230.00 360.00,230.00
             360.00,230.00 360.00,235.00 360.00,235.00
             360.00,235.00 380.00,235.00 380.00,235.00
             380.00,235.00 380.00,230.00 380.00,230.00
             380.00,230.00 385.00,230.00 385.00,230.00
             385.00,230.00 385.00,225.00 385.00,225.00
             385.00,225.00 390.00,225.00 390.00,225.00
             390.00,225.00 390.00,205.00 390.00,205.00
             390.00,205.00 385.00,205.00 385.00,205.00
             385.00,205.00 385.00,200.00 385.00,200.00
             385.00,200.00 380.00,200.00 380.00,200.00
             380.00,200.00 380.00,195.00 380.00,195.00
             380.00,195.00 360.00,195.00 360.00,195.00 Z" />
  <path id="Pokémon League"
        fill="none" stroke="black" stroke-width="1"
        d="M 840.00,55.00
           C 840.00,55.00 840.00,60.00 840.00,60.00
             840.00,60.00 835.00,60.00 835.00,60.00
             835.00,60.00 835.00,65.00 835.00,65.00
             835.00,65.00 830.00,65.00 830.00,65.00
             830.00,65.00 830.00,85.00 830.00,85.00
             830.00,85.00 835.00,85.00 835.00,85.00
             835.00,85.00 835.00,90.00 835.00,90.00
             835.00,90.00 840.00,90.00 840.00,90.00
             840.00,90.00 840.00,95.00 840.00,95.00
             840.00,95.00 860.00,95.00 860.00,95.00
             860.00,95.00 860.00,90.00 860.00,90.00
             860.00,90.00 865.00,90.00 865.00,90.00
             865.00,90.00 865.00,85.00 865.00,85.00
             865.00,85.00 870.00,85.00 870.00,85.00
             870.00,85.00 870.00,65.00 870.00,65.00
             870.00,65.00 865.00,65.00 865.00,65.00
             865.00,65.00 865.00,60.00 865.00,60.00
             865.00,60.00 860.00,60.00 860.00,60.00
             860.00,60.00 860.00,55.00 860.00,55.00
             860.00,55.00 840.00,55.00 840.00,55.00 Z" />
  <path id="Opelucid City"
        fill="none" stroke="black" stroke-width="1"
        d="M 650.00,195.00
           C 650.00,195.00 650.00,200.00 650.00,200.00
             650.00,200.00 645.00,200.00 645.00,200.00
             645.00,200.00 645.00,205.00 645.00,205.00
             645.00,205.00 640.00,205.00 640.00,205.00
             640.00,205.00 640.00,225.00 640.00,225.00
             640.00,225.00 645.00,225.00 645.00,225.00
             645.00,225.00 645.00,230.00 645.00,230.00
             645.00,230.00 650.00,230.00 650.00,230.00
             650.00,230.00 650.00,235.00 650.00,235.00
             650.00,235.00 670.00,235.00 670.00,235.00
             670.00,235.00 670.00,230.00 670.00,230.00
             670.00,230.00 675.00,230.00 675.00,230.00
             675.00,230.00 675.00,225.00 675.00,225.00
             675.00,225.00 680.00,225.00 680.00,225.00
             680.00,225.00 680.00,205.00 680.00,205.00
             680.00,205.00 675.00,205.00 675.00,205.00
             675.00,205.00 675.00,200.00 675.00,200.00
             675.00,200.00 670.00,200.00 670.00,200.00
             670.00,200.00 670.00,195.00 670.00,195.00
             670.00,195.00 650.00,195.00 650.00,195.00 Z" />
  <path id="Lacunosa Town"
        fill="none" stroke="black" stroke-width="1"
        d="M 940.00,195.00
           C 940.00,195.00 940.00,200.00 940.00,200.00
             940.00,200.00 935.00,200.00 935.00,200.00
             935.00,200.00 935.00,205.00 935.00,205.00
             935.00,205.00 930.00,205.00 930.00,205.00
             930.00,205.00 930.00,225.00 930.00,225.00
             930.00,225.00 935.00,225.00 935.00,225.00
             935.00,225.00 935.00,230.00 935.00,230.00
             935.00,230.00 940.00,230.00 940.00,230.00
             940.00,230.00 940.00,235.00 940.00,235.00
             940.00,235.00 960.00,235.00 960.00,235.00
             960.00,235.00 960.00,230.00 960.00,230.00
             960.00,230.00 965.00,230.00 965.00,230.00
             965.00,230.00 965.00,225.00 965.00,225.00
             965.00,225.00 970.00,225.00 970.00,225.00
             970.00,225.00 970.00,205.00 970.00,205.00
             970.00,205.00 965.00,205.00 965.00,205.00
             965.00,205.00 965.00,200.00 965.00,200.00
             965.00,200.00 960.00,200.00 960.00,200.00
             960.00,200.00 960.00,195.00 960.00,195.00
             960.00,195.00 940.00,195.00 940.00,195.00 Z" />
  <path id="Undella Town"
        fill="none" stroke="black" stroke-width="1"
        d="M 1110.00,315.00
           C 1110.00,315.00 1110.00,320.00 1110.00,320.00
             1110.00,320.00 1105.00,320.00 1105.00,320.00
             1105.00,320.00 1105.00,325.00 1105.00,325.00
             1105.00,325.00 1100.00,325.00 1100.00,325.00
             1100.00,325.00 1100.00,345.00 1100.00,345.00
             1100.00,345.00 1105.00,345.00 1105.00,345.00
             1105.00,345.00 1105.00,350.00 1105.00,350.00
             1105.00,350.00 1110.00,350.00 1110.00,350.00
             1110.00,350.00 1110.00,355.00 1110.00,355.00
             1110.00,355.00 1130.00,355.00 1130.00,355.00
             1130.00,355.00 1130.00,350.00 1130.00,350.00
             1130.00,350.00 1135.00,350.00 1135.00,350.00
             1135.00,350.00 1135.00,345.00 1135.00,345.00
             1135.00,345.00 1140.00,345.00 1140.00,345.00
             1140.00,345.00 1140.00,325.00 1140.00,325.00
             1140.00,325.00 1135.00,325.00 1135.00,325.00
             1135.00,325.00 1135.00,320.00 1135.00,320.00
             1135.00,320.00 1130.00,320.00 1130.00,320.00
             1130.00,320.00 1130.00,315.00 1130.00,315.00
             1130.00,315.00 1110.00,315.00 1110.00,315.00 Z" />
  <path id="Black City"
        fill="none" stroke="black" stroke-width="1"
        d="M 940.00,435.00
           C 940.00,435.00 940.00,440.00 940.00,440.00
             940.00,440.00 935.00,440.00 935.00,440.00
             935.00,440.00 935.00,445.00 935.00,445.00
             935.00,445.00 930.00,445.00 930.00,445.00
             930.00,445.00 930.00,465.00 930.00,465.00
             930.00,465.00 935.00,465.00 935.00,465.00
             935.00,465.00 935.00,470.00 935.00,470.00
             935.00,470.00 940.00,470.00 940.00,470.00
             940.00,470.00 940.00,475.00 940.00,475.00
             940.00,475.00 960.00,475.00 960.00,475.00
             960.00,475.00 960.00,470.00 960.00,470.00
             960.00,470.00 965.00,470.00 965.00,470.00
             965.00,470.00 965.00,465.00 965.00,465.00
             965.00,465.00 970.00,465.00 970.00,465.00
             970.00,465.00 970.00,445.00 970.00,445.00
             970.00,445.00 965.00,445.00 965.00,445.00
             965.00,445.00 965.00,440.00 965.00,440.00
             965.00,440.00 960.00,440.00 960.00,440.00
             960.00,440.00 960.00,435.00 960.00,435.00
             960.00,435.00 940.00,435.00 940.00,435.00 Z" />
  <path id="Nimbasa City"
        fill="none" stroke="black" stroke-width="1"
        d="M 650.00,435.00
           C 650.00,435.00 650.00,440.00 650.00,440.00
             650.00,440.00 645.00,440.00 645.00,440.00
             645.00,440.00 645.00,445.00 645.00,445.00
             645.00,445.00 640.00,445.00 640.00,445.00
             640.00,445.00 640.00,465.00 640.00,465.00
             640.00,465.00 645.00,465.00 645.00,465.00
             645.00,465.00 645.00,470.00 645.00,470.00
             645.00,470.00 650.00,470.00 650.00,470.00
             650.00,470.00 650.00,475.00 650.00,475.00
             650.00,475.00 670.00,475.00 670.00,475.00
             670.00,475.00 670.00,470.00 670.00,470.00
             670.00,470.00 675.00,470.00 675.00,470.00
             675.00,470.00 675.00,465.00 675.00,465.00
             675.00,465.00 680.00,465.00 680.00,465.00
             680.00,465.00 680.00,445.00 680.00,445.00
             680.00,445.00 675.00,445.00 675.00,445.00
             675.00,445.00 675.00,440.00 675.00,440.00
             675.00,440.00 670.00,440.00 670.00,440.00
             670.00,440.00 670.00,435.00 670.00,435.00
             670.00,435.00 650.00,435.00 650.00,435.00 Z" />
  <path id="Castelia City"
        fill="none" stroke="black" stroke-width="1"
        d="M 650.00,630.00
           C 650.00,630.00 650.00,635.00 650.00,635.00
             650.00,635.00 645.00,635.00 645.00,635.00
             645.00,635.00 645.00,640.00 645.00,640.00
             645.00,640.00 640.00,640.00 640.00,640.00
             640.00,640.00 640.00,660.00 640.00,660.00
             640.00,660.00 645.00,660.00 645.00,660.00
             645.00,660.00 645.00,665.00 645.00,665.00
             645.00,665.00 650.00,665.00 650.00,665.00
             650.00,665.00 650.00,670.00 650.00,670.00
             650.00,670.00 670.00,670.00 670.00,670.00
             670.00,670.00 670.00,665.00 670.00,665.00
             670.00,665.00 675.00,665.00 675.00,665.00
             675.00,665.00 675.00,660.00 675.00,660.00
             675.00,660.00 680.00,660.00 680.00,660.00
             680.00,660.00 680.00,640.00 680.00,640.00
             680.00,640.00 675.00,640.00 675.00,640.00
             675.00,640.00 675.00,635.00 675.00,635.00
             675.00,635.00 670.00,635.00 670.00,635.00
             670.00,635.00 670.00,630.00 670.00,630.00
             670.00,630.00 650.00,630.00 650.00,630.00 Z" />
  <path id="Nacrene City"
        fill="none" stroke="black" stroke-width="1"
        d="M 1005.00,570.00
           C 1005.00,570.00 1005.00,575.00 1005.00,575.00
             1005.00,575.00 1000.00,575.00 1000.00,575.00
             1000.00,575.00 1000.00,580.00 1000.00,580.00
             1000.00,580.00 995.00,580.00 995.00,580.00
             995.00,580.00 995.00,600.00 995.00,600.00
             995.00,600.00 1000.00,600.00 1000.00,600.00
             1000.00,600.00 1000.00,605.00 1000.00,605.00
             1000.00,605.00 1005.00,605.00 1005.00,605.00
             1005.00,605.00 1005.00,610.00 1005.00,610.00
             1005.00,610.00 1025.00,610.00 1025.00,610.00
             1025.00,610.00 1025.00,605.00 1025.00,605.00
             1025.00,605.00 1030.00,605.00 1030.00,605.00
             1030.00,605.00 1030.00,600.00 1030.00,600.00
             1030.00,600.00 1035.00,600.00 1035.00,600.00
             1035.00,600.00 1035.00,580.00 1035.00,580.00
             1035.00,580.00 1030.00,580.00 1030.00,580.00
             1030.00,580.00 1030.00,575.00 1030.00,575.00
             1030.00,575.00 1025.00,575.00 1025.00,575.00
             1025.00,575.00 1025.00,570.00 1025.00,570.00
             1025.00,570.00 1005.00,570.00 1005.00,570.00 Z" />
  <path id="Striaton City"
        fill="none" stroke="black" stroke-width="1"
        d="M 1130.00,570.00
           C 1130.00,570.00 1130.00,575.00 1130.00,575.00
             1130.00,575.00 1125.00,575.00 1125.00,575.00
             1125.00,575.00 1125.00,580.00 1125.00,580.00
             1125.00,580.00 1120.00,580.00 1120.00,580.00
             1120.00,580.00 1120.00,600.00 1120.00,600.00
             1120.00,600.00 1125.00,600.00 1125.00,600.00
             1125.00,600.00 1125.00,605.00 1125.00,605.00
             1125.00,605.00 1130.00,605.00 1130.00,605.00
             1130.00,605.00 1130.00,610.00 1130.00,610.00
             1130.00,610.00 1150.00,610.00 1150.00,610.00
             1150.00,610.00 1150.00,605.00 1150.00,605.00
             1150.00,605.00 1155.00,605.00 1155.00,605.00
             1155.00,605.00 1155.00,600.00 1155.00,600.00
             1155.00,600.00 1160.00,600.00 1160.00,600.00
             1160.00,600.00 1160.00,580.00 1160.00,580.00
             1160.00,580.00 1155.00,580.00 1155.00,580.00
             1155.00,580.00 1155.00,575.00 1155.00,575.00
             1155.00,575.00 1150.00,575.00 1150.00,575.00
             1150.00,575.00 1150.00,570.00 1150.00,570.00
             1150.00,570.00 1130.00,570.00 1130.00,570.00 Z" />
  <path id="Accumula Town"
        fill="none" stroke="black" stroke-width="1"
        d="M 1150.00,670.00
           C 1150.00,670.00 1150.00,675.00 1150.00,675.00
             1150.00,675.00 1145.00,675.00 1145.00,675.00
             1145.00,675.00 1145.00,680.00 1145.00,680.00
             1145.00,680.00 1140.00,680.00 1140.00,680.00
             1140.00,680.00 1140.00,700.00 1140.00,700.00
             1140.00,700.00 1145.00,700.00 1145.00,700.00
             1145.00,700.00 1145.00,705.00 1145.00,705.00
             1145.00,705.00 1150.00,705.00 1150.00,705.00
             1150.00,705.00 1150.00,710.00 1150.00,710.00
             1150.00,710.00 1170.00,710.00 1170.00,710.00
             1170.00,710.00 1170.00,705.00 1170.00,705.00
             1170.00,705.00 1175.00,705.00 1175.00,705.00
             1175.00,705.00 1175.00,700.00 1175.00,700.00
             1175.00,700.00 1180.00,700.00 1180.00,700.00
             1180.00,700.00 1180.00,680.00 1180.00,680.00
             1180.00,680.00 1175.00,680.00 1175.00,680.00
             1175.00,680.00 1175.00,675.00 1175.00,675.00
             1175.00,675.00 1170.00,675.00 1170.00,675.00
             1170.00,675.00 1170.00,670.00 1170.00,670.00
             1170.00,670.00 1150.00,670.00 1150.00,670.00 Z" />
  <path id="Nuvema Town"
        fill="none" stroke="black" stroke-width="1"
        d="M 1150.00,770.00
           C 1150.00,770.00 1150.00,775.00 1150.00,775.00
             1150.00,775.00 1145.00,775.00 1145.00,775.00
             1145.00,775.00 1145.00,780.00 1145.00,780.00
             1145.00,780.00 1140.00,780.00 1140.00,780.00
             1140.00,780.00 1140.00,800.00 1140.00,800.00
             1140.00,800.00 1145.00,800.00 1145.00,800.00
             1145.00,800.00 1145.00,805.00 1145.00,805.00
             1145.00,805.00 1150.00,805.00 1150.00,805.00
             1150.00,805.00 1150.00,810.00 1150.00,810.00
             1150.00,810.00 1170.00,810.00 1170.00,810.00
             1170.00,810.00 1170.00,805.00 1170.00,805.00
             1170.00,805.00 1175.00,805.00 1175.00,805.00
             1175.00,805.00 1175.00,800.00 1175.00,800.00
             1175.00,800.00 1180.00,800.00 1180.00,800.00
             1180.00,800.00 1180.00,780.00 1180.00,780.00
             1180.00,780.00 1175.00,780.00 1175.00,780.00
             1175.00,780.00 1175.00,775.00 1175.00,775.00
             1175.00,775.00 1170.00,775.00 1170.00,775.00
             1170.00,775.00 1170.00,770.00 1170.00,770.00
             1170.00,770.00 1150.00,770.00 1150.00,770.00 Z" />
  <path id="Marvelous Bridge"
        fill="none" stroke="black" stroke-width="1"
        d="M 755.00,440.00
           C 755.00,440.00 755.00,445.00 755.00,445.00
             755.00,445.00 750.00,445.00 750.00,445.00
             750.00,445.00 750.00,450.00 750.00,450.00
             750.00,450.00 755.00,450.00 755.00,450.00
             755.00,450.00 755.00,455.00 755.00,455.00
             755.00,455.00 760.00,455.00 760.00,455.00
             760.00,455.00 760.00,450.00 760.00,450.00
             760.00,450.00 840.00,450.00 840.00,450.00
             840.00,450.00 840.00,455.00 840.00,455.00
             840.00,455.00 845.00,455.00 845.00,455.00
             845.00,455.00 845.00,450.00 845.00,450.00
             845.00,450.00 850.00,450.00 850.00,450.00
             850.00,450.00 850.00,445.00 850.00,445.00
             850.00,445.00 845.00,445.00 845.00,445.00
             845.00,445.00 845.00,440.00 845.00,440.00
             845.00,440.00 755.00,440.00 755.00,440.00 Z" />
  <path id="Village Bridge"
        fill="none" stroke="black" stroke-width="1"
        d="M 755.00,200.00
           C 755.00,200.00 755.00,205.00 755.00,205.00
             755.00,205.00 750.00,205.00 750.00,205.00
             750.00,205.00 750.00,210.00 750.00,210.00
             750.00,210.00 755.00,210.00 755.00,210.00
             755.00,210.00 755.00,215.00 755.00,215.00
             755.00,215.00 760.00,215.00 760.00,215.00
             760.00,215.00 760.00,210.00 760.00,210.00
             760.00,210.00 840.00,210.00 840.00,210.00
             840.00,210.00 840.00,215.00 840.00,215.00
             840.00,215.00 845.00,215.00 845.00,215.00
             845.00,215.00 845.00,210.00 845.00,210.00
             845.00,210.00 850.00,210.00 850.00,210.00
             850.00,210.00 850.00,205.00 850.00,205.00
             850.00,205.00 845.00,205.00 845.00,205.00
             845.00,205.00 845.00,200.00 845.00,200.00
             845.00,200.00 755.00,200.00 755.00,200.00 Z" />
  <path id="Tubeline Bridge"
        fill="none" stroke="black" stroke-width="1"
        d="M 475.00,200.00
           C 475.00,200.00 475.00,205.00 475.00,205.00
             475.00,205.00 470.00,205.00 470.00,205.00
             470.00,205.00 470.00,210.00 470.00,210.00
             470.00,210.00 475.00,210.00 475.00,210.00
             475.00,210.00 475.00,215.00 475.00,215.00
             475.00,215.00 480.00,215.00 480.00,215.00
             480.00,215.00 480.00,210.00 480.00,210.00
             480.00,210.00 560.00,210.00 560.00,210.00
             560.00,210.00 560.00,215.00 560.00,215.00
             560.00,215.00 565.00,215.00 565.00,215.00
             565.00,215.00 565.00,210.00 565.00,210.00
             565.00,210.00 570.00,210.00 570.00,210.00
             570.00,210.00 570.00,205.00 570.00,205.00
             570.00,205.00 565.00,205.00 565.00,205.00
             565.00,205.00 565.00,200.00 565.00,200.00
             565.00,200.00 475.00,200.00 475.00,200.00 Z" />
  <path id="Driftveil Drawbridge"
        fill="none" stroke="black" stroke-width="1"
        d="M 475.00,440.00
           C 475.00,440.00 475.00,445.00 475.00,445.00
             475.00,445.00 470.00,445.00 470.00,445.00
             470.00,445.00 470.00,460.00 470.00,460.00
             470.00,460.00 475.00,460.00 475.00,460.00
             475.00,460.00 475.00,455.00 475.00,455.00
             475.00,455.00 480.00,455.00 480.00,455.00
             480.00,455.00 480.00,450.00 480.00,450.00
             480.00,450.00 560.00,450.00 560.00,450.00
             560.00,450.00 560.00,455.00 560.00,455.00
             560.00,455.00 565.00,455.00 565.00,455.00
             565.00,455.00 565.00,460.00 565.00,460.00
             565.00,460.00 570.00,460.00 570.00,460.00
             570.00,460.00 570.00,445.00 570.00,445.00
             570.00,445.00 565.00,445.00 565.00,445.00
             565.00,445.00 565.00,440.00 565.00,440.00
             565.00,440.00 475.00,440.00 475.00,440.00 Z" />
  <path id="Desert Resort"
        fill="none" stroke="black" stroke-width="1"
        d="M 590.00,515.00
           C 590.00,515.00 590.00,525.00 590.00,525.00
             590.00,525.00 655.00,525.00 655.00,525.00
             655.00,525.00 655.00,515.00 655.00,515.00
             655.00,515.00 590.00,515.00 590.00,515.00 Z" />
  <path id="Skyarrow Bridge"
        fill="none" stroke="black" stroke-width="1"
        d="M 835.00,595.00
           C 835.00,595.00 835.00,600.00 835.00,600.00
             835.00,600.00 810.00,600.00 810.00,600.00
             810.00,600.00 810.00,605.00 810.00,605.00
             810.00,605.00 785.00,605.00 785.00,605.00
             785.00,605.00 785.00,610.00 785.00,610.00
             785.00,610.00 765.00,610.00 765.00,610.00
             765.00,610.00 765.00,615.00 765.00,615.00
             765.00,615.00 740.00,615.00 740.00,615.00
             740.00,615.00 740.00,625.00 740.00,625.00
             740.00,625.00 735.00,625.00 735.00,625.00
             735.00,625.00 735.00,630.00 735.00,630.00
             735.00,630.00 740.00,630.00 740.00,630.00
             740.00,630.00 740.00,635.00 740.00,635.00
             740.00,635.00 745.00,635.00 745.00,635.00
             745.00,635.00 745.00,630.00 745.00,630.00
             745.00,630.00 750.00,630.00 750.00,630.00
             750.00,630.00 750.00,625.00 750.00,625.00
             750.00,625.00 775.00,625.00 775.00,625.00
             775.00,625.00 775.00,620.00 775.00,620.00
             775.00,620.00 805.00,620.00 805.00,620.00
             805.00,620.00 805.00,615.00 805.00,615.00
             805.00,615.00 820.00,615.00 820.00,615.00
             820.00,615.00 820.00,610.00 820.00,610.00
             820.00,610.00 850.00,610.00 850.00,610.00
             850.00,610.00 850.00,605.00 850.00,605.00
             850.00,605.00 860.00,605.00 860.00,605.00
             860.00,605.00 860.00,610.00 860.00,610.00
             860.00,610.00 865.00,610.00 865.00,610.00
             865.00,610.00 865.00,605.00 865.00,605.00
             865.00,605.00 870.00,605.00 870.00,605.00
             870.00,605.00 870.00,600.00 870.00,600.00
             870.00,600.00 865.00,600.00 865.00,600.00
             865.00,600.00 865.00,595.00 865.00,595.00
             865.00,595.00 835.00,595.00 835.00,595.00 Z" />
  <path id="Victory Road"
        fill="none" stroke="black" stroke-width="1"
        d="M 805.00,110.00
           C 805.00,110.00 805.00,130.00 805.00,130.00
             805.00,130.00 825.00,130.00 825.00,130.00
             825.00,130.00 825.00,110.00 825.00,110.00
             825.00,110.00 805.00,110.00 805.00,110.00 Z" />
  <path id="Unity Tower"
        fill="none" stroke="black" stroke-width="1"
        d="M 485.00,775.00
           C 485.00,775.00 485.00,795.00 485.00,795.00
             485.00,795.00 505.00,795.00 505.00,795.00
             505.00,795.00 505.00,775.00 505.00,775.00
             505.00,775.00 485.00,775.00 485.00,775.00 Z" />
  <path id="Route 17"
        fill="none" stroke="black" stroke-width="1"
        d="M 1070.00,785.00
           C 1070.00,785.00 1070.00,795.00 1070.00,795.00
             1070.00,795.00 1130.00,795.00 1130.00,795.00
             1130.00,795.00 1130.00,785.00 1130.00,785.00
             1130.00,785.00 1070.00,785.00 1070.00,785.00 Z" />
  <path id="Route 18"
        fill="none" stroke="black" stroke-width="1"
        d="M 1010.00,785.00
           C 1010.00,785.00 1010.00,795.00 1010.00,795.00
             1010.00,795.00 1070.00,795.00 1070.00,795.00
             1070.00,795.00 1070.00,785.00 1070.00,785.00
             1070.00,785.00 1010.00,785.00 1010.00,785.00 Z" />
  <path id="Route 16"
        fill="none" stroke="black" stroke-width="1"
        d="M 690.00,450.00
           C 690.00,450.00 690.00,460.00 690.00,460.00
             690.00,460.00 755.00,460.00 755.00,460.00
             755.00,460.00 755.00,450.00 755.00,450.00
             755.00,450.00 690.00,450.00 690.00,450.00 Z" />
  <path id="Route 15"
        fill="none" stroke="black" stroke-width="1"
        d="M 845.00,450.00
           C 845.00,450.00 845.00,460.00 845.00,460.00
             845.00,460.00 920.00,460.00 920.00,460.00
             920.00,460.00 920.00,450.00 920.00,450.00
             920.00,450.00 845.00,450.00 845.00,450.00 Z" />
  <path id="Route 14"
        fill="none" stroke="black" stroke-width="1"
        d="M 1085.00,350.00
           C 1085.00,350.00 1085.00,355.00 1085.00,355.00
             1085.00,355.00 1075.00,355.00 1075.00,355.00
             1075.00,355.00 1075.00,360.00 1075.00,360.00
             1075.00,360.00 1070.00,360.00 1070.00,360.00
             1070.00,360.00 1070.00,365.00 1070.00,365.00
             1070.00,365.00 1060.00,365.00 1060.00,365.00
             1060.00,365.00 1060.00,370.00 1060.00,370.00
             1060.00,370.00 1055.00,370.00 1055.00,370.00
             1055.00,370.00 1055.00,375.00 1055.00,375.00
             1055.00,375.00 1050.00,375.00 1050.00,375.00
             1050.00,375.00 1050.00,380.00 1050.00,380.00
             1050.00,380.00 1040.00,380.00 1040.00,380.00
             1040.00,380.00 1040.00,385.00 1040.00,385.00
             1040.00,385.00 1035.00,385.00 1035.00,385.00
             1035.00,385.00 1035.00,390.00 1035.00,390.00
             1035.00,390.00 1025.00,390.00 1025.00,390.00
             1025.00,390.00 1025.00,395.00 1025.00,395.00
             1025.00,395.00 1020.00,395.00 1020.00,395.00
             1020.00,395.00 1020.00,400.00 1020.00,400.00
             1020.00,400.00 1015.00,400.00 1015.00,400.00
             1015.00,400.00 1015.00,405.00 1015.00,405.00
             1015.00,405.00 1005.00,405.00 1005.00,405.00
             1005.00,405.00 1005.00,410.00 1005.00,410.00
             1005.00,410.00 1000.00,410.00 1000.00,410.00
             1000.00,410.00 1000.00,415.00 1000.00,415.00
             1000.00,415.00 990.00,415.00 990.00,415.00
             990.00,415.00 990.00,420.00 990.00,420.00
             990.00,420.00 985.00,420.00 985.00,420.00
             985.00,420.00 985.00,425.00 985.00,425.00
             985.00,425.00 975.00,425.00 975.00,425.00
             975.00,425.00 975.00,430.00 975.00,430.00
             975.00,430.00 970.00,430.00 970.00,430.00
             970.00,430.00 970.00,435.00 970.00,435.00
             970.00,435.00 975.00,435.00 975.00,435.00
             975.00,435.00 975.00,440.00 975.00,440.00
             975.00,440.00 985.00,440.00 985.00,440.00
             985.00,440.00 985.00,435.00 985.00,435.00
             985.00,435.00 990.00,435.00 990.00,435.00
             990.00,435.00 990.00,430.00 990.00,430.00
             990.00,430.00 1000.00,430.00 1000.00,430.00
             1000.00,430.00 1000.00,425.00 1000.00,425.00
             1000.00,425.00 1005.00,425.00 1005.00,425.00
             1005.00,425.00 1005.00,420.00 1005.00,420.00
             1005.00,420.00 1015.00,420.00 1015.00,420.00
             1015.00,420.00 1015.00,415.00 1015.00,415.00
             1015.00,415.00 1020.00,415.00 1020.00,415.00
             1020.00,415.00 1020.00,410.00 1020.00,410.00
             1020.00,410.00 1025.00,410.00 1025.00,410.00
             1025.00,410.00 1025.00,405.00 1025.00,405.00
             1025.00,405.00 1035.00,405.00 1035.00,405.00
             1035.00,405.00 1035.00,400.00 1035.00,400.00
             1035.00,400.00 1040.00,400.00 1040.00,400.00
             1040.00,400.00 1040.00,395.00 1040.00,395.00
             1040.00,395.00 1050.00,395.00 1050.00,395.00
             1050.00,395.00 1050.00,390.00 1050.00,390.00
             1050.00,390.00 1055.00,390.00 1055.00,390.00
             1055.00,390.00 1055.00,385.00 1055.00,385.00
             1055.00,385.00 1060.00,385.00 1060.00,385.00
             1060.00,385.00 1060.00,380.00 1060.00,380.00
             1060.00,380.00 1070.00,380.00 1070.00,380.00
             1070.00,380.00 1070.00,375.00 1070.00,375.00
             1070.00,375.00 1075.00,375.00 1075.00,375.00
             1075.00,375.00 1075.00,370.00 1075.00,370.00
             1075.00,370.00 1085.00,370.00 1085.00,370.00
             1085.00,370.00 1085.00,365.00 1085.00,365.00
             1085.00,365.00 1090.00,365.00 1090.00,365.00
             1090.00,365.00 1090.00,360.00 1090.00,360.00
             1090.00,360.00 1100.00,360.00 1100.00,360.00
             1100.00,360.00 1100.00,355.00 1100.00,355.00
             1100.00,355.00 1095.00,355.00 1095.00,355.00
             1095.00,355.00 1095.00,350.00 1095.00,350.00
             1095.00,350.00 1085.00,350.00 1085.00,350.00 Z" />
  <path id="Route 13"
        fill="none" stroke="black" stroke-width="1"
        d="M 975.00,230.00
           C 975.00,230.00 975.00,235.00 975.00,235.00
             975.00,235.00 970.00,235.00 970.00,235.00
             970.00,235.00 970.00,240.00 970.00,240.00
             970.00,240.00 980.00,240.00 980.00,240.00
             980.00,240.00 980.00,245.00 980.00,245.00
             980.00,245.00 985.00,245.00 985.00,245.00
             985.00,245.00 985.00,250.00 985.00,250.00
             985.00,250.00 995.00,250.00 995.00,250.00
             995.00,250.00 995.00,255.00 995.00,255.00
             995.00,255.00 1000.00,255.00 1000.00,255.00
             1000.00,255.00 1000.00,260.00 1000.00,260.00
             1000.00,260.00 1010.00,260.00 1010.00,260.00
             1010.00,260.00 1010.00,265.00 1010.00,265.00
             1010.00,265.00 1015.00,265.00 1015.00,265.00
             1015.00,265.00 1015.00,270.00 1015.00,270.00
             1015.00,270.00 1020.00,270.00 1020.00,270.00
             1020.00,270.00 1020.00,275.00 1020.00,275.00
             1020.00,275.00 1030.00,275.00 1030.00,275.00
             1030.00,275.00 1030.00,280.00 1030.00,280.00
             1030.00,280.00 1035.00,280.00 1035.00,280.00
             1035.00,280.00 1035.00,285.00 1035.00,285.00
             1035.00,285.00 1045.00,285.00 1045.00,285.00
             1045.00,285.00 1045.00,290.00 1045.00,290.00
             1045.00,290.00 1050.00,290.00 1050.00,290.00
             1050.00,290.00 1050.00,295.00 1050.00,295.00
             1050.00,295.00 1055.00,295.00 1055.00,295.00
             1055.00,295.00 1055.00,300.00 1055.00,300.00
             1055.00,300.00 1065.00,300.00 1065.00,300.00
             1065.00,300.00 1065.00,305.00 1065.00,305.00
             1065.00,305.00 1070.00,305.00 1070.00,305.00
             1070.00,305.00 1070.00,310.00 1070.00,310.00
             1070.00,310.00 1080.00,310.00 1080.00,310.00
             1080.00,310.00 1080.00,315.00 1080.00,315.00
             1080.00,315.00 1085.00,315.00 1085.00,315.00
             1085.00,315.00 1085.00,320.00 1085.00,320.00
             1085.00,320.00 1095.00,320.00 1095.00,320.00
             1095.00,320.00 1095.00,315.00 1095.00,315.00
             1095.00,315.00 1100.00,315.00 1100.00,315.00
             1100.00,315.00 1100.00,310.00 1100.00,310.00
             1100.00,310.00 1095.00,310.00 1095.00,310.00
             1095.00,310.00 1095.00,305.00 1095.00,305.00
             1095.00,305.00 1085.00,305.00 1085.00,305.00
             1085.00,305.00 1085.00,300.00 1085.00,300.00
             1085.00,300.00 1080.00,300.00 1080.00,300.00
             1080.00,300.00 1080.00,295.00 1080.00,295.00
             1080.00,295.00 1070.00,295.00 1070.00,295.00
             1070.00,295.00 1070.00,290.00 1070.00,290.00
             1070.00,290.00 1065.00,290.00 1065.00,290.00
             1065.00,290.00 1065.00,285.00 1065.00,285.00
             1065.00,285.00 1055.00,285.00 1055.00,285.00
             1055.00,285.00 1055.00,280.00 1055.00,280.00
             1055.00,280.00 1050.00,280.00 1050.00,280.00
             1050.00,280.00 1050.00,275.00 1050.00,275.00
             1050.00,275.00 1045.00,275.00 1045.00,275.00
             1045.00,275.00 1045.00,270.00 1045.00,270.00
             1045.00,270.00 1035.00,270.00 1035.00,270.00
             1035.00,270.00 1035.00,265.00 1035.00,265.00
             1035.00,265.00 1030.00,265.00 1030.00,265.00
             1030.00,265.00 1030.00,260.00 1030.00,260.00
             1030.00,260.00 1020.00,260.00 1020.00,260.00
             1020.00,260.00 1020.00,255.00 1020.00,255.00
             1020.00,255.00 1015.00,255.00 1015.00,255.00
             1015.00,255.00 1015.00,250.00 1015.00,250.00
             1015.00,250.00 1010.00,250.00 1010.00,250.00
             1010.00,250.00 1010.00,245.00 1010.00,245.00
             1010.00,245.00 1000.00,245.00 1000.00,245.00
             1000.00,245.00 1000.00,240.00 1000.00,240.00
             1000.00,240.00 995.00,240.00 995.00,240.00
             995.00,240.00 995.00,235.00 995.00,235.00
             995.00,235.00 985.00,235.00 985.00,235.00
             985.00,235.00 985.00,230.00 985.00,230.00
             985.00,230.00 975.00,230.00 975.00,230.00 Z" />
  <path id="Route 12"
        fill="none" stroke="black" stroke-width="1"
        d="M 845.00,210.00
           C 845.00,210.00 845.00,220.00 845.00,220.00
             845.00,220.00 920.00,220.00 920.00,220.00
             920.00,220.00 920.00,210.00 920.00,210.00
             920.00,210.00 845.00,210.00 845.00,210.00 Z" />
  <path id="Route 11"
        fill="none" stroke="black" stroke-width="1"
        d="M 690.00,210.00
           C 690.00,210.00 690.00,220.00 690.00,220.00
             690.00,220.00 755.00,220.00 755.00,220.00
             755.00,220.00 755.00,210.00 755.00,210.00
             755.00,210.00 690.00,210.00 690.00,210.00 Z" />
  <path id="Route 10"
        fill="none" stroke="black" stroke-width="1"
        d="M 795.00,135.00
           C 795.00,135.00 795.00,140.00 795.00,140.00
             795.00,140.00 790.00,140.00 790.00,140.00
             790.00,140.00 790.00,145.00 790.00,145.00
             790.00,145.00 785.00,145.00 785.00,145.00
             785.00,145.00 785.00,150.00 785.00,150.00
             785.00,150.00 675.00,150.00 675.00,150.00
             675.00,150.00 675.00,155.00 675.00,155.00
             675.00,155.00 670.00,155.00 670.00,155.00
             670.00,155.00 670.00,170.00 670.00,170.00
             670.00,170.00 665.00,170.00 665.00,170.00
             665.00,170.00 665.00,185.00 665.00,185.00
             665.00,185.00 675.00,185.00 675.00,185.00
             675.00,185.00 675.00,180.00 675.00,180.00
             675.00,180.00 680.00,180.00 680.00,180.00
             680.00,180.00 680.00,165.00 680.00,165.00
             680.00,165.00 685.00,165.00 685.00,165.00
             685.00,165.00 685.00,160.00 685.00,160.00
             685.00,160.00 790.00,160.00 790.00,160.00
             790.00,160.00 790.00,155.00 790.00,155.00
             790.00,155.00 795.00,155.00 795.00,155.00
             795.00,155.00 795.00,150.00 795.00,150.00
             795.00,150.00 800.00,150.00 800.00,150.00
             800.00,150.00 800.00,145.00 800.00,145.00
             800.00,145.00 805.00,145.00 805.00,145.00
             805.00,145.00 805.00,140.00 805.00,140.00
             805.00,140.00 800.00,140.00 800.00,140.00
             800.00,140.00 800.00,135.00 800.00,135.00
             800.00,135.00 795.00,135.00 795.00,135.00 Z" />
  <path id="Route 9"
        fill="none" stroke="black" stroke-width="1"
        d="M 565.00,210.00
           C 565.00,210.00 565.00,220.00 565.00,220.00
             565.00,220.00 630.00,220.00 630.00,220.00
             630.00,220.00 630.00,210.00 630.00,210.00
             630.00,210.00 565.00,210.00 565.00,210.00 Z" />
  <path id="Route 8"
        fill="none" stroke="black" stroke-width="1"
        d="M 400.00,210.00
           C 400.00,210.00 400.00,220.00 400.00,220.00
             400.00,220.00 475.00,220.00 475.00,220.00
             475.00,220.00 475.00,210.00 475.00,210.00
             475.00,210.00 400.00,210.00 400.00,210.00 Z" />
  <path id="Route 7"
        fill="none" stroke="black" stroke-width="1"
        d="M 335.00,230.00
           C 335.00,230.00 335.00,235.00 335.00,235.00
             335.00,235.00 325.00,235.00 325.00,235.00
             325.00,235.00 325.00,240.00 325.00,240.00
             325.00,240.00 320.00,240.00 320.00,240.00
             320.00,240.00 320.00,245.00 320.00,245.00
             320.00,245.00 310.00,245.00 310.00,245.00
             310.00,245.00 310.00,250.00 310.00,250.00
             310.00,250.00 305.00,250.00 305.00,250.00
             305.00,250.00 305.00,255.00 305.00,255.00
             305.00,255.00 300.00,255.00 300.00,255.00
             300.00,255.00 300.00,260.00 300.00,260.00
             300.00,260.00 290.00,260.00 290.00,260.00
             290.00,260.00 290.00,265.00 290.00,265.00
             290.00,265.00 285.00,265.00 285.00,265.00
             285.00,265.00 285.00,270.00 285.00,270.00
             285.00,270.00 280.00,270.00 280.00,270.00
             280.00,270.00 280.00,275.00 280.00,275.00
             280.00,275.00 265.00,275.00 265.00,275.00
             265.00,275.00 265.00,285.00 265.00,285.00
             265.00,285.00 255.00,285.00 255.00,285.00
             255.00,285.00 255.00,290.00 255.00,290.00
             255.00,290.00 250.00,290.00 250.00,290.00
             250.00,290.00 250.00,295.00 250.00,295.00
             250.00,295.00 240.00,295.00 240.00,295.00
             240.00,295.00 240.00,300.00 240.00,300.00
             240.00,300.00 235.00,300.00 235.00,300.00
             235.00,300.00 235.00,305.00 235.00,305.00
             235.00,305.00 225.00,305.00 225.00,305.00
             225.00,305.00 225.00,310.00 225.00,310.00
             225.00,310.00 220.00,310.00 220.00,310.00
             220.00,310.00 220.00,315.00 220.00,315.00
             220.00,315.00 225.00,315.00 225.00,315.00
             225.00,315.00 225.00,320.00 225.00,320.00
             225.00,320.00 235.00,320.00 235.00,320.00
             235.00,320.00 235.00,315.00 235.00,315.00
             235.00,315.00 240.00,315.00 240.00,315.00
             240.00,315.00 240.00,310.00 240.00,310.00
             240.00,310.00 250.00,310.00 250.00,310.00
             250.00,310.00 250.00,305.00 250.00,305.00
             250.00,305.00 255.00,305.00 255.00,305.00
             255.00,305.00 255.00,300.00 255.00,300.00
             255.00,300.00 265.00,300.00 265.00,300.00
             265.00,300.00 265.00,295.00 265.00,295.00
             265.00,295.00 270.00,295.00 270.00,295.00
             270.00,295.00 270.00,290.00 270.00,290.00
             270.00,290.00 275.00,290.00 275.00,290.00
             275.00,290.00 275.00,285.00 275.00,285.00
             275.00,285.00 285.00,285.00 285.00,285.00
             285.00,285.00 285.00,280.00 285.00,280.00
             285.00,280.00 290.00,280.00 290.00,280.00
             290.00,280.00 290.00,275.00 290.00,275.00
             290.00,275.00 300.00,275.00 300.00,275.00
             300.00,275.00 300.00,270.00 300.00,270.00
             300.00,270.00 305.00,270.00 305.00,270.00
             305.00,270.00 305.00,265.00 305.00,265.00
             305.00,265.00 310.00,265.00 310.00,265.00
             310.00,265.00 310.00,260.00 310.00,260.00
             310.00,260.00 320.00,260.00 320.00,260.00
             320.00,260.00 320.00,255.00 320.00,255.00
             320.00,255.00 325.00,255.00 325.00,255.00
             325.00,255.00 325.00,250.00 325.00,250.00
             325.00,250.00 335.00,250.00 335.00,250.00
             335.00,250.00 335.00,245.00 335.00,245.00
             335.00,245.00 340.00,245.00 340.00,245.00
             340.00,245.00 340.00,240.00 340.00,240.00
             340.00,240.00 350.00,240.00 350.00,240.00
             350.00,240.00 350.00,235.00 350.00,235.00
             350.00,235.00 345.00,235.00 345.00,235.00
             345.00,235.00 345.00,230.00 345.00,230.00
             345.00,230.00 335.00,230.00 335.00,230.00 Z" />
  <path id="Route 6"
        fill="none" stroke="black" stroke-width="1"
        d="M 225.00,350.00
           C 225.00,350.00 225.00,355.00 225.00,355.00
             225.00,355.00 220.00,355.00 220.00,355.00
             220.00,355.00 220.00,360.00 220.00,360.00
             220.00,360.00 230.00,360.00 230.00,360.00
             230.00,360.00 230.00,365.00 230.00,365.00
             230.00,365.00 235.00,365.00 235.00,365.00
             235.00,365.00 235.00,370.00 235.00,370.00
             235.00,370.00 245.00,370.00 245.00,370.00
             245.00,370.00 245.00,375.00 245.00,375.00
             245.00,375.00 250.00,375.00 250.00,375.00
             250.00,375.00 250.00,380.00 250.00,380.00
             250.00,380.00 260.00,380.00 260.00,380.00
             260.00,380.00 260.00,385.00 260.00,385.00
             260.00,385.00 265.00,385.00 265.00,385.00
             265.00,385.00 265.00,390.00 265.00,390.00
             265.00,390.00 270.00,390.00 270.00,390.00
             270.00,390.00 270.00,395.00 270.00,395.00
             270.00,395.00 280.00,395.00 280.00,395.00
             280.00,395.00 280.00,400.00 280.00,400.00
             280.00,400.00 285.00,400.00 285.00,400.00
             285.00,400.00 285.00,405.00 285.00,405.00
             285.00,405.00 295.00,405.00 295.00,405.00
             295.00,405.00 295.00,410.00 295.00,410.00
             295.00,410.00 300.00,410.00 300.00,410.00
             300.00,410.00 300.00,415.00 300.00,415.00
             300.00,415.00 305.00,415.00 305.00,415.00
             305.00,415.00 305.00,420.00 305.00,420.00
             305.00,420.00 315.00,420.00 315.00,420.00
             315.00,420.00 315.00,425.00 315.00,425.00
             315.00,425.00 320.00,425.00 320.00,425.00
             320.00,425.00 320.00,430.00 320.00,430.00
             320.00,430.00 330.00,430.00 330.00,430.00
             330.00,430.00 330.00,435.00 330.00,435.00
             330.00,435.00 335.00,435.00 335.00,435.00
             335.00,435.00 335.00,440.00 335.00,440.00
             335.00,440.00 345.00,440.00 345.00,440.00
             345.00,440.00 345.00,435.00 345.00,435.00
             345.00,435.00 350.00,435.00 350.00,435.00
             350.00,435.00 350.00,430.00 350.00,430.00
             350.00,430.00 345.00,430.00 345.00,430.00
             345.00,430.00 345.00,425.00 345.00,425.00
             345.00,425.00 335.00,425.00 335.00,425.00
             335.00,425.00 335.00,420.00 335.00,420.00
             335.00,420.00 330.00,420.00 330.00,420.00
             330.00,420.00 330.00,415.00 330.00,415.00
             330.00,415.00 320.00,415.00 320.00,415.00
             320.00,415.00 320.00,410.00 320.00,410.00
             320.00,410.00 315.00,410.00 315.00,410.00
             315.00,410.00 315.00,405.00 315.00,405.00
             315.00,405.00 305.00,405.00 305.00,405.00
             305.00,405.00 305.00,400.00 305.00,400.00
             305.00,400.00 300.00,400.00 300.00,400.00
             300.00,400.00 300.00,395.00 300.00,395.00
             300.00,395.00 295.00,395.00 295.00,395.00
             295.00,395.00 295.00,390.00 295.00,390.00
             295.00,390.00 285.00,390.00 285.00,390.00
             285.00,390.00 285.00,385.00 285.00,385.00
             285.00,385.00 280.00,385.00 280.00,385.00
             280.00,385.00 280.00,380.00 280.00,380.00
             280.00,380.00 270.00,380.00 270.00,380.00
             270.00,380.00 270.00,375.00 270.00,375.00
             270.00,375.00 265.00,375.00 265.00,375.00
             265.00,375.00 265.00,370.00 265.00,370.00
             265.00,370.00 260.00,370.00 260.00,370.00
             260.00,370.00 260.00,365.00 260.00,365.00
             260.00,365.00 250.00,365.00 250.00,365.00
             250.00,365.00 250.00,360.00 250.00,360.00
             250.00,360.00 245.00,360.00 245.00,360.00
             245.00,360.00 245.00,355.00 245.00,355.00
             245.00,355.00 235.00,355.00 235.00,355.00
             235.00,355.00 235.00,350.00 235.00,350.00
             235.00,350.00 225.00,350.00 225.00,350.00 Z" />
  <path id="Route 5"
        fill="none" stroke="black" stroke-width="1"
        d="M 570.00,450.00
           C 570.00,450.00 570.00,460.00 570.00,460.00
             570.00,460.00 630.00,460.00 630.00,460.00
             630.00,460.00 630.00,450.00 630.00,450.00
             630.00,450.00 570.00,450.00 570.00,450.00 Z" />
  <path id="Route 4"
        fill="none" stroke="black" stroke-width="1"
        d="M 655.00,485.00
           C 655.00,485.00 655.00,620.00 655.00,620.00
             655.00,620.00 665.00,620.00 665.00,620.00
             665.00,620.00 665.00,485.00 665.00,485.00
             665.00,485.00 655.00,485.00 655.00,485.00 Z" />
  <path id="Route 3"
        fill="none" stroke="black" stroke-width="1"
        d="M 1045.00,585.00
           C 1045.00,585.00 1045.00,595.00 1045.00,595.00
             1045.00,595.00 1110.00,595.00 1110.00,595.00
             1110.00,595.00 1110.00,585.00 1110.00,585.00
             1110.00,585.00 1045.00,585.00 1045.00,585.00 Z" />
  <path id="Route 2"
        fill="none" stroke="black" stroke-width="1"
        d="M 1145.00,620.00
           C 1145.00,620.00 1145.00,645.00 1145.00,645.00
             1145.00,645.00 1150.00,645.00 1150.00,645.00
             1150.00,645.00 1150.00,660.00 1150.00,660.00
             1150.00,660.00 1160.00,660.00 1160.00,660.00
             1160.00,660.00 1160.00,630.00 1160.00,630.00
             1160.00,630.00 1155.00,630.00 1155.00,630.00
             1155.00,630.00 1155.00,620.00 1155.00,620.00
             1155.00,620.00 1145.00,620.00 1145.00,620.00 Z" />
  <path id="Route 1"
        fill="none" stroke="black" stroke-width="1"
        d="M 1155.00,720.00
           C 1155.00,720.00 1155.00,760.00 1155.00,760.00
             1155.00,760.00 1165.00,760.00 1165.00,760.00
             1165.00,760.00 1165.00,720.00 1165.00,720.00
             1165.00,720.00 1155.00,720.00 1155.00,720.00 Z" />
</svg>
